ISO-10303-21;
HEADER;
FILE_DESCRIPTION (( 'STEP AP214' ),
    '1' );
FILE_NAME ('GRIP.STEP',
    '2026-09-14T01:27:30',
    ( '' ),
    ( '' ),
    'SwSTEP 2.0',
    'SolidWorks 2025',
    '' );
FILE_SCHEMA (( 'AUTOMOTIVE_DESIGN' ));
ENDSEC;

DATA;
#1 = ORIENTED_EDGE ( 'NONE', *, *, #74, .T. ) ;
#2 = CARTESIAN_POINT ( 'NONE',  ( 2.000000000000000000, 79.29999999999999716, -2.899999999999998579 ) ) ;
#3 = CARTESIAN_POINT ( 'NONE',  ( -10.00000000000000000, 1.000000000000000888, -6.849999999999999645 ) ) ;
#4 = DIRECTION ( 'NONE',  ( 7.477256361968996479E-17, 0.000000000000000000, 1.000000000000000000 ) ) ;
#5 = DIRECTION ( 'NONE',  ( 0.000000000000000000, 0.000000000000000000, 1.000000000000000000 ) ) ;
#6 = ORIENTED_EDGE ( 'NONE', *, *, #224, .F. ) ;
#7 = LINE ( 'NONE', #719, #1172 ) ;
#8 = UNCERTAINTY_MEASURE_WITH_UNIT (LENGTH_MEASURE( 1.000000000000000082E-05 ), #407, 'distance_accuracy_value', 'NONE');
#9 = EDGE_CURVE ( 'NONE', #91, #502, #87, .T. ) ;
#10 = CARTESIAN_POINT ( 'NONE',  ( 2.000000000000000000, 80.29999999999999716, -2.899999999999998579 ) ) ;
#11 = CARTESIAN_POINT ( 'NONE',  ( 2.000000000000000444, 80.29999999999999716, 2.900000000000001243 ) ) ;
#12 = TOROIDAL_SURFACE ( 'NONE', #1023, 5.000000000000000000, 1.000000000000000000 ) ;
#13 = AXIS2_PLACEMENT_3D ( 'NONE', #513, #346, #1077 ) ;
#14 = DIRECTION ( 'NONE',  ( 0.000000000000000000, -1.000000000000000000, 0.000000000000000000 ) ) ;
#15 = ORIENTED_EDGE ( 'NONE', *, *, #1081, .F. ) ;
#16 = CARTESIAN_POINT ( 'NONE',  ( 0.000000000000000000, 15.00000000000000000, 0.000000000000000000 ) ) ;
#17 = CARTESIAN_POINT ( 'NONE',  ( 4.898587196589412829E-16, 15.00000000000000000, 4.000000000000000000 ) ) ;
#18 = CARTESIAN_POINT ( 'NONE',  ( -9.000000000000001776, 0.000000000000000000, -0.8499999999999992006 ) ) ;
#19 = EDGE_LOOP ( 'NONE', ( #732, #184, #812, #115, #1163, #715, #384, #867, #522 ) ) ;
#20 = CARTESIAN_POINT ( 'NONE',  ( 2.000000000000000000, 80.29999999999999716, -2.899999999999998579 ) ) ;
#21 = ADVANCED_FACE ( 'NONE', ( #646 ), #834, .F. ) ;
#22 = ORIENTED_EDGE ( 'NONE', *, *, #224, .T. ) ;
#23 = LINE ( 'NONE', #10, #968 ) ;
#24 = DIRECTION ( 'NONE',  ( -0.000000000000000000, 1.000000000000000000, 0.000000000000000000 ) ) ;
#25 = EDGE_CURVE ( 'NONE', #64, #953, #633, .T. ) ;
#26 = ORIENTED_EDGE ( 'NONE', *, *, #408, .F. ) ;
#27 = DIRECTION ( 'NONE',  ( -0.000000000000000000, -1.000000000000000000, -0.000000000000000000 ) ) ;
#28 = ORIENTED_EDGE ( 'NONE', *, *, #1106, .F. ) ;
#29 = CARTESIAN_POINT ( 'NONE',  ( 2.000000000000000000, 80.29999999999999716, -2.899999999999998579 ) ) ;
#30 = ORIENTED_EDGE ( 'NONE', *, *, #670, .T. ) ;
#31 = VECTOR ( 'NONE', #250, 1000.000000000000000 ) ;
#32 = ADVANCED_FACE ( 'NONE', ( #380 ), #478, .T. ) ;
#33 = CARTESIAN_POINT ( 'NONE',  ( 10.00000000000000000, 79.29999999999999716, -6.849999999999999645 ) ) ;
#34 = ORIENTED_EDGE ( 'NONE', *, *, #333, .T. ) ;
#35 = CARTESIAN_POINT ( 'NONE',  ( -2.000000000000000000, 80.29999999999999716, -2.899999999999998579 ) ) ;
#36 = APPLICATION_CONTEXT ( 'automotive_design' ) ;
#37 = EDGE_CURVE ( 'NONE', #838, #75, #23, .T. ) ;
#38 = DIRECTION ( 'NONE',  ( -0.000000000000000000, 1.000000000000000000, -0.000000000000000000 ) ) ;
#39 = ORIENTED_EDGE ( 'NONE', *, *, #848, .F. ) ;
#40 = LINE ( 'NONE', #954, #674 ) ;
#41 = ADVANCED_FACE ( 'NONE', ( #1086 ), #554, .T. ) ;
#42 = DIRECTION ( 'NONE',  ( -0.000000000000000000, 1.000000000000000000, 0.000000000000000000 ) ) ;
#43 = DIRECTION ( 'NONE',  ( -0.000000000000000000, 1.000000000000000000, 0.000000000000000000 ) ) ;
#44 = AXIS2_PLACEMENT_3D ( 'NONE', #212, #377, #936 ) ;
#45 = VERTEX_POINT ( 'NONE', #1004 ) ;
#46 = FACE_OUTER_BOUND ( 'NONE', #703, .T. ) ;
#47 = VECTOR ( 'NONE', #545, 1000.000000000000000 ) ;
#48 = CARTESIAN_POINT ( 'NONE',  ( 0.000000000000000000, 0.5999999999999928724, 0.000000000000000000 ) ) ;
#49 = EDGE_CURVE ( 'NONE', #578, #778, #51, .T. ) ;
#50 = ORIENTED_EDGE ( 'NONE', *, *, #691, .F. ) ;
#51 = CIRCLE ( 'NONE', #126, 0.9999999999999991118 ) ;
#52 = AXIS2_PLACEMENT_3D ( 'NONE', #350, #533, #687 ) ;
#53 = CARTESIAN_POINT ( 'NONE',  ( 9.999687487792014551, 80.29999999999999716, 2.900000000000000799 ) ) ;
#54 = EDGE_LOOP ( 'NONE', ( #475, #929, #22, #1072, #1, #69, #196, #937 ) ) ;
#55 = DIRECTION ( 'NONE',  ( 0.000000000000000000, -1.000000000000000000, 0.000000000000000000 ) ) ;
#56 = PRODUCT_CONTEXT ( 'NONE', #1034, 'mechanical' ) ;
#57 = ORIENTED_EDGE ( 'NONE', *, *, #333, .F. ) ;
#58 = CARTESIAN_POINT ( 'NONE',  ( 2.000000000000000000, 80.29999999999999716, -2.899999999999998579 ) ) ;
#59 = ORIENTED_EDGE ( 'NONE', *, *, #1136, .T. ) ;
#60 = LINE ( 'NONE', #173, #411 ) ;
#61 = FACE_OUTER_BOUND ( 'NONE', #262, .T. ) ;
#62 = EDGE_CURVE ( 'NONE', #1033, #456, #558, .T. ) ;
#63 = CARTESIAN_POINT ( 'NONE',  ( -1.999999999999999556, 79.29999999999999716, 2.900000000000001243 ) ) ;
#64 = VERTEX_POINT ( 'NONE', #362 ) ;
#65 = PRESENTATION_STYLE_ASSIGNMENT (( #876 ) ) ;
#66 = CIRCLE ( 'NONE', #296, 1.000000000000000000 ) ;
#67 = ORIENTED_EDGE ( 'NONE', *, *, #324, .F. ) ;
#68 = DIRECTION ( 'NONE',  ( 0.000000000000000000, -1.000000000000000000, 0.000000000000000000 ) ) ;
#69 = ORIENTED_EDGE ( 'NONE', *, *, #741, .T. ) ;
#70 = AXIS2_PLACEMENT_3D ( 'NONE', #20, #672, #129 ) ;
#71 = CARTESIAN_POINT ( 'NONE',  ( 0.000000000000000000, 15.00000000000000000, 0.000000000000000000 ) ) ;
#72 = DIRECTION ( 'NONE',  ( 0.000000000000000000, 0.000000000000000000, -1.000000000000000000 ) ) ;
#73 = DIRECTION ( 'NONE',  ( -0.000000000000000000, 1.000000000000000000, 0.000000000000000000 ) ) ;
#74 = EDGE_CURVE ( 'NONE', #678, #287, #720, .T. ) ;
#75 = VERTEX_POINT ( 'NONE', #544 ) ;
#76 = FACE_OUTER_BOUND ( 'NONE', #887, .T. ) ;
#77 = AXIS2_PLACEMENT_3D ( 'NONE', #884, #1055, #248 ) ;
#78 = EDGE_CURVE ( 'NONE', #441, #743, #459, .T. ) ;
#79 = DIRECTION ( 'NONE',  ( 0.000000000000000000, 0.000000000000000000, -1.000000000000000000 ) ) ;
#80 = VERTEX_POINT ( 'NONE', #198 ) ;
#81 = LINE ( 'NONE', #802, #1137 ) ;
#82 = EDGE_CURVE ( 'NONE', #1010, #519, #102, .T. ) ;
#83 = VECTOR ( 'NONE', #643, 1000.000000000000000 ) ;
#84 = DIRECTION ( 'NONE',  ( -0.000000000000000000, -1.000000000000000000, -0.000000000000000000 ) ) ;
#85 = VERTEX_POINT ( 'NONE', #473 ) ;
#86 = CARTESIAN_POINT ( 'NONE',  ( 9.000000000000001776, 1.000000000000000888, -6.849999999999999645 ) ) ;
#87 = LINE ( 'NONE', #282, #301 ) ;
#88 = DIRECTION ( 'NONE',  ( -0.000000000000000000, 1.000000000000000000, -0.000000000000000000 ) ) ;
#89 = ORIENTED_EDGE ( 'NONE', *, *, #551, .F. ) ;
#90 = DIRECTION ( 'NONE',  ( 0.000000000000000000, -0.7071067811865511255, -0.7071067811865440200 ) ) ;
#91 = VERTEX_POINT ( 'NONE', #17 ) ;
#92 = DIRECTION ( 'NONE',  ( 0.000000000000000000, 0.000000000000000000, -1.000000000000000000 ) ) ;
#93 = FACE_BOUND ( 'NONE', #1084, .T. ) ;
#94 = CARTESIAN_POINT ( 'NONE',  ( 2.000000000000000000, 80.29999999999999716, 1.813835714721705461 ) ) ;
#95 = EDGE_CURVE ( 'NONE', #1108, #953, #506, .T. ) ;
#96 = ORIENTED_EDGE ( 'NONE', *, *, #25, .T. ) ;
#97 = ORIENTED_EDGE ( 'NONE', *, *, #270, .T. ) ;
#98 = CARTESIAN_POINT ( 'NONE',  ( 4.898587196589412829E-16, 0.5999999999999928724, 4.000000000000000000 ) ) ;
#99 = VECTOR ( 'NONE', #526, 1000.000000000000000 ) ;
#100 = CARTESIAN_POINT ( 'NONE',  ( -10.00000000000000000, 1.000000000000000888, 5.850000000000000533 ) ) ;
#101 = ORIENTED_EDGE ( 'NONE', *, *, #627, .F. ) ;
#102 = LINE ( 'NONE', #368, #601 ) ;
#103 = DIRECTION ( 'NONE',  ( 0.000000000000000000, 0.000000000000000000, 1.000000000000000000 ) ) ;
#104 = CIRCLE ( 'NONE', #925, 2.700000000000000178 ) ;
#105 = CONICAL_SURFACE ( 'NONE', #1024, 3.299999999999997158, 0.7853981633974431720 ) ;
#106 = ORIENTED_EDGE ( 'NONE', *, *, #653, .T. ) ;
#107 = EDGE_CURVE ( 'NONE', #91, #996, #1078, .T. ) ;
#108 = CARTESIAN_POINT ( 'NONE',  ( 6.000000000000000000, 1.000000000000000888, -2.849999999999999201 ) ) ;
#109 = EDGE_CURVE ( 'NONE', #505, #414, #695, .T. ) ;
#110 = ORIENTED_EDGE ( 'NONE', *, *, #705, .T. ) ;
#111 = DIRECTION ( 'NONE',  ( 0.000000000000000000, -0.000000000000000000, -1.000000000000000000 ) ) ;
#112 = CARTESIAN_POINT ( 'NONE',  ( 0.000000000000000000, 15.00000000000000000, -4.000000000000000000 ) ) ;
#113 = ORIENTED_EDGE ( 'NONE', *, *, #49, .F. ) ;
#114 = FACE_OUTER_BOUND ( 'NONE', #307, .T. ) ;
#115 = ORIENTED_EDGE ( 'NONE', *, *, #529, .T. ) ;
#116 = CARTESIAN_POINT ( 'NONE',  ( -10.00000000000000000, 1.000000000000000888, -6.849999999999999645 ) ) ;
#117 = DIRECTION ( 'NONE',  ( -0.000000000000000000, 1.000000000000000000, 0.000000000000000000 ) ) ;
#118 = VECTOR ( 'NONE', #516, 1000.000000000000000 ) ;
#119 = EDGE_CURVE ( 'NONE', #426, #1021, #1051, .T. ) ;
#120 = FACE_OUTER_BOUND ( 'NONE', #389, .T. ) ;
#121 = AXIS2_PLACEMENT_3D ( 'NONE', #48, #581, #138 ) ;
#122 = ORIENTED_EDGE ( 'NONE', *, *, #567, .F. ) ;
#123 = FACE_OUTER_BOUND ( 'NONE', #803, .T. ) ;
#124 = CARTESIAN_POINT ( 'NONE',  ( 0.000000000000000000, 79.29999999999999716, 0.000000000000000000 ) ) ;
#125 = EDGE_LOOP ( 'NONE', ( #570, #50, #625, #1144 ) ) ;
#126 = AXIS2_PLACEMENT_3D ( 'NONE', #376, #180, #187 ) ;
#127 = ADVANCED_FACE ( 'NONE', ( #123 ), #758, .F. ) ;
#128 = AXIS2_PLACEMENT_3D ( 'NONE', #759, #383, #572 ) ;
#129 = DIRECTION ( 'NONE',  ( -7.477256361968996479E-17, 0.000000000000000000, -1.000000000000000000 ) ) ;
#130 = EDGE_LOOP ( 'NONE', ( #1053, #681, #826, #552, #833, #760 ) ) ;
#131 = DIRECTION ( 'NONE',  ( 0.000000000000000000, 0.000000000000000000, -1.000000000000000000 ) ) ;
#132 = CARTESIAN_POINT ( 'NONE',  ( 3.306546357697853733E-16, 80.29999999999999716, 2.700000000000000178 ) ) ;
#133 = VERTEX_POINT ( 'NONE', #761 ) ;
#134 = CARTESIAN_POINT ( 'NONE',  ( 4.898587196589412829E-16, 0.5999999999999928724, 4.000000000000000000 ) ) ;
#135 = EDGE_CURVE ( 'NONE', #414, #593, #391, .T. ) ;
#136 = ORIENTED_EDGE ( 'NONE', *, *, #539, .F. ) ;
#137 = DIRECTION ( 'NONE',  ( -1.000000000000000000, -0.000000000000000000, -5.421010862427522170E-17 ) ) ;
#138 = DIRECTION ( 'NONE',  ( 0.000000000000000000, 0.000000000000000000, 1.000000000000000000 ) ) ;
#139 = VERTEX_POINT ( 'NONE', #35 ) ;
#140 = CARTESIAN_POINT ( 'NONE',  ( 0.000000000000000000, 0.000000000000000000, 0.000000000000000000 ) ) ;
#141 = VECTOR ( 'NONE', #257, 1000.000000000000000 ) ;
#142 = ORIENTED_EDGE ( 'NONE', *, *, #358, .T. ) ;
#143 = FACE_OUTER_BOUND ( 'NONE', #831, .T. ) ;
#144 = VECTOR ( 'NONE', #1122, 1000.000000000000000 ) ;
#145 = CARTESIAN_POINT ( 'NONE',  ( -9.638927202934969074, 80.29999999999999716, 2.900000000000000799 ) ) ;
#146 = ORIENTED_EDGE ( 'NONE', *, *, #408, .T. ) ;
#147 = CIRCLE ( 'NONE', #731, 2.700000000000000178 ) ;
#148 = LINE ( 'NONE', #1143, #118 ) ;
#149 = EDGE_CURVE ( 'NONE', #667, #1033, #215, .T. ) ;
#150 = ORIENTED_EDGE ( 'NONE', *, *, #958, .F. ) ;
#151 = DIRECTION ( 'NONE',  ( 1.266221515311538297E-16, 0.000000000000000000, -1.000000000000000000 ) ) ;
#152 = DIRECTION ( 'NONE',  ( -0.000000000000000000, 1.000000000000000000, 0.000000000000000000 ) ) ;
#153 = ADVANCED_FACE ( 'NONE', ( #574 ), #1031, .F. ) ;
#154 = CARTESIAN_POINT ( 'NONE',  ( -4.000000000000000000, 80.29999999999999716, -0.8499999999999992006 ) ) ;
#155 = PRODUCT_RELATED_PRODUCT_CATEGORY ( 'part', '', ( #810 ) ) ;
#156 = ORIENTED_EDGE ( 'NONE', *, *, #966, .T. ) ;
#157 = CARTESIAN_POINT ( 'NONE',  ( 6.000000000000000000, 79.29999999999999716, 2.850000000000000089 ) ) ;
#158 = AXIS2_PLACEMENT_3D ( 'NONE', #607, #604, #859 ) ;
#159 = FACE_OUTER_BOUND ( 'NONE', #517, .T. ) ;
#160 = EDGE_LOOP ( 'NONE', ( #420, #595, #410, #792 ) ) ;
#161 = DIRECTION ( 'NONE',  ( -1.000000000000000000, 0.000000000000000000, 7.477256361968996479E-17 ) ) ;
#162 = AXIS2_PLACEMENT_3D ( 'NONE', #873, #583, #634 ) ;
#163 = ADVANCED_FACE ( 'NONE', ( #1129 ), #961, .F. ) ;
#164 = LINE ( 'NONE', #244, #99 ) ;
#165 = AXIS2_PLACEMENT_3D ( 'NONE', #694, #240, #246 ) ;
#166 = ORIENTED_EDGE ( 'NONE', *, *, #705, .F. ) ;
#167 = TOROIDAL_SURFACE ( 'NONE', #1043, 3.000000000000000000, 1.000000000000000000 ) ;
#168 = CARTESIAN_POINT ( 'NONE',  ( -2.000000000000000000, 80.29999999999999716, 1.813835714721705905 ) ) ;
#169 = EDGE_CURVE ( 'NONE', #838, #755, #490, .T. ) ;
#170 = FACE_OUTER_BOUND ( 'NONE', #209, .T. ) ;
#171 = DIRECTION ( 'NONE',  ( 0.000000000000000000, 0.000000000000000000, 1.000000000000000000 ) ) ;
#172 = EDGE_LOOP ( 'NONE', ( #1169, #438, #1160, #203, #482, #110, #905, #97 ) ) ;
#173 = CARTESIAN_POINT ( 'NONE',  ( 9.000000000000000000, 0.000000000000000000, 1.139599363780384295E-15 ) ) ;
#174 = EDGE_CURVE ( 'NONE', #45, #64, #323, .T. ) ;
#175 = VERTEX_POINT ( 'NONE', #682 ) ;
#176 = LINE ( 'NONE', #990, #351 ) ;
#177 = CARTESIAN_POINT ( 'NONE',  ( -2.000000000000000000, 80.29999999999999716, 1.813835714721705905 ) ) ;
#178 = ORIENTED_EDGE ( 'NONE', *, *, #208, .F. ) ;
#179 =( LENGTH_UNIT ( ) NAMED_UNIT ( * ) SI_UNIT ( .MILLI., .METRE. ) );
#180 = DIRECTION ( 'NONE',  ( -0.000000000000000000, 0.000000000000000000, 1.000000000000000000 ) ) ;
#181 = LINE ( 'NONE', #882, #141 ) ;
#182 = CONICAL_SURFACE ( 'NONE', #486, 3.299999999999997158, 0.7853981633974431720 ) ;
#183 = CYLINDRICAL_SURFACE ( 'NONE', #1060, 1.000000000000000000 ) ;
#184 = ORIENTED_EDGE ( 'NONE', *, *, #995, .F. ) ;
#185 = LINE ( 'NONE', #202, #603 ) ;
#186 = AXIS2_PLACEMENT_3D ( 'NONE', #299, #1123, #666 ) ;
#187 = DIRECTION ( 'NONE',  ( 1.000000000000000000, 0.000000000000000000, 0.000000000000000000 ) ) ;
#188 = CARTESIAN_POINT ( 'NONE',  ( 6.000000000000000000, 1.000000000000000888, 2.850000000000000089 ) ) ;
#189 = FACE_OUTER_BOUND ( 'NONE', #673, .T. ) ;
#190 = CARTESIAN_POINT ( 'NONE',  ( -4.000000000000000000, 79.29999999999999716, 0.8499999999999998668 ) ) ;
#191 = ORIENTED_EDGE ( 'NONE', *, *, #78, .F. ) ;
#192 = DIRECTION ( 'NONE',  ( 1.000000000000000000, 0.000000000000000000, -4.336808689942018352E-17 ) ) ;
#193 = ORIENTED_EDGE ( 'NONE', *, *, #174, .T. ) ;
#194 = ADVANCED_FACE ( 'NONE', ( #143 ), #12, .T. ) ;
#195 = LINE ( 'NONE', #737, #334 ) ;
#196 = ORIENTED_EDGE ( 'NONE', *, *, #851, .T. ) ;
#197 = DIRECTION ( 'NONE',  ( 0.000000000000000000, 0.000000000000000000, -1.000000000000000000 ) ) ;
#198 = CARTESIAN_POINT ( 'NONE',  ( 0.000000000000000000, 15.00000000000000000, -3.299999999999997158 ) ) ;
#199 = EDGE_CURVE ( 'NONE', #441, #1033, #204, .T. ) ;
#200 = ORIENTED_EDGE ( 'NONE', *, *, #326, .F. ) ;
#201 = AXIS2_PLACEMENT_3D ( 'NONE', #392, #24, #460 ) ;
#202 = CARTESIAN_POINT ( 'NONE',  ( -0.000000000000000000, 0.000000000000000000, -5.849999999999999645 ) ) ;
#203 = ORIENTED_EDGE ( 'NONE', *, *, #1011, .T. ) ;
#204 = CIRCLE ( 'NONE', #1099, 1.000000000000000888 ) ;
#205 = ORIENTED_EDGE ( 'NONE', *, *, #62, .T. ) ;
#206 = CARTESIAN_POINT ( 'NONE',  ( -4.000000000000000000, 1.000000000000000888, -6.849999999999999645 ) ) ;
#207 = STYLED_ITEM ( 'NONE', ( #65 ), #353 ) ;
#208 = EDGE_CURVE ( 'NONE', #361, #614, #579, .T. ) ;
#209 = EDGE_LOOP ( 'NONE', ( #977, #991, #345, #205, #956, #898, #872, #964 ) ) ;
#210 = ORIENTED_EDGE ( 'NONE', *, *, #375, .T. ) ;
#211 = ADVANCED_FACE ( 'NONE', ( #46 ), #495, .F. ) ;
#212 = CARTESIAN_POINT ( 'NONE',  ( 0.000000000000000000, 15.00000000000000000, 0.000000000000000000 ) ) ;
#213 = CARTESIAN_POINT ( 'NONE',  ( -9.638927202934969074, 80.29999999999999716, -2.899999999999999023 ) ) ;
#214 = ORIENTED_EDGE ( 'NONE', *, *, #901, .F. ) ;
#215 = LINE ( 'NONE', #580, #489 ) ;
#216 =( NAMED_UNIT ( * ) SI_UNIT ( $, .STERADIAN. ) SOLID_ANGLE_UNIT ( ) );
#217 = AXIS2_PLACEMENT_3D ( 'NONE', #462, #378, #5 ) ;
#218 = LINE ( 'NONE', #231, #1156 ) ;
#219 = EDGE_LOOP ( 'NONE', ( #28, #156, #547, #1155 ) ) ;
#220 = CARTESIAN_POINT ( 'NONE',  ( 0.000000000000000000, 15.00000000000000000, 0.000000000000000000 ) ) ;
#221 = PLANE ( 'NONE',  #650 ) ;
#222 = AXIS2_PLACEMENT_3D ( 'NONE', #308, #948, #131 ) ;
#223 = TOROIDAL_SURFACE ( 'NONE', #883, 3.000000000000000000, 1.000000000000000000 ) ;
#224 = EDGE_CURVE ( 'NONE', #139, #593, #40, .T. ) ;
#225 = CARTESIAN_POINT ( 'NONE',  ( -2.000000000000000000, 80.29999999999999716, -1.813835714721705461 ) ) ;
#226 = DIRECTION ( 'NONE',  ( -1.000000000000000000, 0.000000000000000000, -1.266221515311538297E-16 ) ) ;
#227 = EDGE_LOOP ( 'NONE', ( #253, #542, #356, #166 ) ) ;
#228 = DIRECTION ( 'NONE',  ( 0.000000000000000000, -1.000000000000000000, 0.000000000000000000 ) ) ;
#229 = CARTESIAN_POINT ( 'NONE',  ( -10.00000000000000000, 80.29999999999999716, 2.900000000000000799 ) ) ;
#230 = ORIENTED_EDGE ( 'NONE', *, *, #1056, .F. ) ;
#231 = CARTESIAN_POINT ( 'NONE',  ( 0.000000000000000000, 0.5999999999999928724, -4.000000000000000000 ) ) ;
#232 = ORIENTED_EDGE ( 'NONE', *, *, #454, .T. ) ;
#233 = DIRECTION ( 'NONE',  ( 0.000000000000000000, 0.000000000000000000, -1.000000000000000000 ) ) ;
#234 = FACE_OUTER_BOUND ( 'NONE', #130, .T. ) ;
#235 = ORIENTED_EDGE ( 'NONE', *, *, #930, .F. ) ;
#236 = EDGE_CURVE ( 'NONE', #1066, #587, #104, .T. ) ;
#237 = EDGE_CURVE ( 'NONE', #85, #767, #980, .T. ) ;
#238 = PLANE ( 'NONE',  #158 ) ;
#239 = ORIENTED_EDGE ( 'NONE', *, *, #697, .F. ) ;
#240 = DIRECTION ( 'NONE',  ( -0.000000000000000000, 1.000000000000000000, 0.000000000000000000 ) ) ;
#241 = CARTESIAN_POINT ( 'NONE',  ( -10.00000000000000000, 80.29999999999999716, -2.899999999999999023 ) ) ;
#242 = EDGE_CURVE ( 'NONE', #778, #969, #264, .T. ) ;
#243 = VECTOR ( 'NONE', #38, 1000.000000000000000 ) ;
#244 = CARTESIAN_POINT ( 'NONE',  ( 9.999999999999998224, 80.29999999999999716, -2.899999999999998579 ) ) ;
#245 = VERTEX_POINT ( 'NONE', #700 ) ;
#246 = DIRECTION ( 'NONE',  ( 0.000000000000000000, 0.000000000000000000, 1.000000000000000000 ) ) ;
#247 = ADVANCED_FACE ( 'NONE', ( #76 ), #439, .F. ) ;
#248 = DIRECTION ( 'NONE',  ( 0.000000000000000000, 0.000000000000000000, 1.000000000000000000 ) ) ;
#249 = ORIENTED_EDGE ( 'NONE', *, *, #1142, .F. ) ;
#250 = DIRECTION ( 'NONE',  ( -1.000000000000000000, -0.000000000000000000, -5.421010862427522170E-17 ) ) ;
#251 = EDGE_CURVE ( 'NONE', #587, #1010, #768, .T. ) ;
#252 = CARTESIAN_POINT ( 'NONE',  ( -4.000000000000000000, 1.000000000000000888, 0.8499999999999998668 ) ) ;
#253 = ORIENTED_EDGE ( 'NONE', *, *, #836, .T. ) ;
#254 = FACE_OUTER_BOUND ( 'NONE', #640, .T. ) ;
#255 = CIRCLE ( 'NONE', #690, 4.000000000000000000 ) ;
#256 = VECTOR ( 'NONE', #665, 1000.000000000000000 ) ;
#257 = DIRECTION ( 'NONE',  ( -0.000000000000000000, -1.000000000000000000, -0.000000000000000000 ) ) ;
#258 = EDGE_CURVE ( 'NONE', #743, #85, #524, .T. ) ;
#259 = AXIS2_PLACEMENT_3D ( 'NONE', #1067, #427, #523 ) ;
#260 = DIRECTION ( 'NONE',  ( -1.000000000000000000, -0.000000000000000000, -0.000000000000000000 ) ) ;
#261 = AXIS2_PLACEMENT_3D ( 'NONE', #661, #1126, #586 ) ;
#262 = EDGE_LOOP ( 'NONE', ( #686, #232, #1158, #620 ) ) ;
#263 = AXIS2_PLACEMENT_3D ( 'NONE', #645, #1003, #267 ) ;
#264 = LINE ( 'NONE', #342, #823 ) ;
#265 = DIRECTION ( 'NONE',  ( -0.000000000000000000, -1.000000000000000000, -0.000000000000000000 ) ) ;
#266 = ORIENTED_EDGE ( 'NONE', *, *, #1082, .T. ) ;
#267 = DIRECTION ( 'NONE',  ( -1.000000000000000000, 0.000000000000000000, 4.336808689942018352E-17 ) ) ;
#268 = DIRECTION ( 'NONE',  ( -0.000000000000000000, -1.000000000000000000, -0.000000000000000000 ) ) ;
#269 = DIRECTION ( 'NONE',  ( 0.000000000000000000, -1.000000000000000000, 0.000000000000000000 ) ) ;
#270 = EDGE_CURVE ( 'NONE', #45, #1108, #1164, .T. ) ;
#271 = ORIENTED_EDGE ( 'NONE', *, *, #993, .F. ) ;
#272 = DIRECTION ( 'NONE',  ( 0.000000000000000000, 0.000000000000000000, -1.000000000000000000 ) ) ;
#273 = CARTESIAN_POINT ( 'NONE',  ( -4.000000000000000000, 0.000000000000000000, -0.8499999999999992006 ) ) ;
#274 = CIRCLE ( 'NONE', #217, 1.000000000000000000 ) ;
#275 = CIRCLE ( 'NONE', #121, 4.000000000000000000 ) ;
#276 = PRODUCT_DEFINITION_SHAPE ( 'NONE', 'NONE',  #277 ) ;
#277 = PRODUCT_DEFINITION ( 'UNKNOWN', '', #428, #379 ) ;
#278 = DIRECTION ( 'NONE',  ( 1.000000000000000000, 0.000000000000000000, -4.336808689942018352E-17 ) ) ;
#279 = ORIENTED_EDGE ( 'NONE', *, *, #741, .F. ) ;
#280 = CARTESIAN_POINT ( 'NONE',  ( -10.00000000000000000, 79.29999999999999716, 6.850000000000000533 ) ) ;
#281 =( GEOMETRIC_REPRESENTATION_CONTEXT ( 3 ) GLOBAL_UNCERTAINTY_ASSIGNED_CONTEXT ( ( #458 ) ) GLOBAL_UNIT_ASSIGNED_CONTEXT ( ( #179, #1103, #920 ) ) REPRESENTATION_CONTEXT ( 'NONE', 'WORKASPACE' ) );
#282 = CARTESIAN_POINT ( 'NONE',  ( 4.898587196589412829E-16, 15.00000000000000000, 4.000000000000000000 ) ) ;
#283 = ADVANCED_FACE ( 'NONE', ( #434 ), #880, .F. ) ;
#284 = CARTESIAN_POINT ( 'NONE',  ( -9.638927202934969074, 79.29999999999999716, 2.900000000000000799 ) ) ;
#285 = ORIENTED_EDGE ( 'NONE', *, *, #74, .F. ) ;
#286 = PLANE ( 'NONE',  #263 ) ;
#287 = VERTEX_POINT ( 'NONE', #870 ) ;
#288 = DIRECTION ( 'NONE',  ( 0.000000000000000000, -1.000000000000000000, 0.000000000000000000 ) ) ;
#289 = EDGE_CURVE ( 'NONE', #1044, #667, #471, .T. ) ;
#290 = CARTESIAN_POINT ( 'NONE',  ( 9.000000000000000000, 0.000000000000000000, -2.849999999999999201 ) ) ;
#291 = DIRECTION ( 'NONE',  ( 0.000000000000000000, 0.000000000000000000, 1.000000000000000000 ) ) ;
#292 = EDGE_CURVE ( 'NONE', #175, #293, #610, .T. ) ;
#293 = VERTEX_POINT ( 'NONE', #168 ) ;
#294 = LINE ( 'NONE', #1105, #256 ) ;
#295 = ORIENTED_EDGE ( 'NONE', *, *, #891, .F. ) ;
#296 = AXIS2_PLACEMENT_3D ( 'NONE', #1069, #794, #1075 ) ;
#297 = CIRCLE ( 'NONE', #965, 2.700000000000000178 ) ;
#298 = EDGE_CURVE ( 'NONE', #879, #578, #60, .T. ) ;
#299 = CARTESIAN_POINT ( 'NONE',  ( 6.000000000000000000, 1.000000000000000888, -5.849999999999999645 ) ) ;
#300 = EDGE_LOOP ( 'NONE', ( #30, #1030, #113, #853 ) ) ;
#301 = VECTOR ( 'NONE', #268, 1000.000000000000000 ) ;
#302 = DIRECTION ( 'NONE',  ( -0.000000000000000000, -1.000000000000000000, -0.000000000000000000 ) ) ;
#303 = CARTESIAN_POINT ( 'NONE',  ( 2.000000000000000000, 80.29999999999999716, -2.899999999999998579 ) ) ;
#304 = CIRCLE ( 'NONE', #751, 4.000000000000000000 ) ;
#305 = VERTEX_POINT ( 'NONE', #421 ) ;
#306 = DIRECTION ( 'NONE',  ( 0.000000000000000000, -0.7071067811865435759, -0.7071067811865515695 ) ) ;
#307 = EDGE_LOOP ( 'NONE', ( #1102, #647, #210, #1002 ) ) ;
#308 = CARTESIAN_POINT ( 'NONE',  ( 0.000000000000000000, 15.60000000000000320, 0.000000000000000000 ) ) ;
#309 = CARTESIAN_POINT ( 'NONE',  ( 6.000000000000000000, 80.29999999999999716, 2.850000000000000089 ) ) ;
#310 = DIRECTION ( 'NONE',  ( -1.266221515311538297E-16, 0.000000000000000000, 1.000000000000000000 ) ) ;
#311 = ORIENTED_EDGE ( 'NONE', *, *, #848, .T. ) ;
#312 = DIRECTION ( 'NONE',  ( -0.000000000000000000, 1.000000000000000000, 0.000000000000000000 ) ) ;
#313 = DIRECTION ( 'NONE',  ( 1.000000000000000000, 0.000000000000000000, 0.000000000000000000 ) ) ;
#314 = CIRCLE ( 'NONE', #649, 1.000000000000000000 ) ;
#315 = VECTOR ( 'NONE', #688, 1000.000000000000000 ) ;
#316 = LINE ( 'NONE', #680, #843 ) ;
#317 = EDGE_LOOP ( 'NONE', ( #590, #774, #423, #230 ) ) ;
#318 = DIRECTION ( 'NONE',  ( 0.000000000000000000, 0.000000000000000000, -1.000000000000000000 ) ) ;
#319 = CARTESIAN_POINT ( 'NONE',  ( 0.000000000000000000, 0.000000000000000000, 0.000000000000000000 ) ) ;
#320 = ORIENTED_EDGE ( 'NONE', *, *, #1142, .T. ) ;
#321 = CYLINDRICAL_SURFACE ( 'NONE', #128, 4.000000000000000000 ) ;
#322 = ORIENTED_EDGE ( 'NONE', *, *, #1118, .T. ) ;
#323 = LINE ( 'NONE', #668, #635 ) ;
#324 = EDGE_CURVE ( 'NONE', #366, #757, #1079, .T. ) ;
#325 = ORIENTED_EDGE ( 'NONE', *, *, #611, .T. ) ;
#326 = EDGE_CURVE ( 'NONE', #245, #879, #560, .T. ) ;
#327 = DIRECTION ( 'NONE',  ( 0.000000000000000000, 0.000000000000000000, 1.000000000000000000 ) ) ;
#328 = ORIENTED_EDGE ( 'NONE', *, *, #1048, .F. ) ;
#329 = CARTESIAN_POINT ( 'NONE',  ( -4.000000000000000000, 0.000000000000000000, 0.8499999999999998668 ) ) ;
#330 = DIRECTION ( 'NONE',  ( -5.421010862427522170E-17, 0.000000000000000000, 1.000000000000000000 ) ) ;
#331 = ADVANCED_FACE ( 'NONE', ( #254 ), #105, .F. ) ;
#332 = DIRECTION ( 'NONE',  ( 0.000000000000000000, -0.000000000000000000, -1.000000000000000000 ) ) ;
#333 = EDGE_CURVE ( 'NONE', #723, #133, #525, .T. ) ;
#334 = VECTOR ( 'NONE', #260, 1000.000000000000000 ) ;
#335 = VERTEX_POINT ( 'NONE', #782 ) ;
#336 = DIRECTION ( 'NONE',  ( 7.477256361968996479E-17, 0.000000000000000000, 1.000000000000000000 ) ) ;
#337 = CIRCLE ( 'NONE', #921, 1.000000000000000888 ) ;
#338 = VECTOR ( 'NONE', #464, 1000.000000000000000 ) ;
#339 = CIRCLE ( 'NONE', #491, 3.000000000000000000 ) ;
#340 = DIRECTION ( 'NONE',  ( 7.477256361968996479E-17, 0.000000000000000000, 1.000000000000000000 ) ) ;
#341 = ORIENTED_EDGE ( 'NONE', *, *, #660, .F. ) ;
#342 = CARTESIAN_POINT ( 'NONE',  ( 10.00000000000000000, 1.000000000000000888, -6.849999999999999645 ) ) ;
#343 = ORIENTED_EDGE ( 'NONE', *, *, #451, .F. ) ;
#344 = DIRECTION ( 'NONE',  ( -7.477256361968996479E-17, -0.000000000000000000, -1.000000000000000000 ) ) ;
#345 = ORIENTED_EDGE ( 'NONE', *, *, #149, .T. ) ;
#346 = DIRECTION ( 'NONE',  ( -1.000000000000000000, 0.000000000000000000, 7.477256361968996479E-17 ) ) ;
#347 = EDGE_CURVE ( 'NONE', #519, #414, #606, .T. ) ;
#348 = CARTESIAN_POINT ( 'NONE',  ( 9.000000000000001776, 1.000000000000000000, -2.849999999999999201 ) ) ;
#349 = ORIENTED_EDGE ( 'NONE', *, *, #779, .F. ) ;
#350 = CARTESIAN_POINT ( 'NONE',  ( 0.000000000000000000, 79.29999999999999716, 0.000000000000000000 ) ) ;
#351 = VECTOR ( 'NONE', #265, 1000.000000000000000 ) ;
#352 = EDGE_LOOP ( 'NONE', ( #417, #150, #638, #122 ) ) ;
#353 = MANIFOLD_SOLID_BREP ( '\X2\976253d6308a\X0\1', #1117 ) ;
#354 = CARTESIAN_POINT ( 'NONE',  ( -10.00000000000000000, 79.29999999999999716, -6.849999999999999645 ) ) ;
#355 = VECTOR ( 'NONE', #992, 1000.000000000000000 ) ;
#356 = ORIENTED_EDGE ( 'NONE', *, *, #930, .T. ) ;
#357 = CARTESIAN_POINT ( 'NONE',  ( 3.306546357697853733E-16, 15.60000000000000320, 2.700000000000000178 ) ) ;
#358 = EDGE_CURVE ( 'NONE', #305, #789, #510, .T. ) ;
#359 = ADVANCED_FACE ( 'NONE', ( #1009 ), #167, .T. ) ;
#360 = CARTESIAN_POINT ( 'NONE',  ( -4.000000000000000000, 1.000000000000000000, 5.850000000000000533 ) ) ;
#361 = VERTEX_POINT ( 'NONE', #357 ) ;
#362 = CARTESIAN_POINT ( 'NONE',  ( 9.999687487792014551, 79.29999999999999716, -2.899999999999998579 ) ) ;
#363 = DIRECTION ( 'NONE',  ( 0.000000000000000000, 0.000000000000000000, 1.000000000000000000 ) ) ;
#364 = DIRECTION ( 'NONE',  ( 0.000000000000000000, 1.000000000000000000, 0.000000000000000000 ) ) ;
#365 = VECTOR ( 'NONE', #773, 1000.000000000000000 ) ;
#366 = VERTEX_POINT ( 'NONE', #1177 ) ;
#367 = DIRECTION ( 'NONE',  ( 7.477256361968996479E-17, 0.000000000000000000, 1.000000000000000000 ) ) ;
#368 = CARTESIAN_POINT ( 'NONE',  ( -2.000000000000000000, 79.29999999999999716, -2.899999999999998579 ) ) ;
#369 = AXIS2_PLACEMENT_3D ( 'NONE', #1094, #269, #530 ) ;
#370 = CARTESIAN_POINT ( 'NONE',  ( 10.00000000000000000, 1.000000000000000888, -2.849999999999999201 ) ) ;
#371 = AXIS2_PLACEMENT_3D ( 'NONE', #613, #692, #984 ) ;
#372 = LINE ( 'NONE', #1101, #83 ) ;
#373 = VERTEX_POINT ( 'NONE', #443 ) ;
#374 = CARTESIAN_POINT ( 'NONE',  ( -10.00000000000000000, 1.000000000000000888, -0.8499999999999992006 ) ) ;
#375 = EDGE_CURVE ( 'NONE', #755, #463, #813, .T. ) ;
#376 = CARTESIAN_POINT ( 'NONE',  ( 9.000000000000000000, 1.000000000000000000, 2.850000000000000977 ) ) ;
#377 = DIRECTION ( 'NONE',  ( 0.000000000000000000, -1.000000000000000000, 0.000000000000000000 ) ) ;
#378 = DIRECTION ( 'NONE',  ( -1.000000000000000000, -0.000000000000000000, -0.000000000000000000 ) ) ;
#379 = PRODUCT_DEFINITION_CONTEXT ( 'detailed design', #36, 'design' ) ;
#380 = FACE_OUTER_BOUND ( 'NONE', #786, .T. ) ;
#381 = CARTESIAN_POINT ( 'NONE',  ( -4.000000000000000000, 0.000000000000000000, 5.850000000000000533 ) ) ;
#382 = EDGE_CURVE ( 'NONE', #614, #80, #7, .T. ) ;
#383 = DIRECTION ( 'NONE',  ( 0.000000000000000000, -1.000000000000000000, 0.000000000000000000 ) ) ;
#384 = ORIENTED_EDGE ( 'NONE', *, *, #347, .F. ) ;
#385 = DIRECTION ( 'NONE',  ( 1.000000000000000000, 0.000000000000000000, 0.000000000000000000 ) ) ;
#386 = CARTESIAN_POINT ( 'NONE',  ( 2.000000000000000000, 79.29999999999999716, -1.813835714721705905 ) ) ;
#387 = AXIS2_PLACEMENT_3D ( 'NONE', #437, #68, #332 ) ;
#388 = DIRECTION ( 'NONE',  ( 1.266221515311538297E-16, 0.000000000000000000, -1.000000000000000000 ) ) ;
#389 = EDGE_LOOP ( 'NONE', ( #947, #1176, #527, #1124 ) ) ;
#390 = VECTOR ( 'NONE', #744, 1000.000000000000000 ) ;
#391 = LINE ( 'NONE', #854, #390 ) ;
#392 = CARTESIAN_POINT ( 'NONE',  ( 0.000000000000000000, 79.29999999999999716, 0.000000000000000000 ) ) ;
#393 = ORIENTED_EDGE ( 'NONE', *, *, #507, .F. ) ;
#394 = CARTESIAN_POINT ( 'NONE',  ( 6.000000000000000000, 79.29999999999999716, -2.849999999999999201 ) ) ;
#395 = ORIENTED_EDGE ( 'NONE', *, *, #237, .F. ) ;
#396 = DIRECTION ( 'NONE',  ( 0.000000000000000000, 0.000000000000000000, 1.000000000000000000 ) ) ;
#397 = LINE ( 'NONE', #225, #895 ) ;
#398 = CARTESIAN_POINT ( 'NONE',  ( 2.000000000000000000, 80.29999999999999716, -1.813835714721705905 ) ) ;
#399 = ORIENTED_EDGE ( 'NONE', *, *, #270, .F. ) ;
#400 = APPLICATION_PROTOCOL_DEFINITION ( 'draft international standard', 'automotive_design', 1998, #1034 ) ;
#401 = ORIENTED_EDGE ( 'NONE', *, *, #565, .F. ) ;
#402 = DIRECTION ( 'NONE',  ( 0.000000000000000000, 0.000000000000000000, 1.000000000000000000 ) ) ;
#403 = CIRCLE ( 'NONE', #44, 4.000000000000000000 ) ;
#404 = AXIS2_PLACEMENT_3D ( 'NONE', #319, #855, #683 ) ;
#405 = CARTESIAN_POINT ( 'NONE',  ( 2.000000000000000444, 79.29999999999999716, 2.900000000000001243 ) ) ;
#406 = VERTEX_POINT ( 'NONE', #1090 ) ;
#407 =( LENGTH_UNIT ( ) NAMED_UNIT ( * ) SI_UNIT ( .MILLI., .METRE. ) );
#408 = EDGE_CURVE ( 'NONE', #784, #723, #1096, .T. ) ;
#409 = VECTOR ( 'NONE', #1114, 1000.000000000000000 ) ;
#410 = ORIENTED_EDGE ( 'NONE', *, *, #762, .T. ) ;
#411 = VECTOR ( 'NONE', #1157, 1000.000000000000000 ) ;
#412 = DIRECTION ( 'NONE',  ( 0.000000000000000000, 0.000000000000000000, 1.000000000000000000 ) ) ;
#413 = ADVANCED_FACE ( 'NONE', ( #913 ), #1100, .F. ) ;
#414 = VERTEX_POINT ( 'NONE', #452 ) ;
#415 = DIRECTION ( 'NONE',  ( 0.000000000000000000, 0.000000000000000000, 1.000000000000000000 ) ) ;
#416 = SHAPE_DEFINITION_REPRESENTATION ( #276, #889 ) ;
#417 = ORIENTED_EDGE ( 'NONE', *, *, #49, .T. ) ;
#418 = EDGE_CURVE ( 'NONE', #706, #80, #989, .T. ) ;
#419 = CARTESIAN_POINT ( 'NONE',  ( 2.000000000000000000, 80.29999999999999716, -1.813835714721705905 ) ) ;
#420 = ORIENTED_EDGE ( 'NONE', *, *, #679, .T. ) ;
#421 = CARTESIAN_POINT ( 'NONE',  ( 5.633375276077824112E-16, 0.000000000000000000, 4.599999999999999645 ) ) ;
#422 = DIRECTION ( 'NONE',  ( 5.421010862427522170E-17, 0.000000000000000000, -1.000000000000000000 ) ) ;
#423 = ORIENTED_EDGE ( 'NONE', *, *, #1106, .T. ) ;
#424 = CARTESIAN_POINT ( 'NONE',  ( 6.000000000000000000, 80.29999999999999716, -2.849999999999999201 ) ) ;
#425 = CONICAL_SURFACE ( 'NONE', #162, 4.000000000000000000, 0.7853981633974540522 ) ;
#426 = VERTEX_POINT ( 'NONE', #631 ) ;
#427 = DIRECTION ( 'NONE',  ( -0.000000000000000000, 1.000000000000000000, 0.000000000000000000 ) ) ;
#428 = PRODUCT_DEFINITION_FORMATION_WITH_SPECIFIED_SOURCE ( 'ANY', '', #810, .NOT_KNOWN. ) ;
#429 = ORIENTED_EDGE ( 'NONE', *, *, #783, .T. ) ;
#430 = VECTOR ( 'NONE', #569, 1000.000000000000000 ) ;
#431 = PRESENTATION_LAYER_ASSIGNMENT (  '', '', ( #207 ) ) ;
#432 = DIRECTION ( 'NONE',  ( 0.000000000000000000, 0.000000000000000000, 1.000000000000000000 ) ) ;
#433 = VERTEX_POINT ( 'NONE', #553 ) ;
#434 = FACE_OUTER_BOUND ( 'NONE', #622, .T. ) ;
#435 = EDGE_CURVE ( 'NONE', #373, #293, #771, .T. ) ;
#436 = ORIENTED_EDGE ( 'NONE', *, *, #382, .F. ) ;
#437 = CARTESIAN_POINT ( 'NONE',  ( 0.000000000000000000, 15.00000000000000000, 0.000000000000000000 ) ) ;
#438 = ORIENTED_EDGE ( 'NONE', *, *, #1081, .T. ) ;
#439 = PLANE ( 'NONE',  #1041 ) ;
#440 = DIRECTION ( 'NONE',  ( 0.000000000000000000, 0.000000000000000000, 1.000000000000000000 ) ) ;
#441 = VERTEX_POINT ( 'NONE', #374 ) ;
#442 = EDGE_CURVE ( 'NONE', #652, #366, #457, .T. ) ;
#443 = CARTESIAN_POINT ( 'NONE',  ( -2.000000000000000000, 80.29999999999999716, -1.813835714721705461 ) ) ;
#444 = AXIS2_PLACEMENT_3D ( 'NONE', #619, #1083, #171 ) ;
#445 = AXIS2_PLACEMENT_3D ( 'NONE', #241, #330, #1052 ) ;
#446 = ADVANCED_FACE ( 'NONE', ( #733 ), #286, .F. ) ;
#447 = ORIENTED_EDGE ( 'NONE', *, *, #78, .T. ) ;
#448 = CARTESIAN_POINT ( 'NONE',  ( 6.000000000000000000, 79.29999999999999716, -6.849999999999999645 ) ) ;
#449 = FACE_OUTER_BOUND ( 'NONE', #564, .T. ) ;
#450 = ORIENTED_EDGE ( 'NONE', *, *, #119, .F. ) ;
#451 = EDGE_CURVE ( 'NONE', #456, #245, #185, .T. ) ;
#452 = CARTESIAN_POINT ( 'NONE',  ( -9.638927202934969074, 79.29999999999999716, -2.899999999999999023 ) ) ;
#453 = CARTESIAN_POINT ( 'NONE',  ( 2.000000000000000000, 79.29999999999999716, -2.899999999999998579 ) ) ;
#454 = EDGE_CURVE ( 'NONE', #1138, #795, #81, .T. ) ;
#455 = DIRECTION ( 'NONE',  ( 0.000000000000000000, 0.000000000000000000, -1.000000000000000000 ) ) ;
#456 = VERTEX_POINT ( 'NONE', #1170 ) ;
#457 = LINE ( 'NONE', #1020, #656 ) ;
#458 = UNCERTAINTY_MEASURE_WITH_UNIT (LENGTH_MEASURE( 1.000000000000000082E-05 ), #179, 'distance_accuracy_value', 'NONE');
#459 = LINE ( 'NONE', #3, #987 ) ;
#460 = DIRECTION ( 'NONE',  ( 0.000000000000000000, 0.000000000000000000, 1.000000000000000000 ) ) ;
#461 = ADVANCED_FACE ( 'NONE', ( #716 ), #900, .T. ) ;
#462 = CARTESIAN_POINT ( 'NONE',  ( -4.000000000000000000, 1.000000000000000888, -5.849999999999999645 ) ) ;
#463 = VERTEX_POINT ( 'NONE', #405 ) ;
#464 = DIRECTION ( 'NONE',  ( -1.000000000000000000, -0.000000000000000000, -0.000000000000000000 ) ) ;
#465 = CIRCLE ( 'NONE', #371, 4.000000000000000000 ) ;
#466 = FACE_OUTER_BOUND ( 'NONE', #1047, .T. ) ;
#467 = VECTOR ( 'NONE', #1046, 1000.000000000000000 ) ;
#468 = CARTESIAN_POINT ( 'NONE',  ( -4.000000000000000000, 79.29999999999999716, -6.849999999999999645 ) ) ;
#469 = ORIENTED_EDGE ( 'NONE', *, *, #199, .F. ) ;
#470 = CARTESIAN_POINT ( 'NONE',  ( 0.000000000000000000, 0.5999999999999928724, 0.000000000000000000 ) ) ;
#471 = CIRCLE ( 'NONE', #618, 5.000000000000000000 ) ;
#472 = ADVANCED_FACE ( 'NONE', ( #114 ), #1042, .F. ) ;
#473 = CARTESIAN_POINT ( 'NONE',  ( -4.000000000000000000, 1.000000000000000888, 6.850000000000000533 ) ) ;
#474 = CARTESIAN_POINT ( 'NONE',  ( 2.000000000000000000, 79.29999999999999716, -2.899999999999998579 ) ) ;
#475 = ORIENTED_EDGE ( 'NONE', *, *, #435, .F. ) ;
#476 = DIRECTION ( 'NONE',  ( 0.000000000000000000, 0.000000000000000000, 1.000000000000000000 ) ) ;
#477 = ORIENTED_EDGE ( 'NONE', *, *, #627, .T. ) ;
#478 = CYLINDRICAL_SURFACE ( 'NONE', #881, 1.000000000000000888 ) ;
#479 = ORIENTED_EDGE ( 'NONE', *, *, #507, .T. ) ;
#480 = CARTESIAN_POINT ( 'NONE',  ( 6.000000000000000000, 0.000000000000000000, 2.850000000000000089 ) ) ;
#481 = ADVANCED_FACE ( 'NONE', ( #487 ), #321, .T. ) ;
#482 = ORIENTED_EDGE ( 'NONE', *, *, #973, .T. ) ;
#483 = CARTESIAN_POINT ( 'NONE',  ( 2.000000000000000000, 80.29999999999999716, -2.899999999999998579 ) ) ;
#484 = CARTESIAN_POINT ( 'NONE',  ( -2.000000000000000000, 79.29999999999999716, -1.813835714721705461 ) ) ;
#485 = ADVANCED_FACE ( 'NONE', ( #742 ), #1112, .T. ) ;
#486 = AXIS2_PLACEMENT_3D ( 'NONE', #910, #804, #72 ) ;
#487 = FACE_OUTER_BOUND ( 'NONE', #975, .T. ) ;
#488 = ORIENTED_EDGE ( 'NONE', *, *, #442, .T. ) ;
#489 = VECTOR ( 'NONE', #769, 1000.000000000000000 ) ;
#490 = LINE ( 'NONE', #1139, #1171 ) ;
#491 = AXIS2_PLACEMENT_3D ( 'NONE', #480, #1049, #1035 ) ;
#492 = DIRECTION ( 'NONE',  ( -0.000000000000000000, 1.000000000000000000, -0.000000000000000000 ) ) ;
#493 = CARTESIAN_POINT ( 'NONE',  ( -4.000000000000000000, 79.29999999999999716, -6.849999999999999645 ) ) ;
#494 = ORIENTED_EDGE ( 'NONE', *, *, #995, .T. ) ;
#495 = PLANE ( 'NONE',  #1134 ) ;
#496 = DIRECTION ( 'NONE',  ( 0.000000000000000000, -1.000000000000000000, 0.000000000000000000 ) ) ;
#497 = ADVANCED_FACE ( 'NONE', ( #847 ), #952, .F. ) ;
#498 = CARTESIAN_POINT ( 'NONE',  ( 0.000000000000000000, 15.60000000000000320, 0.000000000000000000 ) ) ;
#499 = ORIENTED_EDGE ( 'NONE', *, *, #663, .F. ) ;
#500 = CARTESIAN_POINT ( 'NONE',  ( 0.000000000000000000, 79.29999999999999716, 0.000000000000000000 ) ) ;
#501 = CARTESIAN_POINT ( 'NONE',  ( 6.000000000000000000, 79.29999999999999716, 6.849999999999999645 ) ) ;
#502 = VERTEX_POINT ( 'NONE', #134 ) ;
#503 = VECTOR ( 'NONE', #932, 1000.000000000000000 ) ;
#504 = LINE ( 'NONE', #874, #365 ) ;
#505 = VERTEX_POINT ( 'NONE', #493 ) ;
#506 = LINE ( 'NONE', #29, #409 ) ;
#507 = EDGE_CURVE ( 'NONE', #614, #361, #147, .T. ) ;
#508 = VECTOR ( 'NONE', #971, 1000.000000000000000 ) ;
#509 = ORIENTED_EDGE ( 'NONE', *, *, #1118, .F. ) ;
#510 = CIRCLE ( 'NONE', #790, 4.599999999999999645 ) ;
#511 = CYLINDRICAL_SURFACE ( 'NONE', #77, 1.000000000000000000 ) ;
#512 = ORIENTED_EDGE ( 'NONE', *, *, #1097, .F. ) ;
#513 = CARTESIAN_POINT ( 'NONE',  ( -2.000000000000000000, 80.29999999999999716, -2.899999999999998579 ) ) ;
#514 = CYLINDRICAL_SURFACE ( 'NONE', #1001, 6.000000000000000000 ) ;
#515 = ORIENTED_EDGE ( 'NONE', *, *, #382, .T. ) ;
#516 = DIRECTION ( 'NONE',  ( -0.000000000000000000, -1.000000000000000000, -0.000000000000000000 ) ) ;
#517 = EDGE_LOOP ( 'NONE', ( #924, #343, #39, #450 ) ) ;
#518 = FILL_AREA_STYLE ('',( #528 ) ) ;
#519 = VERTEX_POINT ( 'NONE', #566 ) ;
#520 = AXIS2_PLACEMENT_3D ( 'NONE', #557, #42, #402 ) ;
#521 = DIRECTION ( 'NONE',  ( -0.000000000000000000, 0.000000000000000000, 1.000000000000000000 ) ) ;
#522 = ORIENTED_EDGE ( 'NONE', *, *, #251, .F. ) ;
#523 = DIRECTION ( 'NONE',  ( 0.000000000000000000, 0.000000000000000000, 1.000000000000000000 ) ) ;
#524 = CIRCLE ( 'NONE', #165, 6.000000000000000000 ) ;
#525 = CIRCLE ( 'NONE', #970, 4.000000000000000000 ) ;
#526 = DIRECTION ( 'NONE',  ( -0.000000000000000000, -0.000000000000000000, -1.000000000000000000 ) ) ;
#527 = ORIENTED_EDGE ( 'NONE', *, *, #1097, .T. ) ;
#528 = FILL_AREA_STYLE_COLOUR ( '', #677 ) ;
#529 = EDGE_CURVE ( 'NONE', #64, #919, #304, .T. ) ;
#530 = DIRECTION ( 'NONE',  ( 0.000000000000000000, 0.000000000000000000, -1.000000000000000000 ) ) ;
#531 = EDGE_CURVE ( 'NONE', #1066, #662, #852, .T. ) ;
#532 = ORIENTED_EDGE ( 'NONE', *, *, #82, .T. ) ;
#533 = DIRECTION ( 'NONE',  ( -0.000000000000000000, 1.000000000000000000, 0.000000000000000000 ) ) ;
#534 = DIRECTION ( 'NONE',  ( 0.000000000000000000, -0.000000000000000000, 1.000000000000000000 ) ) ;
#535 = DIRECTION ( 'NONE',  ( -0.000000000000000000, 1.000000000000000000, 0.000000000000000000 ) ) ;
#536 = ORIENTED_EDGE ( 'NONE', *, *, #531, .T. ) ;
#537 = CIRCLE ( 'NONE', #1036, 6.000000000000000000 ) ;
#538 = CARTESIAN_POINT ( 'NONE',  ( -9.000000000000001776, 1.000000000000000888, -6.849999999999999645 ) ) ;
#539 = EDGE_CURVE ( 'NONE', #133, #630, #756, .T. ) ;
#540 = CARTESIAN_POINT ( 'NONE',  ( 3.306546357697853733E-16, 79.29999999999999716, 2.700000000000000178 ) ) ;
#541 = AXIS2_PLACEMENT_3D ( 'NONE', #16, #1085, #272 ) ;
#542 = ORIENTED_EDGE ( 'NONE', *, *, #242, .T. ) ;
#543 = DIRECTION ( 'NONE',  ( -0.000000000000000000, 1.000000000000000000, 0.000000000000000000 ) ) ;
#544 = CARTESIAN_POINT ( 'NONE',  ( 2.000000000000000444, 80.29999999999999716, 2.900000000000001243 ) ) ;
#545 = DIRECTION ( 'NONE',  ( -0.000000000000000000, -1.000000000000000000, -0.000000000000000000 ) ) ;
#546 = DIRECTION ( 'NONE',  ( 0.000000000000000000, 0.000000000000000000, -1.000000000000000000 ) ) ;
#547 = ORIENTED_EDGE ( 'NONE', *, *, #653, .F. ) ;
#548 = ORIENTED_EDGE ( 'NONE', *, *, #258, .T. ) ;
#549 = CARTESIAN_POINT ( 'NONE',  ( 0.000000000000000000, 80.29999999999999716, 0.000000000000000000 ) ) ;
#550 = PLANE ( 'NONE',  #725 ) ;
#551 = EDGE_CURVE ( 'NONE', #426, #245, #903, .T. ) ;
#552 = ORIENTED_EDGE ( 'NONE', *, *, #651, .F. ) ;
#553 = CARTESIAN_POINT ( 'NONE',  ( 6.000000000000000000, 0.000000000000000000, 5.849999999999999645 ) ) ;
#554 = PLANE ( 'NONE',  #729 ) ;
#555 = VECTOR ( 'NONE', #1149, 1000.000000000000000 ) ;
#556 = DIRECTION ( 'NONE',  ( 8.659560562354983395E-17, -0.7071067811865435759, 0.7071067811865515695 ) ) ;
#557 = CARTESIAN_POINT ( 'NONE',  ( -4.000000000000000000, 1.000000000000000888, -0.8499999999999992006 ) ) ;
#558 = CIRCLE ( 'NONE', #749, 5.000000000000000000 ) ;
#559 = DIRECTION ( 'NONE',  ( 1.000000000000000000, 0.000000000000000000, -0.000000000000000000 ) ) ;
#560 = CIRCLE ( 'NONE', #712, 3.000000000000000000 ) ;
#561 = ORIENTED_EDGE ( 'NONE', *, *, #208, .T. ) ;
#562 = ORIENTED_EDGE ( 'NONE', *, *, #1116, .F. ) ;
#563 = DIRECTION ( 'NONE',  ( 0.000000000000000000, -1.000000000000000000, 0.000000000000000000 ) ) ;
#564 = EDGE_LOOP ( 'NONE', ( #325, #447, #764, #285 ) ) ;
#565 = EDGE_CURVE ( 'NONE', #361, #706, #316, .T. ) ;
#566 = CARTESIAN_POINT ( 'NONE',  ( -2.000000000000000000, 79.29999999999999716, -2.899999999999998579 ) ) ;
#567 = EDGE_CURVE ( 'NONE', #578, #433, #339, .T. ) ;
#568 = ORIENTED_EDGE ( 'NONE', *, *, #375, .F. ) ;
#569 = DIRECTION ( 'NONE',  ( -1.000000000000000000, -0.000000000000000000, 0.000000000000000000 ) ) ;
#570 = ORIENTED_EDGE ( 'NONE', *, *, #966, .F. ) ;
#571 = EDGE_CURVE ( 'NONE', #939, #789, #218, .T. ) ;
#572 = DIRECTION ( 'NONE',  ( 0.000000000000000000, 0.000000000000000000, -1.000000000000000000 ) ) ;
#573 = ORIENTED_EDGE ( 'NONE', *, *, #993, .T. ) ;
#574 = FACE_OUTER_BOUND ( 'NONE', #747, .T. ) ;
#575 = FACE_OUTER_BOUND ( 'NONE', #699, .T. ) ;
#576 = AXIS2_PLACEMENT_3D ( 'NONE', #424, #1153, #1065 ) ;
#577 = DIRECTION ( 'NONE',  ( 0.000000000000000000, 0.000000000000000000, 1.000000000000000000 ) ) ;
#578 = VERTEX_POINT ( 'NONE', #928 ) ;
#579 = CIRCLE ( 'NONE', #222, 2.700000000000000178 ) ;
#580 = CARTESIAN_POINT ( 'NONE',  ( -9.000000000000001776, 0.000000000000000000, 0.000000000000000000 ) ) ;
#581 = DIRECTION ( 'NONE',  ( 0.000000000000000000, -1.000000000000000000, 0.000000000000000000 ) ) ;
#582 = AXIS2_PLACEMENT_3D ( 'NONE', #1107, #1014, #291 ) ;
#583 = DIRECTION ( 'NONE',  ( 0.000000000000000000, -1.000000000000000000, 0.000000000000000000 ) ) ;
#584 = ADVANCED_FACE ( 'NONE', ( #655 ), #223, .T. ) ;
#585 = CARTESIAN_POINT ( 'NONE',  ( 0.000000000000000000, 0.5999999999999928724, -4.000000000000000000 ) ) ;
#586 = DIRECTION ( 'NONE',  ( 0.000000000000000000, 0.000000000000000000, -1.000000000000000000 ) ) ;
#587 = VERTEX_POINT ( 'NONE', #837 ) ;
#588 = DIRECTION ( 'NONE',  ( -5.421010862427523403E-17, 0.000000000000000000, -1.000000000000000000 ) ) ;
#589 = CARTESIAN_POINT ( 'NONE',  ( -4.000000000000000000, 79.29999999999999716, -0.8499999999999992006 ) ) ;
#590 = ORIENTED_EDGE ( 'NONE', *, *, #107, .F. ) ;
#591 = CARTESIAN_POINT ( 'NONE',  ( 6.000000000000000000, 79.29999999999999716, 6.849999999999999645 ) ) ;
#592 = ADVANCED_FACE ( 'NONE', ( #938 ), #1025, .F. ) ;
#593 = VERTEX_POINT ( 'NONE', #213 ) ;
#594 = DIRECTION ( 'NONE',  ( 0.000000000000000000, 0.000000000000000000, 1.000000000000000000 ) ) ;
#595 = ORIENTED_EDGE ( 'NONE', *, *, #119, .T. ) ;
#596 = VECTOR ( 'NONE', #344, 1000.000000000000000 ) ;
#597 = CARTESIAN_POINT ( 'NONE',  ( -9.000000000000001776, 0.000000000000000000, 0.8500000000000000888 ) ) ;
#598 = ORIENTED_EDGE ( 'NONE', *, *, #529, .F. ) ;
#599 = DIRECTION ( 'NONE',  ( 0.000000000000000000, 0.000000000000000000, 1.000000000000000000 ) ) ;
#600 = CARTESIAN_POINT ( 'NONE',  ( 2.000000000000000444, 79.29999999999999716, 2.900000000000001243 ) ) ;
#601 = VECTOR ( 'NONE', #727, 1000.000000000000000 ) ;
#602 = ORIENTED_EDGE ( 'NONE', *, *, #418, .T. ) ;
#603 = VECTOR ( 'NONE', #559, 1000.000000000000000 ) ;
#604 = DIRECTION ( 'NONE',  ( -0.000000000000000000, 1.000000000000000000, 0.000000000000000000 ) ) ;
#605 = ORIENTED_EDGE ( 'NONE', *, *, #783, .F. ) ;
#606 = LINE ( 'NONE', #976, #31 ) ;
#607 = CARTESIAN_POINT ( 'NONE',  ( 0.000000000000000000, 79.29999999999999716, 0.000000000000000000 ) ) ;
#608 = ADVANCED_FACE ( 'NONE', ( #120 ), #1148, .T. ) ;
#609 = ORIENTED_EDGE ( 'NONE', *, *, #169, .F. ) ;
#610 = LINE ( 'NONE', #704, #355 ) ;
#611 = EDGE_CURVE ( 'NONE', #678, #441, #504, .T. ) ;
#612 = CIRCLE ( 'NONE', #818, 1.000000000000000888 ) ;
#613 = CARTESIAN_POINT ( 'NONE',  ( 0.000000000000000000, 0.5999999999999928724, 0.000000000000000000 ) ) ;
#614 = VERTEX_POINT ( 'NONE', #974 ) ;
#615 = SURFACE_STYLE_FILL_AREA ( #518 ) ;
#616 = AXIS2_PLACEMENT_3D ( 'NONE', #483, #940, #658 ) ;
#617 = ADVANCED_FACE ( 'NONE', ( #159 ), #511, .T. ) ;
#618 = AXIS2_PLACEMENT_3D ( 'NONE', #329, #1145, #599 ) ;
#619 = CARTESIAN_POINT ( 'NONE',  ( -4.000000000000000000, 80.29999999999999716, 0.8499999999999998668 ) ) ;
#620 = ORIENTED_EDGE ( 'NONE', *, *, #777, .F. ) ;
#621 = CARTESIAN_POINT ( 'NONE',  ( 2.000000000000000000, 80.29999999999999716, -2.899999999999998579 ) ) ;
#622 = EDGE_LOOP ( 'NONE', ( #239, #781, #532, #214 ) ) ;
#623 = DIRECTION ( 'NONE',  ( -0.000000000000000000, 1.000000000000000000, 0.000000000000000000 ) ) ;
#624 = CARTESIAN_POINT ( 'NONE',  ( -10.00000000000000000, 1.000000000000000888, 0.8500000000000000888 ) ) ;
#625 = ORIENTED_EDGE ( 'NONE', *, *, #571, .T. ) ;
#626 = DIRECTION ( 'NONE',  ( 0.000000000000000000, -1.000000000000000000, 0.000000000000000000 ) ) ;
#627 = EDGE_CURVE ( 'NONE', #587, #614, #148, .T. ) ;
#628 = ORIENTED_EDGE ( 'NONE', *, *, #9, .F. ) ;
#629 = FACE_OUTER_BOUND ( 'NONE', #1022, .T. ) ;
#630 = VERTEX_POINT ( 'NONE', #53 ) ;
#631 = CARTESIAN_POINT ( 'NONE',  ( 6.000000000000000000, 1.000000000000000888, -6.849999999999999645 ) ) ;
#632 = CIRCLE ( 'NONE', #941, 4.000000000000000000 ) ;
#633 = LINE ( 'NONE', #453, #338 ) ;
#634 = DIRECTION ( 'NONE',  ( 0.000000000000000000, 0.000000000000000000, -1.000000000000000000 ) ) ;
#635 = VECTOR ( 'NONE', #228, 1000.000000000000000 ) ;
#636 = CYLINDRICAL_SURFACE ( 'NONE', #785, 4.000000000000000000 ) ;
#637 = VECTOR ( 'NONE', #1135, 1000.000000000000000 ) ;
#638 = ORIENTED_EDGE ( 'NONE', *, *, #713, .F. ) ;
#639 = CARTESIAN_POINT ( 'NONE',  ( 6.000000000000000000, 1.000000000000000888, 2.850000000000000089 ) ) ;
#640 = EDGE_LOOP ( 'NONE', ( #401, #393, #515, #1141 ) ) ;
#641 = LINE ( 'NONE', #815, #503 ) ;
#642 = ADVANCED_FACE ( 'NONE', ( #1162 ), #238, .T. ) ;
#643 = DIRECTION ( 'NONE',  ( 1.000000000000000000, 0.000000000000000000, 5.421010862427522170E-17 ) ) ;
#644 = ORIENTED_EDGE ( 'NONE', *, *, #836, .F. ) ;
#645 = CARTESIAN_POINT ( 'NONE',  ( -10.00000000000000000, 79.29999999999999716, 6.850000000000000533 ) ) ;
#646 = FACE_OUTER_BOUND ( 'NONE', #172, .T. ) ;
#647 = ORIENTED_EDGE ( 'NONE', *, *, #169, .T. ) ;
#648 = ORIENTED_EDGE ( 'NONE', *, *, #95, .T. ) ;
#649 = AXIS2_PLACEMENT_3D ( 'NONE', #360, #1088, #363 ) ;
#650 = AXIS2_PLACEMENT_3D ( 'NONE', #124, #152, #676 ) ;
#651 = EDGE_CURVE ( 'NONE', #593, #678, #858, .T. ) ;
#652 = VERTEX_POINT ( 'NONE', #63 ) ;
#653 = EDGE_CURVE ( 'NONE', #789, #305, #671, .T. ) ;
#654 = VECTOR ( 'NONE', #1161, 1000.000000000000000 ) ;
#655 = FACE_OUTER_BOUND ( 'NONE', #1008, .T. ) ;
#656 = VECTOR ( 'NONE', #907, 1000.000000000000000 ) ;
#657 = ORIENTED_EDGE ( 'NONE', *, *, #149, .F. ) ;
#658 = DIRECTION ( 'NONE',  ( 1.000000000000000000, 0.000000000000000000, -0.000000000000000000 ) ) ;
#659 = DIRECTION ( 'NONE',  ( -7.477256361968996479E-17, 0.000000000000000000, -1.000000000000000000 ) ) ;
#660 = EDGE_CURVE ( 'NONE', #406, #45, #1167, .T. ) ;
#661 = CARTESIAN_POINT ( 'NONE',  ( 6.000000000000000000, 79.29999999999999716, -2.849999999999999201 ) ) ;
#662 = VERTEX_POINT ( 'NONE', #419 ) ;
#663 = EDGE_CURVE ( 'NONE', #1108, #662, #685, .T. ) ;
#664 = CARTESIAN_POINT ( 'NONE',  ( 2.000000000000000444, 80.29999999999999716, 2.900000000000001243 ) ) ;
#665 = DIRECTION ( 'NONE',  ( -0.000000000000000000, 1.000000000000000000, -0.000000000000000000 ) ) ;
#666 = DIRECTION ( 'NONE',  ( 0.000000000000000000, 0.000000000000000000, 1.000000000000000000 ) ) ;
#667 = VERTEX_POINT ( 'NONE', #597 ) ;
#668 = CARTESIAN_POINT ( 'NONE',  ( 9.999687487792014551, 80.29999999999999716, -2.899999999999998579 ) ) ;
#669 = LINE ( 'NONE', #770, #315 ) ;
#670 = EDGE_CURVE ( 'NONE', #879, #969, #612, .T. ) ;
#671 = CIRCLE ( 'NONE', #1127, 4.599999999999999645 ) ;
#672 = DIRECTION ( 'NONE',  ( 1.000000000000000000, 0.000000000000000000, -7.477256361968996479E-17 ) ) ;
#673 = EDGE_LOOP ( 'NONE', ( #178, #701, #349, #436 ) ) ;
#674 = VECTOR ( 'NONE', #137, 1000.000000000000000 ) ;
#675 = DIRECTION ( 'NONE',  ( -0.000000000000000000, -1.000000000000000000, -0.000000000000000000 ) ) ;
#676 = DIRECTION ( 'NONE',  ( 0.000000000000000000, -0.000000000000000000, 1.000000000000000000 ) ) ;
#677 = COLOUR_RGB ( '',0.4980392156862745168, 0.4980392156862745168, 0.4980392156862745168 ) ;
#678 = VERTEX_POINT ( 'NONE', #967 ) ;
#679 = EDGE_CURVE ( 'NONE', #919, #426, #708, .T. ) ;
#680 = CARTESIAN_POINT ( 'NONE',  ( 4.041334437186262058E-16, 15.00000000000000000, 3.299999999999997158 ) ) ;
#681 = ORIENTED_EDGE ( 'NONE', *, *, #877, .T. ) ;
#682 = CARTESIAN_POINT ( 'NONE',  ( -1.999999999999999556, 80.29999999999999716, 2.900000000000001243 ) ) ;
#683 = DIRECTION ( 'NONE',  ( 1.000000000000000000, 0.000000000000000000, 0.000000000000000000 ) ) ;
#684 = EDGE_LOOP ( 'NONE', ( #628, #1089, #772, #1037 ) ) ;
#685 = LINE ( 'NONE', #58, #798 ) ;
#686 = ORIENTED_EDGE ( 'NONE', *, *, #851, .F. ) ;
#687 = DIRECTION ( 'NONE',  ( 0.000000000000000000, 0.000000000000000000, 1.000000000000000000 ) ) ;
#688 = DIRECTION ( 'NONE',  ( -1.000000000000000000, -0.000000000000000000, 4.336808689942018352E-17 ) ) ;
#689 = ADVANCED_FACE ( 'NONE', ( #878, #791 ), #698, .T. ) ;
#690 = AXIS2_PLACEMENT_3D ( 'NONE', #188, #117, #103 ) ;
#691 = EDGE_CURVE ( 'NONE', #939, #502, #465, .T. ) ;
#692 = DIRECTION ( 'NONE',  ( 0.000000000000000000, -1.000000000000000000, 0.000000000000000000 ) ) ;
#693 = ORIENTED_EDGE ( 'NONE', *, *, #107, .T. ) ;
#694 = CARTESIAN_POINT ( 'NONE',  ( -4.000000000000000000, 1.000000000000000888, 0.8499999999999998668 ) ) ;
#695 = CIRCLE ( 'NONE', #1006, 6.000000000000000000 ) ;
#696 = AXIS2_PLACEMENT_3D ( 'NONE', #470, #820, #197 ) ;
#697 = EDGE_CURVE ( 'NONE', #373, #139, #1061, .T. ) ;
#698 = PLANE ( 'NONE',  #387 ) ;
#699 = EDGE_LOOP ( 'NONE', ( #988, #934, #6, #1147 ) ) ;
#700 = CARTESIAN_POINT ( 'NONE',  ( 6.000000000000000000, 0.000000000000000000, -5.849999999999999645 ) ) ;
#701 = ORIENTED_EDGE ( 'NONE', *, *, #565, .T. ) ;
#702 = CARTESIAN_POINT ( 'NONE',  ( 4.041334437186262058E-16, 15.00000000000000000, 3.299999999999997158 ) ) ;
#703 = EDGE_LOOP ( 'NONE', ( #320, #869, #1128, #266 ) ) ;
#704 = CARTESIAN_POINT ( 'NONE',  ( -2.000000000000000000, 80.29999999999999716, -2.899999999999998579 ) ) ;
#705 = EDGE_CURVE ( 'NONE', #335, #406, #164, .T. ) ;
#706 = VERTEX_POINT ( 'NONE', #702 ) ;
#707 = CIRCLE ( 'NONE', #201, 2.700000000000000178 ) ;
#708 = LINE ( 'NONE', #780, #555 ) ;
#709 = VECTOR ( 'NONE', #1131, 1000.000000000000000 ) ;
#710 = ORIENTED_EDGE ( 'NONE', *, *, #866, .F. ) ;
#711 = CARTESIAN_POINT ( 'NONE',  ( 6.000000000000000000, 0.000000000000000000, -2.849999999999999201 ) ) ;
#712 = AXIS2_PLACEMENT_3D ( 'NONE', #711, #893, #415 ) ;
#713 = EDGE_CURVE ( 'NONE', #433, #767, #66, .T. ) ;
#714 = CYLINDRICAL_SURFACE ( 'NONE', #369, 6.000000000000000000 ) ;
#715 = ORIENTED_EDGE ( 'NONE', *, *, #109, .T. ) ;
#716 = FACE_OUTER_BOUND ( 'NONE', #300, .T. ) ;
#717 = LINE ( 'NONE', #468, #1111 ) ;
#718 = ORIENTED_EDGE ( 'NONE', *, *, #454, .F. ) ;
#719 = CARTESIAN_POINT ( 'NONE',  ( 0.000000000000000000, 15.00000000000000000, -3.299999999999997158 ) ) ;
#720 = LINE ( 'NONE', #1098, #861 ) ;
#721 = AXIS2_PLACEMENT_3D ( 'NONE', #252, #978, #432 ) ;
#722 = LINE ( 'NONE', #911, #1093 ) ;
#723 = VERTEX_POINT ( 'NONE', #591 ) ;
#724 = DIRECTION ( 'NONE',  ( 0.000000000000000000, 0.000000000000000000, 1.000000000000000000 ) ) ;
#725 = AXIS2_PLACEMENT_3D ( 'NONE', #354, #917, #811 ) ;
#726 = VECTOR ( 'NONE', #1109, 1000.000000000000000 ) ;
#727 = DIRECTION ( 'NONE',  ( -7.477256361968996479E-17, -0.000000000000000000, -1.000000000000000000 ) ) ;
#728 = CARTESIAN_POINT ( 'NONE',  ( 6.000000000000000000, 1.000000000000000888, -2.849999999999999201 ) ) ;
#729 = AXIS2_PLACEMENT_3D ( 'NONE', #1178, #997, #1015 ) ;
#730 = FACE_OUTER_BOUND ( 'NONE', #752, .T. ) ;
#731 = AXIS2_PLACEMENT_3D ( 'NONE', #498, #765, #945 ) ;
#732 = ORIENTED_EDGE ( 'NONE', *, *, #236, .F. ) ;
#733 = FACE_OUTER_BOUND ( 'NONE', #875, .T. ) ;
#734 = ADVANCED_FACE ( 'NONE', ( #629 ), #714, .T. ) ;
#735 = DIRECTION ( 'NONE',  ( 0.000000000000000000, -0.000000000000000000, 1.000000000000000000 ) ) ;
#736 = DIRECTION ( 'NONE',  ( -0.000000000000000000, 1.000000000000000000, 0.000000000000000000 ) ) ;
#737 = CARTESIAN_POINT ( 'NONE',  ( -10.00000000000000000, 79.29999999999999716, -6.849999999999999645 ) ) ;
#738 = ADVANCED_FACE ( 'NONE', ( #999 ), #550, .F. ) ;
#739 = ORIENTED_EDGE ( 'NONE', *, *, #237, .T. ) ;
#740 = LINE ( 'NONE', #1115, #982 ) ;
#741 = EDGE_CURVE ( 'NONE', #287, #1138, #963, .T. ) ;
#742 = FACE_OUTER_BOUND ( 'NONE', #1120, .T. ) ;
#743 = VERTEX_POINT ( 'NONE', #624 ) ;
#744 = DIRECTION ( 'NONE',  ( -0.000000000000000000, 1.000000000000000000, -0.000000000000000000 ) ) ;
#745 = VECTOR ( 'NONE', #364, 1000.000000000000000 ) ;
#746 = DIRECTION ( 'NONE',  ( 0.000000000000000000, 0.000000000000000000, 1.000000000000000000 ) ) ;
#747 = EDGE_LOOP ( 'NONE', ( #399, #193, #96, #1133 ) ) ;
#748 = ADVANCED_FACE ( 'NONE', ( #730 ), #183, .T. ) ;
#749 = AXIS2_PLACEMENT_3D ( 'NONE', #273, #809, #814 ) ;
#750 = CARTESIAN_POINT ( 'NONE',  ( 9.999687487792014551, 79.29999999999999716, 2.900000000000000799 ) ) ;
#751 = AXIS2_PLACEMENT_3D ( 'NONE', #394, #43, #577 ) ;
#752 = EDGE_LOOP ( 'NONE', ( #819, #395, #922, #562 ) ) ;
#753 = CARTESIAN_POINT ( 'NONE',  ( 0.000000000000000000, 15.00000000000000000, 0.000000000000000000 ) ) ;
#754 = CARTESIAN_POINT ( 'NONE',  ( -10.00000000000000000, 79.29999999999999716, 2.900000000000000799 ) ) ;
#755 = VERTEX_POINT ( 'NONE', #1175 ) ;
#756 = LINE ( 'NONE', #750, #243 ) ;
#757 = VERTEX_POINT ( 'NONE', #540 ) ;
#758 = CYLINDRICAL_SURFACE ( 'NONE', #766, 2.700000000000000178 ) ;
#759 = CARTESIAN_POINT ( 'NONE',  ( 6.000000000000000000, 79.29999999999999716, 2.850000000000000089 ) ) ;
#760 = ORIENTED_EDGE ( 'NONE', *, *, #109, .F. ) ;
#761 = CARTESIAN_POINT ( 'NONE',  ( 9.999687487792014551, 79.29999999999999716, 2.900000000000000799 ) ) ;
#762 = EDGE_CURVE ( 'NONE', #1021, #505, #717, .T. ) ;
#763 = AXIS2_PLACEMENT_3D ( 'NONE', #303, #1028, #659 ) ;
#764 = ORIENTED_EDGE ( 'NONE', *, *, #1087, .T. ) ;
#765 = DIRECTION ( 'NONE',  ( -0.000000000000000000, -1.000000000000000000, -0.000000000000000000 ) ) ;
#766 = AXIS2_PLACEMENT_3D ( 'NONE', #1027, #302, #233 ) ;
#767 = VERTEX_POINT ( 'NONE', #994 ) ;
#768 = CIRCLE ( 'NONE', #259, 2.700000000000000178 ) ;
#769 = DIRECTION ( 'NONE',  ( -0.000000000000000000, -0.000000000000000000, -1.000000000000000000 ) ) ;
#770 = CARTESIAN_POINT ( 'NONE',  ( 2.537033083616080869E-16, 0.000000000000000000, 5.850000000000000533 ) ) ;
#771 = CIRCLE ( 'NONE', #582, 2.700000000000000178 ) ;
#772 = ORIENTED_EDGE ( 'NONE', *, *, #1056, .T. ) ;
#773 = DIRECTION ( 'NONE',  ( 0.000000000000000000, -1.000000000000000000, 0.000000000000000000 ) ) ;
#774 = ORIENTED_EDGE ( 'NONE', *, *, #9, .T. ) ;
#775 = DIRECTION ( 'NONE',  ( -0.000000000000000000, -1.000000000000000000, -0.000000000000000000 ) ) ;
#776 = PLANE ( 'NONE',  #943 ) ;
#777 = EDGE_CURVE ( 'NONE', #175, #652, #176, .T. ) ;
#778 = VERTEX_POINT ( 'NONE', #799 ) ;
#779 = EDGE_CURVE ( 'NONE', #80, #706, #1073, .T. ) ;
#780 = CARTESIAN_POINT ( 'NONE',  ( 6.000000000000000000, 79.29999999999999716, -6.849999999999999645 ) ) ;
#781 = ORIENTED_EDGE ( 'NONE', *, *, #866, .T. ) ;
#782 = CARTESIAN_POINT ( 'NONE',  ( 9.999999999999998224, 80.29999999999999716, 2.850000000000000533 ) ) ;
#783 = EDGE_CURVE ( 'NONE', #795, #784, #537, .T. ) ;
#784 = VERTEX_POINT ( 'NONE', #890 ) ;
#785 = AXIS2_PLACEMENT_3D ( 'NONE', #1007, #84, #546 ) ;
#786 = EDGE_LOOP ( 'NONE', ( #960, #657, #512, #191 ) ) ;
#787 = CARTESIAN_POINT ( 'NONE',  ( 0.000000000000000000, 0.000000000000000000, 0.000000000000000000 ) ) ;
#788 = AXIS2_PLACEMENT_3D ( 'NONE', #931, #829, #111 ) ;
#789 = VERTEX_POINT ( 'NONE', #1168 ) ;
#790 = AXIS2_PLACEMENT_3D ( 'NONE', #787, #543, #827 ) ;
#791 = FACE_OUTER_BOUND ( 'NONE', #1064, .T. ) ;
#792 = ORIENTED_EDGE ( 'NONE', *, *, #860, .F. ) ;
#793 = CARTESIAN_POINT ( 'NONE',  ( -10.00000000000000000, 1.000000000000000888, 6.850000000000000533 ) ) ;
#794 = DIRECTION ( 'NONE',  ( -1.000000000000000000, 0.000000000000000000, 0.000000000000000000 ) ) ;
#795 = VERTEX_POINT ( 'NONE', #284 ) ;
#796 = CARTESIAN_POINT ( 'NONE',  ( -2.000000000000000000, 80.29999999999999716, -2.899999999999998579 ) ) ;
#797 = ADVANCED_FACE ( 'NONE', ( #896 ), #636, .F. ) ;
#798 = VECTOR ( 'NONE', #340, 1000.000000000000000 ) ;
#799 = CARTESIAN_POINT ( 'NONE',  ( 9.999999999999998224, 1.000000000000000888, 2.850000000000000977 ) ) ;
#800 = AXIS2_PLACEMENT_3D ( 'NONE', #728, #736, #746 ) ;
#801 = EDGE_LOOP ( 'NONE', ( #509, #573, #609, #15, #892, #1110, #477, #479 ) ) ;
#802 = CARTESIAN_POINT ( 'NONE',  ( -9.638927202934969074, 80.29999999999999716, 2.900000000000000799 ) ) ;
#803 = EDGE_LOOP ( 'NONE', ( #857, #322, #561, #101, #914, #710, #979, #295 ) ) ;
#804 = DIRECTION ( 'NONE',  ( -0.000000000000000000, -1.000000000000000000, -0.000000000000000000 ) ) ;
#805 = AXIS2_PLACEMENT_3D ( 'NONE', #86, #388, #842 ) ;
#806 = DIRECTION ( 'NONE',  ( 0.000000000000000000, 0.000000000000000000, -1.000000000000000000 ) ) ;
#807 = ORIENTED_EDGE ( 'NONE', *, *, #891, .T. ) ;
#808 = DIRECTION ( 'NONE',  ( -0.000000000000000000, 1.000000000000000000, 0.000000000000000000 ) ) ;
#809 = DIRECTION ( 'NONE',  ( 0.000000000000000000, -1.000000000000000000, -0.000000000000000000 ) ) ;
#810 = PRODUCT ( 'GRIP', 'GRIP', '', ( #56 ) ) ;
#811 = DIRECTION ( 'NONE',  ( 1.000000000000000000, 0.000000000000000000, -0.000000000000000000 ) ) ;
#812 = ORIENTED_EDGE ( 'NONE', *, *, #25, .F. ) ;
#813 = LINE ( 'NONE', #2, #946 ) ;
#814 = DIRECTION ( 'NONE',  ( 0.000000000000000000, 0.000000000000000000, 1.000000000000000000 ) ) ;
#815 = CARTESIAN_POINT ( 'NONE',  ( 2.000000000000000444, 80.29999999999999716, 2.900000000000001243 ) ) ;
#816 = ADVANCED_FACE ( 'NONE', ( #449 ), #817, .F. ) ;
#817 = PLANE ( 'NONE',  #840 ) ;
#818 = AXIS2_PLACEMENT_3D ( 'NONE', #348, #521, #959 ) ;
#819 = ORIENTED_EDGE ( 'NONE', *, *, #713, .T. ) ;
#820 = DIRECTION ( 'NONE',  ( 0.000000000000000000, -1.000000000000000000, 0.000000000000000000 ) ) ;
#821 = DIRECTION ( 'NONE',  ( 0.000000000000000000, -0.000000000000000000, 1.000000000000000000 ) ) ;
#822 = LINE ( 'NONE', #11, #726 ) ;
#823 = VECTOR ( 'NONE', #151, 1000.000000000000000 ) ;
#824 = CARTESIAN_POINT ( 'NONE',  ( 0.000000000000000000, 15.00000000000000000, 0.000000000000000000 ) ) ;
#825 = VECTOR ( 'NONE', #192, 1000.000000000000000 ) ;
#826 = ORIENTED_EDGE ( 'NONE', *, *, #611, .F. ) ;
#827 = DIRECTION ( 'NONE',  ( 0.000000000000000000, 0.000000000000000000, 1.000000000000000000 ) ) ;
#828 = EDGE_CURVE ( 'NONE', #1044, #85, #314, .T. ) ;
#829 = DIRECTION ( 'NONE',  ( 0.000000000000000000, -1.000000000000000000, 0.000000000000000000 ) ) ;
#830 = CARTESIAN_POINT ( 'NONE',  ( 0.000000000000000000, 15.00000000000000000, -4.000000000000000000 ) ) ;
#831 = EDGE_LOOP ( 'NONE', ( #311, #885, #469, #1095 ) ) ;
#832 = CARTESIAN_POINT ( 'NONE',  ( 0.000000000000000000, 80.29999999999999716, 0.000000000000000000 ) ) ;
#833 = ORIENTED_EDGE ( 'NONE', *, *, #135, .F. ) ;
#834 = PLANE ( 'NONE',  #788 ) ;
#835 = PLANE ( 'NONE',  #763 ) ;
#836 = EDGE_CURVE ( 'NONE', #335, #778, #722, .T. ) ;
#837 = CARTESIAN_POINT ( 'NONE',  ( 0.000000000000000000, 79.29999999999999716, -2.700000000000000178 ) ) ;
#838 = VERTEX_POINT ( 'NONE', #94 ) ;
#839 = DIRECTION ( 'NONE',  ( 1.000000000000000000, 0.000000000000000000, 0.000000000000000000 ) ) ;
#840 = AXIS2_PLACEMENT_3D ( 'NONE', #1012, #1179, #806 ) ;
#841 = LINE ( 'NONE', #754, #144 ) ;
#842 = DIRECTION ( 'NONE',  ( -1.000000000000000000, 0.000000000000000000, 0.000000000000000000 ) ) ;
#843 = VECTOR ( 'NONE', #1119, 999.9999999999998863 ) ;
#844 = EDGE_LOOP ( 'NONE', ( #1013, #602 ) ) ;
#845 = CARTESIAN_POINT ( 'NONE',  ( -9.000000000000001776, 1.000000000000000888, -0.8499999999999992006 ) ) ;
#846 = DIRECTION ( 'NONE',  ( -0.000000000000000000, 1.000000000000000000, -0.000000000000000000 ) ) ;
#847 = FACE_OUTER_BOUND ( 'NONE', #227, .T. ) ;
#848 = EDGE_CURVE ( 'NONE', #1021, #456, #274, .T. ) ;
#849 = ORIENTED_EDGE ( 'NONE', *, *, #958, .T. ) ;
#850 = DIRECTION ( 'NONE',  ( -1.000000000000000000, 0.000000000000000000, 5.421010862427523403E-17 ) ) ;
#851 = EDGE_CURVE ( 'NONE', #1138, #175, #372, .T. ) ;
#852 = LINE ( 'NONE', #398, #637 ) ;
#853 = ORIENTED_EDGE ( 'NONE', *, *, #298, .F. ) ;
#854 = CARTESIAN_POINT ( 'NONE',  ( -9.638927202934969074, 79.29999999999999716, -2.899999999999999023 ) ) ;
#855 = DIRECTION ( 'NONE',  ( 0.000000000000000000, 0.000000000000000000, 1.000000000000000000 ) ) ;
#856 = VECTOR ( 'NONE', #4, 1000.000000000000000 ) ;
#857 = ORIENTED_EDGE ( 'NONE', *, *, #324, .T. ) ;
#858 = CIRCLE ( 'NONE', #1039, 6.000000000000000000 ) ;
#859 = DIRECTION ( 'NONE',  ( 0.000000000000000000, -0.000000000000000000, 1.000000000000000000 ) ) ;
#860 = EDGE_CURVE ( 'NONE', #919, #505, #195, .T. ) ;
#861 = VECTOR ( 'NONE', #1092, 1000.000000000000000 ) ;
#862 = ORIENTED_EDGE ( 'NONE', *, *, #1136, .F. ) ;
#863 = MECHANICAL_DESIGN_GEOMETRIC_PRESENTATION_REPRESENTATION (  '', ( #207 ), #281 ) ;
#864 = CARTESIAN_POINT ( 'NONE',  ( -4.000000000000000000, 1.000000000000000888, -0.8499999999999992006 ) ) ;
#865 =( NAMED_UNIT ( * ) PLANE_ANGLE_UNIT ( ) SI_UNIT ( $, .RADIAN. ) );
#866 = EDGE_CURVE ( 'NONE', #373, #1010, #397, .T. ) ;
#867 = ORIENTED_EDGE ( 'NONE', *, *, #82, .F. ) ;
#868 = DIRECTION ( 'NONE',  ( 0.000000000000000000, 1.000000000000000000, 0.000000000000000000 ) ) ;
#869 = ORIENTED_EDGE ( 'NONE', *, *, #539, .T. ) ;
#870 = CARTESIAN_POINT ( 'NONE',  ( -10.00000000000000000, 80.29999999999999716, 0.8500000000000000888 ) ) ;
#871 = DIRECTION ( 'NONE',  ( 0.000000000000000000, 0.000000000000000000, -1.000000000000000000 ) ) ;
#872 = ORIENTED_EDGE ( 'NONE', *, *, #298, .T. ) ;
#873 = CARTESIAN_POINT ( 'NONE',  ( 0.000000000000000000, 0.5999999999999928724, 0.000000000000000000 ) ) ;
#874 = CARTESIAN_POINT ( 'NONE',  ( -10.00000000000000000, 79.29999999999999716, -0.8499999999999992006 ) ) ;
#875 = EDGE_LOOP ( 'NONE', ( #1113, #739, #59, #26 ) ) ;
#876 = SURFACE_STYLE_USAGE ( .BOTH. , #886 ) ;
#877 = EDGE_CURVE ( 'NONE', #1021, #441, #998, .T. ) ;
#878 = FACE_BOUND ( 'NONE', #844, .T. ) ;
#879 = VERTEX_POINT ( 'NONE', #290 ) ;
#880 = PLANE ( 'NONE',  #13 ) ;
#881 = AXIS2_PLACEMENT_3D ( 'NONE', #538, #821, #385 ) ;
#882 = CARTESIAN_POINT ( 'NONE',  ( -2.000000000000000000, 80.29999999999999716, -2.899999999999998579 ) ) ;
#883 = AXIS2_PLACEMENT_3D ( 'NONE', #108, #1029, #476 ) ;
#884 = CARTESIAN_POINT ( 'NONE',  ( -10.00000000000000000, 1.000000000000000888, -5.849999999999999645 ) ) ;
#885 = ORIENTED_EDGE ( 'NONE', *, *, #62, .F. ) ;
#886 = SURFACE_SIDE_STYLE ('',( #615 ) ) ;
#887 = EDGE_LOOP ( 'NONE', ( #488, #807, #908, #1166 ) ) ;
#888 = PLANE ( 'NONE',  #1152 ) ;
#889 = ADVANCED_BREP_SHAPE_REPRESENTATION ( 'GRIP', ( #353, #404 ), #1130 ) ;
#890 = CARTESIAN_POINT ( 'NONE',  ( -4.000000000000000000, 79.29999999999999716, 6.850000000000000533 ) ) ;
#891 = EDGE_CURVE ( 'NONE', #366, #293, #927, .T. ) ;
#892 = ORIENTED_EDGE ( 'NONE', *, *, #531, .F. ) ;
#893 = DIRECTION ( 'NONE',  ( 0.000000000000000000, -1.000000000000000000, -0.000000000000000000 ) ) ;
#894 = LINE ( 'NONE', #1173, #981 ) ;
#895 = VECTOR ( 'NONE', #950, 1000.000000000000000 ) ;
#896 = FACE_OUTER_BOUND ( 'NONE', #684, .T. ) ;
#897 = CIRCLE ( 'NONE', #800, 4.000000000000000000 ) ;
#898 = ORIENTED_EDGE ( 'NONE', *, *, #326, .T. ) ;
#899 = ADVANCED_FACE ( 'NONE', ( #1000 ), #425, .F. ) ;
#900 = CYLINDRICAL_SURFACE ( 'NONE', #805, 1.000000000000000888 ) ;
#901 = EDGE_CURVE ( 'NONE', #139, #519, #181, .T. ) ;
#902 = ORIENTED_EDGE ( 'NONE', *, *, #442, .F. ) ;
#903 = CIRCLE ( 'NONE', #186, 1.000000000000000000 ) ;
#904 = DIRECTION ( 'NONE',  ( -0.000000000000000000, 1.000000000000000000, -0.000000000000000000 ) ) ;
#905 = ORIENTED_EDGE ( 'NONE', *, *, #660, .T. ) ;
#906 = ADVANCED_FACE ( 'NONE', ( #189 ), #182, .F. ) ;
#907 = DIRECTION ( 'NONE',  ( -7.477256361968996479E-17, -0.000000000000000000, -1.000000000000000000 ) ) ;
#908 = ORIENTED_EDGE ( 'NONE', *, *, #292, .F. ) ;
#909 = LINE ( 'NONE', #474, #856 ) ;
#910 = CARTESIAN_POINT ( 'NONE',  ( 0.000000000000000000, 15.00000000000000000, 0.000000000000000000 ) ) ;
#911 = CARTESIAN_POINT ( 'NONE',  ( 9.999999999999998224, 79.29999999999999716, 2.850000000000000977 ) ) ;
#912 = ORIENTED_EDGE ( 'NONE', *, *, #1068, .T. ) ;
#913 = FACE_OUTER_BOUND ( 'NONE', #125, .T. ) ;
#914 = ORIENTED_EDGE ( 'NONE', *, *, #251, .T. ) ;
#915 = LINE ( 'NONE', #98, #918 ) ;
#916 = ADVANCED_FACE ( 'NONE', ( #93, #170 ), #888, .F. ) ;
#917 = DIRECTION ( 'NONE',  ( 0.000000000000000000, 0.000000000000000000, 1.000000000000000000 ) ) ;
#918 = VECTOR ( 'NONE', #556, 999.9999999999998863 ) ;
#919 = VERTEX_POINT ( 'NONE', #448 ) ;
#920 =( NAMED_UNIT ( * ) SI_UNIT ( $, .STERADIAN. ) SOLID_ANGLE_UNIT ( ) );
#921 = AXIS2_PLACEMENT_3D ( 'NONE', #955, #1032, #313 ) ;
#922 = ORIENTED_EDGE ( 'NONE', *, *, #828, .F. ) ;
#923 = DIRECTION ( 'NONE',  ( 0.000000000000000000, 0.000000000000000000, -1.000000000000000000 ) ) ;
#924 = ORIENTED_EDGE ( 'NONE', *, *, #551, .T. ) ;
#925 = AXIS2_PLACEMENT_3D ( 'NONE', #500, #1151, #1063 ) ;
#926 = AXIS2_PLACEMENT_3D ( 'NONE', #33, #226, #310 ) ;
#927 = LINE ( 'NONE', #177, #745 ) ;
#928 = CARTESIAN_POINT ( 'NONE',  ( 9.000000000000000000, 0.000000000000000000, 2.850000000000000977 ) ) ;
#929 = ORIENTED_EDGE ( 'NONE', *, *, #697, .T. ) ;
#930 = EDGE_CURVE ( 'NONE', #969, #406, #894, .T. ) ;
#931 = CARTESIAN_POINT ( 'NONE',  ( 0.000000000000000000, 80.29999999999999716, 0.000000000000000000 ) ) ;
#932 = DIRECTION ( 'NONE',  ( 1.000000000000000000, 0.000000000000000000, -5.421010862427523403E-17 ) ) ;
#933 = DIRECTION ( 'NONE',  ( 0.000000000000000000, 0.000000000000000000, -1.000000000000000000 ) ) ;
#934 = ORIENTED_EDGE ( 'NONE', *, *, #135, .T. ) ;
#935 = CARTESIAN_POINT ( 'NONE',  ( -4.000000000000000000, 79.29999999999999716, -0.8499999999999992006 ) ) ;
#936 = DIRECTION ( 'NONE',  ( 0.000000000000000000, 0.000000000000000000, -1.000000000000000000 ) ) ;
#937 = ORIENTED_EDGE ( 'NONE', *, *, #292, .T. ) ;
#938 = FACE_OUTER_BOUND ( 'NONE', #801, .T. ) ;
#939 = VERTEX_POINT ( 'NONE', #585 ) ;
#940 = DIRECTION ( 'NONE',  ( 0.000000000000000000, 0.000000000000000000, 1.000000000000000000 ) ) ;
#941 = AXIS2_PLACEMENT_3D ( 'NONE', #309, #1016, #923 ) ;
#942 = LINE ( 'NONE', #501, #1074 ) ;
#943 = AXIS2_PLACEMENT_3D ( 'NONE', #229, #422, #1146 ) ;
#944 = AXIS2_PLACEMENT_3D ( 'NONE', #220, #55, #318 ) ;
#945 = DIRECTION ( 'NONE',  ( 0.000000000000000000, 0.000000000000000000, -1.000000000000000000 ) ) ;
#946 = VECTOR ( 'NONE', #367, 1000.000000000000000 ) ;
#947 = ORIENTED_EDGE ( 'NONE', *, *, #828, .T. ) ;
#948 = DIRECTION ( 'NONE',  ( -0.000000000000000000, -1.000000000000000000, -0.000000000000000000 ) ) ;
#949 = LINE ( 'NONE', #132, #467 ) ;
#950 = DIRECTION ( 'NONE',  ( -0.000000000000000000, -1.000000000000000000, -0.000000000000000000 ) ) ;
#951 = CARTESIAN_POINT ( 'NONE',  ( 2.000000000000000000, 79.29999999999999716, -2.899999999999998579 ) ) ;
#952 = PLANE ( 'NONE',  #926 ) ;
#953 = VERTEX_POINT ( 'NONE', #951 ) ;
#954 = CARTESIAN_POINT ( 'NONE',  ( -10.00000000000000000, 80.29999999999999716, -2.899999999999999023 ) ) ;
#955 = CARTESIAN_POINT ( 'NONE',  ( -9.000000000000001776, 1.000000000000000888, 0.8500000000000000888 ) ) ;
#956 = ORIENTED_EDGE ( 'NONE', *, *, #451, .T. ) ;
#957 = ADVANCED_FACE ( 'NONE', ( #466 ), #835, .F. ) ;
#958 = EDGE_CURVE ( 'NONE', #767, #778, #255, .T. ) ;
#959 = DIRECTION ( 'NONE',  ( 1.000000000000000000, 0.000000000000000000, 0.000000000000000000 ) ) ;
#960 = ORIENTED_EDGE ( 'NONE', *, *, #199, .T. ) ;
#961 = CYLINDRICAL_SURFACE ( 'NONE', #1154, 4.000000000000000000 ) ;
#962 = APPLICATION_PROTOCOL_DEFINITION ( 'draft international standard', 'automotive_design', 1998, #36 ) ;
#963 = CIRCLE ( 'NONE', #444, 6.000000000000000000 ) ;
#964 = ORIENTED_EDGE ( 'NONE', *, *, #567, .T. ) ;
#965 = AXIS2_PLACEMENT_3D ( 'NONE', #549, #563, #92 ) ;
#966 = EDGE_CURVE ( 'NONE', #502, #305, #915, .T. ) ;
#967 = CARTESIAN_POINT ( 'NONE',  ( -10.00000000000000000, 80.29999999999999716, -0.8499999999999992006 ) ) ;
#968 = VECTOR ( 'NONE', #1104, 1000.000000000000000 ) ;
#969 = VERTEX_POINT ( 'NONE', #370 ) ;
#970 = AXIS2_PLACEMENT_3D ( 'NONE', #157, #986, #1071 ) ;
#971 = DIRECTION ( 'NONE',  ( 1.000000000000000000, 0.000000000000000000, -4.336808689942018352E-17 ) ) ;
#972 = CARTESIAN_POINT ( 'NONE',  ( 2.000000000000000000, 80.29999999999999716, -2.899999999999998579 ) ) ;
#973 = EDGE_CURVE ( 'NONE', #630, #335, #632, .T. ) ;
#974 = CARTESIAN_POINT ( 'NONE',  ( 0.000000000000000000, 15.60000000000000320, -2.700000000000000178 ) ) ;
#975 = EDGE_LOOP ( 'NONE', ( #862, #849, #644, #1017, #136, #57 ) ) ;
#976 = CARTESIAN_POINT ( 'NONE',  ( -10.00000000000000000, 79.29999999999999716, -2.899999999999999023 ) ) ;
#977 = ORIENTED_EDGE ( 'NONE', *, *, #1116, .T. ) ;
#978 = DIRECTION ( 'NONE',  ( -0.000000000000000000, 1.000000000000000000, 0.000000000000000000 ) ) ;
#979 = ORIENTED_EDGE ( 'NONE', *, *, #435, .T. ) ;
#980 = LINE ( 'NONE', #793, #508 ) ;
#981 = VECTOR ( 'NONE', #492, 1000.000000000000000 ) ;
#982 = VECTOR ( 'NONE', #288, 1000.000000000000000 ) ;
#983 = EDGE_CURVE ( 'NONE', #996, #91, #403, .T. ) ;
#984 = DIRECTION ( 'NONE',  ( 0.000000000000000000, 0.000000000000000000, 1.000000000000000000 ) ) ;
#985 = ORIENTED_EDGE ( 'NONE', *, *, #983, .T. ) ;
#986 = DIRECTION ( 'NONE',  ( -0.000000000000000000, 1.000000000000000000, 0.000000000000000000 ) ) ;
#987 = VECTOR ( 'NONE', #735, 1000.000000000000000 ) ;
#988 = ORIENTED_EDGE ( 'NONE', *, *, #347, .T. ) ;
#989 = CIRCLE ( 'NONE', #541, 3.299999999999997158 ) ;
#990 = CARTESIAN_POINT ( 'NONE',  ( -1.999999999999999556, 80.29999999999999716, 2.900000000000001243 ) ) ;
#991 = ORIENTED_EDGE ( 'NONE', *, *, #289, .T. ) ;
#992 = DIRECTION ( 'NONE',  ( -7.477256361968996479E-17, -0.000000000000000000, -1.000000000000000000 ) ) ;
#993 = EDGE_CURVE ( 'NONE', #757, #755, #707, .T. ) ;
#994 = CARTESIAN_POINT ( 'NONE',  ( 6.000000000000000000, 1.000000000000000888, 6.849999999999999645 ) ) ;
#995 = EDGE_CURVE ( 'NONE', #953, #1066, #909, .T. ) ;
#996 = VERTEX_POINT ( 'NONE', #830 ) ;
#997 = DIRECTION ( 'NONE',  ( 0.000000000000000000, 1.000000000000000000, 0.000000000000000000 ) ) ;
#998 = CIRCLE ( 'NONE', #520, 6.000000000000000000 ) ;
#999 = FACE_OUTER_BOUND ( 'NONE', #160, .T. ) ;
#1000 = FACE_OUTER_BOUND ( 'NONE', #219, .T. ) ;
#1001 = AXIS2_PLACEMENT_3D ( 'NONE', #589, #496, #871 ) ;
#1002 = ORIENTED_EDGE ( 'NONE', *, *, #1082, .F. ) ;
#1003 = DIRECTION ( 'NONE',  ( -4.336808689942018352E-17, 0.000000000000000000, -1.000000000000000000 ) ) ;
#1004 = CARTESIAN_POINT ( 'NONE',  ( 9.999687487792014551, 80.29999999999999716, -2.899999999999998579 ) ) ;
#1005 = LINE ( 'NONE', #112, #47 ) ;
#1006 = AXIS2_PLACEMENT_3D ( 'NONE', #935, #312, #594 ) ;
#1007 = CARTESIAN_POINT ( 'NONE',  ( 0.000000000000000000, 15.00000000000000000, 0.000000000000000000 ) ) ;
#1008 = EDGE_LOOP ( 'NONE', ( #89, #1062, #1150, #200 ) ) ;
#1009 = FACE_OUTER_BOUND ( 'NONE', #352, .T. ) ;
#1010 = VERTEX_POINT ( 'NONE', #484 ) ;
#1011 = EDGE_CURVE ( 'NONE', #75, #630, #641, .T. ) ;
#1012 = CARTESIAN_POINT ( 'NONE',  ( -10.00000000000000000, 79.29999999999999716, -6.849999999999999645 ) ) ;
#1013 = ORIENTED_EDGE ( 'NONE', *, *, #779, .T. ) ;
#1014 = DIRECTION ( 'NONE',  ( 0.000000000000000000, 1.000000000000000000, 0.000000000000000000 ) ) ;
#1015 = DIRECTION ( 'NONE',  ( 0.000000000000000000, -0.000000000000000000, 1.000000000000000000 ) ) ;
#1016 = DIRECTION ( 'NONE',  ( -0.000000000000000000, 1.000000000000000000, -0.000000000000000000 ) ) ;
#1017 = ORIENTED_EDGE ( 'NONE', *, *, #973, .F. ) ;
#1018 = EDGE_CURVE ( 'NONE', #795, #652, #841, .T. ) ;
#1019 = AXIS2_PLACEMENT_3D ( 'NONE', #824, #88, #455 ) ;
#1020 = CARTESIAN_POINT ( 'NONE',  ( -2.000000000000000000, 79.29999999999999716, -2.899999999999998579 ) ) ;
#1021 = VERTEX_POINT ( 'NONE', #206 ) ;
#1022 = EDGE_LOOP ( 'NONE', ( #1070, #548, #328, #605, #718, #279 ) ) ;
#1023 = AXIS2_PLACEMENT_3D ( 'NONE', #864, #1121, #1038 ) ;
#1024 = AXIS2_PLACEMENT_3D ( 'NONE', #71, #775, #1058 ) ;
#1025 = CYLINDRICAL_SURFACE ( 'NONE', #1054, 2.700000000000000178 ) ;
#1026 = ORIENTED_EDGE ( 'NONE', *, *, #1018, .F. ) ;
#1027 = CARTESIAN_POINT ( 'NONE',  ( 0.000000000000000000, 80.29999999999999716, 0.000000000000000000 ) ) ;
#1028 = DIRECTION ( 'NONE',  ( 1.000000000000000000, 0.000000000000000000, -7.477256361968996479E-17 ) ) ;
#1029 = DIRECTION ( 'NONE',  ( -0.000000000000000000, 1.000000000000000000, 0.000000000000000000 ) ) ;
#1030 = ORIENTED_EDGE ( 'NONE', *, *, #242, .F. ) ;
#1031 = PLANE ( 'NONE',  #616 ) ;
#1032 = DIRECTION ( 'NONE',  ( 0.000000000000000000, 0.000000000000000000, 1.000000000000000000 ) ) ;
#1033 = VERTEX_POINT ( 'NONE', #18 ) ;
#1034 = APPLICATION_CONTEXT ( 'automotive_design' ) ;
#1035 = DIRECTION ( 'NONE',  ( -8.673617379884035472E-16, 0.000000000000000000, 1.000000000000000000 ) ) ;
#1036 = AXIS2_PLACEMENT_3D ( 'NONE', #190, #535, #440 ) ;
#1037 = ORIENTED_EDGE ( 'NONE', *, *, #691, .T. ) ;
#1038 = DIRECTION ( 'NONE',  ( 0.000000000000000000, 0.000000000000000000, 1.000000000000000000 ) ) ;
#1039 = AXIS2_PLACEMENT_3D ( 'NONE', #154, #868, #412 ) ;
#1040 = FACE_OUTER_BOUND ( 'NONE', #1076, .T. ) ;
#1041 = AXIS2_PLACEMENT_3D ( 'NONE', #796, #161, #336 ) ;
#1042 = PLANE ( 'NONE',  #70 ) ;
#1043 = AXIS2_PLACEMENT_3D ( 'NONE', #639, #808, #724 ) ;
#1044 = VERTEX_POINT ( 'NONE', #381 ) ;
#1045 = DIRECTION ( 'NONE',  ( -0.000000000000000000, -1.000000000000000000, -0.000000000000000000 ) ) ;
#1046 = DIRECTION ( 'NONE',  ( -0.000000000000000000, -1.000000000000000000, -0.000000000000000000 ) ) ;
#1047 = EDGE_LOOP ( 'NONE', ( #494, #536, #499, #648 ) ) ;
#1048 = EDGE_CURVE ( 'NONE', #784, #85, #740, .T. ) ;
#1049 = DIRECTION ( 'NONE',  ( 0.000000000000000000, -1.000000000000000000, -0.000000000000000000 ) ) ;
#1050 = ORIENTED_EDGE ( 'NONE', *, *, #679, .F. ) ;
#1051 = LINE ( 'NONE', #116, #430 ) ;
#1052 = DIRECTION ( 'NONE',  ( 1.000000000000000000, 0.000000000000000000, 5.421010862427522170E-17 ) ) ;
#1053 = ORIENTED_EDGE ( 'NONE', *, *, #762, .F. ) ;
#1054 = AXIS2_PLACEMENT_3D ( 'NONE', #832, #27, #933 ) ;
#1055 = DIRECTION ( 'NONE',  ( -1.000000000000000000, -0.000000000000000000, 0.000000000000000000 ) ) ;
#1056 = EDGE_CURVE ( 'NONE', #996, #939, #1005, .T. ) ;
#1057 = ORIENTED_EDGE ( 'NONE', *, *, #174, .F. ) ;
#1058 = DIRECTION ( 'NONE',  ( 0.000000000000000000, 0.000000000000000000, -1.000000000000000000 ) ) ;
#1059 = PLANE ( 'NONE',  #445 ) ;
#1060 = AXIS2_PLACEMENT_3D ( 'NONE', #100, #278, #79 ) ;
#1061 = LINE ( 'NONE', #1159, #596 ) ;
#1062 = ORIENTED_EDGE ( 'NONE', *, *, #1068, .F. ) ;
#1063 = DIRECTION ( 'NONE',  ( 0.000000000000000000, 0.000000000000000000, 1.000000000000000000 ) ) ;
#1064 = EDGE_LOOP ( 'NONE', ( #985, #693 ) ) ;
#1065 = DIRECTION ( 'NONE',  ( 0.000000000000000000, 0.000000000000000000, -1.000000000000000000 ) ) ;
#1066 = VERTEX_POINT ( 'NONE', #386 ) ;
#1067 = CARTESIAN_POINT ( 'NONE',  ( 0.000000000000000000, 79.29999999999999716, 0.000000000000000000 ) ) ;
#1068 = EDGE_CURVE ( 'NONE', #969, #426, #897, .T. ) ;
#1069 = CARTESIAN_POINT ( 'NONE',  ( 6.000000000000000000, 1.000000000000000000, 5.850000000000000533 ) ) ;
#1070 = ORIENTED_EDGE ( 'NONE', *, *, #1087, .F. ) ;
#1071 = DIRECTION ( 'NONE',  ( 0.000000000000000000, 0.000000000000000000, 1.000000000000000000 ) ) ;
#1072 = ORIENTED_EDGE ( 'NONE', *, *, #651, .T. ) ;
#1073 = CIRCLE ( 'NONE', #1019, 3.299999999999997158 ) ;
#1074 = VECTOR ( 'NONE', #846, 1000.000000000000000 ) ;
#1075 = DIRECTION ( 'NONE',  ( 0.000000000000000000, 0.000000000000000000, 1.000000000000000000 ) ) ;
#1076 = EDGE_LOOP ( 'NONE', ( #67, #902, #1026, #429, #146, #34, #249, #568, #271 ) ) ;
#1077 = DIRECTION ( 'NONE',  ( 7.477256361968996479E-17, 0.000000000000000000, 1.000000000000000000 ) ) ;
#1078 = CIRCLE ( 'NONE', #944, 4.000000000000000000 ) ;
#1079 = CIRCLE ( 'NONE', #52, 2.700000000000000178 ) ;
#1080 = CARTESIAN_POINT ( 'NONE',  ( 0.000000000000000000, 0.000000000000000000, 0.000000000000000000 ) ) ;
#1081 = EDGE_CURVE ( 'NONE', #662, #838, #297, .T. ) ;
#1082 = EDGE_CURVE ( 'NONE', #75, #463, #822, .T. ) ;
#1083 = DIRECTION ( 'NONE',  ( 0.000000000000000000, 1.000000000000000000, 0.000000000000000000 ) ) ;
#1084 = EDGE_LOOP ( 'NONE', ( #106, #142 ) ) ;
#1085 = DIRECTION ( 'NONE',  ( -0.000000000000000000, 1.000000000000000000, -0.000000000000000000 ) ) ;
#1086 = FACE_OUTER_BOUND ( 'NONE', #54, .T. ) ;
#1087 = EDGE_CURVE ( 'NONE', #743, #287, #294, .T. ) ;
#1088 = DIRECTION ( 'NONE',  ( -1.000000000000000000, 0.000000000000000000, 0.000000000000000000 ) ) ;
#1089 = ORIENTED_EDGE ( 'NONE', *, *, #983, .F. ) ;
#1090 = CARTESIAN_POINT ( 'NONE',  ( 9.999999999999998224, 80.29999999999999716, -2.849999999999998757 ) ) ;
#1091 = ADVANCED_FACE ( 'NONE', ( #1040 ), #221, .T. ) ;
#1092 = DIRECTION ( 'NONE',  ( 0.000000000000000000, 0.000000000000000000, 1.000000000000000000 ) ) ;
#1093 = VECTOR ( 'NONE', #14, 1000.000000000000000 ) ;
#1094 = CARTESIAN_POINT ( 'NONE',  ( -4.000000000000000000, 79.29999999999999716, 0.8499999999999998668 ) ) ;
#1095 = ORIENTED_EDGE ( 'NONE', *, *, #877, .F. ) ;
#1096 = LINE ( 'NONE', #280, #825 ) ;
#1097 = EDGE_CURVE ( 'NONE', #743, #667, #337, .T. ) ;
#1098 = CARTESIAN_POINT ( 'NONE',  ( -10.00000000000000000, 80.29999999999999716, -2.899999999999999023 ) ) ;
#1099 = AXIS2_PLACEMENT_3D ( 'NONE', #845, #396, #839 ) ;
#1100 = CONICAL_SURFACE ( 'NONE', #696, 4.000000000000000000, 0.7853981633974540522 ) ;
#1101 = CARTESIAN_POINT ( 'NONE',  ( -10.00000000000000000, 80.29999999999999716, 2.900000000000000799 ) ) ;
#1102 = ORIENTED_EDGE ( 'NONE', *, *, #37, .F. ) ;
#1103 =( NAMED_UNIT ( * ) PLANE_ANGLE_UNIT ( ) SI_UNIT ( $, .RADIAN. ) );
#1104 = DIRECTION ( 'NONE',  ( 7.477256361968996479E-17, 0.000000000000000000, 1.000000000000000000 ) ) ;
#1105 = CARTESIAN_POINT ( 'NONE',  ( -10.00000000000000000, 79.29999999999999716, 0.8500000000000000888 ) ) ;
#1106 = EDGE_CURVE ( 'NONE', #502, #939, #275, .T. ) ;
#1107 = CARTESIAN_POINT ( 'NONE',  ( 0.000000000000000000, 80.29999999999999716, 0.000000000000000000 ) ) ;
#1108 = VERTEX_POINT ( 'NONE', #972 ) ;
#1109 = DIRECTION ( 'NONE',  ( -0.000000000000000000, -1.000000000000000000, -0.000000000000000000 ) ) ;
#1110 = ORIENTED_EDGE ( 'NONE', *, *, #236, .T. ) ;
#1111 = VECTOR ( 'NONE', #904, 1000.000000000000000 ) ;
#1112 = CYLINDRICAL_SURFACE ( 'NONE', #261, 4.000000000000000000 ) ;
#1113 = ORIENTED_EDGE ( 'NONE', *, *, #1048, .T. ) ;
#1114 = DIRECTION ( 'NONE',  ( -0.000000000000000000, -1.000000000000000000, -0.000000000000000000 ) ) ;
#1115 = CARTESIAN_POINT ( 'NONE',  ( -4.000000000000000000, 79.29999999999999716, 6.850000000000000533 ) ) ;
#1116 = EDGE_CURVE ( 'NONE', #433, #1044, #669, .T. ) ;
#1117 = CLOSED_SHELL ( 'NONE', ( #899, #906, #163, #127, #592, #642, #472, #283, #816, #446, #497, #738, #1091, #916, #211, #153, #957, #21, #1174, #247, #1132, #41, #734, #1165, #485, #481, #584, #461, #617, #359, #194, #748, #32, #608, #689, #797, #331, #413 ) ) ;
#1118 = EDGE_CURVE ( 'NONE', #757, #361, #949, .T. ) ;
#1119 = DIRECTION ( 'NONE',  ( 8.659560562354889717E-17, -0.7071067811865511255, 0.7071067811865440200 ) ) ;
#1120 = EDGE_LOOP ( 'NONE', ( #235, #912, #1050, #598, #1057, #341 ) ) ;
#1121 = DIRECTION ( 'NONE',  ( -0.000000000000000000, 1.000000000000000000, 0.000000000000000000 ) ) ;
#1122 = DIRECTION ( 'NONE',  ( 1.000000000000000000, 0.000000000000000000, 5.421010862427522170E-17 ) ) ;
#1123 = DIRECTION ( 'NONE',  ( -1.000000000000000000, -0.000000000000000000, -0.000000000000000000 ) ) ;
#1124 = ORIENTED_EDGE ( 'NONE', *, *, #289, .F. ) ;
#1125 = DIRECTION ( 'NONE',  ( 0.000000000000000000, 0.000000000000000000, -1.000000000000000000 ) ) ;
#1126 = DIRECTION ( 'NONE',  ( 0.000000000000000000, -1.000000000000000000, 0.000000000000000000 ) ) ;
#1127 = AXIS2_PLACEMENT_3D ( 'NONE', #140, #73, #327 ) ;
#1128 = ORIENTED_EDGE ( 'NONE', *, *, #1011, .F. ) ;
#1129 = FACE_OUTER_BOUND ( 'NONE', #317, .T. ) ;
#1130 =( GEOMETRIC_REPRESENTATION_CONTEXT ( 3 ) GLOBAL_UNCERTAINTY_ASSIGNED_CONTEXT ( ( #8 ) ) GLOBAL_UNIT_ASSIGNED_CONTEXT ( ( #407, #865, #216 ) ) REPRESENTATION_CONTEXT ( 'NONE', 'WORKASPACE' ) );
#1131 = DIRECTION ( 'NONE',  ( 1.000000000000000000, 0.000000000000000000, -5.421010862427523403E-17 ) ) ;
#1132 = ADVANCED_FACE ( 'NONE', ( #575 ), #1059, .F. ) ;
#1133 = ORIENTED_EDGE ( 'NONE', *, *, #95, .F. ) ;
#1134 = AXIS2_PLACEMENT_3D ( 'NONE', #664, #588, #850 ) ;
#1135 = DIRECTION ( 'NONE',  ( 0.000000000000000000, 1.000000000000000000, 0.000000000000000000 ) ) ;
#1136 = EDGE_CURVE ( 'NONE', #767, #723, #942, .T. ) ;
#1137 = VECTOR ( 'NONE', #626, 1000.000000000000000 ) ;
#1138 = VERTEX_POINT ( 'NONE', #145 ) ;
#1139 = CARTESIAN_POINT ( 'NONE',  ( 2.000000000000000000, 80.29999999999999716, 1.813835714721705461 ) ) ;
#1140 = LINE ( 'NONE', #600, #709 ) ;
#1141 = ORIENTED_EDGE ( 'NONE', *, *, #418, .F. ) ;
#1142 = EDGE_CURVE ( 'NONE', #463, #133, #1140, .T. ) ;
#1143 = CARTESIAN_POINT ( 'NONE',  ( 0.000000000000000000, 80.29999999999999716, -2.700000000000000178 ) ) ;
#1144 = ORIENTED_EDGE ( 'NONE', *, *, #358, .F. ) ;
#1145 = DIRECTION ( 'NONE',  ( 0.000000000000000000, -1.000000000000000000, -0.000000000000000000 ) ) ;
#1146 = DIRECTION ( 'NONE',  ( -1.000000000000000000, 0.000000000000000000, -5.421010862427522170E-17 ) ) ;
#1147 = ORIENTED_EDGE ( 'NONE', *, *, #901, .T. ) ;
#1148 = TOROIDAL_SURFACE ( 'NONE', #721, 5.000000000000000000, 1.000000000000000000 ) ;
#1149 = DIRECTION ( 'NONE',  ( 0.000000000000000000, -1.000000000000000000, 0.000000000000000000 ) ) ;
#1150 = ORIENTED_EDGE ( 'NONE', *, *, #670, .F. ) ;
#1151 = DIRECTION ( 'NONE',  ( -0.000000000000000000, 1.000000000000000000, 0.000000000000000000 ) ) ;
#1152 = AXIS2_PLACEMENT_3D ( 'NONE', #1080, #623, #534 ) ;
#1153 = DIRECTION ( 'NONE',  ( -0.000000000000000000, 1.000000000000000000, -0.000000000000000000 ) ) ;
#1154 = AXIS2_PLACEMENT_3D ( 'NONE', #753, #675, #1125 ) ;
#1155 = ORIENTED_EDGE ( 'NONE', *, *, #571, .F. ) ;
#1156 = VECTOR ( 'NONE', #306, 999.9999999999998863 ) ;
#1157 = DIRECTION ( 'NONE',  ( -1.266221515311538297E-16, -0.000000000000000000, 1.000000000000000000 ) ) ;
#1158 = ORIENTED_EDGE ( 'NONE', *, *, #1018, .T. ) ;
#1159 = CARTESIAN_POINT ( 'NONE',  ( -2.000000000000000000, 80.29999999999999716, -2.899999999999998579 ) ) ;
#1160 = ORIENTED_EDGE ( 'NONE', *, *, #37, .T. ) ;
#1161 = DIRECTION ( 'NONE',  ( -1.000000000000000000, -0.000000000000000000, -0.000000000000000000 ) ) ;
#1162 = FACE_OUTER_BOUND ( 'NONE', #19, .T. ) ;
#1163 = ORIENTED_EDGE ( 'NONE', *, *, #860, .T. ) ;
#1164 = LINE ( 'NONE', #621, #654 ) ;
#1165 = ADVANCED_FACE ( 'NONE', ( #234 ), #514, .T. ) ;
#1166 = ORIENTED_EDGE ( 'NONE', *, *, #777, .T. ) ;
#1167 = CIRCLE ( 'NONE', #576, 4.000000000000000000 ) ;
#1168 = CARTESIAN_POINT ( 'NONE',  ( 0.000000000000000000, 0.000000000000000000, -4.599999999999999645 ) ) ;
#1169 = ORIENTED_EDGE ( 'NONE', *, *, #663, .T. ) ;
#1170 = CARTESIAN_POINT ( 'NONE',  ( -4.000000000000000000, 0.000000000000000000, -5.849999999999999645 ) ) ;
#1171 = VECTOR ( 'NONE', #1045, 1000.000000000000000 ) ;
#1172 = VECTOR ( 'NONE', #90, 999.9999999999998863 ) ;
#1173 = CARTESIAN_POINT ( 'NONE',  ( 10.00000000000000000, 79.29999999999999716, -2.849999999999999201 ) ) ;
#1174 = ADVANCED_FACE ( 'NONE', ( #61 ), #776, .F. ) ;
#1175 = CARTESIAN_POINT ( 'NONE',  ( 2.000000000000000000, 79.29999999999999716, 1.813835714721705461 ) ) ;
#1176 = ORIENTED_EDGE ( 'NONE', *, *, #258, .F. ) ;
#1177 = CARTESIAN_POINT ( 'NONE',  ( -2.000000000000000000, 79.29999999999999716, 1.813835714721705905 ) ) ;
#1178 = CARTESIAN_POINT ( 'NONE',  ( 0.000000000000000000, 80.29999999999999716, 0.000000000000000000 ) ) ;
#1179 = DIRECTION ( 'NONE',  ( 1.000000000000000000, 0.000000000000000000, 0.000000000000000000 ) ) ;
ENDSEC;
END-ISO-10303-21;
