solid CATIA STL
  facet normal -6.192429e-01  7.851995e-01  0.000000e+00
    outer loop
      vertex -2.321637e+00  3.500000e+00  1.000000e+00
      vertex -2.321637e+00  3.500000e+00 -1.500000e+00
      vertex -2.862485e+00  3.073463e+00  1.000000e+00
    endloop
  endfacet
  facet normal -6.192429e-01  7.851995e-01  0.000000e+00
    outer loop
      vertex -2.862485e+00  3.073463e+00  1.000000e+00
      vertex -2.321637e+00  3.500000e+00 -1.500000e+00
      vertex -2.862485e+00  3.073463e+00 -1.500000e+00
    endloop
  endfacet
  facet normal -7.392548e-01  6.734259e-01  0.000000e+00
    outer loop
      vertex -2.862485e+00  3.073463e+00  1.000000e+00
      vertex -2.862485e+00  3.073463e+00 -1.500000e+00
      vertex -3.326343e+00  2.564262e+00  1.000000e+00
    endloop
  endfacet
  facet normal -7.392548e-01  6.734259e-01  0.000000e+00
    outer loop
      vertex -3.326343e+00  2.564262e+00  1.000000e+00
      vertex -2.862485e+00  3.073463e+00 -1.500000e+00
      vertex -3.326343e+00  2.564262e+00 -1.500000e+00
    endloop
  endfacet
  facet normal -8.393838e-01  5.435392e-01  0.000000e+00
    outer loop
      vertex -3.326343e+00  2.564262e+00  1.000000e+00
      vertex -3.326343e+00  2.564262e+00 -1.500000e+00
      vertex -3.700735e+00  1.986092e+00  1.000000e+00
    endloop
  endfacet
  facet normal -8.393838e-01  5.435392e-01  0.000000e+00
    outer loop
      vertex -3.700735e+00  1.986092e+00  1.000000e+00
      vertex -3.326343e+00  2.564262e+00 -1.500000e+00
      vertex -3.700735e+00  1.986092e+00 -1.500000e+00
    endloop
  endfacet
  facet normal -9.169362e-01  3.990339e-01  0.000000e+00
    outer loop
      vertex -3.700735e+00  1.986092e+00  1.000000e+00
      vertex -3.700735e+00  1.986092e+00 -1.500000e+00
      vertex -3.975591e+00  1.354503e+00  1.000000e+00
    endloop
  endfacet
  facet normal -9.169362e-01  3.990339e-01  0.000000e+00
    outer loop
      vertex -3.975591e+00  1.354503e+00  1.000000e+00
      vertex -3.700735e+00  1.986092e+00 -1.500000e+00
      vertex -3.975591e+00  1.354503e+00 -1.500000e+00
    endloop
  endfacet
  facet normal -9.698266e-01  2.437957e-01  0.000000e+00
    outer loop
      vertex -3.975591e+00  1.354503e+00  1.000000e+00
      vertex -3.975591e+00  1.354503e+00 -1.500000e+00
      vertex -4.143518e+00  6.864836e-01  1.000000e+00
    endloop
  endfacet
  facet normal -9.698266e-01  2.437957e-01  0.000000e+00
    outer loop
      vertex -4.143518e+00  6.864836e-01  1.000000e+00
      vertex -3.975591e+00  1.354503e+00 -1.500000e+00
      vertex -4.143518e+00  6.864836e-01 -1.500000e+00
    endloop
  endfacet
  facet normal -9.966323e-01  8.199996e-02  0.000000e+00
    outer loop
      vertex -4.143518e+00  6.864836e-01  1.000000e+00
      vertex -4.143518e+00  6.864836e-01 -1.500000e+00
      vertex -4.200000e+00 -5.143517e-16  1.000000e+00
    endloop
  endfacet
  facet normal -9.966323e-01  8.199996e-02  0.000000e+00
    outer loop
      vertex -4.200000e+00 -5.143517e-16  1.000000e+00
      vertex -4.143518e+00  6.864836e-01 -1.500000e+00
      vertex -4.200000e+00 -5.143517e-16 -1.500000e+00
    endloop
  endfacet
  facet normal  9.966323e-01  8.199996e-02 -3.374145e-17
    outer loop
      vertex  4.200000e+00  1.028703e-15  1.000000e+00
      vertex  4.200000e+00  0.000000e+00 -1.500000e+00
      vertex  4.143518e+00  6.864836e-01  1.000000e+00
    endloop
  endfacet
  facet normal  9.966323e-01  8.199996e-02  0.000000e+00
    outer loop
      vertex  4.143518e+00  6.864836e-01  1.000000e+00
      vertex  4.200000e+00  0.000000e+00 -1.500000e+00
      vertex  4.143518e+00  6.864836e-01 -1.500000e+00
    endloop
  endfacet
  facet normal  9.698266e-01  2.437957e-01  -0.000000e+00
    outer loop
      vertex  4.143518e+00  6.864836e-01  1.000000e+00
      vertex  4.143518e+00  6.864836e-01 -1.500000e+00
      vertex  3.975591e+00  1.354503e+00  1.000000e+00
    endloop
  endfacet
  facet normal  9.698266e-01  2.437957e-01  0.000000e+00
    outer loop
      vertex  3.975591e+00  1.354503e+00  1.000000e+00
      vertex  4.143518e+00  6.864836e-01 -1.500000e+00
      vertex  3.975591e+00  1.354503e+00 -1.500000e+00
    endloop
  endfacet
  facet normal  9.169362e-01  3.990339e-01  -0.000000e+00
    outer loop
      vertex  3.975591e+00  1.354503e+00  1.000000e+00
      vertex  3.975591e+00  1.354503e+00 -1.500000e+00
      vertex  3.700735e+00  1.986092e+00  1.000000e+00
    endloop
  endfacet
  facet normal  9.169362e-01  3.990339e-01  0.000000e+00
    outer loop
      vertex  3.700735e+00  1.986092e+00  1.000000e+00
      vertex  3.975591e+00  1.354503e+00 -1.500000e+00
      vertex  3.700735e+00  1.986092e+00 -1.500000e+00
    endloop
  endfacet
  facet normal  8.393838e-01  5.435392e-01  -0.000000e+00
    outer loop
      vertex  3.700735e+00  1.986092e+00  1.000000e+00
      vertex  3.700735e+00  1.986092e+00 -1.500000e+00
      vertex  3.326343e+00  2.564262e+00  1.000000e+00
    endloop
  endfacet
  facet normal  8.393838e-01  5.435392e-01  0.000000e+00
    outer loop
      vertex  3.326343e+00  2.564262e+00  1.000000e+00
      vertex  3.700735e+00  1.986092e+00 -1.500000e+00
      vertex  3.326343e+00  2.564262e+00 -1.500000e+00
    endloop
  endfacet
  facet normal  7.392548e-01  6.734259e-01  -0.000000e+00
    outer loop
      vertex  3.326343e+00  2.564262e+00  1.000000e+00
      vertex  3.326343e+00  2.564262e+00 -1.500000e+00
      vertex  2.862485e+00  3.073463e+00  1.000000e+00
    endloop
  endfacet
  facet normal  7.392548e-01  6.734259e-01  0.000000e+00
    outer loop
      vertex  2.862485e+00  3.073463e+00  1.000000e+00
      vertex  3.326343e+00  2.564262e+00 -1.500000e+00
      vertex  2.862485e+00  3.073463e+00 -1.500000e+00
    endloop
  endfacet
  facet normal  6.192429e-01  7.851995e-01  -0.000000e+00
    outer loop
      vertex  2.862485e+00  3.073463e+00  1.000000e+00
      vertex  2.862485e+00  3.073463e+00 -1.500000e+00
      vertex  2.321637e+00  3.500000e+00  1.000000e+00
    endloop
  endfacet
  facet normal  6.192429e-01  7.851995e-01  0.000000e+00
    outer loop
      vertex  2.321637e+00  3.500000e+00  1.000000e+00
      vertex  2.862485e+00  3.073463e+00 -1.500000e+00
      vertex  2.321637e+00  3.500000e+00 -1.500000e+00
    endloop
  endfacet
  facet normal  6.192429e-01 -7.851995e-01  0.000000e+00
    outer loop
      vertex  2.321637e+00 -3.500000e+00  1.000000e+00
      vertex  2.321637e+00 -3.500000e+00 -1.500000e+00
      vertex  2.862485e+00 -3.073463e+00  1.000000e+00
    endloop
  endfacet
  facet normal  6.192429e-01 -7.851995e-01  0.000000e+00
    outer loop
      vertex  2.862485e+00 -3.073463e+00  1.000000e+00
      vertex  2.321637e+00 -3.500000e+00 -1.500000e+00
      vertex  2.862485e+00 -3.073463e+00 -1.500000e+00
    endloop
  endfacet
  facet normal  7.392548e-01 -6.734259e-01  0.000000e+00
    outer loop
      vertex  2.862485e+00 -3.073463e+00  1.000000e+00
      vertex  2.862485e+00 -3.073463e+00 -1.500000e+00
      vertex  3.326343e+00 -2.564262e+00  1.000000e+00
    endloop
  endfacet
  facet normal  7.392548e-01 -6.734259e-01  0.000000e+00
    outer loop
      vertex  3.326343e+00 -2.564262e+00  1.000000e+00
      vertex  2.862485e+00 -3.073463e+00 -1.500000e+00
      vertex  3.326343e+00 -2.564262e+00 -1.500000e+00
    endloop
  endfacet
  facet normal  8.393838e-01 -5.435392e-01  0.000000e+00
    outer loop
      vertex  3.326343e+00 -2.564262e+00  1.000000e+00
      vertex  3.326343e+00 -2.564262e+00 -1.500000e+00
      vertex  3.700735e+00 -1.986092e+00  1.000000e+00
    endloop
  endfacet
  facet normal  8.393838e-01 -5.435392e-01  0.000000e+00
    outer loop
      vertex  3.700735e+00 -1.986092e+00  1.000000e+00
      vertex  3.326343e+00 -2.564262e+00 -1.500000e+00
      vertex  3.700735e+00 -1.986092e+00 -1.500000e+00
    endloop
  endfacet
  facet normal  9.169362e-01 -3.990339e-01  0.000000e+00
    outer loop
      vertex  3.700735e+00 -1.986092e+00  1.000000e+00
      vertex  3.700735e+00 -1.986092e+00 -1.500000e+00
      vertex  3.975591e+00 -1.354503e+00  1.000000e+00
    endloop
  endfacet
  facet normal  9.169362e-01 -3.990339e-01  0.000000e+00
    outer loop
      vertex  3.975591e+00 -1.354503e+00  1.000000e+00
      vertex  3.700735e+00 -1.986092e+00 -1.500000e+00
      vertex  3.975591e+00 -1.354503e+00 -1.500000e+00
    endloop
  endfacet
  facet normal  9.698266e-01 -2.437957e-01  0.000000e+00
    outer loop
      vertex  3.975591e+00 -1.354503e+00  1.000000e+00
      vertex  3.975591e+00 -1.354503e+00 -1.500000e+00
      vertex  4.143518e+00 -6.864836e-01  1.000000e+00
    endloop
  endfacet
  facet normal  9.698266e-01 -2.437957e-01  0.000000e+00
    outer loop
      vertex  4.143518e+00 -6.864836e-01  1.000000e+00
      vertex  3.975591e+00 -1.354503e+00 -1.500000e+00
      vertex  4.143518e+00 -6.864836e-01 -1.500000e+00
    endloop
  endfacet
  facet normal  9.966323e-01 -8.199996e-02  0.000000e+00
    outer loop
      vertex  4.143518e+00 -6.864836e-01  1.000000e+00
      vertex  4.143518e+00 -6.864836e-01 -1.500000e+00
      vertex  4.200000e+00  1.028703e-15  1.000000e+00
    endloop
  endfacet
  facet normal  9.966323e-01 -8.199996e-02  3.374145e-17
    outer loop
      vertex  4.200000e+00  1.028703e-15  1.000000e+00
      vertex  4.143518e+00 -6.864836e-01 -1.500000e+00
      vertex  4.200000e+00  0.000000e+00 -1.500000e+00
    endloop
  endfacet
  facet normal -9.966323e-01 -8.199996e-02  0.000000e+00
    outer loop
      vertex -4.200000e+00 -5.143517e-16  1.000000e+00
      vertex -4.200000e+00 -5.143517e-16 -1.500000e+00
      vertex -4.143518e+00 -6.864836e-01  1.000000e+00
    endloop
  endfacet
  facet normal -9.966323e-01 -8.199996e-02  -0.000000e+00
    outer loop
      vertex -4.143518e+00 -6.864836e-01  1.000000e+00
      vertex -4.200000e+00 -5.143517e-16 -1.500000e+00
      vertex -4.143518e+00 -6.864836e-01 -1.500000e+00
    endloop
  endfacet
  facet normal -9.698266e-01 -2.437957e-01  0.000000e+00
    outer loop
      vertex -4.143518e+00 -6.864836e-01  1.000000e+00
      vertex -4.143518e+00 -6.864836e-01 -1.500000e+00
      vertex -3.975591e+00 -1.354503e+00  1.000000e+00
    endloop
  endfacet
  facet normal -9.698266e-01 -2.437957e-01  -0.000000e+00
    outer loop
      vertex -3.975591e+00 -1.354503e+00  1.000000e+00
      vertex -4.143518e+00 -6.864836e-01 -1.500000e+00
      vertex -3.975591e+00 -1.354503e+00 -1.500000e+00
    endloop
  endfacet
  facet normal -9.169362e-01 -3.990339e-01  0.000000e+00
    outer loop
      vertex -3.975591e+00 -1.354503e+00  1.000000e+00
      vertex -3.975591e+00 -1.354503e+00 -1.500000e+00
      vertex -3.700735e+00 -1.986092e+00  1.000000e+00
    endloop
  endfacet
  facet normal -9.169362e-01 -3.990339e-01  -0.000000e+00
    outer loop
      vertex -3.700735e+00 -1.986092e+00  1.000000e+00
      vertex -3.975591e+00 -1.354503e+00 -1.500000e+00
      vertex -3.700735e+00 -1.986092e+00 -1.500000e+00
    endloop
  endfacet
  facet normal -8.393838e-01 -5.435392e-01  0.000000e+00
    outer loop
      vertex -3.700735e+00 -1.986092e+00  1.000000e+00
      vertex -3.700735e+00 -1.986092e+00 -1.500000e+00
      vertex -3.326343e+00 -2.564262e+00  1.000000e+00
    endloop
  endfacet
  facet normal -8.393838e-01 -5.435392e-01  -0.000000e+00
    outer loop
      vertex -3.326343e+00 -2.564262e+00  1.000000e+00
      vertex -3.700735e+00 -1.986092e+00 -1.500000e+00
      vertex -3.326343e+00 -2.564262e+00 -1.500000e+00
    endloop
  endfacet
  facet normal -7.392548e-01 -6.734259e-01  0.000000e+00
    outer loop
      vertex -3.326343e+00 -2.564262e+00  1.000000e+00
      vertex -3.326343e+00 -2.564262e+00 -1.500000e+00
      vertex -2.862485e+00 -3.073463e+00  1.000000e+00
    endloop
  endfacet
  facet normal -7.392548e-01 -6.734259e-01  -0.000000e+00
    outer loop
      vertex -2.862485e+00 -3.073463e+00  1.000000e+00
      vertex -3.326343e+00 -2.564262e+00 -1.500000e+00
      vertex -2.862485e+00 -3.073463e+00 -1.500000e+00
    endloop
  endfacet
  facet normal -6.192429e-01 -7.851995e-01  0.000000e+00
    outer loop
      vertex -2.862485e+00 -3.073463e+00  1.000000e+00
      vertex -2.862485e+00 -3.073463e+00 -1.500000e+00
      vertex -2.321637e+00 -3.500000e+00  1.000000e+00
    endloop
  endfacet
  facet normal -6.192429e-01 -7.851995e-01  -0.000000e+00
    outer loop
      vertex -2.321637e+00 -3.500000e+00  1.000000e+00
      vertex -2.862485e+00 -3.073463e+00 -1.500000e+00
      vertex -2.321637e+00 -3.500000e+00 -1.500000e+00
    endloop
  endfacet
  facet normal  0.000000e+00  1.000000e+00  0.000000e+00
    outer loop
      vertex -2.321637e+00  3.500000e+00  1.000000e+00
      vertex -2.000000e+00  3.500000e+00  1.000000e+00
      vertex -2.321637e+00  3.500000e+00 -1.500000e+00
    endloop
  endfacet
  facet normal  0.000000e+00  1.000000e+00  0.000000e+00
    outer loop
      vertex -2.321637e+00  3.500000e+00 -1.500000e+00
      vertex -2.000000e+00  3.500000e+00  1.000000e+00
      vertex -2.000000e+00  3.500000e+00  0.000000e+00
    endloop
  endfacet
  facet normal  0.000000e+00  1.000000e+00  0.000000e+00
    outer loop
      vertex -2.321637e+00  3.500000e+00 -1.500000e+00
      vertex -2.000000e+00  3.500000e+00  0.000000e+00
      vertex  2.321637e+00  3.500000e+00 -1.500000e+00
    endloop
  endfacet
  facet normal  0.000000e+00  1.000000e+00  0.000000e+00
    outer loop
      vertex  2.321637e+00  3.500000e+00 -1.500000e+00
      vertex -2.000000e+00  3.500000e+00  0.000000e+00
      vertex  2.000000e+00  3.500000e+00  0.000000e+00
    endloop
  endfacet
  facet normal  -0.000000e+00  1.000000e+00  0.000000e+00
    outer loop
      vertex  2.321637e+00  3.500000e+00 -1.500000e+00
      vertex  2.000000e+00  3.500000e+00  0.000000e+00
      vertex  2.321637e+00  3.500000e+00  1.000000e+00
    endloop
  endfacet
  facet normal  0.000000e+00  1.000000e+00  0.000000e+00
    outer loop
      vertex  2.321637e+00  3.500000e+00  1.000000e+00
      vertex  2.000000e+00  3.500000e+00  0.000000e+00
      vertex  2.000000e+00  3.500000e+00  1.000000e+00
    endloop
  endfacet
  facet normal  0.000000e+00 -1.000000e+00  0.000000e+00
    outer loop
      vertex  2.321637e+00 -3.500000e+00  1.000000e+00
      vertex  2.000000e+00 -3.500000e+00  1.000000e+00
      vertex  2.321637e+00 -3.500000e+00 -1.500000e+00
    endloop
  endfacet
  facet normal  0.000000e+00 -1.000000e+00  0.000000e+00
    outer loop
      vertex  2.321637e+00 -3.500000e+00 -1.500000e+00
      vertex  2.000000e+00 -3.500000e+00  1.000000e+00
      vertex  2.000000e+00 -3.500000e+00  0.000000e+00
    endloop
  endfacet
  facet normal  0.000000e+00 -1.000000e+00  -0.000000e+00
    outer loop
      vertex  2.321637e+00 -3.500000e+00 -1.500000e+00
      vertex  2.000000e+00 -3.500000e+00  0.000000e+00
      vertex -2.321637e+00 -3.500000e+00 -1.500000e+00
    endloop
  endfacet
  facet normal  0.000000e+00 -1.000000e+00  0.000000e+00
    outer loop
      vertex -2.321637e+00 -3.500000e+00 -1.500000e+00
      vertex  2.000000e+00 -3.500000e+00  0.000000e+00
      vertex -2.000000e+00 -3.500000e+00  0.000000e+00
    endloop
  endfacet
  facet normal  -0.000000e+00 -1.000000e+00  0.000000e+00
    outer loop
      vertex -2.321637e+00 -3.500000e+00 -1.500000e+00
      vertex -2.000000e+00 -3.500000e+00  0.000000e+00
      vertex -2.321637e+00 -3.500000e+00  1.000000e+00
    endloop
  endfacet
  facet normal  0.000000e+00 -1.000000e+00  0.000000e+00
    outer loop
      vertex -2.321637e+00 -3.500000e+00  1.000000e+00
      vertex -2.000000e+00 -3.500000e+00  0.000000e+00
      vertex -2.000000e+00 -3.500000e+00  1.000000e+00
    endloop
  endfacet
  facet normal  -0.000000e+00  0.000000e+00  1.000000e+00
    outer loop
      vertex -2.000000e+00  3.500000e+00  1.000000e+00
      vertex -2.321637e+00  3.500000e+00  1.000000e+00
      vertex -2.000000e+00  2.497999e+00  1.000000e+00
    endloop
  endfacet
  facet normal  0.000000e+00  0.000000e+00  1.000000e+00
    outer loop
      vertex -2.000000e+00  2.497999e+00  1.000000e+00
      vertex -2.321637e+00  3.500000e+00  1.000000e+00
      vertex -2.862485e+00  3.073463e+00  1.000000e+00
    endloop
  endfacet
  facet normal  0.000000e+00  0.000000e+00  1.000000e+00
    outer loop
      vertex -2.000000e+00  2.497999e+00  1.000000e+00
      vertex -2.862485e+00  3.073463e+00  1.000000e+00
      vertex -3.326343e+00  2.564262e+00  1.000000e+00
    endloop
  endfacet
  facet normal  0.000000e+00  0.000000e+00  1.000000e+00
    outer loop
      vertex -2.000000e+00  2.497999e+00  1.000000e+00
      vertex -3.326343e+00  2.564262e+00  1.000000e+00
      vertex -2.454432e+00  2.053232e+00  1.000000e+00
    endloop
  endfacet
  facet normal  0.000000e+00  0.000000e+00  1.000000e+00
    outer loop
      vertex -2.454432e+00  2.053232e+00  1.000000e+00
      vertex -3.326343e+00  2.564262e+00  1.000000e+00
      vertex -3.700735e+00  1.986092e+00  1.000000e+00
    endloop
  endfacet
  facet normal  -0.000000e+00  0.000000e+00  1.000000e+00
    outer loop
      vertex -2.454432e+00  2.053232e+00  1.000000e+00
      vertex -3.700735e+00  1.986092e+00  1.000000e+00
      vertex -2.811951e+00  1.527394e+00  1.000000e+00
    endloop
  endfacet
  facet normal  0.000000e+00  0.000000e+00  1.000000e+00
    outer loop
      vertex -2.811951e+00  1.527394e+00  1.000000e+00
      vertex -3.700735e+00  1.986092e+00  1.000000e+00
      vertex -3.975591e+00  1.354503e+00  1.000000e+00
    endloop
  endfacet
  facet normal  -0.000000e+00  0.000000e+00  1.000000e+00
    outer loop
      vertex -2.811951e+00  1.527394e+00  1.000000e+00
      vertex -3.975591e+00  1.354503e+00  1.000000e+00
      vertex -3.058440e+00  9.412460e-01  1.000000e+00
    endloop
  endfacet
  facet normal  0.000000e+00  0.000000e+00  1.000000e+00
    outer loop
      vertex -3.058440e+00  9.412460e-01  1.000000e+00
      vertex -3.975591e+00  1.354503e+00  1.000000e+00
      vertex -4.143518e+00  6.864836e-01  1.000000e+00
    endloop
  endfacet
  facet normal  -0.000000e+00  0.000000e+00  1.000000e+00
    outer loop
      vertex -3.058440e+00  9.412460e-01  1.000000e+00
      vertex -4.143518e+00  6.864836e-01  1.000000e+00
      vertex -3.184167e+00  3.179332e-01  1.000000e+00
    endloop
  endfacet
  facet normal  0.000000e+00  0.000000e+00  1.000000e+00
    outer loop
      vertex -3.184167e+00  3.179332e-01  1.000000e+00
      vertex -4.143518e+00  6.864836e-01  1.000000e+00
      vertex -4.200000e+00 -5.143517e-16  1.000000e+00
    endloop
  endfacet
  facet normal  -0.000000e+00  0.000000e+00  9.999999e-01
    outer loop
      vertex -3.184167e+00  3.179332e-01  1.000000e+00
      vertex -4.200000e+00 -5.143517e-16  1.000000e+00
      vertex -3.184167e+00 -3.179332e-01  1.000000e+00
    endloop
  endfacet
  facet normal  0.000000e+00  0.000000e+00  1.000000e+00
    outer loop
      vertex -3.184167e+00 -3.179332e-01  1.000000e+00
      vertex -4.200000e+00 -5.143517e-16  1.000000e+00
      vertex -4.143518e+00 -6.864836e-01  1.000000e+00
    endloop
  endfacet
  facet normal  -0.000000e+00  0.000000e+00  1.000000e+00
    outer loop
      vertex -3.184167e+00 -3.179332e-01  1.000000e+00
      vertex -4.143518e+00 -6.864836e-01  1.000000e+00
      vertex -3.058440e+00 -9.412460e-01  1.000000e+00
    endloop
  endfacet
  facet normal  0.000000e+00  0.000000e+00  1.000000e+00
    outer loop
      vertex -3.058440e+00 -9.412460e-01  1.000000e+00
      vertex -4.143518e+00 -6.864836e-01  1.000000e+00
      vertex -2.811951e+00 -1.527394e+00  1.000000e+00
    endloop
  endfacet
  facet normal  0.000000e+00  0.000000e+00  1.000000e+00
    outer loop
      vertex -2.811951e+00 -1.527394e+00  1.000000e+00
      vertex -4.143518e+00 -6.864836e-01  1.000000e+00
      vertex -3.975591e+00 -1.354503e+00  1.000000e+00
    endloop
  endfacet
  facet normal  0.000000e+00  0.000000e+00  1.000000e+00
    outer loop
      vertex -2.811951e+00 -1.527394e+00  1.000000e+00
      vertex -3.975591e+00 -1.354503e+00  1.000000e+00
      vertex -2.454432e+00 -2.053232e+00  1.000000e+00
    endloop
  endfacet
  facet normal  0.000000e+00  0.000000e+00  1.000000e+00
    outer loop
      vertex -2.454432e+00 -2.053232e+00  1.000000e+00
      vertex -3.975591e+00 -1.354503e+00  1.000000e+00
      vertex -3.700735e+00 -1.986092e+00  1.000000e+00
    endloop
  endfacet
  facet normal  0.000000e+00  0.000000e+00  1.000000e+00
    outer loop
      vertex -2.454432e+00 -2.053232e+00  1.000000e+00
      vertex -3.700735e+00 -1.986092e+00  1.000000e+00
      vertex -2.000000e+00 -2.497999e+00  1.000000e+00
    endloop
  endfacet
  facet normal  0.000000e+00  0.000000e+00  1.000000e+00
    outer loop
      vertex -2.000000e+00 -2.497999e+00  1.000000e+00
      vertex -3.700735e+00 -1.986092e+00  1.000000e+00
      vertex -3.326343e+00 -2.564262e+00  1.000000e+00
    endloop
  endfacet
  facet normal  -0.000000e+00  0.000000e+00  1.000000e+00
    outer loop
      vertex -2.000000e+00 -2.497999e+00  1.000000e+00
      vertex -3.326343e+00 -2.564262e+00  1.000000e+00
      vertex -2.000000e+00 -3.500000e+00  1.000000e+00
    endloop
  endfacet
  facet normal  0.000000e+00  0.000000e+00  1.000000e+00
    outer loop
      vertex -2.000000e+00 -3.500000e+00  1.000000e+00
      vertex -3.326343e+00 -2.564262e+00  1.000000e+00
      vertex -2.862485e+00 -3.073463e+00  1.000000e+00
    endloop
  endfacet
  facet normal  0.000000e+00  0.000000e+00  1.000000e+00
    outer loop
      vertex -2.000000e+00 -3.500000e+00  1.000000e+00
      vertex -2.862485e+00 -3.073463e+00  1.000000e+00
      vertex -2.321637e+00 -3.500000e+00  1.000000e+00
    endloop
  endfacet
  facet normal  -0.000000e+00  0.000000e+00  1.000000e+00
    outer loop
      vertex  2.321637e+00  3.500000e+00  1.000000e+00
      vertex  2.000000e+00  3.500000e+00  1.000000e+00
      vertex  2.862485e+00  3.073463e+00  1.000000e+00
    endloop
  endfacet
  facet normal  0.000000e+00  0.000000e+00  1.000000e+00
    outer loop
      vertex  2.862485e+00  3.073463e+00  1.000000e+00
      vertex  2.000000e+00  3.500000e+00  1.000000e+00
      vertex  2.000000e+00  2.497999e+00  1.000000e+00
    endloop
  endfacet
  facet normal  0.000000e+00  0.000000e+00  1.000000e+00
    outer loop
      vertex  2.862485e+00  3.073463e+00  1.000000e+00
      vertex  2.000000e+00  2.497999e+00  1.000000e+00
      vertex  3.326343e+00  2.564262e+00  1.000000e+00
    endloop
  endfacet
  facet normal  -0.000000e+00  0.000000e+00  1.000000e+00
    outer loop
      vertex  3.326343e+00  2.564262e+00  1.000000e+00
      vertex  2.000000e+00  2.497999e+00  1.000000e+00
      vertex  3.700735e+00  1.986092e+00  1.000000e+00
    endloop
  endfacet
  facet normal  0.000000e+00  0.000000e+00  1.000000e+00
    outer loop
      vertex  3.700735e+00  1.986092e+00  1.000000e+00
      vertex  2.000000e+00  2.497999e+00  1.000000e+00
      vertex  2.454432e+00  2.053232e+00  1.000000e+00
    endloop
  endfacet
  facet normal  0.000000e+00  0.000000e+00  1.000000e+00
    outer loop
      vertex  3.700735e+00  1.986092e+00  1.000000e+00
      vertex  2.454432e+00  2.053232e+00  1.000000e+00
      vertex  3.975591e+00  1.354503e+00  1.000000e+00
    endloop
  endfacet
  facet normal  0.000000e+00  0.000000e+00  1.000000e+00
    outer loop
      vertex  3.975591e+00  1.354503e+00  1.000000e+00
      vertex  2.454432e+00  2.053232e+00  1.000000e+00
      vertex  2.811951e+00  1.527394e+00  1.000000e+00
    endloop
  endfacet
  facet normal  0.000000e+00  0.000000e+00  1.000000e+00
    outer loop
      vertex  3.975591e+00  1.354503e+00  1.000000e+00
      vertex  2.811951e+00  1.527394e+00  1.000000e+00
      vertex  4.143518e+00  6.864836e-01  1.000000e+00
    endloop
  endfacet
  facet normal  0.000000e+00  0.000000e+00  1.000000e+00
    outer loop
      vertex  4.143518e+00  6.864836e-01  1.000000e+00
      vertex  2.811951e+00  1.527394e+00  1.000000e+00
      vertex  3.058440e+00  9.412460e-01  1.000000e+00
    endloop
  endfacet
  facet normal  0.000000e+00  0.000000e+00  9.999999e-01
    outer loop
      vertex  4.143518e+00  6.864836e-01  1.000000e+00
      vertex  3.058440e+00  9.412460e-01  1.000000e+00
      vertex  4.200000e+00  1.028703e-15  1.000000e+00
    endloop
  endfacet
  facet normal  0.000000e+00  0.000000e+00  1.000000e+00
    outer loop
      vertex  4.200000e+00  1.028703e-15  1.000000e+00
      vertex  3.058440e+00  9.412460e-01  1.000000e+00
      vertex  3.184167e+00  3.179332e-01  1.000000e+00
    endloop
  endfacet
  facet normal  0.000000e+00  0.000000e+00  9.999999e-01
    outer loop
      vertex  4.200000e+00  1.028703e-15  1.000000e+00
      vertex  3.184167e+00  3.179332e-01  1.000000e+00
      vertex  3.184167e+00 -3.179332e-01  1.000000e+00
    endloop
  endfacet
  facet normal  -0.000000e+00  0.000000e+00  1.000000e+00
    outer loop
      vertex  4.200000e+00  1.028703e-15  1.000000e+00
      vertex  3.184167e+00 -3.179332e-01  1.000000e+00
      vertex  4.143518e+00 -6.864836e-01  1.000000e+00
    endloop
  endfacet
  facet normal  0.000000e+00  0.000000e+00  1.000000e+00
    outer loop
      vertex  4.143518e+00 -6.864836e-01  1.000000e+00
      vertex  3.184167e+00 -3.179332e-01  1.000000e+00
      vertex  3.058440e+00 -9.412460e-01  1.000000e+00
    endloop
  endfacet
  facet normal  -0.000000e+00  0.000000e+00  1.000000e+00
    outer loop
      vertex  4.143518e+00 -6.864836e-01  1.000000e+00
      vertex  3.058440e+00 -9.412460e-01  1.000000e+00
      vertex  3.975591e+00 -1.354503e+00  1.000000e+00
    endloop
  endfacet
  facet normal  0.000000e+00  0.000000e+00  1.000000e+00
    outer loop
      vertex  3.975591e+00 -1.354503e+00  1.000000e+00
      vertex  3.058440e+00 -9.412460e-01  1.000000e+00
      vertex  2.811951e+00 -1.527394e+00  1.000000e+00
    endloop
  endfacet
  facet normal  -0.000000e+00  0.000000e+00  1.000000e+00
    outer loop
      vertex  3.975591e+00 -1.354503e+00  1.000000e+00
      vertex  2.811951e+00 -1.527394e+00  1.000000e+00
      vertex  3.700735e+00 -1.986092e+00  1.000000e+00
    endloop
  endfacet
  facet normal  0.000000e+00  0.000000e+00  1.000000e+00
    outer loop
      vertex  3.700735e+00 -1.986092e+00  1.000000e+00
      vertex  2.811951e+00 -1.527394e+00  1.000000e+00
      vertex  2.454432e+00 -2.053232e+00  1.000000e+00
    endloop
  endfacet
  facet normal  -0.000000e+00  0.000000e+00  1.000000e+00
    outer loop
      vertex  3.700735e+00 -1.986092e+00  1.000000e+00
      vertex  2.454432e+00 -2.053232e+00  1.000000e+00
      vertex  3.326343e+00 -2.564262e+00  1.000000e+00
    endloop
  endfacet
  facet normal  0.000000e+00  0.000000e+00  1.000000e+00
    outer loop
      vertex  3.326343e+00 -2.564262e+00  1.000000e+00
      vertex  2.454432e+00 -2.053232e+00  1.000000e+00
      vertex  2.000000e+00 -2.497999e+00  1.000000e+00
    endloop
  endfacet
  facet normal  0.000000e+00  0.000000e+00  1.000000e+00
    outer loop
      vertex  3.326343e+00 -2.564262e+00  1.000000e+00
      vertex  2.000000e+00 -2.497999e+00  1.000000e+00
      vertex  2.862485e+00 -3.073463e+00  1.000000e+00
    endloop
  endfacet
  facet normal  0.000000e+00  0.000000e+00  1.000000e+00
    outer loop
      vertex  2.862485e+00 -3.073463e+00  1.000000e+00
      vertex  2.000000e+00 -2.497999e+00  1.000000e+00
      vertex  2.000000e+00 -3.500000e+00  1.000000e+00
    endloop
  endfacet
  facet normal  0.000000e+00  0.000000e+00  1.000000e+00
    outer loop
      vertex  2.862485e+00 -3.073463e+00  1.000000e+00
      vertex  2.000000e+00 -3.500000e+00  1.000000e+00
      vertex  2.321637e+00 -3.500000e+00  1.000000e+00
    endloop
  endfacet
  facet normal  -0.000000e+00  0.000000e+00 -1.000000e+00
    outer loop
      vertex -6.000000e-01  1.039230e+00 -1.500000e+00
      vertex -9.192533e-01  7.713451e-01 -1.500000e+00
      vertex -4.143518e+00  6.864836e-01 -1.500000e+00
    endloop
  endfacet
  facet normal  0.000000e+00  0.000000e+00 -1.000000e+00
    outer loop
      vertex -3.975591e+00 -1.354503e+00 -1.500000e+00
      vertex -4.143518e+00 -6.864836e-01 -1.500000e+00
      vertex -9.192533e-01 -7.713451e-01 -1.500000e+00
    endloop
  endfacet
  facet normal  0.000000e+00  -0.000000e+00 -1.000000e+00
    outer loop
      vertex -3.975591e+00 -1.354503e+00 -1.500000e+00
      vertex -9.192533e-01 -7.713451e-01 -1.500000e+00
      vertex -6.000000e-01 -1.039230e+00 -1.500000e+00
    endloop
  endfacet
  facet normal  0.000000e+00  -0.000000e+00 -1.000000e+00
    outer loop
      vertex -3.975591e+00 -1.354503e+00 -1.500000e+00
      vertex -6.000000e-01 -1.039230e+00 -1.500000e+00
      vertex -2.083778e-01 -1.181769e+00 -1.500000e+00
    endloop
  endfacet
  facet normal  0.000000e+00  0.000000e+00 -1.000000e+00
    outer loop
      vertex -3.975591e+00 -1.354503e+00 -1.500000e+00
      vertex -2.083778e-01 -1.181769e+00 -1.500000e+00
      vertex -2.321637e+00 -3.500000e+00 -1.500000e+00
    endloop
  endfacet
  facet normal  0.000000e+00  0.000000e+00 -9.999999e-01
    outer loop
      vertex -3.975591e+00 -1.354503e+00 -1.500000e+00
      vertex -2.321637e+00 -3.500000e+00 -1.500000e+00
      vertex -2.862485e+00 -3.073463e+00 -1.500000e+00
    endloop
  endfacet
  facet normal  0.000000e+00  0.000000e+00 -9.999999e-01
    outer loop
      vertex -3.975591e+00 -1.354503e+00 -1.500000e+00
      vertex -2.862485e+00 -3.073463e+00 -1.500000e+00
      vertex -3.326343e+00 -2.564262e+00 -1.500000e+00
    endloop
  endfacet
  facet normal  0.000000e+00  0.000000e+00 -1.000000e+00
    outer loop
      vertex -3.975591e+00 -1.354503e+00 -1.500000e+00
      vertex -3.326343e+00 -2.564262e+00 -1.500000e+00
      vertex -3.700735e+00 -1.986092e+00 -1.500000e+00
    endloop
  endfacet
  facet normal  0.000000e+00  -0.000000e+00 -1.000000e+00
    outer loop
      vertex  2.083778e-01 -1.181769e+00 -1.500000e+00
      vertex  6.000000e-01 -1.039230e+00 -1.500000e+00
      vertex  3.975591e+00 -1.354503e+00 -1.500000e+00
    endloop
  endfacet
  facet normal  -0.000000e+00  0.000000e+00 -1.000000e+00
    outer loop
      vertex  2.083778e-01 -1.181769e+00 -1.500000e+00
      vertex  3.975591e+00 -1.354503e+00 -1.500000e+00
      vertex  3.700735e+00 -1.986092e+00 -1.500000e+00
    endloop
  endfacet
  facet normal  -0.000000e+00  0.000000e+00 -1.000000e+00
    outer loop
      vertex  2.083778e-01 -1.181769e+00 -1.500000e+00
      vertex  3.700735e+00 -1.986092e+00 -1.500000e+00
      vertex  3.326343e+00 -2.564262e+00 -1.500000e+00
    endloop
  endfacet
  facet normal  -0.000000e+00  0.000000e+00 -1.000000e+00
    outer loop
      vertex  2.083778e-01 -1.181769e+00 -1.500000e+00
      vertex  3.326343e+00 -2.564262e+00 -1.500000e+00
      vertex  2.862485e+00 -3.073463e+00 -1.500000e+00
    endloop
  endfacet
  facet normal  -0.000000e+00  0.000000e+00 -1.000000e+00
    outer loop
      vertex  2.083778e-01 -1.181769e+00 -1.500000e+00
      vertex  2.862485e+00 -3.073463e+00 -1.500000e+00
      vertex  2.321637e+00 -3.500000e+00 -1.500000e+00
    endloop
  endfacet
  facet normal  0.000000e+00  0.000000e+00 -1.000000e+00
    outer loop
      vertex  2.083778e-01 -1.181769e+00 -1.500000e+00
      vertex  2.321637e+00 -3.500000e+00 -1.500000e+00
      vertex -2.321637e+00 -3.500000e+00 -1.500000e+00
    endloop
  endfacet
  facet normal  0.000000e+00  0.000000e+00 -1.000000e+00
    outer loop
      vertex  2.083778e-01 -1.181769e+00 -1.500000e+00
      vertex -2.321637e+00 -3.500000e+00 -1.500000e+00
      vertex -2.083778e-01 -1.181769e+00 -1.500000e+00
    endloop
  endfacet
  facet normal  0.000000e+00  -0.000000e+00 -1.000000e+00
    outer loop
      vertex -3.975591e+00  1.354503e+00 -1.500000e+00
      vertex -3.700735e+00  1.986092e+00 -1.500000e+00
      vertex -3.326343e+00  2.564262e+00 -1.500000e+00
    endloop
  endfacet
  facet normal  0.000000e+00  -0.000000e+00 -9.999999e-01
    outer loop
      vertex -3.975591e+00  1.354503e+00 -1.500000e+00
      vertex -3.326343e+00  2.564262e+00 -1.500000e+00
      vertex -2.862485e+00  3.073463e+00 -1.500000e+00
    endloop
  endfacet
  facet normal  0.000000e+00  -0.000000e+00 -1.000000e+00
    outer loop
      vertex -3.975591e+00  1.354503e+00 -1.500000e+00
      vertex -2.862485e+00  3.073463e+00 -1.500000e+00
      vertex -2.321637e+00  3.500000e+00 -1.500000e+00
    endloop
  endfacet
  facet normal  0.000000e+00  -0.000000e+00 -1.000000e+00
    outer loop
      vertex -3.975591e+00  1.354503e+00 -1.500000e+00
      vertex -2.321637e+00  3.500000e+00 -1.500000e+00
      vertex -2.083778e-01  1.181769e+00 -1.500000e+00
    endloop
  endfacet
  facet normal  -0.000000e+00  0.000000e+00 -1.000000e+00
    outer loop
      vertex -3.975591e+00  1.354503e+00 -1.500000e+00
      vertex -2.083778e-01  1.181769e+00 -1.500000e+00
      vertex -6.000000e-01  1.039230e+00 -1.500000e+00
    endloop
  endfacet
  facet normal  -0.000000e+00  0.000000e+00 -1.000000e+00
    outer loop
      vertex -3.975591e+00  1.354503e+00 -1.500000e+00
      vertex -6.000000e-01  1.039230e+00 -1.500000e+00
      vertex -4.143518e+00  6.864836e-01 -1.500000e+00
    endloop
  endfacet
  facet normal  0.000000e+00  0.000000e+00 -1.000000e+00
    outer loop
      vertex  2.083778e-01  1.181769e+00 -1.500000e+00
      vertex -2.083778e-01  1.181769e+00 -1.500000e+00
      vertex -2.321637e+00  3.500000e+00 -1.500000e+00
    endloop
  endfacet
  facet normal  0.000000e+00  0.000000e+00 -1.000000e+00
    outer loop
      vertex  2.083778e-01  1.181769e+00 -1.500000e+00
      vertex -2.321637e+00  3.500000e+00 -1.500000e+00
      vertex  2.321637e+00  3.500000e+00 -1.500000e+00
    endloop
  endfacet
  facet normal  0.000000e+00  -0.000000e+00 -1.000000e+00
    outer loop
      vertex  2.083778e-01  1.181769e+00 -1.500000e+00
      vertex  2.321637e+00  3.500000e+00 -1.500000e+00
      vertex  2.862485e+00  3.073463e+00 -1.500000e+00
    endloop
  endfacet
  facet normal  0.000000e+00  -0.000000e+00 -1.000000e+00
    outer loop
      vertex  2.083778e-01  1.181769e+00 -1.500000e+00
      vertex  2.862485e+00  3.073463e+00 -1.500000e+00
      vertex  3.326343e+00  2.564262e+00 -1.500000e+00
    endloop
  endfacet
  facet normal  0.000000e+00  -0.000000e+00 -1.000000e+00
    outer loop
      vertex  2.083778e-01  1.181769e+00 -1.500000e+00
      vertex  3.326343e+00  2.564262e+00 -1.500000e+00
      vertex  3.700735e+00  1.986092e+00 -1.500000e+00
    endloop
  endfacet
  facet normal  0.000000e+00  -0.000000e+00 -1.000000e+00
    outer loop
      vertex  2.083778e-01  1.181769e+00 -1.500000e+00
      vertex  3.700735e+00  1.986092e+00 -1.500000e+00
      vertex  3.975591e+00  1.354503e+00 -1.500000e+00
    endloop
  endfacet
  facet normal  0.000000e+00  -0.000000e+00 -1.000000e+00
    outer loop
      vertex  2.083778e-01  1.181769e+00 -1.500000e+00
      vertex  3.975591e+00  1.354503e+00 -1.500000e+00
      vertex  4.143518e+00  6.864836e-01 -1.500000e+00
    endloop
  endfacet
  facet normal  0.000000e+00  0.000000e+00 -1.000000e+00
    outer loop
      vertex  2.083778e-01  1.181769e+00 -1.500000e+00
      vertex  4.143518e+00  6.864836e-01 -1.500000e+00
      vertex  6.000000e-01  1.039230e+00 -1.500000e+00
    endloop
  endfacet
  facet normal  0.000000e+00  0.000000e+00 -1.000000e+00
    outer loop
      vertex -1.200000e+00 -1.469576e-16 -1.500000e+00
      vertex -4.200000e+00 -5.143517e-16 -1.500000e+00
      vertex -1.127631e+00  4.104242e-01 -1.500000e+00
    endloop
  endfacet
  facet normal  -0.000000e+00  0.000000e+00 -1.000000e+00
    outer loop
      vertex -1.127631e+00  4.104242e-01 -1.500000e+00
      vertex -4.200000e+00 -5.143517e-16 -1.500000e+00
      vertex -4.143518e+00  6.864836e-01 -1.500000e+00
    endloop
  endfacet
  facet normal  0.000000e+00  0.000000e+00 -1.000000e+00
    outer loop
      vertex -1.127631e+00  4.104242e-01 -1.500000e+00
      vertex -4.143518e+00  6.864836e-01 -1.500000e+00
      vertex -9.192533e-01  7.713451e-01 -1.500000e+00
    endloop
  endfacet
  facet normal  0.000000e+00  0.000000e+00 -1.000000e+00
    outer loop
      vertex -9.192533e-01 -7.713451e-01 -1.500000e+00
      vertex -4.143518e+00 -6.864836e-01 -1.500000e+00
      vertex -1.127631e+00 -4.104242e-01 -1.500000e+00
    endloop
  endfacet
  facet normal  -0.000000e+00  0.000000e+00 -1.000000e+00
    outer loop
      vertex -1.127631e+00 -4.104242e-01 -1.500000e+00
      vertex -4.143518e+00 -6.864836e-01 -1.500000e+00
      vertex -4.200000e+00 -5.143517e-16 -1.500000e+00
    endloop
  endfacet
  facet normal  0.000000e+00  0.000000e+00 -1.000000e+00
    outer loop
      vertex -1.127631e+00 -4.104242e-01 -1.500000e+00
      vertex -4.200000e+00 -5.143517e-16 -1.500000e+00
      vertex -1.200000e+00 -1.469576e-16 -1.500000e+00
    endloop
  endfacet
  facet normal  0.000000e+00  0.000000e+00 -1.000000e+00
    outer loop
      vertex  6.000000e-01  1.039230e+00 -1.500000e+00
      vertex  4.143518e+00  6.864836e-01 -1.500000e+00
      vertex  9.192533e-01  7.713451e-01 -1.500000e+00
    endloop
  endfacet
  facet normal  0.000000e+00  0.000000e+00 -1.000000e+00
    outer loop
      vertex  9.192533e-01  7.713451e-01 -1.500000e+00
      vertex  4.143518e+00  6.864836e-01 -1.500000e+00
      vertex  4.200000e+00  0.000000e+00 -1.500000e+00
    endloop
  endfacet
  facet normal  0.000000e+00  0.000000e+00 -1.000000e+00
    outer loop
      vertex  9.192533e-01  7.713451e-01 -1.500000e+00
      vertex  4.200000e+00  0.000000e+00 -1.500000e+00
      vertex  1.127631e+00  4.104242e-01 -1.500000e+00
    endloop
  endfacet
  facet normal  0.000000e+00  0.000000e+00 -1.000000e+00
    outer loop
      vertex  1.127631e+00  4.104242e-01 -1.500000e+00
      vertex  4.200000e+00  0.000000e+00 -1.500000e+00
      vertex  1.200000e+00  0.000000e+00 -1.500000e+00
    endloop
  endfacet
  facet normal  0.000000e+00  0.000000e+00 -1.000000e+00
    outer loop
      vertex  1.200000e+00  0.000000e+00 -1.500000e+00
      vertex  4.200000e+00  0.000000e+00 -1.500000e+00
      vertex  4.143518e+00 -6.864836e-01 -1.500000e+00
    endloop
  endfacet
  facet normal  0.000000e+00  0.000000e+00 -1.000000e+00
    outer loop
      vertex  1.200000e+00  0.000000e+00 -1.500000e+00
      vertex  4.143518e+00 -6.864836e-01 -1.500000e+00
      vertex  1.127631e+00 -4.104242e-01 -1.500000e+00
    endloop
  endfacet
  facet normal  -0.000000e+00  0.000000e+00 -1.000000e+00
    outer loop
      vertex  1.127631e+00 -4.104242e-01 -1.500000e+00
      vertex  4.143518e+00 -6.864836e-01 -1.500000e+00
      vertex  9.192533e-01 -7.713451e-01 -1.500000e+00
    endloop
  endfacet
  facet normal  0.000000e+00  0.000000e+00 -1.000000e+00
    outer loop
      vertex  9.192533e-01 -7.713451e-01 -1.500000e+00
      vertex  4.143518e+00 -6.864836e-01 -1.500000e+00
      vertex  3.975591e+00 -1.354503e+00 -1.500000e+00
    endloop
  endfacet
  facet normal  0.000000e+00  0.000000e+00 -1.000000e+00
    outer loop
      vertex  9.192533e-01 -7.713451e-01 -1.500000e+00
      vertex  3.975591e+00 -1.354503e+00 -1.500000e+00
      vertex  6.000000e-01 -1.039230e+00 -1.500000e+00
    endloop
  endfacet
  facet normal  1.000000e+00  -0.000000e+00  0.000000e+00
    outer loop
      vertex -2.000000e+00 -2.497999e+00  1.000000e+00
      vertex -2.000000e+00 -3.500000e+00  1.000000e+00
      vertex -2.000000e+00 -2.497999e+00  0.000000e+00
    endloop
  endfacet
  facet normal  1.000000e+00  0.000000e+00  0.000000e+00
    outer loop
      vertex -2.000000e+00 -2.497999e+00  0.000000e+00
      vertex -2.000000e+00 -3.500000e+00  1.000000e+00
      vertex -2.000000e+00 -3.500000e+00  0.000000e+00
    endloop
  endfacet
  facet normal  9.802576e-01  1.977250e-01  0.000000e+00
    outer loop
      vertex -3.184167e+00 -3.179332e-01  0.000000e+00
      vertex -3.058440e+00 -9.412460e-01  1.000000e+00
      vertex -3.058440e+00 -9.412460e-01  0.000000e+00
    endloop
  endfacet
  facet normal  9.218094e-01  3.876432e-01  -0.000000e+00
    outer loop
      vertex -3.058440e+00 -9.412460e-01  0.000000e+00
      vertex -3.058440e+00 -9.412460e-01  1.000000e+00
      vertex -2.811951e+00 -1.527394e+00  1.000000e+00
    endloop
  endfacet
  facet normal  9.218094e-01  3.876432e-01  0.000000e+00
    outer loop
      vertex -3.058440e+00 -9.412460e-01  0.000000e+00
      vertex -2.811951e+00 -1.527394e+00  1.000000e+00
      vertex -2.811951e+00 -1.527394e+00  0.000000e+00
    endloop
  endfacet
  facet normal  8.269641e-01  5.622547e-01  -0.000000e+00
    outer loop
      vertex -2.811951e+00 -1.527394e+00  0.000000e+00
      vertex -2.811951e+00 -1.527394e+00  1.000000e+00
      vertex -2.454432e+00 -2.053232e+00  1.000000e+00
    endloop
  endfacet
  facet normal  8.269641e-01  5.622547e-01  0.000000e+00
    outer loop
      vertex -2.811951e+00 -1.527394e+00  0.000000e+00
      vertex -2.454432e+00 -2.053232e+00  1.000000e+00
      vertex -2.454432e+00 -2.053232e+00  0.000000e+00
    endloop
  endfacet
  facet normal  6.994659e-01  7.146660e-01  -0.000000e+00
    outer loop
      vertex -2.454432e+00 -2.053232e+00  0.000000e+00
      vertex -2.454432e+00 -2.053232e+00  1.000000e+00
      vertex -2.000000e+00 -2.497999e+00  1.000000e+00
    endloop
  endfacet
  facet normal  6.994659e-01  7.146660e-01  0.000000e+00
    outer loop
      vertex -2.454432e+00 -2.053232e+00  0.000000e+00
      vertex -2.000000e+00 -2.497999e+00  1.000000e+00
      vertex -2.000000e+00 -2.497999e+00  0.000000e+00
    endloop
  endfacet
  facet normal  9.802576e-01  1.977250e-01  -0.000000e+00
    outer loop
      vertex -3.058440e+00 -9.412460e-01  1.000000e+00
      vertex -3.184167e+00 -3.179332e-01  0.000000e+00
      vertex -3.184167e+00 -3.179332e-01  1.000000e+00
    endloop
  endfacet
  facet normal  1.000000e+00  0.000000e+00  0.000000e+00
    outer loop
      vertex -3.184167e+00 -3.179332e-01  1.000000e+00
      vertex -3.184167e+00 -3.179332e-01  0.000000e+00
      vertex -3.184167e+00  3.179332e-01  0.000000e+00
    endloop
  endfacet
  facet normal  1.000000e+00  0.000000e+00  -0.000000e+00
    outer loop
      vertex -3.184167e+00 -3.179332e-01  1.000000e+00
      vertex -3.184167e+00  3.179332e-01  0.000000e+00
      vertex -3.184167e+00  3.179332e-01  1.000000e+00
    endloop
  endfacet
  facet normal  9.802576e-01 -1.977250e-01  0.000000e+00
    outer loop
      vertex -3.184167e+00  3.179332e-01  1.000000e+00
      vertex -3.184167e+00  3.179332e-01  0.000000e+00
      vertex -3.058440e+00  9.412460e-01  0.000000e+00
    endloop
  endfacet
  facet normal  9.802576e-01 -1.977250e-01  0.000000e+00
    outer loop
      vertex -3.184167e+00  3.179332e-01  1.000000e+00
      vertex -3.058440e+00  9.412460e-01  0.000000e+00
      vertex -3.058440e+00  9.412460e-01  1.000000e+00
    endloop
  endfacet
  facet normal  9.218094e-01 -3.876432e-01  0.000000e+00
    outer loop
      vertex -3.058440e+00  9.412460e-01  1.000000e+00
      vertex -3.058440e+00  9.412460e-01  0.000000e+00
      vertex -2.811951e+00  1.527394e+00  0.000000e+00
    endloop
  endfacet
  facet normal  9.218094e-01 -3.876432e-01  0.000000e+00
    outer loop
      vertex -3.058440e+00  9.412460e-01  1.000000e+00
      vertex -2.811951e+00  1.527394e+00  0.000000e+00
      vertex -2.811951e+00  1.527394e+00  1.000000e+00
    endloop
  endfacet
  facet normal  8.269641e-01 -5.622547e-01  0.000000e+00
    outer loop
      vertex -2.811951e+00  1.527394e+00  1.000000e+00
      vertex -2.811951e+00  1.527394e+00  0.000000e+00
      vertex -2.454432e+00  2.053232e+00  0.000000e+00
    endloop
  endfacet
  facet normal  8.269641e-01 -5.622547e-01  0.000000e+00
    outer loop
      vertex -2.811951e+00  1.527394e+00  1.000000e+00
      vertex -2.454432e+00  2.053232e+00  0.000000e+00
      vertex -2.454432e+00  2.053232e+00  1.000000e+00
    endloop
  endfacet
  facet normal  6.994659e-01 -7.146660e-01  0.000000e+00
    outer loop
      vertex -2.454432e+00  2.053232e+00  1.000000e+00
      vertex -2.454432e+00  2.053232e+00  0.000000e+00
      vertex -2.000000e+00  2.497999e+00  0.000000e+00
    endloop
  endfacet
  facet normal  6.994659e-01 -7.146660e-01  0.000000e+00
    outer loop
      vertex -2.454432e+00  2.053232e+00  1.000000e+00
      vertex -2.000000e+00  2.497999e+00  0.000000e+00
      vertex -2.000000e+00  2.497999e+00  1.000000e+00
    endloop
  endfacet
  facet normal  1.000000e+00  -0.000000e+00  0.000000e+00
    outer loop
      vertex -2.000000e+00  3.500000e+00  1.000000e+00
      vertex -2.000000e+00  2.497999e+00  1.000000e+00
      vertex -2.000000e+00  3.500000e+00  0.000000e+00
    endloop
  endfacet
  facet normal  1.000000e+00  0.000000e+00  0.000000e+00
    outer loop
      vertex -2.000000e+00  3.500000e+00  0.000000e+00
      vertex -2.000000e+00  2.497999e+00  1.000000e+00
      vertex -2.000000e+00  2.497999e+00  0.000000e+00
    endloop
  endfacet
  facet normal -1.000000e+00  0.000000e+00  0.000000e+00
    outer loop
      vertex  2.000000e+00  3.500000e+00  1.000000e+00
      vertex  2.000000e+00  3.500000e+00  0.000000e+00
      vertex  2.000000e+00  2.497999e+00  1.000000e+00
    endloop
  endfacet
  facet normal -1.000000e+00  0.000000e+00  0.000000e+00
    outer loop
      vertex  2.000000e+00  2.497999e+00  1.000000e+00
      vertex  2.000000e+00  3.500000e+00  0.000000e+00
      vertex  2.000000e+00  2.497999e+00  0.000000e+00
    endloop
  endfacet
  facet normal -9.802576e-01 -1.977250e-01  -0.000000e+00
    outer loop
      vertex  3.184167e+00  3.179332e-01  0.000000e+00
      vertex  3.058440e+00  9.412460e-01  1.000000e+00
      vertex  3.058440e+00  9.412460e-01  0.000000e+00
    endloop
  endfacet
  facet normal -9.218094e-01 -3.876432e-01  0.000000e+00
    outer loop
      vertex  3.058440e+00  9.412460e-01  0.000000e+00
      vertex  3.058440e+00  9.412460e-01  1.000000e+00
      vertex  2.811951e+00  1.527394e+00  1.000000e+00
    endloop
  endfacet
  facet normal -9.218094e-01 -3.876432e-01  -0.000000e+00
    outer loop
      vertex  3.058440e+00  9.412460e-01  0.000000e+00
      vertex  2.811951e+00  1.527394e+00  1.000000e+00
      vertex  2.811951e+00  1.527394e+00  0.000000e+00
    endloop
  endfacet
  facet normal -8.269641e-01 -5.622547e-01  0.000000e+00
    outer loop
      vertex  2.811951e+00  1.527394e+00  0.000000e+00
      vertex  2.811951e+00  1.527394e+00  1.000000e+00
      vertex  2.454432e+00  2.053232e+00  1.000000e+00
    endloop
  endfacet
  facet normal -8.269641e-01 -5.622547e-01  -0.000000e+00
    outer loop
      vertex  2.811951e+00  1.527394e+00  0.000000e+00
      vertex  2.454432e+00  2.053232e+00  1.000000e+00
      vertex  2.454432e+00  2.053232e+00  0.000000e+00
    endloop
  endfacet
  facet normal -6.994659e-01 -7.146660e-01  0.000000e+00
    outer loop
      vertex  2.454432e+00  2.053232e+00  0.000000e+00
      vertex  2.454432e+00  2.053232e+00  1.000000e+00
      vertex  2.000000e+00  2.497999e+00  1.000000e+00
    endloop
  endfacet
  facet normal -6.994659e-01 -7.146660e-01  -0.000000e+00
    outer loop
      vertex  2.454432e+00  2.053232e+00  0.000000e+00
      vertex  2.000000e+00  2.497999e+00  1.000000e+00
      vertex  2.000000e+00  2.497999e+00  0.000000e+00
    endloop
  endfacet
  facet normal -9.802576e-01 -1.977250e-01  0.000000e+00
    outer loop
      vertex  3.058440e+00  9.412460e-01  1.000000e+00
      vertex  3.184167e+00  3.179332e-01  0.000000e+00
      vertex  3.184167e+00  3.179332e-01  1.000000e+00
    endloop
  endfacet
  facet normal -1.000000e+00  0.000000e+00  -0.000000e+00
    outer loop
      vertex  3.184167e+00  3.179332e-01  1.000000e+00
      vertex  3.184167e+00  3.179332e-01  0.000000e+00
      vertex  3.184167e+00 -3.179332e-01  0.000000e+00
    endloop
  endfacet
  facet normal -1.000000e+00  0.000000e+00  0.000000e+00
    outer loop
      vertex  3.184167e+00  3.179332e-01  1.000000e+00
      vertex  3.184167e+00 -3.179332e-01  0.000000e+00
      vertex  3.184167e+00 -3.179332e-01  1.000000e+00
    endloop
  endfacet
  facet normal -9.802576e-01  1.977250e-01  0.000000e+00
    outer loop
      vertex  3.184167e+00 -3.179332e-01  1.000000e+00
      vertex  3.184167e+00 -3.179332e-01  0.000000e+00
      vertex  3.058440e+00 -9.412460e-01  0.000000e+00
    endloop
  endfacet
  facet normal -9.802576e-01  1.977250e-01  0.000000e+00
    outer loop
      vertex  3.184167e+00 -3.179332e-01  1.000000e+00
      vertex  3.058440e+00 -9.412460e-01  0.000000e+00
      vertex  3.058440e+00 -9.412460e-01  1.000000e+00
    endloop
  endfacet
  facet normal -9.218094e-01  3.876432e-01  0.000000e+00
    outer loop
      vertex  3.058440e+00 -9.412460e-01  1.000000e+00
      vertex  3.058440e+00 -9.412460e-01  0.000000e+00
      vertex  2.811951e+00 -1.527394e+00  0.000000e+00
    endloop
  endfacet
  facet normal -9.218094e-01  3.876432e-01  0.000000e+00
    outer loop
      vertex  3.058440e+00 -9.412460e-01  1.000000e+00
      vertex  2.811951e+00 -1.527394e+00  0.000000e+00
      vertex  2.811951e+00 -1.527394e+00  1.000000e+00
    endloop
  endfacet
  facet normal -8.269641e-01  5.622547e-01  0.000000e+00
    outer loop
      vertex  2.811951e+00 -1.527394e+00  1.000000e+00
      vertex  2.811951e+00 -1.527394e+00  0.000000e+00
      vertex  2.454432e+00 -2.053232e+00  0.000000e+00
    endloop
  endfacet
  facet normal -8.269641e-01  5.622547e-01  0.000000e+00
    outer loop
      vertex  2.811951e+00 -1.527394e+00  1.000000e+00
      vertex  2.454432e+00 -2.053232e+00  0.000000e+00
      vertex  2.454432e+00 -2.053232e+00  1.000000e+00
    endloop
  endfacet
  facet normal -6.994659e-01  7.146660e-01  0.000000e+00
    outer loop
      vertex  2.454432e+00 -2.053232e+00  1.000000e+00
      vertex  2.454432e+00 -2.053232e+00  0.000000e+00
      vertex  2.000000e+00 -2.497999e+00  0.000000e+00
    endloop
  endfacet
  facet normal -6.994659e-01  7.146660e-01  0.000000e+00
    outer loop
      vertex  2.454432e+00 -2.053232e+00  1.000000e+00
      vertex  2.000000e+00 -2.497999e+00  0.000000e+00
      vertex  2.000000e+00 -2.497999e+00  1.000000e+00
    endloop
  endfacet
  facet normal -1.000000e+00  0.000000e+00  0.000000e+00
    outer loop
      vertex  2.000000e+00 -2.497999e+00  1.000000e+00
      vertex  2.000000e+00 -2.497999e+00  0.000000e+00
      vertex  2.000000e+00 -3.500000e+00  1.000000e+00
    endloop
  endfacet
  facet normal -1.000000e+00  0.000000e+00  0.000000e+00
    outer loop
      vertex  2.000000e+00 -3.500000e+00  1.000000e+00
      vertex  2.000000e+00 -2.497999e+00  0.000000e+00
      vertex  2.000000e+00 -3.500000e+00  0.000000e+00
    endloop
  endfacet
  facet normal  -0.000000e+00  0.000000e+00  1.000000e+00
    outer loop
      vertex -2.000000e+00  3.500000e+00  0.000000e+00
      vertex -2.000000e+00  2.497999e+00  0.000000e+00
      vertex -2.892880e-01  2.382501e+00  0.000000e+00
    endloop
  endfacet
  facet normal  0.000000e+00  -0.000000e+00  1.000000e+00
    outer loop
      vertex -2.000000e+00  3.500000e+00  0.000000e+00
      vertex -2.892880e-01  2.382501e+00  0.000000e+00
      vertex  2.892880e-01  2.382501e+00  0.000000e+00
    endloop
  endfacet
  facet normal  0.000000e+00  -0.000000e+00  1.000000e+00
    outer loop
      vertex -2.000000e+00  3.500000e+00  0.000000e+00
      vertex  2.892880e-01  2.382501e+00  0.000000e+00
      vertex  2.000000e+00  2.497999e+00  0.000000e+00
    endloop
  endfacet
  facet normal  0.000000e+00  -0.000000e+00  1.000000e+00
    outer loop
      vertex -2.000000e+00  3.500000e+00  0.000000e+00
      vertex  2.000000e+00  2.497999e+00  0.000000e+00
      vertex  2.000000e+00  3.500000e+00  0.000000e+00
    endloop
  endfacet
  facet normal  0.000000e+00  0.000000e+00  1.000000e+00
    outer loop
      vertex  2.000000e+00 -3.500000e+00  0.000000e+00
      vertex  2.000000e+00 -2.497999e+00  0.000000e+00
      vertex -2.000000e+00 -3.500000e+00  0.000000e+00
    endloop
  endfacet
  facet normal  0.000000e+00  0.000000e+00  1.000000e+00
    outer loop
      vertex -2.000000e+00 -3.500000e+00  0.000000e+00
      vertex  2.000000e+00 -2.497999e+00  0.000000e+00
      vertex  2.892880e-01 -2.382501e+00  0.000000e+00
    endloop
  endfacet
  facet normal  0.000000e+00  0.000000e+00  1.000000e+00
    outer loop
      vertex -2.000000e+00 -3.500000e+00  0.000000e+00
      vertex  2.892880e-01 -2.382501e+00  0.000000e+00
      vertex -2.000000e+00 -2.497999e+00  0.000000e+00
    endloop
  endfacet
  facet normal  0.000000e+00  0.000000e+00  1.000000e+00
    outer loop
      vertex -2.000000e+00 -2.497999e+00  0.000000e+00
      vertex  2.892880e-01 -2.382501e+00  0.000000e+00
      vertex -2.892880e-01 -2.382501e+00  0.000000e+00
    endloop
  endfacet
  facet normal  0.000000e+00  0.000000e+00  1.000000e+00
    outer loop
      vertex -2.000000e+00 -2.497999e+00  0.000000e+00
      vertex -2.892880e-01 -2.382501e+00  0.000000e+00
      vertex -8.510517e-01 -2.244039e+00  0.000000e+00
    endloop
  endfacet
  facet normal  0.000000e+00  0.000000e+00  1.000000e+00
    outer loop
      vertex -2.892880e-01  2.382501e+00  0.000000e+00
      vertex -2.000000e+00  2.497999e+00  0.000000e+00
      vertex -8.510517e-01  2.244039e+00  0.000000e+00
    endloop
  endfacet
  facet normal  0.000000e+00  0.000000e+00  1.000000e+00
    outer loop
      vertex -8.510517e-01  2.244039e+00  0.000000e+00
      vertex -2.000000e+00  2.497999e+00  0.000000e+00
      vertex -2.454432e+00  2.053232e+00  0.000000e+00
    endloop
  endfacet
  facet normal  -0.000000e+00  0.000000e+00  1.000000e+00
    outer loop
      vertex -8.510517e-01  2.244039e+00  0.000000e+00
      vertex -2.454432e+00  2.053232e+00  0.000000e+00
      vertex -1.363355e+00  1.975161e+00  0.000000e+00
    endloop
  endfacet
  facet normal  0.000000e+00  0.000000e+00  1.000000e+00
    outer loop
      vertex -1.363355e+00  1.975161e+00  0.000000e+00
      vertex -2.454432e+00  2.053232e+00  0.000000e+00
      vertex -1.796426e+00  1.591494e+00  0.000000e+00
    endloop
  endfacet
  facet normal  0.000000e+00  0.000000e+00  1.000000e+00
    outer loop
      vertex -1.796426e+00  1.591494e+00  0.000000e+00
      vertex -2.454432e+00  2.053232e+00  0.000000e+00
      vertex -2.811951e+00  1.527394e+00  0.000000e+00
    endloop
  endfacet
  facet normal  -0.000000e+00  0.000000e+00  1.000000e+00
    outer loop
      vertex -1.796426e+00  1.591494e+00  0.000000e+00
      vertex -2.811951e+00  1.527394e+00  0.000000e+00
      vertex -2.125094e+00  1.115336e+00  0.000000e+00
    endloop
  endfacet
  facet normal  0.000000e+00  0.000000e+00  1.000000e+00
    outer loop
      vertex -2.125094e+00  1.115336e+00  0.000000e+00
      vertex -2.811951e+00  1.527394e+00  0.000000e+00
      vertex -3.058440e+00  9.412460e-01  0.000000e+00
    endloop
  endfacet
  facet normal  -0.000000e+00  0.000000e+00  1.000000e+00
    outer loop
      vertex -2.125094e+00  1.115336e+00  0.000000e+00
      vertex -3.058440e+00  9.412460e-01  0.000000e+00
      vertex -2.330260e+00  5.743576e-01  0.000000e+00
    endloop
  endfacet
  facet normal  0.000000e+00  0.000000e+00  1.000000e+00
    outer loop
      vertex -2.330260e+00  5.743576e-01  0.000000e+00
      vertex -3.058440e+00  9.412460e-01  0.000000e+00
      vertex -3.184167e+00  3.179332e-01  0.000000e+00
    endloop
  endfacet
  facet normal  -0.000000e+00  0.000000e+00  9.999999e-01
    outer loop
      vertex -2.330260e+00  5.743576e-01  0.000000e+00
      vertex -3.184167e+00  3.179332e-01  0.000000e+00
      vertex -2.400000e+00  2.939152e-16  0.000000e+00
    endloop
  endfacet
  facet normal  0.000000e+00  0.000000e+00  1.000000e+00
    outer loop
      vertex -2.400000e+00  2.939152e-16  0.000000e+00
      vertex -3.184167e+00  3.179332e-01  0.000000e+00
      vertex -3.184167e+00 -3.179332e-01  0.000000e+00
    endloop
  endfacet
  facet normal  -0.000000e+00  0.000000e+00  9.999999e-01
    outer loop
      vertex -2.400000e+00  2.939152e-16  0.000000e+00
      vertex -3.184167e+00 -3.179332e-01  0.000000e+00
      vertex -2.330260e+00 -5.743576e-01  0.000000e+00
    endloop
  endfacet
  facet normal  0.000000e+00  0.000000e+00  9.999999e-01
    outer loop
      vertex -2.330260e+00 -5.743576e-01  0.000000e+00
      vertex -3.184167e+00 -3.179332e-01  0.000000e+00
      vertex -2.125094e+00 -1.115336e+00  0.000000e+00
    endloop
  endfacet
  facet normal  0.000000e+00  0.000000e+00  1.000000e+00
    outer loop
      vertex -2.125094e+00 -1.115336e+00  0.000000e+00
      vertex -3.184167e+00 -3.179332e-01  0.000000e+00
      vertex -3.058440e+00 -9.412460e-01  0.000000e+00
    endloop
  endfacet
  facet normal  0.000000e+00  0.000000e+00  1.000000e+00
    outer loop
      vertex -2.125094e+00 -1.115336e+00  0.000000e+00
      vertex -3.058440e+00 -9.412460e-01  0.000000e+00
      vertex -1.796426e+00 -1.591494e+00  0.000000e+00
    endloop
  endfacet
  facet normal  0.000000e+00  0.000000e+00  1.000000e+00
    outer loop
      vertex -1.796426e+00 -1.591494e+00  0.000000e+00
      vertex -3.058440e+00 -9.412460e-01  0.000000e+00
      vertex -2.811951e+00 -1.527394e+00  0.000000e+00
    endloop
  endfacet
  facet normal  0.000000e+00  0.000000e+00  1.000000e+00
    outer loop
      vertex -1.796426e+00 -1.591494e+00  0.000000e+00
      vertex -2.811951e+00 -1.527394e+00  0.000000e+00
      vertex -1.363355e+00 -1.975161e+00  0.000000e+00
    endloop
  endfacet
  facet normal  0.000000e+00  0.000000e+00  1.000000e+00
    outer loop
      vertex -1.363355e+00 -1.975161e+00  0.000000e+00
      vertex -2.811951e+00 -1.527394e+00  0.000000e+00
      vertex -2.454432e+00 -2.053232e+00  0.000000e+00
    endloop
  endfacet
  facet normal  -0.000000e+00  0.000000e+00  1.000000e+00
    outer loop
      vertex -1.363355e+00 -1.975161e+00  0.000000e+00
      vertex -2.454432e+00 -2.053232e+00  0.000000e+00
      vertex -8.510517e-01 -2.244039e+00  0.000000e+00
    endloop
  endfacet
  facet normal  0.000000e+00  0.000000e+00  1.000000e+00
    outer loop
      vertex -8.510517e-01 -2.244039e+00  0.000000e+00
      vertex -2.454432e+00 -2.053232e+00  0.000000e+00
      vertex -2.000000e+00 -2.497999e+00  0.000000e+00
    endloop
  endfacet
  facet normal  -0.000000e+00  0.000000e+00  1.000000e+00
    outer loop
      vertex  2.000000e+00  2.497999e+00  0.000000e+00
      vertex  2.892880e-01  2.382501e+00  0.000000e+00
      vertex  2.454432e+00  2.053232e+00  0.000000e+00
    endloop
  endfacet
  facet normal  0.000000e+00  0.000000e+00  9.999999e-01
    outer loop
      vertex  2.454432e+00  2.053232e+00  0.000000e+00
      vertex  2.892880e-01  2.382501e+00  0.000000e+00
      vertex  8.510517e-01  2.244039e+00  0.000000e+00
    endloop
  endfacet
  facet normal  0.000000e+00  0.000000e+00  1.000000e+00
    outer loop
      vertex  2.454432e+00  2.053232e+00  0.000000e+00
      vertex  8.510517e-01  2.244039e+00  0.000000e+00
      vertex  1.363355e+00  1.975161e+00  0.000000e+00
    endloop
  endfacet
  facet normal  -0.000000e+00  0.000000e+00  1.000000e+00
    outer loop
      vertex  2.454432e+00  2.053232e+00  0.000000e+00
      vertex  1.363355e+00  1.975161e+00  0.000000e+00
      vertex  2.811951e+00  1.527394e+00  0.000000e+00
    endloop
  endfacet
  facet normal  0.000000e+00  0.000000e+00  1.000000e+00
    outer loop
      vertex  2.811951e+00  1.527394e+00  0.000000e+00
      vertex  1.363355e+00  1.975161e+00  0.000000e+00
      vertex  1.796426e+00  1.591494e+00  0.000000e+00
    endloop
  endfacet
  facet normal  0.000000e+00  0.000000e+00  1.000000e+00
    outer loop
      vertex  2.811951e+00  1.527394e+00  0.000000e+00
      vertex  1.796426e+00  1.591494e+00  0.000000e+00
      vertex  3.058440e+00  9.412460e-01  0.000000e+00
    endloop
  endfacet
  facet normal  0.000000e+00  0.000000e+00  1.000000e+00
    outer loop
      vertex  3.058440e+00  9.412460e-01  0.000000e+00
      vertex  1.796426e+00  1.591494e+00  0.000000e+00
      vertex  2.125094e+00  1.115336e+00  0.000000e+00
    endloop
  endfacet
  facet normal  0.000000e+00  0.000000e+00  1.000000e+00
    outer loop
      vertex  3.058440e+00  9.412460e-01  0.000000e+00
      vertex  2.125094e+00  1.115336e+00  0.000000e+00
      vertex  3.184167e+00  3.179332e-01  0.000000e+00
    endloop
  endfacet
  facet normal  0.000000e+00  0.000000e+00  9.999999e-01
    outer loop
      vertex  3.184167e+00  3.179332e-01  0.000000e+00
      vertex  2.125094e+00  1.115336e+00  0.000000e+00
      vertex  2.330260e+00  5.743576e-01  0.000000e+00
    endloop
  endfacet
  facet normal  0.000000e+00  0.000000e+00  1.000000e+00
    outer loop
      vertex  3.184167e+00  3.179332e-01  0.000000e+00
      vertex  2.330260e+00  5.743576e-01  0.000000e+00
      vertex  3.184167e+00 -3.179332e-01  0.000000e+00
    endloop
  endfacet
  facet normal  0.000000e+00  0.000000e+00  1.000000e+00
    outer loop
      vertex  3.184167e+00 -3.179332e-01  0.000000e+00
      vertex  2.330260e+00  5.743576e-01  0.000000e+00
      vertex  2.400000e+00 -5.878305e-16  0.000000e+00
    endloop
  endfacet
  facet normal  0.000000e+00  0.000000e+00  9.999999e-01
    outer loop
      vertex  3.184167e+00 -3.179332e-01  0.000000e+00
      vertex  2.400000e+00 -5.878305e-16  0.000000e+00
      vertex  2.330260e+00 -5.743576e-01  0.000000e+00
    endloop
  endfacet
  facet normal  -0.000000e+00  0.000000e+00  1.000000e+00
    outer loop
      vertex  3.184167e+00 -3.179332e-01  0.000000e+00
      vertex  2.330260e+00 -5.743576e-01  0.000000e+00
      vertex  3.058440e+00 -9.412460e-01  0.000000e+00
    endloop
  endfacet
  facet normal  0.000000e+00  0.000000e+00  1.000000e+00
    outer loop
      vertex  3.058440e+00 -9.412460e-01  0.000000e+00
      vertex  2.330260e+00 -5.743576e-01  0.000000e+00
      vertex  2.125094e+00 -1.115336e+00  0.000000e+00
    endloop
  endfacet
  facet normal  -0.000000e+00  0.000000e+00  1.000000e+00
    outer loop
      vertex  3.058440e+00 -9.412460e-01  0.000000e+00
      vertex  2.125094e+00 -1.115336e+00  0.000000e+00
      vertex  2.811951e+00 -1.527394e+00  0.000000e+00
    endloop
  endfacet
  facet normal  0.000000e+00  0.000000e+00  1.000000e+00
    outer loop
      vertex  2.811951e+00 -1.527394e+00  0.000000e+00
      vertex  2.125094e+00 -1.115336e+00  0.000000e+00
      vertex  1.796426e+00 -1.591494e+00  0.000000e+00
    endloop
  endfacet
  facet normal  -0.000000e+00  0.000000e+00  1.000000e+00
    outer loop
      vertex  2.811951e+00 -1.527394e+00  0.000000e+00
      vertex  1.796426e+00 -1.591494e+00  0.000000e+00
      vertex  2.454432e+00 -2.053232e+00  0.000000e+00
    endloop
  endfacet
  facet normal  0.000000e+00  0.000000e+00  1.000000e+00
    outer loop
      vertex  2.454432e+00 -2.053232e+00  0.000000e+00
      vertex  1.796426e+00 -1.591494e+00  0.000000e+00
      vertex  1.363355e+00 -1.975161e+00  0.000000e+00
    endloop
  endfacet
  facet normal  0.000000e+00  0.000000e+00  1.000000e+00
    outer loop
      vertex  2.454432e+00 -2.053232e+00  0.000000e+00
      vertex  1.363355e+00 -1.975161e+00  0.000000e+00
      vertex  2.000000e+00 -2.497999e+00  0.000000e+00
    endloop
  endfacet
  facet normal  0.000000e+00  0.000000e+00  9.999999e-01
    outer loop
      vertex  2.000000e+00 -2.497999e+00  0.000000e+00
      vertex  1.363355e+00 -1.975161e+00  0.000000e+00
      vertex  8.510517e-01 -2.244039e+00  0.000000e+00
    endloop
  endfacet
  facet normal  0.000000e+00  0.000000e+00  1.000000e+00
    outer loop
      vertex  2.000000e+00 -2.497999e+00  0.000000e+00
      vertex  8.510517e-01 -2.244039e+00  0.000000e+00
      vertex  2.892880e-01 -2.382501e+00  0.000000e+00
    endloop
  endfacet
  facet normal  3.420200e-01  9.396927e-01  -0.000000e+00
    outer loop
      vertex -2.083778e-01 -1.181769e+00 -1.200000e+00
      vertex -6.000000e-01 -1.039230e+00 -1.500000e+00
      vertex -6.000000e-01 -1.039230e+00 -1.200000e+00
    endloop
  endfacet
  facet normal  6.427876e-01  7.660445e-01  0.000000e+00
    outer loop
      vertex -6.000000e-01 -1.039230e+00 -1.200000e+00
      vertex -6.000000e-01 -1.039230e+00 -1.500000e+00
      vertex -9.192533e-01 -7.713451e-01 -1.500000e+00
    endloop
  endfacet
  facet normal  6.427876e-01  7.660445e-01  -0.000000e+00
    outer loop
      vertex -6.000000e-01 -1.039230e+00 -1.200000e+00
      vertex -9.192533e-01 -7.713451e-01 -1.500000e+00
      vertex -9.192533e-01 -7.713451e-01 -1.200000e+00
    endloop
  endfacet
  facet normal  8.660254e-01  5.000001e-01  0.000000e+00
    outer loop
      vertex -9.192533e-01 -7.713451e-01 -1.200000e+00
      vertex -9.192533e-01 -7.713451e-01 -1.500000e+00
      vertex -1.127631e+00 -4.104242e-01 -1.500000e+00
    endloop
  endfacet
  facet normal  8.660254e-01  5.000001e-01  -0.000000e+00
    outer loop
      vertex -9.192533e-01 -7.713451e-01 -1.200000e+00
      vertex -1.127631e+00 -4.104242e-01 -1.500000e+00
      vertex -1.127631e+00 -4.104242e-01 -1.200000e+00
    endloop
  endfacet
  facet normal  9.848078e-01  1.736482e-01  0.000000e+00
    outer loop
      vertex -1.127631e+00 -4.104242e-01 -1.200000e+00
      vertex -1.127631e+00 -4.104242e-01 -1.500000e+00
      vertex -1.200000e+00 -1.469576e-16 -1.500000e+00
    endloop
  endfacet
  facet normal  9.848078e-01  1.736482e-01  -0.000000e+00
    outer loop
      vertex -1.127631e+00 -4.104242e-01 -1.200000e+00
      vertex -1.200000e+00 -1.469576e-16 -1.500000e+00
      vertex -1.200000e+00 -1.469576e-16 -1.200000e+00
    endloop
  endfacet
  facet normal  3.420200e-01  9.396927e-01  0.000000e+00
    outer loop
      vertex -6.000000e-01 -1.039230e+00 -1.500000e+00
      vertex -2.083778e-01 -1.181769e+00 -1.200000e+00
      vertex -2.083778e-01 -1.181769e+00 -1.500000e+00
    endloop
  endfacet
  facet normal  0.000000e+00  1.000000e+00  0.000000e+00
    outer loop
      vertex -2.083778e-01 -1.181769e+00 -1.500000e+00
      vertex -2.083778e-01 -1.181769e+00 -1.200000e+00
      vertex  2.083778e-01 -1.181769e+00 -1.200000e+00
    endloop
  endfacet
  facet normal  0.000000e+00  1.000000e+00  0.000000e+00
    outer loop
      vertex -2.083778e-01 -1.181769e+00 -1.500000e+00
      vertex  2.083778e-01 -1.181769e+00 -1.200000e+00
      vertex  2.083778e-01 -1.181769e+00 -1.500000e+00
    endloop
  endfacet
  facet normal -3.420200e-01  9.396927e-01  0.000000e+00
    outer loop
      vertex  2.083778e-01 -1.181769e+00 -1.500000e+00
      vertex  2.083778e-01 -1.181769e+00 -1.200000e+00
      vertex  6.000000e-01 -1.039230e+00 -1.200000e+00
    endloop
  endfacet
  facet normal -3.420200e-01  9.396927e-01  0.000000e+00
    outer loop
      vertex  2.083778e-01 -1.181769e+00 -1.500000e+00
      vertex  6.000000e-01 -1.039230e+00 -1.200000e+00
      vertex  6.000000e-01 -1.039230e+00 -1.500000e+00
    endloop
  endfacet
  facet normal -6.427876e-01  7.660445e-01  0.000000e+00
    outer loop
      vertex  6.000000e-01 -1.039230e+00 -1.500000e+00
      vertex  6.000000e-01 -1.039230e+00 -1.200000e+00
      vertex  9.192533e-01 -7.713451e-01 -1.200000e+00
    endloop
  endfacet
  facet normal -6.427876e-01  7.660445e-01  0.000000e+00
    outer loop
      vertex  6.000000e-01 -1.039230e+00 -1.500000e+00
      vertex  9.192533e-01 -7.713451e-01 -1.200000e+00
      vertex  9.192533e-01 -7.713451e-01 -1.500000e+00
    endloop
  endfacet
  facet normal -8.660254e-01  5.000001e-01  0.000000e+00
    outer loop
      vertex  9.192533e-01 -7.713451e-01 -1.500000e+00
      vertex  9.192533e-01 -7.713451e-01 -1.200000e+00
      vertex  1.127631e+00 -4.104242e-01 -1.200000e+00
    endloop
  endfacet
  facet normal -8.660254e-01  5.000001e-01  0.000000e+00
    outer loop
      vertex  9.192533e-01 -7.713451e-01 -1.500000e+00
      vertex  1.127631e+00 -4.104242e-01 -1.200000e+00
      vertex  1.127631e+00 -4.104242e-01 -1.500000e+00
    endloop
  endfacet
  facet normal -9.848078e-01  1.736482e-01  0.000000e+00
    outer loop
      vertex  1.127631e+00 -4.104242e-01 -1.500000e+00
      vertex  1.127631e+00 -4.104242e-01 -1.200000e+00
      vertex  1.200000e+00  0.000000e+00 -1.200000e+00
    endloop
  endfacet
  facet normal -9.848078e-01  1.736482e-01  0.000000e+00
    outer loop
      vertex  1.127631e+00 -4.104242e-01 -1.500000e+00
      vertex  1.200000e+00  0.000000e+00 -1.200000e+00
      vertex  1.200000e+00  0.000000e+00 -1.500000e+00
    endloop
  endfacet
  facet normal -3.420200e-01 -9.396927e-01  0.000000e+00
    outer loop
      vertex  2.083778e-01  1.181769e+00 -1.200000e+00
      vertex  6.000000e-01  1.039230e+00 -1.500000e+00
      vertex  6.000000e-01  1.039230e+00 -1.200000e+00
    endloop
  endfacet
  facet normal -6.427876e-01 -7.660445e-01  -0.000000e+00
    outer loop
      vertex  6.000000e-01  1.039230e+00 -1.200000e+00
      vertex  6.000000e-01  1.039230e+00 -1.500000e+00
      vertex  9.192533e-01  7.713451e-01 -1.500000e+00
    endloop
  endfacet
  facet normal -6.427876e-01 -7.660445e-01  0.000000e+00
    outer loop
      vertex  6.000000e-01  1.039230e+00 -1.200000e+00
      vertex  9.192533e-01  7.713451e-01 -1.500000e+00
      vertex  9.192533e-01  7.713451e-01 -1.200000e+00
    endloop
  endfacet
  facet normal -8.660254e-01 -5.000001e-01  -0.000000e+00
    outer loop
      vertex  9.192533e-01  7.713451e-01 -1.200000e+00
      vertex  9.192533e-01  7.713451e-01 -1.500000e+00
      vertex  1.127631e+00  4.104242e-01 -1.500000e+00
    endloop
  endfacet
  facet normal -8.660254e-01 -5.000001e-01  0.000000e+00
    outer loop
      vertex  9.192533e-01  7.713451e-01 -1.200000e+00
      vertex  1.127631e+00  4.104242e-01 -1.500000e+00
      vertex  1.127631e+00  4.104242e-01 -1.200000e+00
    endloop
  endfacet
  facet normal -9.848078e-01 -1.736482e-01  -0.000000e+00
    outer loop
      vertex  1.127631e+00  4.104242e-01 -1.200000e+00
      vertex  1.127631e+00  4.104242e-01 -1.500000e+00
      vertex  1.200000e+00  0.000000e+00 -1.500000e+00
    endloop
  endfacet
  facet normal -9.848078e-01 -1.736482e-01  0.000000e+00
    outer loop
      vertex  1.127631e+00  4.104242e-01 -1.200000e+00
      vertex  1.200000e+00  0.000000e+00 -1.500000e+00
      vertex  1.200000e+00  0.000000e+00 -1.200000e+00
    endloop
  endfacet
  facet normal -3.420200e-01 -9.396927e-01  -0.000000e+00
    outer loop
      vertex  6.000000e-01  1.039230e+00 -1.500000e+00
      vertex  2.083778e-01  1.181769e+00 -1.200000e+00
      vertex  2.083778e-01  1.181769e+00 -1.500000e+00
    endloop
  endfacet
  facet normal  0.000000e+00 -1.000000e+00  0.000000e+00
    outer loop
      vertex  2.083778e-01  1.181769e+00 -1.500000e+00
      vertex  2.083778e-01  1.181769e+00 -1.200000e+00
      vertex -2.083778e-01  1.181769e+00 -1.200000e+00
    endloop
  endfacet
  facet normal  0.000000e+00 -1.000000e+00  0.000000e+00
    outer loop
      vertex  2.083778e-01  1.181769e+00 -1.500000e+00
      vertex -2.083778e-01  1.181769e+00 -1.200000e+00
      vertex -2.083778e-01  1.181769e+00 -1.500000e+00
    endloop
  endfacet
  facet normal  3.420200e-01 -9.396927e-01  0.000000e+00
    outer loop
      vertex -2.083778e-01  1.181769e+00 -1.500000e+00
      vertex -2.083778e-01  1.181769e+00 -1.200000e+00
      vertex -6.000000e-01  1.039230e+00 -1.200000e+00
    endloop
  endfacet
  facet normal  3.420200e-01 -9.396927e-01  0.000000e+00
    outer loop
      vertex -2.083778e-01  1.181769e+00 -1.500000e+00
      vertex -6.000000e-01  1.039230e+00 -1.200000e+00
      vertex -6.000000e-01  1.039230e+00 -1.500000e+00
    endloop
  endfacet
  facet normal  6.427876e-01 -7.660445e-01  0.000000e+00
    outer loop
      vertex -6.000000e-01  1.039230e+00 -1.500000e+00
      vertex -6.000000e-01  1.039230e+00 -1.200000e+00
      vertex -9.192533e-01  7.713451e-01 -1.200000e+00
    endloop
  endfacet
  facet normal  6.427876e-01 -7.660445e-01  0.000000e+00
    outer loop
      vertex -6.000000e-01  1.039230e+00 -1.500000e+00
      vertex -9.192533e-01  7.713451e-01 -1.200000e+00
      vertex -9.192533e-01  7.713451e-01 -1.500000e+00
    endloop
  endfacet
  facet normal  8.660254e-01 -5.000001e-01  0.000000e+00
    outer loop
      vertex -9.192533e-01  7.713451e-01 -1.500000e+00
      vertex -9.192533e-01  7.713451e-01 -1.200000e+00
      vertex -1.127631e+00  4.104242e-01 -1.200000e+00
    endloop
  endfacet
  facet normal  8.660254e-01 -5.000001e-01  0.000000e+00
    outer loop
      vertex -9.192533e-01  7.713451e-01 -1.500000e+00
      vertex -1.127631e+00  4.104242e-01 -1.200000e+00
      vertex -1.127631e+00  4.104242e-01 -1.500000e+00
    endloop
  endfacet
  facet normal  9.848078e-01 -1.736482e-01  0.000000e+00
    outer loop
      vertex -1.127631e+00  4.104242e-01 -1.500000e+00
      vertex -1.127631e+00  4.104242e-01 -1.200000e+00
      vertex -1.200000e+00 -1.469576e-16 -1.200000e+00
    endloop
  endfacet
  facet normal  9.848078e-01 -1.736482e-01  0.000000e+00
    outer loop
      vertex -1.127631e+00  4.104242e-01 -1.500000e+00
      vertex -1.200000e+00 -1.469576e-16 -1.200000e+00
      vertex -1.200000e+00 -1.469576e-16 -1.500000e+00
    endloop
  endfacet
  facet normal  7.045149e-01  8.554381e-02  7.045148e-01
    outer loop
      vertex -2.400000e+00  2.939152e-16  0.000000e+00
      vertex -2.330260e+00 -5.743576e-01  0.000000e+00
      vertex -1.200000e+00 -1.469576e-16 -1.200000e+00
    endloop
  endfacet
  facet normal  6.926530e-01  1.221334e-01  7.108553e-01
    outer loop
      vertex -2.330260e+00 -5.743576e-01  0.000000e+00
      vertex -1.127631e+00 -4.104242e-01 -1.200000e+00
      vertex -1.200000e+00 -1.469576e-16 -1.200000e+00
    endloop
  endfacet
  facet normal -6.926531e-01  1.221334e-01  7.108552e-01
    outer loop
      vertex  1.127631e+00 -4.104242e-01 -1.200000e+00
      vertex  2.330260e+00 -5.743576e-01  0.000000e+00
      vertex  1.200000e+00  0.000000e+00 -1.200000e+00
    endloop
  endfacet
  facet normal -7.045148e-01  8.554380e-02  7.045148e-01
    outer loop
      vertex  2.330260e+00 -5.743576e-01  0.000000e+00
      vertex  2.400000e+00 -5.878305e-16  0.000000e+00
      vertex  1.200000e+00  0.000000e+00 -1.200000e+00
    endloop
  endfacet
  facet normal  6.659644e-01  2.525669e-01  7.019269e-01
    outer loop
      vertex -2.330260e+00 -5.743576e-01  0.000000e+00
      vertex -2.125094e+00 -1.115336e+00  0.000000e+00
      vertex -1.127631e+00 -4.104242e-01 -1.200000e+00
    endloop
  endfacet
  facet normal  5.849041e-01  4.037301e-01  7.034838e-01
    outer loop
      vertex -2.125094e+00 -1.115336e+00  0.000000e+00
      vertex -1.796426e+00 -1.591494e+00  0.000000e+00
      vertex -9.192533e-01 -7.713451e-01 -1.200000e+00
    endloop
  endfacet
  facet normal  6.082317e-01  3.511627e-01  7.118560e-01
    outer loop
      vertex -1.127631e+00 -4.104242e-01 -1.200000e+00
      vertex -2.125094e+00 -1.115336e+00  0.000000e+00
      vertex -9.192533e-01 -7.713451e-01 -1.200000e+00
    endloop
  endfacet
  facet normal  3.308794e-01  6.304379e-01  7.021873e-01
    outer loop
      vertex -1.363355e+00 -1.975161e+00  0.000000e+00
      vertex -8.510517e-01 -2.244039e+00  0.000000e+00
      vertex -6.000000e-01 -1.039230e+00 -1.200000e+00
    endloop
  endfacet
  facet normal  4.530749e-01  5.399536e-01  7.093470e-01
    outer loop
      vertex -9.192533e-01 -7.713451e-01 -1.200000e+00
      vertex -1.363355e+00 -1.975161e+00  0.000000e+00
      vertex -6.000000e-01 -1.039230e+00 -1.200000e+00
    endloop
  endfacet
  facet normal  4.697662e-01  5.302563e-01  7.057959e-01
    outer loop
      vertex -1.796426e+00 -1.591494e+00  0.000000e+00
      vertex -1.363355e+00 -1.975161e+00  0.000000e+00
      vertex -9.192533e-01 -7.713451e-01 -1.200000e+00
    endloop
  endfacet
  facet normal  1.702681e-01  6.908051e-01  7.027069e-01
    outer loop
      vertex -8.510517e-01 -2.244039e+00  0.000000e+00
      vertex -2.892880e-01 -2.382501e+00  0.000000e+00
      vertex -2.083778e-01 -1.181769e+00 -1.200000e+00
    endloop
  endfacet
  facet normal  2.400363e-01  6.594944e-01  7.123550e-01
    outer loop
      vertex -6.000000e-01 -1.039230e+00 -1.200000e+00
      vertex -8.510517e-01 -2.244039e+00  0.000000e+00
      vertex -2.083778e-01 -1.181769e+00 -1.200000e+00
    endloop
  endfacet
  facet normal -1.702681e-01  6.908051e-01  7.027069e-01
    outer loop
      vertex  2.892880e-01 -2.382501e+00  0.000000e+00
      vertex  8.510517e-01 -2.244039e+00  0.000000e+00
      vertex  2.083778e-01 -1.181769e+00 -1.200000e+00
    endloop
  endfacet
  facet normal  0.000000e+00  7.068912e-01  7.073224e-01
    outer loop
      vertex -2.083778e-01 -1.181769e+00 -1.200000e+00
      vertex  2.892880e-01 -2.382501e+00  0.000000e+00
      vertex  2.083778e-01 -1.181769e+00 -1.200000e+00
    endloop
  endfacet
  facet normal  0.000000e+00  7.068911e-01  7.073224e-01
    outer loop
      vertex -2.892880e-01 -2.382501e+00  0.000000e+00
      vertex  2.892880e-01 -2.382501e+00  0.000000e+00
      vertex -2.083778e-01 -1.181769e+00 -1.200000e+00
    endloop
  endfacet
  facet normal -3.308794e-01  6.304379e-01  7.021873e-01
    outer loop
      vertex  8.510517e-01 -2.244039e+00  0.000000e+00
      vertex  1.363355e+00 -1.975161e+00  0.000000e+00
      vertex  6.000000e-01 -1.039230e+00 -1.200000e+00
    endloop
  endfacet
  facet normal -2.400363e-01  6.594944e-01  7.123550e-01
    outer loop
      vertex  2.083778e-01 -1.181769e+00 -1.200000e+00
      vertex  8.510517e-01 -2.244039e+00  0.000000e+00
      vertex  6.000000e-01 -1.039230e+00 -1.200000e+00
    endloop
  endfacet
  facet normal -5.849040e-01  4.037300e-01  7.034838e-01
    outer loop
      vertex  1.796426e+00 -1.591494e+00  0.000000e+00
      vertex  2.125094e+00 -1.115336e+00  0.000000e+00
      vertex  9.192533e-01 -7.713451e-01 -1.200000e+00
    endloop
  endfacet
  facet normal -4.560169e-01  5.434597e-01  7.047696e-01
    outer loop
      vertex  6.000000e-01 -1.039230e+00 -1.200000e+00
      vertex  1.796426e+00 -1.591494e+00  0.000000e+00
      vertex  9.192533e-01 -7.713451e-01 -1.200000e+00
    endloop
  endfacet
  facet normal -4.675812e-01  5.277900e-01  7.090878e-01
    outer loop
      vertex  1.363355e+00 -1.975161e+00  0.000000e+00
      vertex  1.796426e+00 -1.591494e+00  0.000000e+00
      vertex  6.000000e-01 -1.039230e+00 -1.200000e+00
    endloop
  endfacet
  facet normal -6.659644e-01  2.525669e-01  7.019269e-01
    outer loop
      vertex  2.125094e+00 -1.115336e+00  0.000000e+00
      vertex  2.330260e+00 -5.743576e-01  0.000000e+00
      vertex  1.127631e+00 -4.104242e-01 -1.200000e+00
    endloop
  endfacet
  facet normal -6.082317e-01  3.511627e-01  7.118560e-01
    outer loop
      vertex  9.192533e-01 -7.713451e-01 -1.200000e+00
      vertex  2.125094e+00 -1.115336e+00  0.000000e+00
      vertex  1.127631e+00 -4.104242e-01 -1.200000e+00
    endloop
  endfacet
  facet normal -7.045149e-01 -8.554381e-02  7.045148e-01
    outer loop
      vertex  2.400000e+00 -5.878305e-16  0.000000e+00
      vertex  2.330260e+00  5.743576e-01  0.000000e+00
      vertex  1.200000e+00  0.000000e+00 -1.200000e+00
    endloop
  endfacet
  facet normal -6.926530e-01 -1.221334e-01  7.108553e-01
    outer loop
      vertex  2.330260e+00  5.743576e-01  0.000000e+00
      vertex  1.127631e+00  4.104242e-01 -1.200000e+00
      vertex  1.200000e+00  0.000000e+00 -1.200000e+00
    endloop
  endfacet
  facet normal  6.926531e-01 -1.221334e-01  7.108552e-01
    outer loop
      vertex -1.127631e+00  4.104242e-01 -1.200000e+00
      vertex -2.330260e+00  5.743576e-01  0.000000e+00
      vertex -1.200000e+00 -1.469576e-16 -1.200000e+00
    endloop
  endfacet
  facet normal  7.045148e-01 -8.554380e-02  7.045148e-01
    outer loop
      vertex -2.330260e+00  5.743576e-01  0.000000e+00
      vertex -2.400000e+00  2.939152e-16  0.000000e+00
      vertex -1.200000e+00 -1.469576e-16 -1.200000e+00
    endloop
  endfacet
  facet normal -6.659644e-01 -2.525669e-01  7.019269e-01
    outer loop
      vertex  2.330260e+00  5.743576e-01  0.000000e+00
      vertex  2.125094e+00  1.115336e+00  0.000000e+00
      vertex  1.127631e+00  4.104242e-01 -1.200000e+00
    endloop
  endfacet
  facet normal -5.849041e-01 -4.037301e-01  7.034838e-01
    outer loop
      vertex  2.125094e+00  1.115336e+00  0.000000e+00
      vertex  1.796426e+00  1.591494e+00  0.000000e+00
      vertex  9.192533e-01  7.713451e-01 -1.200000e+00
    endloop
  endfacet
  facet normal -6.082317e-01 -3.511627e-01  7.118560e-01
    outer loop
      vertex  1.127631e+00  4.104242e-01 -1.200000e+00
      vertex  2.125094e+00  1.115336e+00  0.000000e+00
      vertex  9.192533e-01  7.713451e-01 -1.200000e+00
    endloop
  endfacet
  facet normal -3.308794e-01 -6.304379e-01  7.021873e-01
    outer loop
      vertex  1.363355e+00  1.975161e+00  0.000000e+00
      vertex  8.510517e-01  2.244039e+00  0.000000e+00
      vertex  6.000000e-01  1.039230e+00 -1.200000e+00
    endloop
  endfacet
  facet normal -4.530749e-01 -5.399536e-01  7.093470e-01
    outer loop
      vertex  9.192533e-01  7.713451e-01 -1.200000e+00
      vertex  1.363355e+00  1.975161e+00  0.000000e+00
      vertex  6.000000e-01  1.039230e+00 -1.200000e+00
    endloop
  endfacet
  facet normal -4.697662e-01 -5.302563e-01  7.057959e-01
    outer loop
      vertex  1.796426e+00  1.591494e+00  0.000000e+00
      vertex  1.363355e+00  1.975161e+00  0.000000e+00
      vertex  9.192533e-01  7.713451e-01 -1.200000e+00
    endloop
  endfacet
  facet normal -1.702681e-01 -6.908051e-01  7.027069e-01
    outer loop
      vertex  8.510517e-01  2.244039e+00  0.000000e+00
      vertex  2.892880e-01  2.382501e+00  0.000000e+00
      vertex  2.083778e-01  1.181769e+00 -1.200000e+00
    endloop
  endfacet
  facet normal -2.400363e-01 -6.594944e-01  7.123550e-01
    outer loop
      vertex  6.000000e-01  1.039230e+00 -1.200000e+00
      vertex  8.510517e-01  2.244039e+00  0.000000e+00
      vertex  2.083778e-01  1.181769e+00 -1.200000e+00
    endloop
  endfacet
  facet normal  1.702681e-01 -6.908051e-01  7.027069e-01
    outer loop
      vertex -2.892880e-01  2.382501e+00  0.000000e+00
      vertex -8.510517e-01  2.244039e+00  0.000000e+00
      vertex -2.083778e-01  1.181769e+00 -1.200000e+00
    endloop
  endfacet
  facet normal  0.000000e+00 -7.068912e-01  7.073224e-01
    outer loop
      vertex  2.083778e-01  1.181769e+00 -1.200000e+00
      vertex -2.892880e-01  2.382501e+00  0.000000e+00
      vertex -2.083778e-01  1.181769e+00 -1.200000e+00
    endloop
  endfacet
  facet normal  0.000000e+00 -7.068911e-01  7.073224e-01
    outer loop
      vertex  2.892880e-01  2.382501e+00  0.000000e+00
      vertex -2.892880e-01  2.382501e+00  0.000000e+00
      vertex  2.083778e-01  1.181769e+00 -1.200000e+00
    endloop
  endfacet
  facet normal  3.308794e-01 -6.304379e-01  7.021873e-01
    outer loop
      vertex -8.510517e-01  2.244039e+00  0.000000e+00
      vertex -1.363355e+00  1.975161e+00  0.000000e+00
      vertex -6.000000e-01  1.039230e+00 -1.200000e+00
    endloop
  endfacet
  facet normal  2.400363e-01 -6.594944e-01  7.123550e-01
    outer loop
      vertex -2.083778e-01  1.181769e+00 -1.200000e+00
      vertex -8.510517e-01  2.244039e+00  0.000000e+00
      vertex -6.000000e-01  1.039230e+00 -1.200000e+00
    endloop
  endfacet
  facet normal  5.849040e-01 -4.037300e-01  7.034838e-01
    outer loop
      vertex -1.796426e+00  1.591494e+00  0.000000e+00
      vertex -2.125094e+00  1.115336e+00  0.000000e+00
      vertex -9.192533e-01  7.713451e-01 -1.200000e+00
    endloop
  endfacet
  facet normal  4.560169e-01 -5.434597e-01  7.047696e-01
    outer loop
      vertex -6.000000e-01  1.039230e+00 -1.200000e+00
      vertex -1.796426e+00  1.591494e+00  0.000000e+00
      vertex -9.192533e-01  7.713451e-01 -1.200000e+00
    endloop
  endfacet
  facet normal  4.675812e-01 -5.277900e-01  7.090878e-01
    outer loop
      vertex -1.363355e+00  1.975161e+00  0.000000e+00
      vertex -1.796426e+00  1.591494e+00  0.000000e+00
      vertex -6.000000e-01  1.039230e+00 -1.200000e+00
    endloop
  endfacet
  facet normal  6.659644e-01 -2.525669e-01  7.019269e-01
    outer loop
      vertex -2.125094e+00  1.115336e+00  0.000000e+00
      vertex -2.330260e+00  5.743576e-01  0.000000e+00
      vertex -1.127631e+00  4.104242e-01 -1.200000e+00
    endloop
  endfacet
  facet normal  6.082317e-01 -3.511627e-01  7.118560e-01
    outer loop
      vertex -9.192533e-01  7.713451e-01 -1.200000e+00
      vertex -2.125094e+00  1.115336e+00  0.000000e+00
      vertex -1.127631e+00  4.104242e-01 -1.200000e+00
    endloop
  endfacet
endsolid CATIA STL
