ISO-10303-21;
HEADER;
FILE_DESCRIPTION(('CATIA V5 STEP Exchange','CAx-IF Rec.Pracs.--- Model Styling and Organization---1.5--- 2016-08-15','CAx-IF Rec.Pracs.---Supplemental Geometry---1.0---2011-11-01','CAx-IF Rec.Pracs.--- Composite Materials ---1.1---2010-07-15'),'2;1');

FILE_NAME('C:\\Users\\Z628861\\Downloads\\ANDO_G1_BRACKET_GRIPPER.stp','2026-07-28T04:54:03+00:00',('none'),('none'),'CATIA Version 5-6 Release 2021 SP5 HF107','CATIA V5 STEP AP214 v2','none');

FILE_SCHEMA(('AUTOMOTIVE_DESIGN { 1 0 10303 214 1 1 1 1 }'));

ENDSEC;
DATA;
#5=PRODUCT('ANDO_G1_BRACKET_GRIPPER','BRACKET_GRIPPER','',(#2)) ;
#2=PRODUCT_CONTEXT(' ',#1,'mechanical') ;
#1=APPLICATION_CONTEXT('automotive design') ;
#10=PRODUCT_DEFINITION('A7075 T6',' ',#6,#3) ;
#3=PRODUCT_DEFINITION_CONTEXT('part definition',#1,' ') ;
#11=PRODUCT_DEFINITION_SHAPE(' ',' ',#10) ;
#1960=MECHANICAL_DESIGN_GEOMETRIC_PRESENTATION_REPRESENTATION(' ',(#29),#16) ;
#19=SHAPE_REPRESENTATION(' ',(#18),#16) ;
#18=AXIS2_PLACEMENT_3D(' ',#17,$,$) ;
#34=AXIS2_PLACEMENT_3D('Cylinder Axis2P3D',#31,#32,#33) ;
#47=AXIS2_PLACEMENT_3D('Circle Axis2P3D',#45,#46,$) ;
#61=AXIS2_PLACEMENT_3D('Circle Axis2P3D',#59,#60,$) ;
#73=AXIS2_PLACEMENT_3D('Circle Axis2P3D',#71,#72,$) ;
#78=AXIS2_PLACEMENT_3D('Circle Axis2P3D',#76,#77,$) ;
#91=AXIS2_PLACEMENT_3D('Cylinder Axis2P3D',#88,#89,#90) ;
#104=AXIS2_PLACEMENT_3D('Circle Axis2P3D',#102,#103,$) ;
#118=AXIS2_PLACEMENT_3D('Circle Axis2P3D',#116,#117,$) ;
#130=AXIS2_PLACEMENT_3D('Circle Axis2P3D',#128,#129,$) ;
#135=AXIS2_PLACEMENT_3D('Circle Axis2P3D',#133,#134,$) ;
#148=AXIS2_PLACEMENT_3D('Cylinder Axis2P3D',#145,#146,#147) ;
#152=AXIS2_PLACEMENT_3D('Circle Axis2P3D',#150,#151,$) ;
#168=AXIS2_PLACEMENT_3D('Circle Axis2P3D',#166,#167,$) ;
#187=AXIS2_PLACEMENT_3D('Circle Axis2P3D',#185,#186,$) ;
#192=AXIS2_PLACEMENT_3D('Circle Axis2P3D',#190,#191,$) ;
#205=AXIS2_PLACEMENT_3D('Cylinder Axis2P3D',#202,#203,#204) ;
#218=AXIS2_PLACEMENT_3D('Circle Axis2P3D',#216,#217,$) ;
#232=AXIS2_PLACEMENT_3D('Circle Axis2P3D',#230,#231,$) ;
#244=AXIS2_PLACEMENT_3D('Circle Axis2P3D',#242,#243,$) ;
#249=AXIS2_PLACEMENT_3D('Circle Axis2P3D',#247,#248,$) ;
#262=AXIS2_PLACEMENT_3D('Cylinder Axis2P3D',#259,#260,#261) ;
#275=AXIS2_PLACEMENT_3D('Circle Axis2P3D',#273,#274,$) ;
#289=AXIS2_PLACEMENT_3D('Circle Axis2P3D',#287,#288,$) ;
#301=AXIS2_PLACEMENT_3D('Circle Axis2P3D',#299,#300,$) ;
#306=AXIS2_PLACEMENT_3D('Circle Axis2P3D',#304,#305,$) ;
#319=AXIS2_PLACEMENT_3D('Cylinder Axis2P3D',#316,#317,#318) ;
#332=AXIS2_PLACEMENT_3D('Circle Axis2P3D',#330,#331,$) ;
#346=AXIS2_PLACEMENT_3D('Circle Axis2P3D',#344,#345,$) ;
#358=AXIS2_PLACEMENT_3D('Circle Axis2P3D',#356,#357,$) ;
#363=AXIS2_PLACEMENT_3D('Circle Axis2P3D',#361,#362,$) ;
#376=AXIS2_PLACEMENT_3D('Cylinder Axis2P3D',#373,#374,#375) ;
#389=AXIS2_PLACEMENT_3D('Circle Axis2P3D',#387,#388,$) ;
#403=AXIS2_PLACEMENT_3D('Circle Axis2P3D',#401,#402,$) ;
#415=AXIS2_PLACEMENT_3D('Circle Axis2P3D',#413,#414,$) ;
#420=AXIS2_PLACEMENT_3D('Circle Axis2P3D',#418,#419,$) ;
#433=AXIS2_PLACEMENT_3D('Cylinder Axis2P3D',#430,#431,#432) ;
#437=AXIS2_PLACEMENT_3D('Circle Axis2P3D',#435,#436,$) ;
#453=AXIS2_PLACEMENT_3D('Circle Axis2P3D',#451,#452,$) ;
#472=AXIS2_PLACEMENT_3D('Circle Axis2P3D',#470,#471,$) ;
#477=AXIS2_PLACEMENT_3D('Circle Axis2P3D',#475,#476,$) ;
#490=AXIS2_PLACEMENT_3D('Cylinder Axis2P3D',#487,#488,#489) ;
#494=AXIS2_PLACEMENT_3D('Circle Axis2P3D',#492,#493,$) ;
#510=AXIS2_PLACEMENT_3D('Circle Axis2P3D',#508,#509,$) ;
#529=AXIS2_PLACEMENT_3D('Circle Axis2P3D',#527,#528,$) ;
#534=AXIS2_PLACEMENT_3D('Circle Axis2P3D',#532,#533,$) ;
#547=AXIS2_PLACEMENT_3D('Cylinder Axis2P3D',#544,#545,#546) ;
#560=AXIS2_PLACEMENT_3D('Circle Axis2P3D',#558,#559,$) ;
#574=AXIS2_PLACEMENT_3D('Circle Axis2P3D',#572,#573,$) ;
#586=AXIS2_PLACEMENT_3D('Circle Axis2P3D',#584,#585,$) ;
#591=AXIS2_PLACEMENT_3D('Circle Axis2P3D',#589,#590,$) ;
#604=AXIS2_PLACEMENT_3D('Cylinder Axis2P3D',#601,#602,#603) ;
#617=AXIS2_PLACEMENT_3D('Circle Axis2P3D',#615,#616,$) ;
#631=AXIS2_PLACEMENT_3D('Circle Axis2P3D',#629,#630,$) ;
#643=AXIS2_PLACEMENT_3D('Circle Axis2P3D',#641,#642,$) ;
#648=AXIS2_PLACEMENT_3D('Circle Axis2P3D',#646,#647,$) ;
#661=AXIS2_PLACEMENT_3D('Cylinder Axis2P3D',#658,#659,#660) ;
#674=AXIS2_PLACEMENT_3D('Circle Axis2P3D',#672,#673,$) ;
#688=AXIS2_PLACEMENT_3D('Circle Axis2P3D',#686,#687,$) ;
#700=AXIS2_PLACEMENT_3D('Circle Axis2P3D',#698,#699,$) ;
#705=AXIS2_PLACEMENT_3D('Circle Axis2P3D',#703,#704,$) ;
#718=AXIS2_PLACEMENT_3D('Cylinder Axis2P3D',#715,#716,#717) ;
#731=AXIS2_PLACEMENT_3D('Circle Axis2P3D',#729,#730,$) ;
#745=AXIS2_PLACEMENT_3D('Circle Axis2P3D',#743,#744,$) ;
#757=AXIS2_PLACEMENT_3D('Circle Axis2P3D',#755,#756,$) ;
#762=AXIS2_PLACEMENT_3D('Circle Axis2P3D',#760,#761,$) ;
#775=AXIS2_PLACEMENT_3D('Cylinder Axis2P3D',#772,#773,#774) ;
#788=AXIS2_PLACEMENT_3D('Circle Axis2P3D',#786,#787,$) ;
#802=AXIS2_PLACEMENT_3D('Circle Axis2P3D',#800,#801,$) ;
#814=AXIS2_PLACEMENT_3D('Circle Axis2P3D',#812,#813,$) ;
#819=AXIS2_PLACEMENT_3D('Circle Axis2P3D',#817,#818,$) ;
#832=AXIS2_PLACEMENT_3D('Cylinder Axis2P3D',#829,#830,#831) ;
#845=AXIS2_PLACEMENT_3D('Circle Axis2P3D',#843,#844,$) ;
#859=AXIS2_PLACEMENT_3D('Circle Axis2P3D',#857,#858,$) ;
#871=AXIS2_PLACEMENT_3D('Circle Axis2P3D',#869,#870,$) ;
#876=AXIS2_PLACEMENT_3D('Circle Axis2P3D',#874,#875,$) ;
#889=AXIS2_PLACEMENT_3D('Cylinder Axis2P3D',#886,#887,#888) ;
#902=AXIS2_PLACEMENT_3D('Circle Axis2P3D',#900,#901,$) ;
#916=AXIS2_PLACEMENT_3D('Circle Axis2P3D',#914,#915,$) ;
#929=AXIS2_PLACEMENT_3D('Plane Axis2P3D',#926,#927,#928) ;
#960=AXIS2_PLACEMENT_3D('Plane Axis2P3D',#957,#958,#959) ;
#991=AXIS2_PLACEMENT_3D('Plane Axis2P3D',#988,#989,#990) ;
#1022=AXIS2_PLACEMENT_3D('Plane Axis2P3D',#1019,#1020,#1021) ;
#1053=AXIS2_PLACEMENT_3D('Plane Axis2P3D',#1050,#1051,#1052) ;
#1093=AXIS2_PLACEMENT_3D('Plane Axis2P3D',#1090,#1091,#1092) ;
#1124=AXIS2_PLACEMENT_3D('Plane Axis2P3D',#1121,#1122,#1123) ;
#1181=AXIS2_PLACEMENT_3D('Cylinder Axis2P3D',#1178,#1179,#1180) ;
#1185=AXIS2_PLACEMENT_3D('Circle Axis2P3D',#1183,#1184,$) ;
#1199=AXIS2_PLACEMENT_3D('Circle Axis2P3D',#1197,#1198,$) ;
#1212=AXIS2_PLACEMENT_3D('Cylinder Axis2P3D',#1209,#1210,#1211) ;
#1216=AXIS2_PLACEMENT_3D('Circle Axis2P3D',#1214,#1215,$) ;
#1232=AXIS2_PLACEMENT_3D('Circle Axis2P3D',#1230,#1231,$) ;
#1251=AXIS2_PLACEMENT_3D('Circle Axis2P3D',#1249,#1250,$) ;
#1256=AXIS2_PLACEMENT_3D('Circle Axis2P3D',#1254,#1255,$) ;
#1269=AXIS2_PLACEMENT_3D('Cylinder Axis2P3D',#1266,#1267,#1268) ;
#1273=AXIS2_PLACEMENT_3D('Circle Axis2P3D',#1271,#1272,$) ;
#1289=AXIS2_PLACEMENT_3D('Circle Axis2P3D',#1287,#1288,$) ;
#1308=AXIS2_PLACEMENT_3D('Circle Axis2P3D',#1306,#1307,$) ;
#1313=AXIS2_PLACEMENT_3D('Circle Axis2P3D',#1311,#1312,$) ;
#1326=AXIS2_PLACEMENT_3D('Plane Axis2P3D',#1323,#1324,#1325) ;
#1349=AXIS2_PLACEMENT_3D('Plane Axis2P3D',#1346,#1347,#1348) ;
#1389=AXIS2_PLACEMENT_3D('Plane Axis2P3D',#1386,#1387,#1388) ;
#1420=AXIS2_PLACEMENT_3D('Plane Axis2P3D',#1417,#1418,#1419) ;
#1451=AXIS2_PLACEMENT_3D('Plane Axis2P3D',#1448,#1449,#1450) ;
#1482=AXIS2_PLACEMENT_3D('Plane Axis2P3D',#1479,#1480,#1481) ;
#1531=AXIS2_PLACEMENT_3D('Plane Axis2P3D',#1528,#1529,#1530) ;
#1555=AXIS2_PLACEMENT_3D('Plane Axis2P3D',#1552,#1553,#1554) ;
#1595=AXIS2_PLACEMENT_3D('Plane Axis2P3D',#1592,#1593,#1594) ;
#1626=AXIS2_PLACEMENT_3D('Plane Axis2P3D',#1623,#1624,#1625) ;
#1657=AXIS2_PLACEMENT_3D('Plane Axis2P3D',#1654,#1655,#1656) ;
#1744=AXIS2_PLACEMENT_3D('Plane Axis2P3D',#1741,#1742,#1743) ;
#1814=AXIS2_PLACEMENT_3D('Plane Axis2P3D',#1811,#1812,#1813) ;
#1838=AXIS2_PLACEMENT_3D('Plane Axis2P3D',#1835,#1836,#1837) ;
#1926=AXIS2_PLACEMENT_3D('Plane Axis2P3D',#1923,#1924,#1925) ;
#1949=AXIS2_PLACEMENT_3D('Plane Axis2P3D',#1946,#1947,#1948) ;
#17=CARTESIAN_POINT(' ',(0.,0.,0.)) ;
#31=CARTESIAN_POINT('Axis2P3D Location',(14.,5.,8.)) ;
#36=CARTESIAN_POINT('Line Origine',(12.7705,5.,4.00000018999)) ;
#40=CARTESIAN_POINT('Vertex',(12.7705,5.,0.)) ;
#42=CARTESIAN_POINT('Vertex',(12.7705,5.,8.)) ;
#45=CARTESIAN_POINT('Axis2P3D Location',(14.,5.,0.)) ;
#49=CARTESIAN_POINT('Vertex',(15.2295,5.,0.)) ;
#52=CARTESIAN_POINT('Line Origine',(15.2295,5.,4.00000018999)) ;
#56=CARTESIAN_POINT('Vertex',(15.2295,5.,8.)) ;
#59=CARTESIAN_POINT('Axis2P3D Location',(14.,5.,8.)) ;
#71=CARTESIAN_POINT('Axis2P3D Location',(14.,5.,0.)) ;
#76=CARTESIAN_POINT('Axis2P3D Location',(14.,5.,8.)) ;
#88=CARTESIAN_POINT('Axis2P3D Location',(6.5,10.,8.)) ;
#93=CARTESIAN_POINT('Line Origine',(8.5,10.,4.00000018999)) ;
#97=CARTESIAN_POINT('Vertex',(8.5,10.,0.)) ;
#99=CARTESIAN_POINT('Vertex',(8.5,10.,8.)) ;
#102=CARTESIAN_POINT('Axis2P3D Location',(6.5,10.,0.)) ;
#106=CARTESIAN_POINT('Vertex',(4.5,10.,0.)) ;
#109=CARTESIAN_POINT('Line Origine',(4.5,10.,4.00000018999)) ;
#113=CARTESIAN_POINT('Vertex',(4.5,10.,8.)) ;
#116=CARTESIAN_POINT('Axis2P3D Location',(6.5,10.,8.)) ;
#128=CARTESIAN_POINT('Axis2P3D Location',(6.5,10.,0.)) ;
#133=CARTESIAN_POINT('Axis2P3D Location',(6.5,10.,8.)) ;
#145=CARTESIAN_POINT('Axis2P3D Location',(-1.,0.,3.33999999916)) ;
#150=CARTESIAN_POINT('Axis2P3D Location',(-1.,0.,0.)) ;
#154=CARTESIAN_POINT('Vertex',(5.,0.,0.)) ;
#156=CARTESIAN_POINT('Vertex',(-7.,7.34788079488E-16,0.)) ;
#159=CARTESIAN_POINT('Line Origine',(5.,0.,3.9999999993)) ;
#163=CARTESIAN_POINT('Vertex',(5.,0.,8.)) ;
#166=CARTESIAN_POINT('Axis2P3D Location',(-1.,0.,8.)) ;
#170=CARTESIAN_POINT('Vertex',(-7.,7.34788079488E-16,8.)) ;
#173=CARTESIAN_POINT('Line Origine',(-7.,7.34788079488E-16,3.9999999993)) ;
#185=CARTESIAN_POINT('Axis2P3D Location',(-1.,0.,0.)) ;
#190=CARTESIAN_POINT('Axis2P3D Location',(-1.,0.,8.)) ;
#202=CARTESIAN_POINT('Axis2P3D Location',(10.,22.,6.)) ;
#207=CARTESIAN_POINT('Line Origine',(13.5,22.,6.)) ;
#211=CARTESIAN_POINT('Vertex',(13.5,22.,8.)) ;
#213=CARTESIAN_POINT('Vertex',(13.5,22.,4.)) ;
#216=CARTESIAN_POINT('Axis2P3D Location',(10.,22.,8.)) ;
#220=CARTESIAN_POINT('Vertex',(6.5,22.,8.)) ;
#223=CARTESIAN_POINT('Line Origine',(6.5,22.,6.)) ;
#227=CARTESIAN_POINT('Vertex',(6.5,22.,4.)) ;
#230=CARTESIAN_POINT('Axis2P3D Location',(10.,22.,4.)) ;
#242=CARTESIAN_POINT('Axis2P3D Location',(10.,22.,8.)) ;
#247=CARTESIAN_POINT('Axis2P3D Location',(10.,22.,4.)) ;
#259=CARTESIAN_POINT('Axis2P3D Location',(10.,-22.,6.)) ;
#264=CARTESIAN_POINT('Line Origine',(13.5,-22.,6.)) ;
#268=CARTESIAN_POINT('Vertex',(13.5,-22.,8.)) ;
#270=CARTESIAN_POINT('Vertex',(13.5,-22.,4.)) ;
#273=CARTESIAN_POINT('Axis2P3D Location',(10.,-22.,8.)) ;
#277=CARTESIAN_POINT('Vertex',(6.5,-22.,8.)) ;
#280=CARTESIAN_POINT('Line Origine',(6.5,-22.,6.)) ;
#284=CARTESIAN_POINT('Vertex',(6.5,-22.,4.)) ;
#287=CARTESIAN_POINT('Axis2P3D Location',(10.,-22.,4.)) ;
#299=CARTESIAN_POINT('Axis2P3D Location',(10.,-22.,8.)) ;
#304=CARTESIAN_POINT('Axis2P3D Location',(10.,-22.,4.)) ;
#316=CARTESIAN_POINT('Axis2P3D Location',(-9.5,-16.5,6.5)) ;
#321=CARTESIAN_POINT('Line Origine',(-11.,-16.5,6.5)) ;
#325=CARTESIAN_POINT('Vertex',(-11.,-16.5,8.)) ;
#327=CARTESIAN_POINT('Vertex',(-11.,-16.5,0.)) ;
#330=CARTESIAN_POINT('Axis2P3D Location',(-9.5,-16.5,8.)) ;
#334=CARTESIAN_POINT('Vertex',(-8.,-16.5,8.)) ;
#337=CARTESIAN_POINT('Line Origine',(-8.,-16.5,6.5)) ;
#341=CARTESIAN_POINT('Vertex',(-8.,-16.5,0.)) ;
#344=CARTESIAN_POINT('Axis2P3D Location',(-9.5,-16.5,0.)) ;
#356=CARTESIAN_POINT('Axis2P3D Location',(-9.5,-16.5,8.)) ;
#361=CARTESIAN_POINT('Axis2P3D Location',(-9.5,-16.5,0.)) ;
#373=CARTESIAN_POINT('Axis2P3D Location',(-9.5,16.5,6.5)) ;
#378=CARTESIAN_POINT('Line Origine',(-11.,16.5,6.5)) ;
#382=CARTESIAN_POINT('Vertex',(-11.,16.5,8.)) ;
#384=CARTESIAN_POINT('Vertex',(-11.,16.5,0.)) ;
#387=CARTESIAN_POINT('Axis2P3D Location',(-9.5,16.5,8.)) ;
#391=CARTESIAN_POINT('Vertex',(-8.,16.5,8.)) ;
#394=CARTESIAN_POINT('Line Origine',(-8.,16.5,6.5)) ;
#398=CARTESIAN_POINT('Vertex',(-8.,16.5,0.)) ;
#401=CARTESIAN_POINT('Axis2P3D Location',(-9.5,16.5,0.)) ;
#413=CARTESIAN_POINT('Axis2P3D Location',(-9.5,16.5,8.)) ;
#418=CARTESIAN_POINT('Axis2P3D Location',(-9.5,16.5,0.)) ;
#430=CARTESIAN_POINT('Axis2P3D Location',(-13.5,28.75,6.)) ;
#435=CARTESIAN_POINT('Axis2P3D Location',(-13.5,28.75,5.)) ;
#439=CARTESIAN_POINT('Vertex',(-15.15,28.75,5.)) ;
#441=CARTESIAN_POINT('Vertex',(-11.85,28.75,5.)) ;
#444=CARTESIAN_POINT('Line Origine',(-11.85,28.75,6.)) ;
#448=CARTESIAN_POINT('Vertex',(-11.85,28.75,8.)) ;
#451=CARTESIAN_POINT('Axis2P3D Location',(-13.5,28.75,8.)) ;
#455=CARTESIAN_POINT('Vertex',(-15.15,28.75,8.)) ;
#458=CARTESIAN_POINT('Line Origine',(-15.15,28.75,6.)) ;
#470=CARTESIAN_POINT('Axis2P3D Location',(-13.5,28.75,5.)) ;
#475=CARTESIAN_POINT('Axis2P3D Location',(-13.5,28.75,8.)) ;
#487=CARTESIAN_POINT('Axis2P3D Location',(-13.5,-28.75,6.)) ;
#492=CARTESIAN_POINT('Axis2P3D Location',(-13.5,-28.75,5.)) ;
#496=CARTESIAN_POINT('Vertex',(-11.85,-28.75,5.)) ;
#498=CARTESIAN_POINT('Vertex',(-15.15,-28.75,5.)) ;
#501=CARTESIAN_POINT('Line Origine',(-15.15,-28.75,6.)) ;
#505=CARTESIAN_POINT('Vertex',(-15.15,-28.75,8.)) ;
#508=CARTESIAN_POINT('Axis2P3D Location',(-13.5,-28.75,8.)) ;
#512=CARTESIAN_POINT('Vertex',(-11.85,-28.75,8.)) ;
#515=CARTESIAN_POINT('Line Origine',(-11.85,-28.75,6.)) ;
#527=CARTESIAN_POINT('Axis2P3D Location',(-13.5,-28.75,5.)) ;
#532=CARTESIAN_POINT('Axis2P3D Location',(-13.5,-28.75,8.)) ;
#544=CARTESIAN_POINT('Axis2P3D Location',(6.5,-10.,8.)) ;
#549=CARTESIAN_POINT('Line Origine',(4.5,-10.,4.00000018999)) ;
#553=CARTESIAN_POINT('Vertex',(4.5,-10.,0.)) ;
#555=CARTESIAN_POINT('Vertex',(4.5,-10.,8.)) ;
#558=CARTESIAN_POINT('Axis2P3D Location',(6.5,-10.,0.)) ;
#562=CARTESIAN_POINT('Vertex',(8.5,-10.,0.)) ;
#565=CARTESIAN_POINT('Line Origine',(8.5,-10.,4.00000018999)) ;
#569=CARTESIAN_POINT('Vertex',(8.5,-10.,8.)) ;
#572=CARTESIAN_POINT('Axis2P3D Location',(6.5,-10.,8.)) ;
#584=CARTESIAN_POINT('Axis2P3D Location',(6.5,-10.,0.)) ;
#589=CARTESIAN_POINT('Axis2P3D Location',(6.5,-10.,8.)) ;
#601=CARTESIAN_POINT('Axis2P3D Location',(-8.5,-10.,8.)) ;
#606=CARTESIAN_POINT('Line Origine',(-10.5,-10.,4.00000018999)) ;
#610=CARTESIAN_POINT('Vertex',(-10.5,-10.,0.)) ;
#612=CARTESIAN_POINT('Vertex',(-10.5,-10.,8.)) ;
#615=CARTESIAN_POINT('Axis2P3D Location',(-8.5,-10.,0.)) ;
#619=CARTESIAN_POINT('Vertex',(-6.5,-10.,0.)) ;
#622=CARTESIAN_POINT('Line Origine',(-6.5,-10.,4.00000018999)) ;
#626=CARTESIAN_POINT('Vertex',(-6.5,-10.,8.)) ;
#629=CARTESIAN_POINT('Axis2P3D Location',(-8.5,-10.,8.)) ;
#641=CARTESIAN_POINT('Axis2P3D Location',(-8.5,-10.,0.)) ;
#646=CARTESIAN_POINT('Axis2P3D Location',(-8.5,-10.,8.)) ;
#658=CARTESIAN_POINT('Axis2P3D Location',(-8.5,10.,8.)) ;
#663=CARTESIAN_POINT('Line Origine',(-10.5,10.,4.00000018999)) ;
#667=CARTESIAN_POINT('Vertex',(-10.5,10.,0.)) ;
#669=CARTESIAN_POINT('Vertex',(-10.5,10.,8.)) ;
#672=CARTESIAN_POINT('Axis2P3D Location',(-8.5,10.,0.)) ;
#676=CARTESIAN_POINT('Vertex',(-6.5,10.,0.)) ;
#679=CARTESIAN_POINT('Line Origine',(-6.5,10.,4.00000018999)) ;
#683=CARTESIAN_POINT('Vertex',(-6.5,10.,8.)) ;
#686=CARTESIAN_POINT('Axis2P3D Location',(-8.5,10.,8.)) ;
#698=CARTESIAN_POINT('Axis2P3D Location',(-8.5,10.,0.)) ;
#703=CARTESIAN_POINT('Axis2P3D Location',(-8.5,10.,8.)) ;
#715=CARTESIAN_POINT('Axis2P3D Location',(14.,-5.,8.)) ;
#720=CARTESIAN_POINT('Line Origine',(12.7705,-5.,4.00000018999)) ;
#724=CARTESIAN_POINT('Vertex',(12.7705,-5.,0.)) ;
#726=CARTESIAN_POINT('Vertex',(12.7705,-5.,8.)) ;
#729=CARTESIAN_POINT('Axis2P3D Location',(14.,-5.,0.)) ;
#733=CARTESIAN_POINT('Vertex',(15.2295,-5.,0.)) ;
#736=CARTESIAN_POINT('Line Origine',(15.2295,-5.,4.00000018999)) ;
#740=CARTESIAN_POINT('Vertex',(15.2295,-5.,8.)) ;
#743=CARTESIAN_POINT('Axis2P3D Location',(14.,-5.,8.)) ;
#755=CARTESIAN_POINT('Axis2P3D Location',(14.,-5.,0.)) ;
#760=CARTESIAN_POINT('Axis2P3D Location',(14.,-5.,8.)) ;
#772=CARTESIAN_POINT('Axis2P3D Location',(-16.,-5.,8.)) ;
#777=CARTESIAN_POINT('Line Origine',(-17.2295,-5.,4.00000018999)) ;
#781=CARTESIAN_POINT('Vertex',(-17.2295,-5.,0.)) ;
#783=CARTESIAN_POINT('Vertex',(-17.2295,-5.,8.)) ;
#786=CARTESIAN_POINT('Axis2P3D Location',(-16.,-5.,0.)) ;
#790=CARTESIAN_POINT('Vertex',(-14.7705,-5.,0.)) ;
#793=CARTESIAN_POINT('Line Origine',(-14.7705,-5.,4.00000018999)) ;
#797=CARTESIAN_POINT('Vertex',(-14.7705,-5.,8.)) ;
#800=CARTESIAN_POINT('Axis2P3D Location',(-16.,-5.,8.)) ;
#812=CARTESIAN_POINT('Axis2P3D Location',(-16.,-5.,0.)) ;
#817=CARTESIAN_POINT('Axis2P3D Location',(-16.,-5.,8.)) ;
#829=CARTESIAN_POINT('Axis2P3D Location',(-16.,5.,8.)) ;
#834=CARTESIAN_POINT('Line Origine',(-17.2295,5.,4.00000018999)) ;
#838=CARTESIAN_POINT('Vertex',(-17.2295,5.,0.)) ;
#840=CARTESIAN_POINT('Vertex',(-17.2295,5.,8.)) ;
#843=CARTESIAN_POINT('Axis2P3D Location',(-16.,5.,0.)) ;
#847=CARTESIAN_POINT('Vertex',(-14.7705,5.,0.)) ;
#850=CARTESIAN_POINT('Line Origine',(-14.7705,5.,4.00000018999)) ;
#854=CARTESIAN_POINT('Vertex',(-14.7705,5.,8.)) ;
#857=CARTESIAN_POINT('Axis2P3D Location',(-16.,5.,8.)) ;
#869=CARTESIAN_POINT('Axis2P3D Location',(-16.,5.,0.)) ;
#874=CARTESIAN_POINT('Axis2P3D Location',(-16.,5.,8.)) ;
#886=CARTESIAN_POINT('Axis2P3D Location',(-1.5,-23.5,2.5)) ;
#891=CARTESIAN_POINT('Line Origine',(-1.5,-21.,2.5)) ;
#895=CARTESIAN_POINT('Vertex',(-1.5,-21.,0.)) ;
#897=CARTESIAN_POINT('Vertex',(-1.5,-21.,5.)) ;
#900=CARTESIAN_POINT('Axis2P3D Location',(-1.5,-23.5,0.)) ;
#904=CARTESIAN_POINT('Vertex',(1.,-23.5,0.)) ;
#907=CARTESIAN_POINT('Line Origine',(1.,-23.5,2.5)) ;
#911=CARTESIAN_POINT('Vertex',(1.,-23.5,5.)) ;
#914=CARTESIAN_POINT('Axis2P3D Location',(-1.5,-23.5,5.)) ;
#926=CARTESIAN_POINT('Axis2P3D Location',(1.,-23.5,0.)) ;
#931=CARTESIAN_POINT('Line Origine',(1.,-24.25,5.)) ;
#935=CARTESIAN_POINT('Vertex',(1.,-25.,5.)) ;
#938=CARTESIAN_POINT('Line Origine',(1.,-24.25,0.)) ;
#942=CARTESIAN_POINT('Vertex',(1.,-25.,0.)) ;
#945=CARTESIAN_POINT('Line Origine',(1.,-25.,2.5)) ;
#957=CARTESIAN_POINT('Axis2P3D Location',(1.,-25.,2.5)) ;
#962=CARTESIAN_POINT('Line Origine',(2.,-26.,0.)) ;
#966=CARTESIAN_POINT('Vertex',(3.,-27.,0.)) ;
#969=CARTESIAN_POINT('Line Origine',(3.,-27.,3.9999999993)) ;
#973=CARTESIAN_POINT('Vertex',(3.,-27.,5.)) ;
#976=CARTESIAN_POINT('Line Origine',(2.,-26.,5.)) ;
#988=CARTESIAN_POINT('Axis2P3D Location',(-9.,-27.,0.)) ;
#993=CARTESIAN_POINT('Line Origine',(9.5,-27.,0.)) ;
#997=CARTESIAN_POINT('Vertex',(16.,-27.,0.)) ;
#1000=CARTESIAN_POINT('Line Origine',(16.,-27.,3.9999999993)) ;
#1004=CARTESIAN_POINT('Vertex',(16.,-27.,5.)) ;
#1007=CARTESIAN_POINT('Line Origine',(9.5,-27.,5.)) ;
#1019=CARTESIAN_POINT('Axis2P3D Location',(18.,-25.,2.5)) ;
#1024=CARTESIAN_POINT('Line Origine',(17.,-26.,5.)) ;
#1028=CARTESIAN_POINT('Vertex',(18.,-25.,5.)) ;
#1031=CARTESIAN_POINT('Line Origine',(17.,-26.,0.)) ;
#1035=CARTESIAN_POINT('Vertex',(18.,-25.,0.)) ;
#1038=CARTESIAN_POINT('Line Origine',(18.,-25.,3.9999999993)) ;
#1050=CARTESIAN_POINT('Axis2P3D Location',(18.,25.,2.5)) ;
#1055=CARTESIAN_POINT('Line Origine',(18.,25.,3.9999999993)) ;
#1059=CARTESIAN_POINT('Vertex',(18.,25.,-1.11022302463E-16)) ;
#1061=CARTESIAN_POINT('Vertex',(18.,25.,5.)) ;
#1064=CARTESIAN_POINT('Line Origine',(17.,26.,0.)) ;
#1068=CARTESIAN_POINT('Vertex',(16.,27.,0.)) ;
#1071=CARTESIAN_POINT('Line Origine',(16.,27.,3.9999999993)) ;
#1075=CARTESIAN_POINT('Vertex',(16.,27.,5.)) ;
#1078=CARTESIAN_POINT('Line Origine',(17.,26.,5.)) ;
#1090=CARTESIAN_POINT('Axis2P3D Location',(24.4468688965,27.,0.)) ;
#1095=CARTESIAN_POINT('Line Origine',(9.5,27.,0.)) ;
#1099=CARTESIAN_POINT('Vertex',(3.,27.,0.)) ;
#1102=CARTESIAN_POINT('Line Origine',(3.,27.,3.9999999993)) ;
#1106=CARTESIAN_POINT('Vertex',(3.,27.,5.)) ;
#1109=CARTESIAN_POINT('Line Origine',(9.5,27.,5.)) ;
#1121=CARTESIAN_POINT('Axis2P3D Location',(1.,25.,2.5)) ;
#1126=CARTESIAN_POINT('Line Origine',(2.,26.,5.)) ;
#1130=CARTESIAN_POINT('Vertex',(1.,25.,5.)) ;
#1133=CARTESIAN_POINT('Line Origine',(2.,26.,0.)) ;
#1137=CARTESIAN_POINT('Vertex',(1.,25.,0.)) ;
#1140=CARTESIAN_POINT('Line Origine',(1.,25.,3.9999999993)) ;
#1152=CARTESIAN_POINT('Line Origine',(1.,24.25,0.)) ;
#1156=CARTESIAN_POINT('Vertex',(1.,23.5,0.)) ;
#1159=CARTESIAN_POINT('Line Origine',(1.,23.5,2.5)) ;
#1163=CARTESIAN_POINT('Vertex',(1.,23.5,5.)) ;
#1166=CARTESIAN_POINT('Line Origine',(1.,24.25,5.)) ;
#1178=CARTESIAN_POINT('Axis2P3D Location',(-1.5,23.5,2.5)) ;
#1183=CARTESIAN_POINT('Axis2P3D Location',(-1.5,23.5,0.)) ;
#1187=CARTESIAN_POINT('Vertex',(-1.5,21.,0.)) ;
#1190=CARTESIAN_POINT('Line Origine',(-1.5,21.,2.5)) ;
#1194=CARTESIAN_POINT('Vertex',(-1.5,21.,5.)) ;
#1197=CARTESIAN_POINT('Axis2P3D Location',(-1.5,23.5,5.)) ;
#1209=CARTESIAN_POINT('Axis2P3D Location',(10.,22.,0.)) ;
#1214=CARTESIAN_POINT('Axis2P3D Location',(10.,22.,4.)) ;
#1218=CARTESIAN_POINT('Vertex',(11.65,22.,4.)) ;
#1220=CARTESIAN_POINT('Vertex',(8.35,22.,4.)) ;
#1223=CARTESIAN_POINT('Line Origine',(8.35,22.,4.84499999996)) ;
#1227=CARTESIAN_POINT('Vertex',(8.35,22.,0.)) ;
#1230=CARTESIAN_POINT('Axis2P3D Location',(10.,22.,0.)) ;
#1234=CARTESIAN_POINT('Vertex',(11.65,22.,0.)) ;
#1237=CARTESIAN_POINT('Line Origine',(11.65,22.,4.84499999996)) ;
#1249=CARTESIAN_POINT('Axis2P3D Location',(10.,22.,4.)) ;
#1254=CARTESIAN_POINT('Axis2P3D Location',(10.,22.,0.)) ;
#1266=CARTESIAN_POINT('Axis2P3D Location',(10.,-22.,0.)) ;
#1271=CARTESIAN_POINT('Axis2P3D Location',(10.,-22.,4.)) ;
#1275=CARTESIAN_POINT('Vertex',(11.65,-22.,4.)) ;
#1277=CARTESIAN_POINT('Vertex',(8.35,-22.,4.)) ;
#1280=CARTESIAN_POINT('Line Origine',(8.35,-22.,4.84499999996)) ;
#1284=CARTESIAN_POINT('Vertex',(8.35,-22.,0.)) ;
#1287=CARTESIAN_POINT('Axis2P3D Location',(10.,-22.,0.)) ;
#1291=CARTESIAN_POINT('Vertex',(11.65,-22.,0.)) ;
#1294=CARTESIAN_POINT('Line Origine',(11.65,-22.,4.84499999996)) ;
#1306=CARTESIAN_POINT('Axis2P3D Location',(10.,-22.,4.)) ;
#1311=CARTESIAN_POINT('Axis2P3D Location',(10.,-22.,0.)) ;
#1323=CARTESIAN_POINT('Axis2P3D Location',(0.,0.,4.)) ;
#1346=CARTESIAN_POINT('Axis2P3D Location',(-20.5,-31.,4.)) ;
#1351=CARTESIAN_POINT('Line Origine',(-19.5,-32.,5.)) ;
#1355=CARTESIAN_POINT('Vertex',(-20.5,-31.,5.)) ;
#1357=CARTESIAN_POINT('Vertex',(-18.5,-33.,5.)) ;
#1360=CARTESIAN_POINT('Line Origine',(-18.5,-33.,4.)) ;
#1364=CARTESIAN_POINT('Vertex',(-18.5,-33.,8.)) ;
#1367=CARTESIAN_POINT('Line Origine',(-19.5,-32.,8.)) ;
#1371=CARTESIAN_POINT('Vertex',(-20.5,-31.,8.)) ;
#1374=CARTESIAN_POINT('Line Origine',(-20.5,-31.,4.)) ;
#1386=CARTESIAN_POINT('Axis2P3D Location',(-1.5,-21.,0.)) ;
#1391=CARTESIAN_POINT('Line Origine',(-18.5,-21.,2.5)) ;
#1395=CARTESIAN_POINT('Vertex',(-18.5,-21.,5.)) ;
#1397=CARTESIAN_POINT('Vertex',(-18.5,-21.,0.)) ;
#1400=CARTESIAN_POINT('Line Origine',(-10.,-21.,0.)) ;
#1405=CARTESIAN_POINT('Line Origine',(-10.,-21.,5.)) ;
#1417=CARTESIAN_POINT('Axis2P3D Location',(-20.5,-19.,4.)) ;
#1422=CARTESIAN_POINT('Line Origine',(-19.5,-20.,0.)) ;
#1426=CARTESIAN_POINT('Vertex',(-20.5,-19.,0.)) ;
#1429=CARTESIAN_POINT('Line Origine',(-19.5,-20.,5.)) ;
#1433=CARTESIAN_POINT('Vertex',(-20.5,-19.,5.)) ;
#1436=CARTESIAN_POINT('Line Origine',(-20.5,-19.,4.)) ;
#1448=CARTESIAN_POINT('Axis2P3D Location',(18.,-33.,0.)) ;
#1453=CARTESIAN_POINT('Line Origine',(16.,-33.,4.83999999916)) ;
#1457=CARTESIAN_POINT('Vertex',(16.,-33.,8.)) ;
#1459=CARTESIAN_POINT('Vertex',(16.,-33.,5.)) ;
#1462=CARTESIAN_POINT('Line Origine',(7.25,-33.,8.)) ;
#1467=CARTESIAN_POINT('Line Origine',(7.25,-33.,5.)) ;
#1479=CARTESIAN_POINT('Axis2P3D Location',(0.,0.,5.)) ;
#1484=CARTESIAN_POINT('Line Origine',(-20.5,-26.,5.)) ;
#1488=CARTESIAN_POINT('Vertex',(-20.5,-21.,5.)) ;
#1491=CARTESIAN_POINT('Line Origine',(-20.5,-20.,5.)) ;
#1496=CARTESIAN_POINT('Line Origine',(18.,-28.,5.)) ;
#1500=CARTESIAN_POINT('Vertex',(18.,-31.,5.)) ;
#1503=CARTESIAN_POINT('Line Origine',(17.,-32.,5.)) ;
#1528=CARTESIAN_POINT('Axis2P3D Location',(18.,-31.,4.)) ;
#1533=CARTESIAN_POINT('Line Origine',(18.,-31.,4.)) ;
#1537=CARTESIAN_POINT('Vertex',(18.,-31.,8.)) ;
#1540=CARTESIAN_POINT('Line Origine',(17.,-32.,8.)) ;
#1552=CARTESIAN_POINT('Axis2P3D Location',(18.,-32.,0.)) ;
#1557=CARTESIAN_POINT('Line Origine',(18.,0.,8.)) ;
#1561=CARTESIAN_POINT('Vertex',(18.,31.,8.)) ;
#1564=CARTESIAN_POINT('Line Origine',(18.,0.,0.)) ;
#1569=CARTESIAN_POINT('Line Origine',(18.,28.,5.)) ;
#1573=CARTESIAN_POINT('Vertex',(18.,31.,5.)) ;
#1576=CARTESIAN_POINT('Line Origine',(18.,31.,6.5)) ;
#1592=CARTESIAN_POINT('Axis2P3D Location',(18.,31.,4.)) ;
#1597=CARTESIAN_POINT('Line Origine',(17.,32.,5.)) ;
#1601=CARTESIAN_POINT('Vertex',(16.,33.,5.)) ;
#1604=CARTESIAN_POINT('Line Origine',(16.,33.,4.)) ;
#1608=CARTESIAN_POINT('Vertex',(16.,33.,8.)) ;
#1611=CARTESIAN_POINT('Line Origine',(17.,32.,8.)) ;
#1623=CARTESIAN_POINT('Axis2P3D Location',(-17.,33.,0.)) ;
#1628=CARTESIAN_POINT('Line Origine',(-18.5,33.,4.83999999916)) ;
#1632=CARTESIAN_POINT('Vertex',(-18.5,33.,8.)) ;
#1634=CARTESIAN_POINT('Vertex',(-18.5,33.,5.)) ;
#1637=CARTESIAN_POINT('Line Origine',(7.25,33.,8.)) ;
#1642=CARTESIAN_POINT('Line Origine',(7.25,33.,5.)) ;
#1654=CARTESIAN_POINT('Axis2P3D Location',(0.,0.,8.)) ;
#1659=CARTESIAN_POINT('Line Origine',(-20.5,0.,8.)) ;
#1663=CARTESIAN_POINT('Vertex',(-20.5,31.,8.)) ;
#1667=CARTESIAN_POINT('Control Point',(-20.5,31.,8.)) ;
#1668=CARTESIAN_POINT('Control Point',(-18.5,33.,8.)) ;
#1741=CARTESIAN_POINT('Axis2P3D Location',(-20.5,31.,4.)) ;
#1746=CARTESIAN_POINT('Line Origine',(-20.5,31.,4.)) ;
#1750=CARTESIAN_POINT('Vertex',(-20.5,31.,5.)) ;
#1753=CARTESIAN_POINT('Line Origine',(-19.5,32.,5.)) ;
#1765=CARTESIAN_POINT('Line Origine',(-19.5,20.,5.)) ;
#1769=CARTESIAN_POINT('Vertex',(-20.5,19.,5.)) ;
#1771=CARTESIAN_POINT('Vertex',(-18.5,21.,5.)) ;
#1774=CARTESIAN_POINT('Line Origine',(-20.5,20.,5.)) ;
#1778=CARTESIAN_POINT('Vertex',(-20.5,21.,5.)) ;
#1781=CARTESIAN_POINT('Line Origine',(-20.5,26.,5.)) ;
#1786=CARTESIAN_POINT('Line Origine',(-10.,21.,5.)) ;
#1811=CARTESIAN_POINT('Axis2P3D Location',(-1.5,21.,0.)) ;
#1816=CARTESIAN_POINT('Line Origine',(-10.,21.,0.)) ;
#1820=CARTESIAN_POINT('Vertex',(-18.5,21.,0.)) ;
#1823=CARTESIAN_POINT('Line Origine',(-18.5,21.,2.5)) ;
#1835=CARTESIAN_POINT('Axis2P3D Location',(0.,0.,0.)) ;
#1840=CARTESIAN_POINT('Line Origine',(-19.5,20.,0.)) ;
#1844=CARTESIAN_POINT('Vertex',(-20.5,19.,0.)) ;
#1847=CARTESIAN_POINT('Line Origine',(-20.5,0.,0.)) ;
#1923=CARTESIAN_POINT('Axis2P3D Location',(-20.5,33.,8.)) ;
#1928=CARTESIAN_POINT('Line Origine',(-20.5,19.,2.5)) ;
#1946=CARTESIAN_POINT('Axis2P3D Location',(-20.5,19.,4.)) ;
#32=DIRECTION('Axis2P3D Direction',(0.,-0.,-1.)) ;
#33=DIRECTION('Axis2P3D XDirection',(1.,0.,0.)) ;
#37=DIRECTION('Vector Direction',(0.,0.,-1.)) ;
#46=DIRECTION('Axis2P3D Direction',(0.,-0.,-1.)) ;
#53=DIRECTION('Vector Direction',(0.,0.,-1.)) ;
#60=DIRECTION('Axis2P3D Direction',(0.,-0.,-1.)) ;
#72=DIRECTION('Axis2P3D Direction',(0.,-0.,-1.)) ;
#77=DIRECTION('Axis2P3D Direction',(0.,-0.,-1.)) ;
#89=DIRECTION('Axis2P3D Direction',(0.,-0.,-1.)) ;
#90=DIRECTION('Axis2P3D XDirection',(1.,0.,0.)) ;
#94=DIRECTION('Vector Direction',(0.,0.,-1.)) ;
#103=DIRECTION('Axis2P3D Direction',(0.,-0.,-1.)) ;
#110=DIRECTION('Vector Direction',(0.,0.,-1.)) ;
#117=DIRECTION('Axis2P3D Direction',(0.,-0.,-1.)) ;
#129=DIRECTION('Axis2P3D Direction',(0.,-0.,-1.)) ;
#134=DIRECTION('Axis2P3D Direction',(0.,-0.,-1.)) ;
#146=DIRECTION('Axis2P3D Direction',(0.,0.,1.)) ;
#147=DIRECTION('Axis2P3D XDirection',(1.,0.,0.)) ;
#151=DIRECTION('Axis2P3D Direction',(0.,0.,1.)) ;
#160=DIRECTION('Vector Direction',(0.,0.,1.)) ;
#167=DIRECTION('Axis2P3D Direction',(0.,0.,1.)) ;
#174=DIRECTION('Vector Direction',(0.,0.,1.)) ;
#186=DIRECTION('Axis2P3D Direction',(0.,0.,1.)) ;
#191=DIRECTION('Axis2P3D Direction',(0.,0.,1.)) ;
#203=DIRECTION('Axis2P3D Direction',(0.,0.,1.)) ;
#204=DIRECTION('Axis2P3D XDirection',(1.,0.,0.)) ;
#208=DIRECTION('Vector Direction',(0.,0.,1.)) ;
#217=DIRECTION('Axis2P3D Direction',(0.,0.,1.)) ;
#224=DIRECTION('Vector Direction',(0.,0.,1.)) ;
#231=DIRECTION('Axis2P3D Direction',(0.,0.,1.)) ;
#243=DIRECTION('Axis2P3D Direction',(0.,0.,1.)) ;
#248=DIRECTION('Axis2P3D Direction',(0.,0.,1.)) ;
#260=DIRECTION('Axis2P3D Direction',(0.,0.,1.)) ;
#261=DIRECTION('Axis2P3D XDirection',(1.,0.,0.)) ;
#265=DIRECTION('Vector Direction',(0.,0.,1.)) ;
#274=DIRECTION('Axis2P3D Direction',(0.,0.,1.)) ;
#281=DIRECTION('Vector Direction',(0.,0.,1.)) ;
#288=DIRECTION('Axis2P3D Direction',(0.,0.,1.)) ;
#300=DIRECTION('Axis2P3D Direction',(0.,0.,1.)) ;
#305=DIRECTION('Axis2P3D Direction',(0.,0.,1.)) ;
#317=DIRECTION('Axis2P3D Direction',(0.,0.,1.)) ;
#318=DIRECTION('Axis2P3D XDirection',(-1.,7.22789203752E-15,0.)) ;
#322=DIRECTION('Vector Direction',(0.,0.,1.)) ;
#331=DIRECTION('Axis2P3D Direction',(0.,0.,1.)) ;
#338=DIRECTION('Vector Direction',(0.,0.,1.)) ;
#345=DIRECTION('Axis2P3D Direction',(0.,0.,1.)) ;
#357=DIRECTION('Axis2P3D Direction',(0.,0.,1.)) ;
#362=DIRECTION('Axis2P3D Direction',(0.,0.,1.)) ;
#374=DIRECTION('Axis2P3D Direction',(0.,0.,1.)) ;
#375=DIRECTION('Axis2P3D XDirection',(-1.,-1.65389215949E-15,-0.)) ;
#379=DIRECTION('Vector Direction',(0.,0.,1.)) ;
#388=DIRECTION('Axis2P3D Direction',(0.,0.,1.)) ;
#395=DIRECTION('Vector Direction',(0.,0.,1.)) ;
#402=DIRECTION('Axis2P3D Direction',(0.,0.,1.)) ;
#414=DIRECTION('Axis2P3D Direction',(0.,0.,1.)) ;
#419=DIRECTION('Axis2P3D Direction',(0.,0.,1.)) ;
#431=DIRECTION('Axis2P3D Direction',(0.,0.,1.)) ;
#432=DIRECTION('Axis2P3D XDirection',(1.,0.,0.)) ;
#436=DIRECTION('Axis2P3D Direction',(0.,0.,1.)) ;
#445=DIRECTION('Vector Direction',(0.,0.,1.)) ;
#452=DIRECTION('Axis2P3D Direction',(0.,0.,1.)) ;
#459=DIRECTION('Vector Direction',(0.,0.,1.)) ;
#471=DIRECTION('Axis2P3D Direction',(0.,0.,1.)) ;
#476=DIRECTION('Axis2P3D Direction',(0.,0.,1.)) ;
#488=DIRECTION('Axis2P3D Direction',(0.,0.,1.)) ;
#489=DIRECTION('Axis2P3D XDirection',(1.,0.,0.)) ;
#493=DIRECTION('Axis2P3D Direction',(0.,0.,1.)) ;
#502=DIRECTION('Vector Direction',(0.,0.,1.)) ;
#509=DIRECTION('Axis2P3D Direction',(0.,0.,1.)) ;
#516=DIRECTION('Vector Direction',(0.,0.,1.)) ;
#528=DIRECTION('Axis2P3D Direction',(0.,0.,1.)) ;
#533=DIRECTION('Axis2P3D Direction',(0.,0.,1.)) ;
#545=DIRECTION('Axis2P3D Direction',(0.,-0.,-1.)) ;
#546=DIRECTION('Axis2P3D XDirection',(1.,0.,0.)) ;
#550=DIRECTION('Vector Direction',(0.,0.,-1.)) ;
#559=DIRECTION('Axis2P3D Direction',(0.,-0.,-1.)) ;
#566=DIRECTION('Vector Direction',(0.,0.,-1.)) ;
#573=DIRECTION('Axis2P3D Direction',(0.,-0.,-1.)) ;
#585=DIRECTION('Axis2P3D Direction',(0.,-0.,-1.)) ;
#590=DIRECTION('Axis2P3D Direction',(0.,-0.,-1.)) ;
#602=DIRECTION('Axis2P3D Direction',(0.,-0.,-1.)) ;
#603=DIRECTION('Axis2P3D XDirection',(1.,0.,0.)) ;
#607=DIRECTION('Vector Direction',(0.,0.,-1.)) ;
#616=DIRECTION('Axis2P3D Direction',(0.,-0.,-1.)) ;
#623=DIRECTION('Vector Direction',(0.,0.,-1.)) ;
#630=DIRECTION('Axis2P3D Direction',(0.,-0.,-1.)) ;
#642=DIRECTION('Axis2P3D Direction',(0.,-0.,-1.)) ;
#647=DIRECTION('Axis2P3D Direction',(0.,-0.,-1.)) ;
#659=DIRECTION('Axis2P3D Direction',(0.,-0.,-1.)) ;
#660=DIRECTION('Axis2P3D XDirection',(1.,0.,0.)) ;
#664=DIRECTION('Vector Direction',(0.,0.,-1.)) ;
#673=DIRECTION('Axis2P3D Direction',(0.,-0.,-1.)) ;
#680=DIRECTION('Vector Direction',(0.,0.,-1.)) ;
#687=DIRECTION('Axis2P3D Direction',(0.,-0.,-1.)) ;
#699=DIRECTION('Axis2P3D Direction',(0.,-0.,-1.)) ;
#704=DIRECTION('Axis2P3D Direction',(0.,-0.,-1.)) ;
#716=DIRECTION('Axis2P3D Direction',(0.,-0.,-1.)) ;
#717=DIRECTION('Axis2P3D XDirection',(1.,0.,0.)) ;
#721=DIRECTION('Vector Direction',(0.,0.,-1.)) ;
#730=DIRECTION('Axis2P3D Direction',(0.,-0.,-1.)) ;
#737=DIRECTION('Vector Direction',(0.,0.,-1.)) ;
#744=DIRECTION('Axis2P3D Direction',(0.,-0.,-1.)) ;
#756=DIRECTION('Axis2P3D Direction',(0.,-0.,-1.)) ;
#761=DIRECTION('Axis2P3D Direction',(0.,-0.,-1.)) ;
#773=DIRECTION('Axis2P3D Direction',(0.,-0.,-1.)) ;
#774=DIRECTION('Axis2P3D XDirection',(1.,0.,0.)) ;
#778=DIRECTION('Vector Direction',(0.,0.,-1.)) ;
#787=DIRECTION('Axis2P3D Direction',(0.,-0.,-1.)) ;
#794=DIRECTION('Vector Direction',(0.,0.,-1.)) ;
#801=DIRECTION('Axis2P3D Direction',(0.,-0.,-1.)) ;
#813=DIRECTION('Axis2P3D Direction',(0.,-0.,-1.)) ;
#818=DIRECTION('Axis2P3D Direction',(0.,-0.,-1.)) ;
#830=DIRECTION('Axis2P3D Direction',(0.,-0.,-1.)) ;
#831=DIRECTION('Axis2P3D XDirection',(1.,0.,0.)) ;
#835=DIRECTION('Vector Direction',(0.,0.,-1.)) ;
#844=DIRECTION('Axis2P3D Direction',(0.,-0.,-1.)) ;
#851=DIRECTION('Vector Direction',(0.,0.,-1.)) ;
#858=DIRECTION('Axis2P3D Direction',(0.,-0.,-1.)) ;
#870=DIRECTION('Axis2P3D Direction',(0.,-0.,-1.)) ;
#875=DIRECTION('Axis2P3D Direction',(0.,-0.,-1.)) ;
#887=DIRECTION('Axis2P3D Direction',(0.,0.,-1.)) ;
#888=DIRECTION('Axis2P3D XDirection',(7.04481399828E-16,1.,0.)) ;
#892=DIRECTION('Vector Direction',(0.,0.,-1.)) ;
#901=DIRECTION('Axis2P3D Direction',(0.,0.,-1.)) ;
#908=DIRECTION('Vector Direction',(0.,0.,-1.)) ;
#915=DIRECTION('Axis2P3D Direction',(0.,0.,-1.)) ;
#927=DIRECTION('Axis2P3D Direction',(-1.,0.,0.)) ;
#928=DIRECTION('Axis2P3D XDirection',(0.,-1.,0.)) ;
#932=DIRECTION('Vector Direction',(0.,-1.,0.)) ;
#939=DIRECTION('Vector Direction',(0.,-1.,0.)) ;
#946=DIRECTION('Vector Direction',(0.,0.,1.)) ;
#958=DIRECTION('Axis2P3D Direction',(0.707106781187,0.707106781187,-0.)) ;
#959=DIRECTION('Axis2P3D XDirection',(0.,0.,1.)) ;
#963=DIRECTION('Vector Direction',(0.707106781187,-0.707106781187,0.)) ;
#970=DIRECTION('Vector Direction',(0.,0.,1.)) ;
#977=DIRECTION('Vector Direction',(0.707106781187,-0.707106781187,0.)) ;
#989=DIRECTION('Axis2P3D Direction',(0.,-1.,0.)) ;
#990=DIRECTION('Axis2P3D XDirection',(1.,0.,0.)) ;
#994=DIRECTION('Vector Direction',(1.,0.,0.)) ;
#1001=DIRECTION('Vector Direction',(0.,0.,1.)) ;
#1008=DIRECTION('Vector Direction',(1.,0.,0.)) ;
#1020=DIRECTION('Axis2P3D Direction',(0.707106781187,-0.707106781187,0.)) ;
#1021=DIRECTION('Axis2P3D XDirection',(0.,0.,1.)) ;
#1025=DIRECTION('Vector Direction',(-0.707106781187,-0.707106781187,0.)) ;
#1032=DIRECTION('Vector Direction',(-0.707106781187,-0.707106781187,0.)) ;
#1039=DIRECTION('Vector Direction',(0.,0.,1.)) ;
#1051=DIRECTION('Axis2P3D Direction',(-0.707106781187,-0.707106781187,0.)) ;
#1052=DIRECTION('Axis2P3D XDirection',(0.,0.,1.)) ;
#1056=DIRECTION('Vector Direction',(0.,0.,1.)) ;
#1065=DIRECTION('Vector Direction',(-0.707106781187,0.707106781187,0.)) ;
#1072=DIRECTION('Vector Direction',(0.,0.,1.)) ;
#1079=DIRECTION('Vector Direction',(-0.707106781187,0.707106781187,0.)) ;
#1091=DIRECTION('Axis2P3D Direction',(0.,1.,-0.)) ;
#1092=DIRECTION('Axis2P3D XDirection',(-1.,0.,0.)) ;
#1096=DIRECTION('Vector Direction',(-1.,0.,0.)) ;
#1103=DIRECTION('Vector Direction',(0.,0.,1.)) ;
#1110=DIRECTION('Vector Direction',(-1.,0.,0.)) ;
#1122=DIRECTION('Axis2P3D Direction',(-0.707106781187,0.707106781187,0.)) ;
#1123=DIRECTION('Axis2P3D XDirection',(0.,0.,1.)) ;
#1127=DIRECTION('Vector Direction',(0.707106781187,0.707106781187,0.)) ;
#1134=DIRECTION('Vector Direction',(0.707106781187,0.707106781187,0.)) ;
#1141=DIRECTION('Vector Direction',(0.,0.,1.)) ;
#1153=DIRECTION('Vector Direction',(0.,-1.,0.)) ;
#1160=DIRECTION('Vector Direction',(0.,0.,1.)) ;
#1167=DIRECTION('Vector Direction',(0.,-1.,0.)) ;
#1179=DIRECTION('Axis2P3D Direction',(0.,0.,-1.)) ;
#1180=DIRECTION('Axis2P3D XDirection',(1.,-1.42108547152E-15,0.)) ;
#1184=DIRECTION('Axis2P3D Direction',(0.,0.,-1.)) ;
#1191=DIRECTION('Vector Direction',(0.,0.,-1.)) ;
#1198=DIRECTION('Axis2P3D Direction',(0.,0.,-1.)) ;
#1210=DIRECTION('Axis2P3D Direction',(0.,-0.,1.)) ;
#1211=DIRECTION('Axis2P3D XDirection',(1.,0.,0.)) ;
#1215=DIRECTION('Axis2P3D Direction',(0.,-0.,1.)) ;
#1224=DIRECTION('Vector Direction',(0.,0.,1.)) ;
#1231=DIRECTION('Axis2P3D Direction',(0.,-0.,1.)) ;
#1238=DIRECTION('Vector Direction',(0.,0.,1.)) ;
#1250=DIRECTION('Axis2P3D Direction',(0.,-0.,1.)) ;
#1255=DIRECTION('Axis2P3D Direction',(0.,-0.,1.)) ;
#1267=DIRECTION('Axis2P3D Direction',(0.,-0.,1.)) ;
#1268=DIRECTION('Axis2P3D XDirection',(1.,0.,0.)) ;
#1272=DIRECTION('Axis2P3D Direction',(0.,-0.,1.)) ;
#1281=DIRECTION('Vector Direction',(0.,0.,1.)) ;
#1288=DIRECTION('Axis2P3D Direction',(0.,-0.,1.)) ;
#1295=DIRECTION('Vector Direction',(0.,0.,1.)) ;
#1307=DIRECTION('Axis2P3D Direction',(0.,-0.,1.)) ;
#1312=DIRECTION('Axis2P3D Direction',(0.,-0.,1.)) ;
#1324=DIRECTION('Axis2P3D Direction',(0.,0.,1.)) ;
#1325=DIRECTION('Axis2P3D XDirection',(1.,0.,0.)) ;
#1347=DIRECTION('Axis2P3D Direction',(-0.707106781187,-0.707106781187,-0.)) ;
#1348=DIRECTION('Axis2P3D XDirection',(0.,0.,-1.)) ;
#1352=DIRECTION('Vector Direction',(0.707106781187,-0.707106781187,0.)) ;
#1361=DIRECTION('Vector Direction',(0.,0.,-1.)) ;
#1368=DIRECTION('Vector Direction',(0.707106781187,-0.707106781187,0.)) ;
#1375=DIRECTION('Vector Direction',(0.,0.,-1.)) ;
#1387=DIRECTION('Axis2P3D Direction',(0.,1.,-0.)) ;
#1388=DIRECTION('Axis2P3D XDirection',(-1.,0.,0.)) ;
#1392=DIRECTION('Vector Direction',(0.,0.,-1.)) ;
#1401=DIRECTION('Vector Direction',(-1.,0.,0.)) ;
#1406=DIRECTION('Vector Direction',(-1.,0.,0.)) ;
#1418=DIRECTION('Axis2P3D Direction',(-0.707106781187,-0.707106781187,-0.)) ;
#1419=DIRECTION('Axis2P3D XDirection',(0.,0.,-1.)) ;
#1423=DIRECTION('Vector Direction',(0.707106781187,-0.707106781187,0.)) ;
#1430=DIRECTION('Vector Direction',(0.707106781187,-0.707106781187,0.)) ;
#1437=DIRECTION('Vector Direction',(0.,0.,-1.)) ;
#1449=DIRECTION('Axis2P3D Direction',(0.,1.,-0.)) ;
#1450=DIRECTION('Axis2P3D XDirection',(-1.,0.,0.)) ;
#1454=DIRECTION('Vector Direction',(0.,0.,1.)) ;
#1463=DIRECTION('Vector Direction',(-1.,0.,0.)) ;
#1468=DIRECTION('Vector Direction',(-1.,0.,0.)) ;
#1480=DIRECTION('Axis2P3D Direction',(0.,0.,-1.)) ;
#1481=DIRECTION('Axis2P3D XDirection',(1.,0.,0.)) ;
#1485=DIRECTION('Vector Direction',(0.,-1.,0.)) ;
#1492=DIRECTION('Vector Direction',(0.,-1.,0.)) ;
#1497=DIRECTION('Vector Direction',(0.,1.,0.)) ;
#1504=DIRECTION('Vector Direction',(0.707106781187,0.707106781187,0.)) ;
#1529=DIRECTION('Axis2P3D Direction',(-0.707106781187,0.707106781187,0.)) ;
#1530=DIRECTION('Axis2P3D XDirection',(0.,0.,-1.)) ;
#1534=DIRECTION('Vector Direction',(0.,0.,-1.)) ;
#1541=DIRECTION('Vector Direction',(-0.707106781187,-0.707106781187,0.)) ;
#1553=DIRECTION('Axis2P3D Direction',(1.,0.,0.)) ;
#1554=DIRECTION('Axis2P3D XDirection',(0.,1.,0.)) ;
#1558=DIRECTION('Vector Direction',(0.,1.,0.)) ;
#1565=DIRECTION('Vector Direction',(0.,1.,0.)) ;
#1570=DIRECTION('Vector Direction',(0.,1.,0.)) ;
#1577=DIRECTION('Vector Direction',(0.,0.,-1.)) ;
#1593=DIRECTION('Axis2P3D Direction',(0.707106781187,0.707106781187,0.)) ;
#1594=DIRECTION('Axis2P3D XDirection',(0.,0.,-1.)) ;
#1598=DIRECTION('Vector Direction',(-0.707106781187,0.707106781187,0.)) ;
#1605=DIRECTION('Vector Direction',(0.,0.,-1.)) ;
#1612=DIRECTION('Vector Direction',(-0.707106781187,0.707106781187,0.)) ;
#1624=DIRECTION('Axis2P3D Direction',(0.,-1.,0.)) ;
#1625=DIRECTION('Axis2P3D XDirection',(1.,0.,0.)) ;
#1629=DIRECTION('Vector Direction',(0.,0.,1.)) ;
#1638=DIRECTION('Vector Direction',(1.,0.,0.)) ;
#1643=DIRECTION('Vector Direction',(1.,0.,0.)) ;
#1655=DIRECTION('Axis2P3D Direction',(0.,0.,1.)) ;
#1656=DIRECTION('Axis2P3D XDirection',(1.,0.,0.)) ;
#1660=DIRECTION('Vector Direction',(0.,1.,0.)) ;
#1742=DIRECTION('Axis2P3D Direction',(0.707106781187,-0.707106781187,0.)) ;
#1743=DIRECTION('Axis2P3D XDirection',(0.,0.,-1.)) ;
#1747=DIRECTION('Vector Direction',(0.,0.,-1.)) ;
#1754=DIRECTION('Vector Direction',(0.707106781187,0.707106781187,0.)) ;
#1766=DIRECTION('Vector Direction',(-0.707106781187,-0.707106781187,0.)) ;
#1775=DIRECTION('Vector Direction',(0.,-1.,0.)) ;
#1782=DIRECTION('Vector Direction',(0.,-1.,0.)) ;
#1787=DIRECTION('Vector Direction',(-1.,0.,0.)) ;
#1812=DIRECTION('Axis2P3D Direction',(0.,1.,-0.)) ;
#1813=DIRECTION('Axis2P3D XDirection',(-1.,0.,0.)) ;
#1817=DIRECTION('Vector Direction',(-1.,0.,0.)) ;
#1824=DIRECTION('Vector Direction',(0.,0.,-1.)) ;
#1836=DIRECTION('Axis2P3D Direction',(0.,0.,1.)) ;
#1837=DIRECTION('Axis2P3D XDirection',(1.,0.,0.)) ;
#1841=DIRECTION('Vector Direction',(0.707106781187,0.707106781187,0.)) ;
#1848=DIRECTION('Vector Direction',(0.,1.,0.)) ;
#1924=DIRECTION('Axis2P3D Direction',(1.,0.,0.)) ;
#1925=DIRECTION('Axis2P3D XDirection',(0.,-1.,0.)) ;
#1929=DIRECTION('Vector Direction',(0.,0.,-1.)) ;
#1947=DIRECTION('Axis2P3D Direction',(0.707106781187,-0.707106781187,0.)) ;
#1948=DIRECTION('Axis2P3D XDirection',(0.,0.,-1.)) ;
#8=PRODUCT_RELATED_PRODUCT_CATEGORY('part',$,(#5)) ;
#7=PRODUCT_CATEGORY('part','specification') ;
#29=STYLED_ITEM(' ',(#28),#21) ;
#28=PRESENTATION_STYLE_ASSIGNMENT((#27)) ;
#27=SURFACE_STYLE_USAGE(.BOTH.,#26) ;
#26=SURFACE_SIDE_STYLE(' ',(#25)) ;
#25=SURFACE_STYLE_FILL_AREA(#24) ;
#24=FILL_AREA_STYLE(' ',(#23)) ;
#23=FILL_AREA_STYLE_COLOUR(' ',#22) ;
#38=VECTOR('Line Direction',#37,1.) ;
#54=VECTOR('Line Direction',#53,1.) ;
#95=VECTOR('Line Direction',#94,1.) ;
#111=VECTOR('Line Direction',#110,1.) ;
#161=VECTOR('Line Direction',#160,1.) ;
#175=VECTOR('Line Direction',#174,1.) ;
#209=VECTOR('Line Direction',#208,1.) ;
#225=VECTOR('Line Direction',#224,1.) ;
#266=VECTOR('Line Direction',#265,1.) ;
#282=VECTOR('Line Direction',#281,1.) ;
#323=VECTOR('Line Direction',#322,1.) ;
#339=VECTOR('Line Direction',#338,1.) ;
#380=VECTOR('Line Direction',#379,1.) ;
#396=VECTOR('Line Direction',#395,1.) ;
#446=VECTOR('Line Direction',#445,1.) ;
#460=VECTOR('Line Direction',#459,1.) ;
#503=VECTOR('Line Direction',#502,1.) ;
#517=VECTOR('Line Direction',#516,1.) ;
#551=VECTOR('Line Direction',#550,1.) ;
#567=VECTOR('Line Direction',#566,1.) ;
#608=VECTOR('Line Direction',#607,1.) ;
#624=VECTOR('Line Direction',#623,1.) ;
#665=VECTOR('Line Direction',#664,1.) ;
#681=VECTOR('Line Direction',#680,1.) ;
#722=VECTOR('Line Direction',#721,1.) ;
#738=VECTOR('Line Direction',#737,1.) ;
#779=VECTOR('Line Direction',#778,1.) ;
#795=VECTOR('Line Direction',#794,1.) ;
#836=VECTOR('Line Direction',#835,1.) ;
#852=VECTOR('Line Direction',#851,1.) ;
#893=VECTOR('Line Direction',#892,1.) ;
#909=VECTOR('Line Direction',#908,1.) ;
#933=VECTOR('Line Direction',#932,1.) ;
#940=VECTOR('Line Direction',#939,1.) ;
#947=VECTOR('Line Direction',#946,1.) ;
#964=VECTOR('Line Direction',#963,1.) ;
#971=VECTOR('Line Direction',#970,1.) ;
#978=VECTOR('Line Direction',#977,1.) ;
#995=VECTOR('Line Direction',#994,1.) ;
#1002=VECTOR('Line Direction',#1001,1.) ;
#1009=VECTOR('Line Direction',#1008,1.) ;
#1026=VECTOR('Line Direction',#1025,1.) ;
#1033=VECTOR('Line Direction',#1032,1.) ;
#1040=VECTOR('Line Direction',#1039,1.) ;
#1057=VECTOR('Line Direction',#1056,1.) ;
#1066=VECTOR('Line Direction',#1065,1.) ;
#1073=VECTOR('Line Direction',#1072,1.) ;
#1080=VECTOR('Line Direction',#1079,1.) ;
#1097=VECTOR('Line Direction',#1096,1.) ;
#1104=VECTOR('Line Direction',#1103,1.) ;
#1111=VECTOR('Line Direction',#1110,1.) ;
#1128=VECTOR('Line Direction',#1127,1.) ;
#1135=VECTOR('Line Direction',#1134,1.) ;
#1142=VECTOR('Line Direction',#1141,1.) ;
#1154=VECTOR('Line Direction',#1153,1.) ;
#1161=VECTOR('Line Direction',#1160,1.) ;
#1168=VECTOR('Line Direction',#1167,1.) ;
#1192=VECTOR('Line Direction',#1191,1.) ;
#1225=VECTOR('Line Direction',#1224,1.) ;
#1239=VECTOR('Line Direction',#1238,1.) ;
#1282=VECTOR('Line Direction',#1281,1.) ;
#1296=VECTOR('Line Direction',#1295,1.) ;
#1353=VECTOR('Line Direction',#1352,1.) ;
#1362=VECTOR('Line Direction',#1361,1.) ;
#1369=VECTOR('Line Direction',#1368,1.) ;
#1376=VECTOR('Line Direction',#1375,1.) ;
#1393=VECTOR('Line Direction',#1392,1.) ;
#1402=VECTOR('Line Direction',#1401,1.) ;
#1407=VECTOR('Line Direction',#1406,1.) ;
#1424=VECTOR('Line Direction',#1423,1.) ;
#1431=VECTOR('Line Direction',#1430,1.) ;
#1438=VECTOR('Line Direction',#1437,1.) ;
#1455=VECTOR('Line Direction',#1454,1.) ;
#1464=VECTOR('Line Direction',#1463,1.) ;
#1469=VECTOR('Line Direction',#1468,1.) ;
#1486=VECTOR('Line Direction',#1485,1.) ;
#1493=VECTOR('Line Direction',#1492,1.) ;
#1498=VECTOR('Line Direction',#1497,1.) ;
#1505=VECTOR('Line Direction',#1504,1.) ;
#1535=VECTOR('Line Direction',#1534,1.) ;
#1542=VECTOR('Line Direction',#1541,1.) ;
#1559=VECTOR('Line Direction',#1558,1.) ;
#1566=VECTOR('Line Direction',#1565,1.) ;
#1571=VECTOR('Line Direction',#1570,1.) ;
#1578=VECTOR('Line Direction',#1577,1.) ;
#1599=VECTOR('Line Direction',#1598,1.) ;
#1606=VECTOR('Line Direction',#1605,1.) ;
#1613=VECTOR('Line Direction',#1612,1.) ;
#1630=VECTOR('Line Direction',#1629,1.) ;
#1639=VECTOR('Line Direction',#1638,1.) ;
#1644=VECTOR('Line Direction',#1643,1.) ;
#1661=VECTOR('Line Direction',#1660,1.) ;
#1748=VECTOR('Line Direction',#1747,1.) ;
#1755=VECTOR('Line Direction',#1754,1.) ;
#1767=VECTOR('Line Direction',#1766,1.) ;
#1776=VECTOR('Line Direction',#1775,1.) ;
#1783=VECTOR('Line Direction',#1782,1.) ;
#1788=VECTOR('Line Direction',#1787,1.) ;
#1818=VECTOR('Line Direction',#1817,1.) ;
#1825=VECTOR('Line Direction',#1824,1.) ;
#1842=VECTOR('Line Direction',#1841,1.) ;
#1849=VECTOR('Line Direction',#1848,1.) ;
#1930=VECTOR('Line Direction',#1929,1.) ;
#15=UNCERTAINTY_MEASURE_WITH_UNIT(LENGTH_MEASURE(0.005),#12,'distance_accuracy_value','CONFUSED CURVE UNCERTAINTY') ;
#1959=SHAPE_REPRESENTATION_RELATIONSHIP(' ',' ',#19,#1958) ;
#65=ORIENTED_EDGE('',*,*,#44,.F.) ;
#66=ORIENTED_EDGE('',*,*,#51,.F.) ;
#67=ORIENTED_EDGE('',*,*,#58,.T.) ;
#68=ORIENTED_EDGE('',*,*,#63,.T.) ;
#82=ORIENTED_EDGE('',*,*,#58,.F.) ;
#83=ORIENTED_EDGE('',*,*,#75,.F.) ;
#84=ORIENTED_EDGE('',*,*,#44,.T.) ;
#85=ORIENTED_EDGE('',*,*,#80,.T.) ;
#122=ORIENTED_EDGE('',*,*,#101,.F.) ;
#123=ORIENTED_EDGE('',*,*,#108,.F.) ;
#124=ORIENTED_EDGE('',*,*,#115,.T.) ;
#125=ORIENTED_EDGE('',*,*,#120,.T.) ;
#139=ORIENTED_EDGE('',*,*,#115,.F.) ;
#140=ORIENTED_EDGE('',*,*,#132,.F.) ;
#141=ORIENTED_EDGE('',*,*,#101,.T.) ;
#142=ORIENTED_EDGE('',*,*,#137,.T.) ;
#179=ORIENTED_EDGE('',*,*,#158,.F.) ;
#180=ORIENTED_EDGE('',*,*,#165,.F.) ;
#181=ORIENTED_EDGE('',*,*,#172,.T.) ;
#182=ORIENTED_EDGE('',*,*,#177,.T.) ;
#196=ORIENTED_EDGE('',*,*,#189,.F.) ;
#197=ORIENTED_EDGE('',*,*,#177,.F.) ;
#198=ORIENTED_EDGE('',*,*,#194,.T.) ;
#199=ORIENTED_EDGE('',*,*,#165,.T.) ;
#236=ORIENTED_EDGE('',*,*,#215,.F.) ;
#237=ORIENTED_EDGE('',*,*,#222,.T.) ;
#238=ORIENTED_EDGE('',*,*,#229,.T.) ;
#239=ORIENTED_EDGE('',*,*,#234,.F.) ;
#253=ORIENTED_EDGE('',*,*,#229,.F.) ;
#254=ORIENTED_EDGE('',*,*,#246,.T.) ;
#255=ORIENTED_EDGE('',*,*,#215,.T.) ;
#256=ORIENTED_EDGE('',*,*,#251,.F.) ;
#293=ORIENTED_EDGE('',*,*,#272,.F.) ;
#294=ORIENTED_EDGE('',*,*,#279,.T.) ;
#295=ORIENTED_EDGE('',*,*,#286,.T.) ;
#296=ORIENTED_EDGE('',*,*,#291,.F.) ;
#310=ORIENTED_EDGE('',*,*,#286,.F.) ;
#311=ORIENTED_EDGE('',*,*,#303,.T.) ;
#312=ORIENTED_EDGE('',*,*,#272,.T.) ;
#313=ORIENTED_EDGE('',*,*,#308,.F.) ;
#350=ORIENTED_EDGE('',*,*,#329,.F.) ;
#351=ORIENTED_EDGE('',*,*,#336,.T.) ;
#352=ORIENTED_EDGE('',*,*,#343,.T.) ;
#353=ORIENTED_EDGE('',*,*,#348,.F.) ;
#367=ORIENTED_EDGE('',*,*,#343,.F.) ;
#368=ORIENTED_EDGE('',*,*,#360,.T.) ;
#369=ORIENTED_EDGE('',*,*,#329,.T.) ;
#370=ORIENTED_EDGE('',*,*,#365,.F.) ;
#407=ORIENTED_EDGE('',*,*,#386,.F.) ;
#408=ORIENTED_EDGE('',*,*,#393,.T.) ;
#409=ORIENTED_EDGE('',*,*,#400,.T.) ;
#410=ORIENTED_EDGE('',*,*,#405,.F.) ;
#424=ORIENTED_EDGE('',*,*,#400,.F.) ;
#425=ORIENTED_EDGE('',*,*,#417,.T.) ;
#426=ORIENTED_EDGE('',*,*,#386,.T.) ;
#427=ORIENTED_EDGE('',*,*,#422,.F.) ;
#464=ORIENTED_EDGE('',*,*,#443,.T.) ;
#465=ORIENTED_EDGE('',*,*,#450,.F.) ;
#466=ORIENTED_EDGE('',*,*,#457,.T.) ;
#467=ORIENTED_EDGE('',*,*,#462,.T.) ;
#481=ORIENTED_EDGE('',*,*,#474,.T.) ;
#482=ORIENTED_EDGE('',*,*,#462,.F.) ;
#483=ORIENTED_EDGE('',*,*,#479,.T.) ;
#484=ORIENTED_EDGE('',*,*,#450,.T.) ;
#521=ORIENTED_EDGE('',*,*,#500,.T.) ;
#522=ORIENTED_EDGE('',*,*,#507,.F.) ;
#523=ORIENTED_EDGE('',*,*,#514,.T.) ;
#524=ORIENTED_EDGE('',*,*,#519,.T.) ;
#538=ORIENTED_EDGE('',*,*,#531,.T.) ;
#539=ORIENTED_EDGE('',*,*,#519,.F.) ;
#540=ORIENTED_EDGE('',*,*,#536,.T.) ;
#541=ORIENTED_EDGE('',*,*,#507,.T.) ;
#578=ORIENTED_EDGE('',*,*,#557,.F.) ;
#579=ORIENTED_EDGE('',*,*,#564,.F.) ;
#580=ORIENTED_EDGE('',*,*,#571,.T.) ;
#581=ORIENTED_EDGE('',*,*,#576,.T.) ;
#595=ORIENTED_EDGE('',*,*,#571,.F.) ;
#596=ORIENTED_EDGE('',*,*,#588,.F.) ;
#597=ORIENTED_EDGE('',*,*,#557,.T.) ;
#598=ORIENTED_EDGE('',*,*,#593,.T.) ;
#635=ORIENTED_EDGE('',*,*,#614,.F.) ;
#636=ORIENTED_EDGE('',*,*,#621,.F.) ;
#637=ORIENTED_EDGE('',*,*,#628,.T.) ;
#638=ORIENTED_EDGE('',*,*,#633,.T.) ;
#652=ORIENTED_EDGE('',*,*,#628,.F.) ;
#653=ORIENTED_EDGE('',*,*,#645,.F.) ;
#654=ORIENTED_EDGE('',*,*,#614,.T.) ;
#655=ORIENTED_EDGE('',*,*,#650,.T.) ;
#692=ORIENTED_EDGE('',*,*,#671,.F.) ;
#693=ORIENTED_EDGE('',*,*,#678,.F.) ;
#694=ORIENTED_EDGE('',*,*,#685,.T.) ;
#695=ORIENTED_EDGE('',*,*,#690,.T.) ;
#709=ORIENTED_EDGE('',*,*,#685,.F.) ;
#710=ORIENTED_EDGE('',*,*,#702,.F.) ;
#711=ORIENTED_EDGE('',*,*,#671,.T.) ;
#712=ORIENTED_EDGE('',*,*,#707,.T.) ;
#749=ORIENTED_EDGE('',*,*,#728,.F.) ;
#750=ORIENTED_EDGE('',*,*,#735,.F.) ;
#751=ORIENTED_EDGE('',*,*,#742,.T.) ;
#752=ORIENTED_EDGE('',*,*,#747,.T.) ;
#766=ORIENTED_EDGE('',*,*,#742,.F.) ;
#767=ORIENTED_EDGE('',*,*,#759,.F.) ;
#768=ORIENTED_EDGE('',*,*,#728,.T.) ;
#769=ORIENTED_EDGE('',*,*,#764,.T.) ;
#806=ORIENTED_EDGE('',*,*,#785,.F.) ;
#807=ORIENTED_EDGE('',*,*,#792,.F.) ;
#808=ORIENTED_EDGE('',*,*,#799,.T.) ;
#809=ORIENTED_EDGE('',*,*,#804,.T.) ;
#823=ORIENTED_EDGE('',*,*,#799,.F.) ;
#824=ORIENTED_EDGE('',*,*,#816,.F.) ;
#825=ORIENTED_EDGE('',*,*,#785,.T.) ;
#826=ORIENTED_EDGE('',*,*,#821,.T.) ;
#863=ORIENTED_EDGE('',*,*,#842,.F.) ;
#864=ORIENTED_EDGE('',*,*,#849,.F.) ;
#865=ORIENTED_EDGE('',*,*,#856,.T.) ;
#866=ORIENTED_EDGE('',*,*,#861,.T.) ;
#880=ORIENTED_EDGE('',*,*,#856,.F.) ;
#881=ORIENTED_EDGE('',*,*,#873,.F.) ;
#882=ORIENTED_EDGE('',*,*,#842,.T.) ;
#883=ORIENTED_EDGE('',*,*,#878,.T.) ;
#920=ORIENTED_EDGE('',*,*,#899,.F.) ;
#921=ORIENTED_EDGE('',*,*,#906,.T.) ;
#922=ORIENTED_EDGE('',*,*,#913,.T.) ;
#923=ORIENTED_EDGE('',*,*,#918,.F.) ;
#951=ORIENTED_EDGE('',*,*,#937,.F.) ;
#952=ORIENTED_EDGE('',*,*,#913,.F.) ;
#953=ORIENTED_EDGE('',*,*,#944,.T.) ;
#954=ORIENTED_EDGE('',*,*,#949,.T.) ;
#982=ORIENTED_EDGE('',*,*,#949,.F.) ;
#983=ORIENTED_EDGE('',*,*,#968,.T.) ;
#984=ORIENTED_EDGE('',*,*,#975,.T.) ;
#985=ORIENTED_EDGE('',*,*,#980,.T.) ;
#1013=ORIENTED_EDGE('',*,*,#999,.T.) ;
#1014=ORIENTED_EDGE('',*,*,#1006,.T.) ;
#1015=ORIENTED_EDGE('',*,*,#1011,.F.) ;
#1016=ORIENTED_EDGE('',*,*,#975,.F.) ;
#1044=ORIENTED_EDGE('',*,*,#1030,.T.) ;
#1045=ORIENTED_EDGE('',*,*,#1006,.F.) ;
#1046=ORIENTED_EDGE('',*,*,#1037,.T.) ;
#1047=ORIENTED_EDGE('',*,*,#1042,.T.) ;
#1084=ORIENTED_EDGE('',*,*,#1063,.F.) ;
#1085=ORIENTED_EDGE('',*,*,#1070,.T.) ;
#1086=ORIENTED_EDGE('',*,*,#1077,.T.) ;
#1087=ORIENTED_EDGE('',*,*,#1082,.T.) ;
#1115=ORIENTED_EDGE('',*,*,#1101,.T.) ;
#1116=ORIENTED_EDGE('',*,*,#1108,.T.) ;
#1117=ORIENTED_EDGE('',*,*,#1113,.F.) ;
#1118=ORIENTED_EDGE('',*,*,#1077,.F.) ;
#1146=ORIENTED_EDGE('',*,*,#1132,.T.) ;
#1147=ORIENTED_EDGE('',*,*,#1108,.F.) ;
#1148=ORIENTED_EDGE('',*,*,#1139,.T.) ;
#1149=ORIENTED_EDGE('',*,*,#1144,.T.) ;
#1172=ORIENTED_EDGE('',*,*,#1158,.T.) ;
#1173=ORIENTED_EDGE('',*,*,#1165,.T.) ;
#1174=ORIENTED_EDGE('',*,*,#1170,.F.) ;
#1175=ORIENTED_EDGE('',*,*,#1144,.F.) ;
#1203=ORIENTED_EDGE('',*,*,#1165,.F.) ;
#1204=ORIENTED_EDGE('',*,*,#1189,.T.) ;
#1205=ORIENTED_EDGE('',*,*,#1196,.T.) ;
#1206=ORIENTED_EDGE('',*,*,#1201,.F.) ;
#1243=ORIENTED_EDGE('',*,*,#1222,.T.) ;
#1244=ORIENTED_EDGE('',*,*,#1229,.T.) ;
#1245=ORIENTED_EDGE('',*,*,#1236,.F.) ;
#1246=ORIENTED_EDGE('',*,*,#1241,.F.) ;
#1260=ORIENTED_EDGE('',*,*,#1253,.T.) ;
#1261=ORIENTED_EDGE('',*,*,#1241,.T.) ;
#1262=ORIENTED_EDGE('',*,*,#1258,.F.) ;
#1263=ORIENTED_EDGE('',*,*,#1229,.F.) ;
#1300=ORIENTED_EDGE('',*,*,#1279,.T.) ;
#1301=ORIENTED_EDGE('',*,*,#1286,.T.) ;
#1302=ORIENTED_EDGE('',*,*,#1293,.F.) ;
#1303=ORIENTED_EDGE('',*,*,#1298,.F.) ;
#1317=ORIENTED_EDGE('',*,*,#1310,.T.) ;
#1318=ORIENTED_EDGE('',*,*,#1298,.T.) ;
#1319=ORIENTED_EDGE('',*,*,#1315,.F.) ;
#1320=ORIENTED_EDGE('',*,*,#1286,.F.) ;
#1329=ORIENTED_EDGE('',*,*,#234,.T.) ;
#1330=ORIENTED_EDGE('',*,*,#251,.T.) ;
#1333=ORIENTED_EDGE('',*,*,#1222,.F.) ;
#1334=ORIENTED_EDGE('',*,*,#1253,.F.) ;
#1338=ORIENTED_EDGE('',*,*,#291,.T.) ;
#1339=ORIENTED_EDGE('',*,*,#308,.T.) ;
#1342=ORIENTED_EDGE('',*,*,#1279,.F.) ;
#1343=ORIENTED_EDGE('',*,*,#1310,.F.) ;
#1380=ORIENTED_EDGE('',*,*,#1359,.T.) ;
#1381=ORIENTED_EDGE('',*,*,#1366,.F.) ;
#1382=ORIENTED_EDGE('',*,*,#1373,.T.) ;
#1383=ORIENTED_EDGE('',*,*,#1378,.T.) ;
#1411=ORIENTED_EDGE('',*,*,#1399,.T.) ;
#1412=ORIENTED_EDGE('',*,*,#1404,.F.) ;
#1413=ORIENTED_EDGE('',*,*,#899,.T.) ;
#1414=ORIENTED_EDGE('',*,*,#1409,.T.) ;
#1442=ORIENTED_EDGE('',*,*,#1428,.T.) ;
#1443=ORIENTED_EDGE('',*,*,#1399,.F.) ;
#1444=ORIENTED_EDGE('',*,*,#1435,.T.) ;
#1445=ORIENTED_EDGE('',*,*,#1440,.T.) ;
#1473=ORIENTED_EDGE('',*,*,#1461,.F.) ;
#1474=ORIENTED_EDGE('',*,*,#1466,.T.) ;
#1475=ORIENTED_EDGE('',*,*,#1366,.T.) ;
#1476=ORIENTED_EDGE('',*,*,#1471,.T.) ;
#1509=ORIENTED_EDGE('',*,*,#1471,.F.) ;
#1510=ORIENTED_EDGE('',*,*,#1359,.F.) ;
#1511=ORIENTED_EDGE('',*,*,#1490,.F.) ;
#1512=ORIENTED_EDGE('',*,*,#1495,.T.) ;
#1513=ORIENTED_EDGE('',*,*,#1435,.F.) ;
#1514=ORIENTED_EDGE('',*,*,#1409,.F.) ;
#1515=ORIENTED_EDGE('',*,*,#918,.T.) ;
#1516=ORIENTED_EDGE('',*,*,#937,.T.) ;
#1517=ORIENTED_EDGE('',*,*,#980,.F.) ;
#1518=ORIENTED_EDGE('',*,*,#1011,.T.) ;
#1519=ORIENTED_EDGE('',*,*,#1030,.F.) ;
#1520=ORIENTED_EDGE('',*,*,#1502,.F.) ;
#1521=ORIENTED_EDGE('',*,*,#1507,.F.) ;
#1524=ORIENTED_EDGE('',*,*,#531,.F.) ;
#1525=ORIENTED_EDGE('',*,*,#500,.F.) ;
#1546=ORIENTED_EDGE('',*,*,#1539,.F.) ;
#1547=ORIENTED_EDGE('',*,*,#1544,.T.) ;
#1548=ORIENTED_EDGE('',*,*,#1461,.T.) ;
#1549=ORIENTED_EDGE('',*,*,#1507,.T.) ;
#1582=ORIENTED_EDGE('',*,*,#1563,.F.) ;
#1583=ORIENTED_EDGE('',*,*,#1539,.T.) ;
#1584=ORIENTED_EDGE('',*,*,#1502,.T.) ;
#1585=ORIENTED_EDGE('',*,*,#1042,.F.) ;
#1586=ORIENTED_EDGE('',*,*,#1568,.T.) ;
#1587=ORIENTED_EDGE('',*,*,#1063,.T.) ;
#1588=ORIENTED_EDGE('',*,*,#1575,.T.) ;
#1589=ORIENTED_EDGE('',*,*,#1580,.F.) ;
#1617=ORIENTED_EDGE('',*,*,#1603,.T.) ;
#1618=ORIENTED_EDGE('',*,*,#1610,.F.) ;
#1619=ORIENTED_EDGE('',*,*,#1615,.T.) ;
#1620=ORIENTED_EDGE('',*,*,#1580,.T.) ;
#1648=ORIENTED_EDGE('',*,*,#1636,.F.) ;
#1649=ORIENTED_EDGE('',*,*,#1641,.T.) ;
#1650=ORIENTED_EDGE('',*,*,#1610,.T.) ;
#1651=ORIENTED_EDGE('',*,*,#1646,.F.) ;
#1671=ORIENTED_EDGE('',*,*,#1665,.T.) ;
#1672=ORIENTED_EDGE('',*,*,#1373,.F.) ;
#1673=ORIENTED_EDGE('',*,*,#1466,.F.) ;
#1674=ORIENTED_EDGE('',*,*,#1544,.F.) ;
#1675=ORIENTED_EDGE('',*,*,#1563,.T.) ;
#1676=ORIENTED_EDGE('',*,*,#1615,.F.) ;
#1677=ORIENTED_EDGE('',*,*,#1641,.F.) ;
#1678=ORIENTED_EDGE('',*,*,#1669,.F.) ;
#1681=ORIENTED_EDGE('',*,*,#80,.F.) ;
#1682=ORIENTED_EDGE('',*,*,#63,.F.) ;
#1685=ORIENTED_EDGE('',*,*,#120,.F.) ;
#1686=ORIENTED_EDGE('',*,*,#137,.F.) ;
#1689=ORIENTED_EDGE('',*,*,#172,.F.) ;
#1690=ORIENTED_EDGE('',*,*,#194,.F.) ;
#1693=ORIENTED_EDGE('',*,*,#222,.F.) ;
#1694=ORIENTED_EDGE('',*,*,#246,.F.) ;
#1697=ORIENTED_EDGE('',*,*,#279,.F.) ;
#1698=ORIENTED_EDGE('',*,*,#303,.F.) ;
#1701=ORIENTED_EDGE('',*,*,#336,.F.) ;
#1702=ORIENTED_EDGE('',*,*,#360,.F.) ;
#1705=ORIENTED_EDGE('',*,*,#393,.F.) ;
#1706=ORIENTED_EDGE('',*,*,#417,.F.) ;
#1709=ORIENTED_EDGE('',*,*,#457,.F.) ;
#1710=ORIENTED_EDGE('',*,*,#479,.F.) ;
#1713=ORIENTED_EDGE('',*,*,#514,.F.) ;
#1714=ORIENTED_EDGE('',*,*,#536,.F.) ;
#1717=ORIENTED_EDGE('',*,*,#576,.F.) ;
#1718=ORIENTED_EDGE('',*,*,#593,.F.) ;
#1721=ORIENTED_EDGE('',*,*,#633,.F.) ;
#1722=ORIENTED_EDGE('',*,*,#650,.F.) ;
#1725=ORIENTED_EDGE('',*,*,#690,.F.) ;
#1726=ORIENTED_EDGE('',*,*,#707,.F.) ;
#1729=ORIENTED_EDGE('',*,*,#747,.F.) ;
#1730=ORIENTED_EDGE('',*,*,#764,.F.) ;
#1733=ORIENTED_EDGE('',*,*,#804,.F.) ;
#1734=ORIENTED_EDGE('',*,*,#821,.F.) ;
#1737=ORIENTED_EDGE('',*,*,#861,.F.) ;
#1738=ORIENTED_EDGE('',*,*,#878,.F.) ;
#1759=ORIENTED_EDGE('',*,*,#1752,.F.) ;
#1760=ORIENTED_EDGE('',*,*,#1669,.T.) ;
#1761=ORIENTED_EDGE('',*,*,#1636,.T.) ;
#1762=ORIENTED_EDGE('',*,*,#1757,.T.) ;
#1792=ORIENTED_EDGE('',*,*,#1773,.F.) ;
#1793=ORIENTED_EDGE('',*,*,#1780,.T.) ;
#1794=ORIENTED_EDGE('',*,*,#1785,.F.) ;
#1795=ORIENTED_EDGE('',*,*,#1757,.F.) ;
#1796=ORIENTED_EDGE('',*,*,#1646,.T.) ;
#1797=ORIENTED_EDGE('',*,*,#1603,.F.) ;
#1798=ORIENTED_EDGE('',*,*,#1575,.F.) ;
#1799=ORIENTED_EDGE('',*,*,#1082,.F.) ;
#1800=ORIENTED_EDGE('',*,*,#1113,.T.) ;
#1801=ORIENTED_EDGE('',*,*,#1132,.F.) ;
#1802=ORIENTED_EDGE('',*,*,#1170,.T.) ;
#1803=ORIENTED_EDGE('',*,*,#1201,.T.) ;
#1804=ORIENTED_EDGE('',*,*,#1790,.T.) ;
#1807=ORIENTED_EDGE('',*,*,#474,.F.) ;
#1808=ORIENTED_EDGE('',*,*,#443,.F.) ;
#1829=ORIENTED_EDGE('',*,*,#1790,.F.) ;
#1830=ORIENTED_EDGE('',*,*,#1196,.F.) ;
#1831=ORIENTED_EDGE('',*,*,#1822,.T.) ;
#1832=ORIENTED_EDGE('',*,*,#1827,.F.) ;
#1853=ORIENTED_EDGE('',*,*,#1846,.F.) ;
#1854=ORIENTED_EDGE('',*,*,#1822,.F.) ;
#1855=ORIENTED_EDGE('',*,*,#1189,.F.) ;
#1856=ORIENTED_EDGE('',*,*,#1158,.F.) ;
#1857=ORIENTED_EDGE('',*,*,#1139,.F.) ;
#1858=ORIENTED_EDGE('',*,*,#1101,.F.) ;
#1859=ORIENTED_EDGE('',*,*,#1070,.F.) ;
#1860=ORIENTED_EDGE('',*,*,#1568,.F.) ;
#1861=ORIENTED_EDGE('',*,*,#1037,.F.) ;
#1862=ORIENTED_EDGE('',*,*,#999,.F.) ;
#1863=ORIENTED_EDGE('',*,*,#968,.F.) ;
#1864=ORIENTED_EDGE('',*,*,#944,.F.) ;
#1865=ORIENTED_EDGE('',*,*,#906,.F.) ;
#1866=ORIENTED_EDGE('',*,*,#1404,.T.) ;
#1867=ORIENTED_EDGE('',*,*,#1428,.F.) ;
#1868=ORIENTED_EDGE('',*,*,#1851,.F.) ;
#1871=ORIENTED_EDGE('',*,*,#849,.T.) ;
#1872=ORIENTED_EDGE('',*,*,#873,.T.) ;
#1875=ORIENTED_EDGE('',*,*,#1293,.T.) ;
#1876=ORIENTED_EDGE('',*,*,#1315,.T.) ;
#1879=ORIENTED_EDGE('',*,*,#1236,.T.) ;
#1880=ORIENTED_EDGE('',*,*,#1258,.T.) ;
#1883=ORIENTED_EDGE('',*,*,#158,.T.) ;
#1884=ORIENTED_EDGE('',*,*,#189,.T.) ;
#1887=ORIENTED_EDGE('',*,*,#108,.T.) ;
#1888=ORIENTED_EDGE('',*,*,#132,.T.) ;
#1891=ORIENTED_EDGE('',*,*,#75,.T.) ;
#1892=ORIENTED_EDGE('',*,*,#51,.T.) ;
#1895=ORIENTED_EDGE('',*,*,#422,.T.) ;
#1896=ORIENTED_EDGE('',*,*,#405,.T.) ;
#1899=ORIENTED_EDGE('',*,*,#365,.T.) ;
#1900=ORIENTED_EDGE('',*,*,#348,.T.) ;
#1903=ORIENTED_EDGE('',*,*,#588,.T.) ;
#1904=ORIENTED_EDGE('',*,*,#564,.T.) ;
#1907=ORIENTED_EDGE('',*,*,#645,.T.) ;
#1908=ORIENTED_EDGE('',*,*,#621,.T.) ;
#1911=ORIENTED_EDGE('',*,*,#702,.T.) ;
#1912=ORIENTED_EDGE('',*,*,#678,.T.) ;
#1915=ORIENTED_EDGE('',*,*,#759,.T.) ;
#1916=ORIENTED_EDGE('',*,*,#735,.T.) ;
#1919=ORIENTED_EDGE('',*,*,#816,.T.) ;
#1920=ORIENTED_EDGE('',*,*,#792,.T.) ;
#1934=ORIENTED_EDGE('',*,*,#1780,.F.) ;
#1935=ORIENTED_EDGE('',*,*,#1932,.T.) ;
#1936=ORIENTED_EDGE('',*,*,#1851,.T.) ;
#1937=ORIENTED_EDGE('',*,*,#1440,.F.) ;
#1938=ORIENTED_EDGE('',*,*,#1495,.F.) ;
#1939=ORIENTED_EDGE('',*,*,#1490,.T.) ;
#1940=ORIENTED_EDGE('',*,*,#1378,.F.) ;
#1941=ORIENTED_EDGE('',*,*,#1665,.F.) ;
#1942=ORIENTED_EDGE('',*,*,#1752,.T.) ;
#1943=ORIENTED_EDGE('',*,*,#1785,.T.) ;
#1952=ORIENTED_EDGE('',*,*,#1932,.F.) ;
#1953=ORIENTED_EDGE('',*,*,#1773,.T.) ;
#1954=ORIENTED_EDGE('',*,*,#1827,.T.) ;
#1955=ORIENTED_EDGE('',*,*,#1846,.T.) ;
#1335=FACE_BOUND('',#1332,.T.) ;
#1344=FACE_BOUND('',#1341,.T.) ;
#1526=FACE_BOUND('',#1523,.T.) ;
#1683=FACE_BOUND('',#1680,.T.) ;
#1687=FACE_BOUND('',#1684,.T.) ;
#1691=FACE_BOUND('',#1688,.T.) ;
#1695=FACE_BOUND('',#1692,.T.) ;
#1699=FACE_BOUND('',#1696,.T.) ;
#1703=FACE_BOUND('',#1700,.T.) ;
#1707=FACE_BOUND('',#1704,.T.) ;
#1711=FACE_BOUND('',#1708,.T.) ;
#1715=FACE_BOUND('',#1712,.T.) ;
#1719=FACE_BOUND('',#1716,.T.) ;
#1723=FACE_BOUND('',#1720,.T.) ;
#1727=FACE_BOUND('',#1724,.T.) ;
#1731=FACE_BOUND('',#1728,.T.) ;
#1735=FACE_BOUND('',#1732,.T.) ;
#1739=FACE_BOUND('',#1736,.T.) ;
#1809=FACE_BOUND('',#1806,.T.) ;
#1873=FACE_BOUND('',#1870,.T.) ;
#1877=FACE_BOUND('',#1874,.T.) ;
#1881=FACE_BOUND('',#1878,.T.) ;
#1885=FACE_BOUND('',#1882,.T.) ;
#1889=FACE_BOUND('',#1886,.T.) ;
#1893=FACE_BOUND('',#1890,.T.) ;
#1897=FACE_BOUND('',#1894,.T.) ;
#1901=FACE_BOUND('',#1898,.T.) ;
#1905=FACE_BOUND('',#1902,.T.) ;
#1909=FACE_BOUND('',#1906,.T.) ;
#1913=FACE_BOUND('',#1910,.T.) ;
#1917=FACE_BOUND('',#1914,.T.) ;
#1921=FACE_BOUND('',#1918,.T.) ;
#30=CLOSED_SHELL('Closed Shell',(#70,#87,#127,#144,#184,#201,#241,#258,#298,#315,#355,#372,#412,#429,#469,#486,#526,#543,#583,#600,#640,#657,#697,#714,#754,#771,#811,#828,#868,#885,#925,#956,#987,#1018,#1049,#1089,#1120,#1151,#1177,#1208,#1248,#1265,#1305,#1322,#1336,#1345,#1385,#1416,#1447,#1478,#1527,#1551,#1591,#1622,#1653,#1740,#1764,#1810,#1834,#1922,#1945,#1957)) ;
#1958=ADVANCED_BREP_SHAPE_REPRESENTATION('NONE',(#21),#16) ;
#70=ADVANCED_FACE('\X2\FF8AFF9FFF70FF82\X0\ \X2\FF8EFF9EFF83FF9EFF68FF70\X0\',(#69),#35,.F.) ;
#87=ADVANCED_FACE('\X2\FF8AFF9FFF70FF82\X0\ \X2\FF8EFF9EFF83FF9EFF68FF70\X0\',(#86),#35,.F.) ;
#127=ADVANCED_FACE('\X2\FF8AFF9FFF70FF82\X0\ \X2\FF8EFF9EFF83FF9EFF68FF70\X0\',(#126),#92,.F.) ;
#144=ADVANCED_FACE('\X2\FF8AFF9FFF70FF82\X0\ \X2\FF8EFF9EFF83FF9EFF68FF70\X0\',(#143),#92,.F.) ;
#184=ADVANCED_FACE('\X2\FF8AFF9FFF70FF82\X0\ \X2\FF8EFF9EFF83FF9EFF68FF70\X0\',(#183),#149,.F.) ;
#201=ADVANCED_FACE('\X2\FF8AFF9FFF70FF82\X0\ \X2\FF8EFF9EFF83FF9EFF68FF70\X0\',(#200),#149,.F.) ;
#241=ADVANCED_FACE('\X2\FF8AFF9FFF70FF82\X0\ \X2\FF8EFF9EFF83FF9EFF68FF70\X0\',(#240),#206,.F.) ;
#258=ADVANCED_FACE('\X2\FF8AFF9FFF70FF82\X0\ \X2\FF8EFF9EFF83FF9EFF68FF70\X0\',(#257),#206,.F.) ;
#298=ADVANCED_FACE('\X2\FF8AFF9FFF70FF82\X0\ \X2\FF8EFF9EFF83FF9EFF68FF70\X0\',(#297),#263,.F.) ;
#315=ADVANCED_FACE('\X2\FF8AFF9FFF70FF82\X0\ \X2\FF8EFF9EFF83FF9EFF68FF70\X0\',(#314),#263,.F.) ;
#355=ADVANCED_FACE('\X2\FF8AFF9FFF70FF82\X0\ \X2\FF8EFF9EFF83FF9EFF68FF70\X0\',(#354),#320,.F.) ;
#372=ADVANCED_FACE('\X2\FF8AFF9FFF70FF82\X0\ \X2\FF8EFF9EFF83FF9EFF68FF70\X0\',(#371),#320,.F.) ;
#412=ADVANCED_FACE('\X2\FF8AFF9FFF70FF82\X0\ \X2\FF8EFF9EFF83FF9EFF68FF70\X0\',(#411),#377,.F.) ;
#429=ADVANCED_FACE('\X2\FF8AFF9FFF70FF82\X0\ \X2\FF8EFF9EFF83FF9EFF68FF70\X0\',(#428),#377,.F.) ;
#469=ADVANCED_FACE('\X2\FF8AFF9FFF70FF82\X0\ \X2\FF8EFF9EFF83FF9EFF68FF70\X0\',(#468),#434,.F.) ;
#486=ADVANCED_FACE('\X2\FF8AFF9FFF70FF82\X0\ \X2\FF8EFF9EFF83FF9EFF68FF70\X0\',(#485),#434,.F.) ;
#526=ADVANCED_FACE('\X2\FF8AFF9FFF70FF82\X0\ \X2\FF8EFF9EFF83FF9EFF68FF70\X0\',(#525),#491,.F.) ;
#543=ADVANCED_FACE('\X2\FF8AFF9FFF70FF82\X0\ \X2\FF8EFF9EFF83FF9EFF68FF70\X0\',(#542),#491,.F.) ;
#583=ADVANCED_FACE('\X2\FF8AFF9FFF70FF82\X0\ \X2\FF8EFF9EFF83FF9EFF68FF70\X0\',(#582),#548,.F.) ;
#600=ADVANCED_FACE('\X2\FF8AFF9FFF70FF82\X0\ \X2\FF8EFF9EFF83FF9EFF68FF70\X0\',(#599),#548,.F.) ;
#640=ADVANCED_FACE('\X2\FF8AFF9FFF70FF82\X0\ \X2\FF8EFF9EFF83FF9EFF68FF70\X0\',(#639),#605,.F.) ;
#657=ADVANCED_FACE('\X2\FF8AFF9FFF70FF82\X0\ \X2\FF8EFF9EFF83FF9EFF68FF70\X0\',(#656),#605,.F.) ;
#697=ADVANCED_FACE('\X2\FF8AFF9FFF70FF82\X0\ \X2\FF8EFF9EFF83FF9EFF68FF70\X0\',(#696),#662,.F.) ;
#714=ADVANCED_FACE('\X2\FF8AFF9FFF70FF82\X0\ \X2\FF8EFF9EFF83FF9EFF68FF70\X0\',(#713),#662,.F.) ;
#754=ADVANCED_FACE('\X2\FF8AFF9FFF70FF82\X0\ \X2\FF8EFF9EFF83FF9EFF68FF70\X0\',(#753),#719,.F.) ;
#771=ADVANCED_FACE('\X2\FF8AFF9FFF70FF82\X0\ \X2\FF8EFF9EFF83FF9EFF68FF70\X0\',(#770),#719,.F.) ;
#811=ADVANCED_FACE('\X2\FF8AFF9FFF70FF82\X0\ \X2\FF8EFF9EFF83FF9EFF68FF70\X0\',(#810),#776,.F.) ;
#828=ADVANCED_FACE('\X2\FF8AFF9FFF70FF82\X0\ \X2\FF8EFF9EFF83FF9EFF68FF70\X0\',(#827),#776,.F.) ;
#868=ADVANCED_FACE('\X2\FF8AFF9FFF70FF82\X0\ \X2\FF8EFF9EFF83FF9EFF68FF70\X0\',(#867),#833,.F.) ;
#885=ADVANCED_FACE('\X2\FF8AFF9FFF70FF82\X0\ \X2\FF8EFF9EFF83FF9EFF68FF70\X0\',(#884),#833,.F.) ;
#925=ADVANCED_FACE('\X2\FF8AFF9FFF70FF82\X0\ \X2\FF8EFF9EFF83FF9EFF68FF70\X0\',(#924),#890,.F.) ;
#956=ADVANCED_FACE('\X2\FF8AFF9FFF70FF82\X0\ \X2\FF8EFF9EFF83FF9EFF68FF70\X0\',(#955),#930,.T.) ;
#987=ADVANCED_FACE('\X2\FF8AFF9FFF70FF82\X0\ \X2\FF8EFF9EFF83FF9EFF68FF70\X0\',(#986),#961,.F.) ;
#1018=ADVANCED_FACE('\X2\FF8AFF9FFF70FF82\X0\ \X2\FF8EFF9EFF83FF9EFF68FF70\X0\',(#1017),#992,.T.) ;
#1049=ADVANCED_FACE('\X2\FF8AFF9FFF70FF82\X0\ \X2\FF8EFF9EFF83FF9EFF68FF70\X0\',(#1048),#1023,.T.) ;
#1089=ADVANCED_FACE('\X2\FF8AFF9FFF70FF82\X0\ \X2\FF8EFF9EFF83FF9EFF68FF70\X0\',(#1088),#1054,.F.) ;
#1120=ADVANCED_FACE('\X2\FF8AFF9FFF70FF82\X0\ \X2\FF8EFF9EFF83FF9EFF68FF70\X0\',(#1119),#1094,.T.) ;
#1151=ADVANCED_FACE('\X2\FF8AFF9FFF70FF82\X0\ \X2\FF8EFF9EFF83FF9EFF68FF70\X0\',(#1150),#1125,.T.) ;
#1177=ADVANCED_FACE('\X2\FF8AFF9FFF70FF82\X0\ \X2\FF8EFF9EFF83FF9EFF68FF70\X0\',(#1176),#930,.T.) ;
#1208=ADVANCED_FACE('\X2\FF8AFF9FFF70FF82\X0\ \X2\FF8EFF9EFF83FF9EFF68FF70\X0\',(#1207),#1182,.F.) ;
#1248=ADVANCED_FACE('\X2\FF8AFF9FFF70FF82\X0\ \X2\FF8EFF9EFF83FF9EFF68FF70\X0\',(#1247),#1213,.F.) ;
#1265=ADVANCED_FACE('\X2\FF8AFF9FFF70FF82\X0\ \X2\FF8EFF9EFF83FF9EFF68FF70\X0\',(#1264),#1213,.F.) ;
#1305=ADVANCED_FACE('\X2\FF8AFF9FFF70FF82\X0\ \X2\FF8EFF9EFF83FF9EFF68FF70\X0\',(#1304),#1270,.F.) ;
#1322=ADVANCED_FACE('\X2\FF8AFF9FFF70FF82\X0\ \X2\FF8EFF9EFF83FF9EFF68FF70\X0\',(#1321),#1270,.F.) ;
#1336=ADVANCED_FACE('\X2\FF8AFF9FFF70FF82\X0\ \X2\FF8EFF9EFF83FF9EFF68FF70\X0\',(#1331,#1335),#1327,.T.) ;
#1345=ADVANCED_FACE('\X2\FF8AFF9FFF70FF82\X0\ \X2\FF8EFF9EFF83FF9EFF68FF70\X0\',(#1340,#1344),#1327,.T.) ;
#1385=ADVANCED_FACE('\X2\FF8AFF9FFF70FF82\X0\ \X2\FF8EFF9EFF83FF9EFF68FF70\X0\',(#1384),#1350,.T.) ;
#1416=ADVANCED_FACE('\X2\FF8AFF9FFF70FF82\X0\ \X2\FF8EFF9EFF83FF9EFF68FF70\X0\',(#1415),#1390,.F.) ;
#1447=ADVANCED_FACE('\X2\FF8AFF9FFF70FF82\X0\ \X2\FF8EFF9EFF83FF9EFF68FF70\X0\',(#1446),#1421,.T.) ;
#1478=ADVANCED_FACE('\X2\FF8AFF9FFF70FF82\X0\ \X2\FF8EFF9EFF83FF9EFF68FF70\X0\',(#1477),#1452,.F.) ;
#1527=ADVANCED_FACE('\X2\FF8AFF9FFF70FF82\X0\ \X2\FF8EFF9EFF83FF9EFF68FF70\X0\',(#1522,#1526),#1483,.T.) ;
#1551=ADVANCED_FACE('\X2\FF8AFF9FFF70FF82\X0\ \X2\FF8EFF9EFF83FF9EFF68FF70\X0\',(#1550),#1532,.F.) ;
#1591=ADVANCED_FACE('\X2\FF8AFF9FFF70FF82\X0\ \X2\FF8EFF9EFF83FF9EFF68FF70\X0\',(#1590),#1556,.T.) ;
#1622=ADVANCED_FACE('\X2\FF8AFF9FFF70FF82\X0\ \X2\FF8EFF9EFF83FF9EFF68FF70\X0\',(#1621),#1596,.T.) ;
#1653=ADVANCED_FACE('\X2\FF8AFF9FFF70FF82\X0\ \X2\FF8EFF9EFF83FF9EFF68FF70\X0\',(#1652),#1627,.F.) ;
#1740=ADVANCED_FACE('\X2\FF8AFF9FFF70FF82\X0\ \X2\FF8EFF9EFF83FF9EFF68FF70\X0\',(#1679,#1683,#1687,#1691,#1695,#1699,#1703,#1707,#1711,#1715,#1719,#1723,#1727,#1731,#1735,#1739),#1658,.T.) ;
#1764=ADVANCED_FACE('\X2\FF8AFF9FFF70FF82\X0\ \X2\FF8EFF9EFF83FF9EFF68FF70\X0\',(#1763),#1745,.F.) ;
#1810=ADVANCED_FACE('\X2\FF8AFF9FFF70FF82\X0\ \X2\FF8EFF9EFF83FF9EFF68FF70\X0\',(#1805,#1809),#1483,.T.) ;
#1834=ADVANCED_FACE('\X2\FF8AFF9FFF70FF82\X0\ \X2\FF8EFF9EFF83FF9EFF68FF70\X0\',(#1833),#1815,.T.) ;
#1922=ADVANCED_FACE('\X2\FF8AFF9FFF70FF82\X0\ \X2\FF8EFF9EFF83FF9EFF68FF70\X0\',(#1869,#1873,#1877,#1881,#1885,#1889,#1893,#1897,#1901,#1905,#1909,#1913,#1917,#1921),#1839,.F.) ;
#1945=ADVANCED_FACE('\X2\FF8AFF9FFF70FF82\X0\ \X2\FF8EFF9EFF83FF9EFF68FF70\X0\',(#1944),#1927,.F.) ;
#1957=ADVANCED_FACE('\X2\FF8AFF9FFF70FF82\X0\ \X2\FF8EFF9EFF83FF9EFF68FF70\X0\',(#1956),#1950,.F.) ;
#4=APPLICATION_PROTOCOL_DEFINITION('international standard','automotive_design',2001,#1) ;
#1666=B_SPLINE_CURVE_WITH_KNOTS('',1,(#1667,#1668),.UNSPECIFIED.,.F.,.U.,(2,2),(-1.41421356237,1.41421356237),.UNSPECIFIED.) ;
#21=MANIFOLD_SOLID_BREP('\X2\FF8AFF9FFF70FF82\X0\ \X2\FF8EFF9EFF83FF9EFF68FF70\X0\',#30) ;
#48=CIRCLE('generated circle',#47,1.2295) ;
#62=CIRCLE('generated circle',#61,1.2295) ;
#74=CIRCLE('generated circle',#73,1.2295) ;
#79=CIRCLE('generated circle',#78,1.2295) ;
#105=CIRCLE('generated circle',#104,2.) ;
#119=CIRCLE('generated circle',#118,2.) ;
#131=CIRCLE('generated circle',#130,2.) ;
#136=CIRCLE('generated circle',#135,2.) ;
#153=CIRCLE('generated circle',#152,6.) ;
#169=CIRCLE('generated circle',#168,6.) ;
#188=CIRCLE('generated circle',#187,6.) ;
#193=CIRCLE('generated circle',#192,6.) ;
#219=CIRCLE('generated circle',#218,3.5) ;
#233=CIRCLE('generated circle',#232,3.5) ;
#245=CIRCLE('generated circle',#244,3.5) ;
#250=CIRCLE('generated circle',#249,3.5) ;
#276=CIRCLE('generated circle',#275,3.5) ;
#290=CIRCLE('generated circle',#289,3.5) ;
#302=CIRCLE('generated circle',#301,3.5) ;
#307=CIRCLE('generated circle',#306,3.5) ;
#333=CIRCLE('generated circle',#332,1.5) ;
#347=CIRCLE('generated circle',#346,1.5) ;
#359=CIRCLE('generated circle',#358,1.5) ;
#364=CIRCLE('generated circle',#363,1.5) ;
#390=CIRCLE('generated circle',#389,1.5) ;
#404=CIRCLE('generated circle',#403,1.5) ;
#416=CIRCLE('generated circle',#415,1.5) ;
#421=CIRCLE('generated circle',#420,1.5) ;
#438=CIRCLE('generated circle',#437,1.65) ;
#454=CIRCLE('generated circle',#453,1.65) ;
#473=CIRCLE('generated circle',#472,1.65) ;
#478=CIRCLE('generated circle',#477,1.65) ;
#495=CIRCLE('generated circle',#494,1.65) ;
#511=CIRCLE('generated circle',#510,1.65) ;
#530=CIRCLE('generated circle',#529,1.65) ;
#535=CIRCLE('generated circle',#534,1.65) ;
#561=CIRCLE('generated circle',#560,2.) ;
#575=CIRCLE('generated circle',#574,2.) ;
#587=CIRCLE('generated circle',#586,2.) ;
#592=CIRCLE('generated circle',#591,2.) ;
#618=CIRCLE('generated circle',#617,2.) ;
#632=CIRCLE('generated circle',#631,2.) ;
#644=CIRCLE('generated circle',#643,2.) ;
#649=CIRCLE('generated circle',#648,2.) ;
#675=CIRCLE('generated circle',#674,2.) ;
#689=CIRCLE('generated circle',#688,2.) ;
#701=CIRCLE('generated circle',#700,2.) ;
#706=CIRCLE('generated circle',#705,2.) ;
#732=CIRCLE('generated circle',#731,1.2295) ;
#746=CIRCLE('generated circle',#745,1.2295) ;
#758=CIRCLE('generated circle',#757,1.2295) ;
#763=CIRCLE('generated circle',#762,1.2295) ;
#789=CIRCLE('generated circle',#788,1.2295) ;
#803=CIRCLE('generated circle',#802,1.2295) ;
#815=CIRCLE('generated circle',#814,1.2295) ;
#820=CIRCLE('generated circle',#819,1.2295) ;
#846=CIRCLE('generated circle',#845,1.2295) ;
#860=CIRCLE('generated circle',#859,1.2295) ;
#872=CIRCLE('generated circle',#871,1.2295) ;
#877=CIRCLE('generated circle',#876,1.2295) ;
#903=CIRCLE('generated circle',#902,2.5) ;
#917=CIRCLE('generated circle',#916,2.5) ;
#1186=CIRCLE('generated circle',#1185,2.5) ;
#1200=CIRCLE('generated circle',#1199,2.5) ;
#1217=CIRCLE('generated circle',#1216,1.65) ;
#1233=CIRCLE('generated circle',#1232,1.65) ;
#1252=CIRCLE('generated circle',#1251,1.65) ;
#1257=CIRCLE('generated circle',#1256,1.65) ;
#1274=CIRCLE('generated circle',#1273,1.65) ;
#1290=CIRCLE('generated circle',#1289,1.65) ;
#1309=CIRCLE('generated circle',#1308,1.65) ;
#1314=CIRCLE('generated circle',#1313,1.65) ;
#22=COLOUR_RGB('Colour',0.501960784314,0.501960784314,1.) ;
#35=CYLINDRICAL_SURFACE('generated cylinder',#34,1.2295) ;
#92=CYLINDRICAL_SURFACE('generated cylinder',#91,2.) ;
#149=CYLINDRICAL_SURFACE('generated cylinder',#148,6.) ;
#206=CYLINDRICAL_SURFACE('generated cylinder',#205,3.5) ;
#263=CYLINDRICAL_SURFACE('generated cylinder',#262,3.5) ;
#320=CYLINDRICAL_SURFACE('generated cylinder',#319,1.5) ;
#377=CYLINDRICAL_SURFACE('generated cylinder',#376,1.5) ;
#434=CYLINDRICAL_SURFACE('generated cylinder',#433,1.65) ;
#491=CYLINDRICAL_SURFACE('generated cylinder',#490,1.65) ;
#548=CYLINDRICAL_SURFACE('generated cylinder',#547,2.) ;
#605=CYLINDRICAL_SURFACE('generated cylinder',#604,2.) ;
#662=CYLINDRICAL_SURFACE('generated cylinder',#661,2.) ;
#719=CYLINDRICAL_SURFACE('generated cylinder',#718,1.2295) ;
#776=CYLINDRICAL_SURFACE('generated cylinder',#775,1.2295) ;
#833=CYLINDRICAL_SURFACE('generated cylinder',#832,1.2295) ;
#890=CYLINDRICAL_SURFACE('generated cylinder',#889,2.5) ;
#1182=CYLINDRICAL_SURFACE('generated cylinder',#1181,2.5) ;
#1213=CYLINDRICAL_SURFACE('generated cylinder',#1212,1.65) ;
#1270=CYLINDRICAL_SURFACE('generated cylinder',#1269,1.65) ;
#44=EDGE_CURVE('',#41,#43,#39,.F.) ;
#51=EDGE_CURVE('',#50,#41,#48,.F.) ;
#58=EDGE_CURVE('',#50,#57,#55,.F.) ;
#63=EDGE_CURVE('',#57,#43,#62,.F.) ;
#75=EDGE_CURVE('',#41,#50,#74,.F.) ;
#80=EDGE_CURVE('',#43,#57,#79,.F.) ;
#101=EDGE_CURVE('',#98,#100,#96,.F.) ;
#108=EDGE_CURVE('',#107,#98,#105,.F.) ;
#115=EDGE_CURVE('',#107,#114,#112,.F.) ;
#120=EDGE_CURVE('',#114,#100,#119,.F.) ;
#132=EDGE_CURVE('',#98,#107,#131,.F.) ;
#137=EDGE_CURVE('',#100,#114,#136,.F.) ;
#158=EDGE_CURVE('',#155,#157,#153,.T.) ;
#165=EDGE_CURVE('',#164,#155,#162,.F.) ;
#172=EDGE_CURVE('',#164,#171,#169,.T.) ;
#177=EDGE_CURVE('',#171,#157,#176,.F.) ;
#189=EDGE_CURVE('',#157,#155,#188,.T.) ;
#194=EDGE_CURVE('',#171,#164,#193,.T.) ;
#215=EDGE_CURVE('',#212,#214,#210,.F.) ;
#222=EDGE_CURVE('',#212,#221,#219,.T.) ;
#229=EDGE_CURVE('',#221,#228,#226,.F.) ;
#234=EDGE_CURVE('',#214,#228,#233,.T.) ;
#246=EDGE_CURVE('',#221,#212,#245,.T.) ;
#251=EDGE_CURVE('',#228,#214,#250,.T.) ;
#272=EDGE_CURVE('',#269,#271,#267,.F.) ;
#279=EDGE_CURVE('',#269,#278,#276,.T.) ;
#286=EDGE_CURVE('',#278,#285,#283,.F.) ;
#291=EDGE_CURVE('',#271,#285,#290,.T.) ;
#303=EDGE_CURVE('',#278,#269,#302,.T.) ;
#308=EDGE_CURVE('',#285,#271,#307,.T.) ;
#329=EDGE_CURVE('',#326,#328,#324,.F.) ;
#336=EDGE_CURVE('',#326,#335,#333,.T.) ;
#343=EDGE_CURVE('',#335,#342,#340,.F.) ;
#348=EDGE_CURVE('',#328,#342,#347,.T.) ;
#360=EDGE_CURVE('',#335,#326,#359,.T.) ;
#365=EDGE_CURVE('',#342,#328,#364,.T.) ;
#386=EDGE_CURVE('',#383,#385,#381,.F.) ;
#393=EDGE_CURVE('',#383,#392,#390,.T.) ;
#400=EDGE_CURVE('',#392,#399,#397,.F.) ;
#405=EDGE_CURVE('',#385,#399,#404,.T.) ;
#417=EDGE_CURVE('',#392,#383,#416,.T.) ;
#422=EDGE_CURVE('',#399,#385,#421,.T.) ;
#443=EDGE_CURVE('',#440,#442,#438,.F.) ;
#450=EDGE_CURVE('',#449,#442,#447,.F.) ;
#457=EDGE_CURVE('',#449,#456,#454,.T.) ;
#462=EDGE_CURVE('',#456,#440,#461,.F.) ;
#474=EDGE_CURVE('',#442,#440,#473,.F.) ;
#479=EDGE_CURVE('',#456,#449,#478,.T.) ;
#500=EDGE_CURVE('',#497,#499,#495,.F.) ;
#507=EDGE_CURVE('',#506,#499,#504,.F.) ;
#514=EDGE_CURVE('',#506,#513,#511,.T.) ;
#519=EDGE_CURVE('',#513,#497,#518,.F.) ;
#531=EDGE_CURVE('',#499,#497,#530,.F.) ;
#536=EDGE_CURVE('',#513,#506,#535,.T.) ;
#557=EDGE_CURVE('',#554,#556,#552,.F.) ;
#564=EDGE_CURVE('',#563,#554,#561,.F.) ;
#571=EDGE_CURVE('',#563,#570,#568,.F.) ;
#576=EDGE_CURVE('',#570,#556,#575,.F.) ;
#588=EDGE_CURVE('',#554,#563,#587,.F.) ;
#593=EDGE_CURVE('',#556,#570,#592,.F.) ;
#614=EDGE_CURVE('',#611,#613,#609,.F.) ;
#621=EDGE_CURVE('',#620,#611,#618,.F.) ;
#628=EDGE_CURVE('',#620,#627,#625,.F.) ;
#633=EDGE_CURVE('',#627,#613,#632,.F.) ;
#645=EDGE_CURVE('',#611,#620,#644,.F.) ;
#650=EDGE_CURVE('',#613,#627,#649,.F.) ;
#671=EDGE_CURVE('',#668,#670,#666,.F.) ;
#678=EDGE_CURVE('',#677,#668,#675,.F.) ;
#685=EDGE_CURVE('',#677,#684,#682,.F.) ;
#690=EDGE_CURVE('',#684,#670,#689,.F.) ;
#702=EDGE_CURVE('',#668,#677,#701,.F.) ;
#707=EDGE_CURVE('',#670,#684,#706,.F.) ;
#728=EDGE_CURVE('',#725,#727,#723,.F.) ;
#735=EDGE_CURVE('',#734,#725,#732,.F.) ;
#742=EDGE_CURVE('',#734,#741,#739,.F.) ;
#747=EDGE_CURVE('',#741,#727,#746,.F.) ;
#759=EDGE_CURVE('',#725,#734,#758,.F.) ;
#764=EDGE_CURVE('',#727,#741,#763,.F.) ;
#785=EDGE_CURVE('',#782,#784,#780,.F.) ;
#792=EDGE_CURVE('',#791,#782,#789,.F.) ;
#799=EDGE_CURVE('',#791,#798,#796,.F.) ;
#804=EDGE_CURVE('',#798,#784,#803,.F.) ;
#816=EDGE_CURVE('',#782,#791,#815,.F.) ;
#821=EDGE_CURVE('',#784,#798,#820,.F.) ;
#842=EDGE_CURVE('',#839,#841,#837,.F.) ;
#849=EDGE_CURVE('',#848,#839,#846,.F.) ;
#856=EDGE_CURVE('',#848,#855,#853,.F.) ;
#861=EDGE_CURVE('',#855,#841,#860,.F.) ;
#873=EDGE_CURVE('',#839,#848,#872,.F.) ;
#878=EDGE_CURVE('',#841,#855,#877,.F.) ;
#899=EDGE_CURVE('',#896,#898,#894,.F.) ;
#906=EDGE_CURVE('',#896,#905,#903,.T.) ;
#913=EDGE_CURVE('',#905,#912,#910,.F.) ;
#918=EDGE_CURVE('',#898,#912,#917,.T.) ;
#937=EDGE_CURVE('',#912,#936,#934,.T.) ;
#944=EDGE_CURVE('',#905,#943,#941,.T.) ;
#949=EDGE_CURVE('',#943,#936,#948,.T.) ;
#968=EDGE_CURVE('',#943,#967,#965,.T.) ;
#975=EDGE_CURVE('',#967,#974,#972,.T.) ;
#980=EDGE_CURVE('',#974,#936,#979,.F.) ;
#999=EDGE_CURVE('',#967,#998,#996,.T.) ;
#1006=EDGE_CURVE('',#998,#1005,#1003,.T.) ;
#1011=EDGE_CURVE('',#974,#1005,#1010,.T.) ;
#1030=EDGE_CURVE('',#1029,#1005,#1027,.T.) ;
#1037=EDGE_CURVE('',#998,#1036,#1034,.F.) ;
#1042=EDGE_CURVE('',#1036,#1029,#1041,.T.) ;
#1063=EDGE_CURVE('',#1060,#1062,#1058,.T.) ;
#1070=EDGE_CURVE('',#1060,#1069,#1067,.T.) ;
#1077=EDGE_CURVE('',#1069,#1076,#1074,.T.) ;
#1082=EDGE_CURVE('',#1076,#1062,#1081,.F.) ;
#1101=EDGE_CURVE('',#1069,#1100,#1098,.T.) ;
#1108=EDGE_CURVE('',#1100,#1107,#1105,.T.) ;
#1113=EDGE_CURVE('',#1076,#1107,#1112,.T.) ;
#1132=EDGE_CURVE('',#1131,#1107,#1129,.T.) ;
#1139=EDGE_CURVE('',#1100,#1138,#1136,.F.) ;
#1144=EDGE_CURVE('',#1138,#1131,#1143,.T.) ;
#1158=EDGE_CURVE('',#1138,#1157,#1155,.T.) ;
#1165=EDGE_CURVE('',#1157,#1164,#1162,.T.) ;
#1170=EDGE_CURVE('',#1131,#1164,#1169,.T.) ;
#1189=EDGE_CURVE('',#1157,#1188,#1186,.T.) ;
#1196=EDGE_CURVE('',#1188,#1195,#1193,.F.) ;
#1201=EDGE_CURVE('',#1164,#1195,#1200,.T.) ;
#1222=EDGE_CURVE('',#1219,#1221,#1217,.T.) ;
#1229=EDGE_CURVE('',#1221,#1228,#1226,.F.) ;
#1236=EDGE_CURVE('',#1235,#1228,#1233,.T.) ;
#1241=EDGE_CURVE('',#1219,#1235,#1240,.F.) ;
#1253=EDGE_CURVE('',#1221,#1219,#1252,.T.) ;
#1258=EDGE_CURVE('',#1228,#1235,#1257,.T.) ;
#1279=EDGE_CURVE('',#1276,#1278,#1274,.T.) ;
#1286=EDGE_CURVE('',#1278,#1285,#1283,.F.) ;
#1293=EDGE_CURVE('',#1292,#1285,#1290,.T.) ;
#1298=EDGE_CURVE('',#1276,#1292,#1297,.F.) ;
#1310=EDGE_CURVE('',#1278,#1276,#1309,.T.) ;
#1315=EDGE_CURVE('',#1285,#1292,#1314,.T.) ;
#1359=EDGE_CURVE('',#1356,#1358,#1354,.T.) ;
#1366=EDGE_CURVE('',#1365,#1358,#1363,.T.) ;
#1373=EDGE_CURVE('',#1365,#1372,#1370,.F.) ;
#1378=EDGE_CURVE('',#1372,#1356,#1377,.T.) ;
#1399=EDGE_CURVE('',#1396,#1398,#1394,.T.) ;
#1404=EDGE_CURVE('',#896,#1398,#1403,.T.) ;
#1409=EDGE_CURVE('',#898,#1396,#1408,.T.) ;
#1428=EDGE_CURVE('',#1427,#1398,#1425,.T.) ;
#1435=EDGE_CURVE('',#1396,#1434,#1432,.F.) ;
#1440=EDGE_CURVE('',#1434,#1427,#1439,.T.) ;
#1461=EDGE_CURVE('',#1458,#1460,#1456,.F.) ;
#1466=EDGE_CURVE('',#1458,#1365,#1465,.T.) ;
#1471=EDGE_CURVE('',#1358,#1460,#1470,.F.) ;
#1490=EDGE_CURVE('',#1489,#1356,#1487,.T.) ;
#1495=EDGE_CURVE('',#1489,#1434,#1494,.F.) ;
#1502=EDGE_CURVE('',#1501,#1029,#1499,.T.) ;
#1507=EDGE_CURVE('',#1460,#1501,#1506,.T.) ;
#1539=EDGE_CURVE('',#1538,#1501,#1536,.T.) ;
#1544=EDGE_CURVE('',#1538,#1458,#1543,.T.) ;
#1563=EDGE_CURVE('',#1538,#1562,#1560,.T.) ;
#1568=EDGE_CURVE('',#1036,#1060,#1567,.T.) ;
#1575=EDGE_CURVE('',#1062,#1574,#1572,.T.) ;
#1580=EDGE_CURVE('',#1562,#1574,#1579,.T.) ;
#1603=EDGE_CURVE('',#1574,#1602,#1600,.T.) ;
#1610=EDGE_CURVE('',#1609,#1602,#1607,.T.) ;
#1615=EDGE_CURVE('',#1609,#1562,#1614,.F.) ;
#1636=EDGE_CURVE('',#1633,#1635,#1631,.F.) ;
#1641=EDGE_CURVE('',#1633,#1609,#1640,.T.) ;
#1646=EDGE_CURVE('',#1635,#1602,#1645,.T.) ;
#1665=EDGE_CURVE('',#1664,#1372,#1662,.F.) ;
#1669=EDGE_CURVE('',#1664,#1633,#1666,.T.) ;
#1752=EDGE_CURVE('',#1664,#1751,#1749,.T.) ;
#1757=EDGE_CURVE('',#1635,#1751,#1756,.F.) ;
#1773=EDGE_CURVE('',#1770,#1772,#1768,.F.) ;
#1780=EDGE_CURVE('',#1770,#1779,#1777,.F.) ;
#1785=EDGE_CURVE('',#1751,#1779,#1784,.T.) ;
#1790=EDGE_CURVE('',#1195,#1772,#1789,.T.) ;
#1822=EDGE_CURVE('',#1188,#1821,#1819,.T.) ;
#1827=EDGE_CURVE('',#1772,#1821,#1826,.T.) ;
#1846=EDGE_CURVE('',#1821,#1845,#1843,.F.) ;
#1851=EDGE_CURVE('',#1845,#1427,#1850,.F.) ;
#1932=EDGE_CURVE('',#1770,#1845,#1931,.T.) ;
#64=EDGE_LOOP('',(#65,#66,#67,#68)) ;
#81=EDGE_LOOP('',(#82,#83,#84,#85)) ;
#121=EDGE_LOOP('',(#122,#123,#124,#125)) ;
#138=EDGE_LOOP('',(#139,#140,#141,#142)) ;
#178=EDGE_LOOP('',(#179,#180,#181,#182)) ;
#195=EDGE_LOOP('',(#196,#197,#198,#199)) ;
#235=EDGE_LOOP('',(#236,#237,#238,#239)) ;
#252=EDGE_LOOP('',(#253,#254,#255,#256)) ;
#292=EDGE_LOOP('',(#293,#294,#295,#296)) ;
#309=EDGE_LOOP('',(#310,#311,#312,#313)) ;
#349=EDGE_LOOP('',(#350,#351,#352,#353)) ;
#366=EDGE_LOOP('',(#367,#368,#369,#370)) ;
#406=EDGE_LOOP('',(#407,#408,#409,#410)) ;
#423=EDGE_LOOP('',(#424,#425,#426,#427)) ;
#463=EDGE_LOOP('',(#464,#465,#466,#467)) ;
#480=EDGE_LOOP('',(#481,#482,#483,#484)) ;
#520=EDGE_LOOP('',(#521,#522,#523,#524)) ;
#537=EDGE_LOOP('',(#538,#539,#540,#541)) ;
#577=EDGE_LOOP('',(#578,#579,#580,#581)) ;
#594=EDGE_LOOP('',(#595,#596,#597,#598)) ;
#634=EDGE_LOOP('',(#635,#636,#637,#638)) ;
#651=EDGE_LOOP('',(#652,#653,#654,#655)) ;
#691=EDGE_LOOP('',(#692,#693,#694,#695)) ;
#708=EDGE_LOOP('',(#709,#710,#711,#712)) ;
#748=EDGE_LOOP('',(#749,#750,#751,#752)) ;
#765=EDGE_LOOP('',(#766,#767,#768,#769)) ;
#805=EDGE_LOOP('',(#806,#807,#808,#809)) ;
#822=EDGE_LOOP('',(#823,#824,#825,#826)) ;
#862=EDGE_LOOP('',(#863,#864,#865,#866)) ;
#879=EDGE_LOOP('',(#880,#881,#882,#883)) ;
#919=EDGE_LOOP('',(#920,#921,#922,#923)) ;
#950=EDGE_LOOP('',(#951,#952,#953,#954)) ;
#981=EDGE_LOOP('',(#982,#983,#984,#985)) ;
#1012=EDGE_LOOP('',(#1013,#1014,#1015,#1016)) ;
#1043=EDGE_LOOP('',(#1044,#1045,#1046,#1047)) ;
#1083=EDGE_LOOP('',(#1084,#1085,#1086,#1087)) ;
#1114=EDGE_LOOP('',(#1115,#1116,#1117,#1118)) ;
#1145=EDGE_LOOP('',(#1146,#1147,#1148,#1149)) ;
#1171=EDGE_LOOP('',(#1172,#1173,#1174,#1175)) ;
#1202=EDGE_LOOP('',(#1203,#1204,#1205,#1206)) ;
#1242=EDGE_LOOP('',(#1243,#1244,#1245,#1246)) ;
#1259=EDGE_LOOP('',(#1260,#1261,#1262,#1263)) ;
#1299=EDGE_LOOP('',(#1300,#1301,#1302,#1303)) ;
#1316=EDGE_LOOP('',(#1317,#1318,#1319,#1320)) ;
#1328=EDGE_LOOP('',(#1329,#1330)) ;
#1332=EDGE_LOOP('',(#1333,#1334)) ;
#1337=EDGE_LOOP('',(#1338,#1339)) ;
#1341=EDGE_LOOP('',(#1342,#1343)) ;
#1379=EDGE_LOOP('',(#1380,#1381,#1382,#1383)) ;
#1410=EDGE_LOOP('',(#1411,#1412,#1413,#1414)) ;
#1441=EDGE_LOOP('',(#1442,#1443,#1444,#1445)) ;
#1472=EDGE_LOOP('',(#1473,#1474,#1475,#1476)) ;
#1508=EDGE_LOOP('',(#1509,#1510,#1511,#1512,#1513,#1514,#1515,#1516,#1517,#1518,#1519,#1520,#1521)) ;
#1523=EDGE_LOOP('',(#1524,#1525)) ;
#1545=EDGE_LOOP('',(#1546,#1547,#1548,#1549)) ;
#1581=EDGE_LOOP('',(#1582,#1583,#1584,#1585,#1586,#1587,#1588,#1589)) ;
#1616=EDGE_LOOP('',(#1617,#1618,#1619,#1620)) ;
#1647=EDGE_LOOP('',(#1648,#1649,#1650,#1651)) ;
#1670=EDGE_LOOP('',(#1671,#1672,#1673,#1674,#1675,#1676,#1677,#1678)) ;
#1680=EDGE_LOOP('',(#1681,#1682)) ;
#1684=EDGE_LOOP('',(#1685,#1686)) ;
#1688=EDGE_LOOP('',(#1689,#1690)) ;
#1692=EDGE_LOOP('',(#1693,#1694)) ;
#1696=EDGE_LOOP('',(#1697,#1698)) ;
#1700=EDGE_LOOP('',(#1701,#1702)) ;
#1704=EDGE_LOOP('',(#1705,#1706)) ;
#1708=EDGE_LOOP('',(#1709,#1710)) ;
#1712=EDGE_LOOP('',(#1713,#1714)) ;
#1716=EDGE_LOOP('',(#1717,#1718)) ;
#1720=EDGE_LOOP('',(#1721,#1722)) ;
#1724=EDGE_LOOP('',(#1725,#1726)) ;
#1728=EDGE_LOOP('',(#1729,#1730)) ;
#1732=EDGE_LOOP('',(#1733,#1734)) ;
#1736=EDGE_LOOP('',(#1737,#1738)) ;
#1758=EDGE_LOOP('',(#1759,#1760,#1761,#1762)) ;
#1791=EDGE_LOOP('',(#1792,#1793,#1794,#1795,#1796,#1797,#1798,#1799,#1800,#1801,#1802,#1803,#1804)) ;
#1806=EDGE_LOOP('',(#1807,#1808)) ;
#1828=EDGE_LOOP('',(#1829,#1830,#1831,#1832)) ;
#1852=EDGE_LOOP('',(#1853,#1854,#1855,#1856,#1857,#1858,#1859,#1860,#1861,#1862,#1863,#1864,#1865,#1866,#1867,#1868)) ;
#1870=EDGE_LOOP('',(#1871,#1872)) ;
#1874=EDGE_LOOP('',(#1875,#1876)) ;
#1878=EDGE_LOOP('',(#1879,#1880)) ;
#1882=EDGE_LOOP('',(#1883,#1884)) ;
#1886=EDGE_LOOP('',(#1887,#1888)) ;
#1890=EDGE_LOOP('',(#1891,#1892)) ;
#1894=EDGE_LOOP('',(#1895,#1896)) ;
#1898=EDGE_LOOP('',(#1899,#1900)) ;
#1902=EDGE_LOOP('',(#1903,#1904)) ;
#1906=EDGE_LOOP('',(#1907,#1908)) ;
#1910=EDGE_LOOP('',(#1911,#1912)) ;
#1914=EDGE_LOOP('',(#1915,#1916)) ;
#1918=EDGE_LOOP('',(#1919,#1920)) ;
#1933=EDGE_LOOP('',(#1934,#1935,#1936,#1937,#1938,#1939,#1940,#1941,#1942,#1943)) ;
#1951=EDGE_LOOP('',(#1952,#1953,#1954,#1955)) ;
#69=FACE_OUTER_BOUND('',#64,.T.) ;
#86=FACE_OUTER_BOUND('',#81,.T.) ;
#126=FACE_OUTER_BOUND('',#121,.T.) ;
#143=FACE_OUTER_BOUND('',#138,.T.) ;
#183=FACE_OUTER_BOUND('',#178,.T.) ;
#200=FACE_OUTER_BOUND('',#195,.T.) ;
#240=FACE_OUTER_BOUND('',#235,.T.) ;
#257=FACE_OUTER_BOUND('',#252,.T.) ;
#297=FACE_OUTER_BOUND('',#292,.T.) ;
#314=FACE_OUTER_BOUND('',#309,.T.) ;
#354=FACE_OUTER_BOUND('',#349,.T.) ;
#371=FACE_OUTER_BOUND('',#366,.T.) ;
#411=FACE_OUTER_BOUND('',#406,.T.) ;
#428=FACE_OUTER_BOUND('',#423,.T.) ;
#468=FACE_OUTER_BOUND('',#463,.T.) ;
#485=FACE_OUTER_BOUND('',#480,.T.) ;
#525=FACE_OUTER_BOUND('',#520,.T.) ;
#542=FACE_OUTER_BOUND('',#537,.T.) ;
#582=FACE_OUTER_BOUND('',#577,.T.) ;
#599=FACE_OUTER_BOUND('',#594,.T.) ;
#639=FACE_OUTER_BOUND('',#634,.T.) ;
#656=FACE_OUTER_BOUND('',#651,.T.) ;
#696=FACE_OUTER_BOUND('',#691,.T.) ;
#713=FACE_OUTER_BOUND('',#708,.T.) ;
#753=FACE_OUTER_BOUND('',#748,.T.) ;
#770=FACE_OUTER_BOUND('',#765,.T.) ;
#810=FACE_OUTER_BOUND('',#805,.T.) ;
#827=FACE_OUTER_BOUND('',#822,.T.) ;
#867=FACE_OUTER_BOUND('',#862,.T.) ;
#884=FACE_OUTER_BOUND('',#879,.T.) ;
#924=FACE_OUTER_BOUND('',#919,.T.) ;
#955=FACE_OUTER_BOUND('',#950,.T.) ;
#986=FACE_OUTER_BOUND('',#981,.T.) ;
#1017=FACE_OUTER_BOUND('',#1012,.T.) ;
#1048=FACE_OUTER_BOUND('',#1043,.T.) ;
#1088=FACE_OUTER_BOUND('',#1083,.T.) ;
#1119=FACE_OUTER_BOUND('',#1114,.T.) ;
#1150=FACE_OUTER_BOUND('',#1145,.T.) ;
#1176=FACE_OUTER_BOUND('',#1171,.T.) ;
#1207=FACE_OUTER_BOUND('',#1202,.T.) ;
#1247=FACE_OUTER_BOUND('',#1242,.T.) ;
#1264=FACE_OUTER_BOUND('',#1259,.T.) ;
#1304=FACE_OUTER_BOUND('',#1299,.T.) ;
#1321=FACE_OUTER_BOUND('',#1316,.T.) ;
#1331=FACE_OUTER_BOUND('',#1328,.T.) ;
#1340=FACE_OUTER_BOUND('',#1337,.T.) ;
#1384=FACE_OUTER_BOUND('',#1379,.T.) ;
#1415=FACE_OUTER_BOUND('',#1410,.T.) ;
#1446=FACE_OUTER_BOUND('',#1441,.T.) ;
#1477=FACE_OUTER_BOUND('',#1472,.T.) ;
#1522=FACE_OUTER_BOUND('',#1508,.T.) ;
#1550=FACE_OUTER_BOUND('',#1545,.T.) ;
#1590=FACE_OUTER_BOUND('',#1581,.T.) ;
#1621=FACE_OUTER_BOUND('',#1616,.T.) ;
#1652=FACE_OUTER_BOUND('',#1647,.T.) ;
#1679=FACE_OUTER_BOUND('',#1670,.T.) ;
#1763=FACE_OUTER_BOUND('',#1758,.T.) ;
#1805=FACE_OUTER_BOUND('',#1791,.T.) ;
#1833=FACE_OUTER_BOUND('',#1828,.T.) ;
#1869=FACE_OUTER_BOUND('',#1852,.T.) ;
#1944=FACE_OUTER_BOUND('',#1933,.T.) ;
#1956=FACE_OUTER_BOUND('',#1951,.T.) ;
#39=LINE('Line',#36,#38) ;
#55=LINE('Line',#52,#54) ;
#96=LINE('Line',#93,#95) ;
#112=LINE('Line',#109,#111) ;
#162=LINE('Line',#159,#161) ;
#176=LINE('Line',#173,#175) ;
#210=LINE('Line',#207,#209) ;
#226=LINE('Line',#223,#225) ;
#267=LINE('Line',#264,#266) ;
#283=LINE('Line',#280,#282) ;
#324=LINE('Line',#321,#323) ;
#340=LINE('Line',#337,#339) ;
#381=LINE('Line',#378,#380) ;
#397=LINE('Line',#394,#396) ;
#447=LINE('Line',#444,#446) ;
#461=LINE('Line',#458,#460) ;
#504=LINE('Line',#501,#503) ;
#518=LINE('Line',#515,#517) ;
#552=LINE('Line',#549,#551) ;
#568=LINE('Line',#565,#567) ;
#609=LINE('Line',#606,#608) ;
#625=LINE('Line',#622,#624) ;
#666=LINE('Line',#663,#665) ;
#682=LINE('Line',#679,#681) ;
#723=LINE('Line',#720,#722) ;
#739=LINE('Line',#736,#738) ;
#780=LINE('Line',#777,#779) ;
#796=LINE('Line',#793,#795) ;
#837=LINE('Line',#834,#836) ;
#853=LINE('Line',#850,#852) ;
#894=LINE('Line',#891,#893) ;
#910=LINE('Line',#907,#909) ;
#934=LINE('Line',#931,#933) ;
#941=LINE('Line',#938,#940) ;
#948=LINE('Line',#945,#947) ;
#965=LINE('Line',#962,#964) ;
#972=LINE('Line',#969,#971) ;
#979=LINE('Line',#976,#978) ;
#996=LINE('Line',#993,#995) ;
#1003=LINE('Line',#1000,#1002) ;
#1010=LINE('Line',#1007,#1009) ;
#1027=LINE('Line',#1024,#1026) ;
#1034=LINE('Line',#1031,#1033) ;
#1041=LINE('Line',#1038,#1040) ;
#1058=LINE('Line',#1055,#1057) ;
#1067=LINE('Line',#1064,#1066) ;
#1074=LINE('Line',#1071,#1073) ;
#1081=LINE('Line',#1078,#1080) ;
#1098=LINE('Line',#1095,#1097) ;
#1105=LINE('Line',#1102,#1104) ;
#1112=LINE('Line',#1109,#1111) ;
#1129=LINE('Line',#1126,#1128) ;
#1136=LINE('Line',#1133,#1135) ;
#1143=LINE('Line',#1140,#1142) ;
#1155=LINE('Line',#1152,#1154) ;
#1162=LINE('Line',#1159,#1161) ;
#1169=LINE('Line',#1166,#1168) ;
#1193=LINE('Line',#1190,#1192) ;
#1226=LINE('Line',#1223,#1225) ;
#1240=LINE('Line',#1237,#1239) ;
#1283=LINE('Line',#1280,#1282) ;
#1297=LINE('Line',#1294,#1296) ;
#1354=LINE('Line',#1351,#1353) ;
#1363=LINE('Line',#1360,#1362) ;
#1370=LINE('Line',#1367,#1369) ;
#1377=LINE('Line',#1374,#1376) ;
#1394=LINE('Line',#1391,#1393) ;
#1403=LINE('Line',#1400,#1402) ;
#1408=LINE('Line',#1405,#1407) ;
#1425=LINE('Line',#1422,#1424) ;
#1432=LINE('Line',#1429,#1431) ;
#1439=LINE('Line',#1436,#1438) ;
#1456=LINE('Line',#1453,#1455) ;
#1465=LINE('Line',#1462,#1464) ;
#1470=LINE('Line',#1467,#1469) ;
#1487=LINE('Line',#1484,#1486) ;
#1494=LINE('Line',#1491,#1493) ;
#1499=LINE('Line',#1496,#1498) ;
#1506=LINE('Line',#1503,#1505) ;
#1536=LINE('Line',#1533,#1535) ;
#1543=LINE('Line',#1540,#1542) ;
#1560=LINE('Line',#1557,#1559) ;
#1567=LINE('Line',#1564,#1566) ;
#1572=LINE('Line',#1569,#1571) ;
#1579=LINE('Line',#1576,#1578) ;
#1600=LINE('Line',#1597,#1599) ;
#1607=LINE('Line',#1604,#1606) ;
#1614=LINE('Line',#1611,#1613) ;
#1631=LINE('Line',#1628,#1630) ;
#1640=LINE('Line',#1637,#1639) ;
#1645=LINE('Line',#1642,#1644) ;
#1662=LINE('Line',#1659,#1661) ;
#1749=LINE('Line',#1746,#1748) ;
#1756=LINE('Line',#1753,#1755) ;
#1768=LINE('Line',#1765,#1767) ;
#1777=LINE('Line',#1774,#1776) ;
#1784=LINE('Line',#1781,#1783) ;
#1789=LINE('Line',#1786,#1788) ;
#1819=LINE('Line',#1816,#1818) ;
#1826=LINE('Line',#1823,#1825) ;
#1843=LINE('Line',#1840,#1842) ;
#1850=LINE('Line',#1847,#1849) ;
#1931=LINE('Line',#1928,#1930) ;
#930=PLANE('',#929) ;
#961=PLANE('',#960) ;
#992=PLANE('',#991) ;
#1023=PLANE('',#1022) ;
#1054=PLANE('',#1053) ;
#1094=PLANE('',#1093) ;
#1125=PLANE('',#1124) ;
#1327=PLANE('',#1326) ;
#1350=PLANE('',#1349) ;
#1390=PLANE('',#1389) ;
#1421=PLANE('',#1420) ;
#1452=PLANE('',#1451) ;
#1483=PLANE('',#1482) ;
#1532=PLANE('',#1531) ;
#1556=PLANE('',#1555) ;
#1596=PLANE('',#1595) ;
#1627=PLANE('',#1626) ;
#1658=PLANE('',#1657) ;
#1745=PLANE('',#1744) ;
#1815=PLANE('',#1814) ;
#1839=PLANE('',#1838) ;
#1927=PLANE('',#1926) ;
#1950=PLANE('',#1949) ;
#9=PRODUCT_CATEGORY_RELATIONSHIP(' ',' ',#7,#8) ;
#6=PRODUCT_DEFINITION_FORMATION_WITH_SPECIFIED_SOURCE('',' ',#5,.MADE.) ;
#20=SHAPE_DEFINITION_REPRESENTATION(#11,#19) ;
#41=VERTEX_POINT('',#40) ;
#43=VERTEX_POINT('',#42) ;
#50=VERTEX_POINT('',#49) ;
#57=VERTEX_POINT('',#56) ;
#98=VERTEX_POINT('',#97) ;
#100=VERTEX_POINT('',#99) ;
#107=VERTEX_POINT('',#106) ;
#114=VERTEX_POINT('',#113) ;
#155=VERTEX_POINT('',#154) ;
#157=VERTEX_POINT('',#156) ;
#164=VERTEX_POINT('',#163) ;
#171=VERTEX_POINT('',#170) ;
#212=VERTEX_POINT('',#211) ;
#214=VERTEX_POINT('',#213) ;
#221=VERTEX_POINT('',#220) ;
#228=VERTEX_POINT('',#227) ;
#269=VERTEX_POINT('',#268) ;
#271=VERTEX_POINT('',#270) ;
#278=VERTEX_POINT('',#277) ;
#285=VERTEX_POINT('',#284) ;
#326=VERTEX_POINT('',#325) ;
#328=VERTEX_POINT('',#327) ;
#335=VERTEX_POINT('',#334) ;
#342=VERTEX_POINT('',#341) ;
#383=VERTEX_POINT('',#382) ;
#385=VERTEX_POINT('',#384) ;
#392=VERTEX_POINT('',#391) ;
#399=VERTEX_POINT('',#398) ;
#440=VERTEX_POINT('',#439) ;
#442=VERTEX_POINT('',#441) ;
#449=VERTEX_POINT('',#448) ;
#456=VERTEX_POINT('',#455) ;
#497=VERTEX_POINT('',#496) ;
#499=VERTEX_POINT('',#498) ;
#506=VERTEX_POINT('',#505) ;
#513=VERTEX_POINT('',#512) ;
#554=VERTEX_POINT('',#553) ;
#556=VERTEX_POINT('',#555) ;
#563=VERTEX_POINT('',#562) ;
#570=VERTEX_POINT('',#569) ;
#611=VERTEX_POINT('',#610) ;
#613=VERTEX_POINT('',#612) ;
#620=VERTEX_POINT('',#619) ;
#627=VERTEX_POINT('',#626) ;
#668=VERTEX_POINT('',#667) ;
#670=VERTEX_POINT('',#669) ;
#677=VERTEX_POINT('',#676) ;
#684=VERTEX_POINT('',#683) ;
#725=VERTEX_POINT('',#724) ;
#727=VERTEX_POINT('',#726) ;
#734=VERTEX_POINT('',#733) ;
#741=VERTEX_POINT('',#740) ;
#782=VERTEX_POINT('',#781) ;
#784=VERTEX_POINT('',#783) ;
#791=VERTEX_POINT('',#790) ;
#798=VERTEX_POINT('',#797) ;
#839=VERTEX_POINT('',#838) ;
#841=VERTEX_POINT('',#840) ;
#848=VERTEX_POINT('',#847) ;
#855=VERTEX_POINT('',#854) ;
#896=VERTEX_POINT('',#895) ;
#898=VERTEX_POINT('',#897) ;
#905=VERTEX_POINT('',#904) ;
#912=VERTEX_POINT('',#911) ;
#936=VERTEX_POINT('',#935) ;
#943=VERTEX_POINT('',#942) ;
#967=VERTEX_POINT('',#966) ;
#974=VERTEX_POINT('',#973) ;
#998=VERTEX_POINT('',#997) ;
#1005=VERTEX_POINT('',#1004) ;
#1029=VERTEX_POINT('',#1028) ;
#1036=VERTEX_POINT('',#1035) ;
#1060=VERTEX_POINT('',#1059) ;
#1062=VERTEX_POINT('',#1061) ;
#1069=VERTEX_POINT('',#1068) ;
#1076=VERTEX_POINT('',#1075) ;
#1100=VERTEX_POINT('',#1099) ;
#1107=VERTEX_POINT('',#1106) ;
#1131=VERTEX_POINT('',#1130) ;
#1138=VERTEX_POINT('',#1137) ;
#1157=VERTEX_POINT('',#1156) ;
#1164=VERTEX_POINT('',#1163) ;
#1188=VERTEX_POINT('',#1187) ;
#1195=VERTEX_POINT('',#1194) ;
#1219=VERTEX_POINT('',#1218) ;
#1221=VERTEX_POINT('',#1220) ;
#1228=VERTEX_POINT('',#1227) ;
#1235=VERTEX_POINT('',#1234) ;
#1276=VERTEX_POINT('',#1275) ;
#1278=VERTEX_POINT('',#1277) ;
#1285=VERTEX_POINT('',#1284) ;
#1292=VERTEX_POINT('',#1291) ;
#1356=VERTEX_POINT('',#1355) ;
#1358=VERTEX_POINT('',#1357) ;
#1365=VERTEX_POINT('',#1364) ;
#1372=VERTEX_POINT('',#1371) ;
#1396=VERTEX_POINT('',#1395) ;
#1398=VERTEX_POINT('',#1397) ;
#1427=VERTEX_POINT('',#1426) ;
#1434=VERTEX_POINT('',#1433) ;
#1458=VERTEX_POINT('',#1457) ;
#1460=VERTEX_POINT('',#1459) ;
#1489=VERTEX_POINT('',#1488) ;
#1501=VERTEX_POINT('',#1500) ;
#1538=VERTEX_POINT('',#1537) ;
#1562=VERTEX_POINT('',#1561) ;
#1574=VERTEX_POINT('',#1573) ;
#1602=VERTEX_POINT('',#1601) ;
#1609=VERTEX_POINT('',#1608) ;
#1633=VERTEX_POINT('',#1632) ;
#1635=VERTEX_POINT('',#1634) ;
#1664=VERTEX_POINT('',#1663) ;
#1751=VERTEX_POINT('',#1750) ;
#1770=VERTEX_POINT('',#1769) ;
#1772=VERTEX_POINT('',#1771) ;
#1779=VERTEX_POINT('',#1778) ;
#1821=VERTEX_POINT('',#1820) ;
#1845=VERTEX_POINT('',#1844) ;
#12=(LENGTH_UNIT()NAMED_UNIT(*)SI_UNIT(.MILLI.,.METRE.)) ;
#13=(NAMED_UNIT(*)PLANE_ANGLE_UNIT()SI_UNIT($,.RADIAN.)) ;
#14=(NAMED_UNIT(*)SI_UNIT($,.STERADIAN.)SOLID_ANGLE_UNIT()) ;
#16=(GEOMETRIC_REPRESENTATION_CONTEXT(3)GLOBAL_UNCERTAINTY_ASSIGNED_CONTEXT((#15))GLOBAL_UNIT_ASSIGNED_CONTEXT((#12,#13,#14))REPRESENTATION_CONTEXT(' ',' ')) ;
ENDSEC;
END-ISO-10303-21;
