ISO-10303-21;
HEADER;
FILE_DESCRIPTION (( 'STEP AP214' ),
    '1' );
FILE_NAME ('Fin.STEP',
    '2026-09-14T05:24:04',
    ( '' ),
    ( '' ),
    'SwSTEP 2.0',
    'SolidWorks 2025',
    '' );
FILE_SCHEMA (( 'AUTOMOTIVE_DESIGN' ));
ENDSEC;

DATA;
#1 = CARTESIAN_POINT ( 'NONE',  ( -20.97911195477583490, 7.808868705405301647, 0.000000000000000000 ) ) ;
#2 = EDGE_CURVE ( 'NONE', #166, #102, #278, .T. ) ;
#3 = DIRECTION ( 'NONE',  ( -0.000000000000000000, -0.000000000000000000, -1.000000000000000000 ) ) ;
#4 = DIRECTION ( 'NONE',  ( 0.000000000000000000, 0.000000000000000000, 1.000000000000000000 ) ) ;
#5 = AXIS2_PLACEMENT_3D ( 'NONE', #224, #490, #338 ) ;
#6 = CARTESIAN_POINT ( 'NONE',  ( -24.60937067060942951, 9.269698295959171830, 10.00000000000000000 ) ) ;
#7 = AXIS2_PLACEMENT_3D ( 'NONE', #360, #8, #317 ) ;
#8 = DIRECTION ( 'NONE',  ( 0.000000000000000000, 0.000000000000000000, 1.000000000000000000 ) ) ;
#9 = EDGE_CURVE ( 'NONE', #51, #128, #196, .T. ) ;
#10 = DIRECTION ( 'NONE',  ( 0.000000000000000000, 1.000000000000000000, 0.000000000000000000 ) ) ;
#11 = ORIENTED_EDGE ( 'NONE', *, *, #280, .F. ) ;
#12 = DIRECTION ( 'NONE',  ( -0.000000000000000000, -0.000000000000000000, -1.000000000000000000 ) ) ;
#13 = SHAPE_DEFINITION_REPRESENTATION ( #287, #271 ) ;
#14 = CARTESIAN_POINT ( 'NONE',  ( -20.02480143750138453, 8.406874950121244083, 10.00000000000000000 ) ) ;
#15 = ORIENTED_EDGE ( 'NONE', *, *, #60, .F. ) ;
#16 = AXIS2_PLACEMENT_3D ( 'NONE', #24, #222, #216 ) ;
#17 = CARTESIAN_POINT ( 'NONE',  ( -24.32508765877514634, 9.365527149559891740, 10.00000000000000000 ) ) ;
#18 = ORIENTED_EDGE ( 'NONE', *, *, #455, .F. ) ;
#19 = DIRECTION ( 'NONE',  ( 1.000000000000000000, 0.000000000000000000, 0.000000000000000000 ) ) ;
#20 = ORIENTED_EDGE ( 'NONE', *, *, #142, .T. ) ;
#21 = DIRECTION ( 'NONE',  ( 0.000000000000000000, 0.000000000000000000, 1.000000000000000000 ) ) ;
#22 = VERTEX_POINT ( 'NONE', #120 ) ;
#23 = STYLED_ITEM ( 'NONE', ( #269 ), #439 ) ;
#24 = CARTESIAN_POINT ( 'NONE',  ( -23.03948040556439736, 8.021414106548528267, 0.000000000000000000 ) ) ;
#25 = ORIENTED_EDGE ( 'NONE', *, *, #235, .F. ) ;
#26 = FACE_OUTER_BOUND ( 'NONE', #491, .T. ) ;
#27 = ORIENTED_EDGE ( 'NONE', *, *, #100, .T. ) ;
#28 = CYLINDRICAL_SURFACE ( 'NONE', #124, 16.30000000000000071 ) ;
#29 = ORIENTED_EDGE ( 'NONE', *, *, #40, .F. ) ;
#30 = PRODUCT_DEFINITION_CONTEXT ( 'detailed design', #204, 'design' ) ;
#31 = PRODUCT_RELATED_PRODUCT_CATEGORY ( 'part', '', ( #92 ) ) ;
#32 = AXIS2_PLACEMENT_3D ( 'NONE', #126, #12, #476 ) ;
#33 =( GEOMETRIC_REPRESENTATION_CONTEXT ( 3 ) GLOBAL_UNCERTAINTY_ASSIGNED_CONTEXT ( ( #157 ) ) GLOBAL_UNIT_ASSIGNED_CONTEXT ( ( #76, #111, #151 ) ) REPRESENTATION_CONTEXT ( 'NONE', 'WORKASPACE' ) );
#34 = SURFACE_STYLE_FILL_AREA ( #310 ) ;
#35 = ORIENTED_EDGE ( 'NONE', *, *, #423, .T. ) ;
#36 = SURFACE_SIDE_STYLE ('',( #34 ) ) ;
#37 = DIRECTION ( 'NONE',  ( -1.000000000000000000, 0.000000000000000000, 0.000000000000000000 ) ) ;
#38 = CARTESIAN_POINT ( 'NONE',  ( -24.18016822417678213, 9.628202533780971351, 10.00000000000000000 ) ) ;
#39 = CARTESIAN_POINT ( 'NONE',  ( -19.34952040423133823, 18.38404867448355873, 10.00000000000000000 ) ) ;
#40 = EDGE_CURVE ( 'NONE', #257, #421, #42, .T. ) ;
#41 = DIRECTION ( 'NONE',  ( -1.000000000000000000, 0.000000000000000000, 0.000000000000000000 ) ) ;
#42 = LINE ( 'NONE', #152, #431 ) ;
#43 = ORIENTED_EDGE ( 'NONE', *, *, #89, .F. ) ;
#44 = VECTOR ( 'NONE', #212, 1000.000000000000000 ) ;
#45 = LINE ( 'NONE', #167, #177 ) ;
#46 = AXIS2_PLACEMENT_3D ( 'NONE', #122, #348, #346 ) ;
#47 = VERTEX_POINT ( 'NONE', #154 ) ;
#48 = DIRECTION ( 'NONE',  ( 1.000000000000000000, 0.000000000000000000, -0.000000000000000000 ) ) ;
#49 = ORIENTED_EDGE ( 'NONE', *, *, #9, .F. ) ;
#50 = DIRECTION ( 'NONE',  ( 0.000000000000000000, 0.000000000000000000, 1.000000000000000000 ) ) ;
#51 = VERTEX_POINT ( 'NONE', #392 ) ;
#52 = APPLICATION_PROTOCOL_DEFINITION ( 'draft international standard', 'automotive_design', 1998, #139 ) ;
#53 = CARTESIAN_POINT ( 'NONE',  ( 0.000000000000000000, 4.499999999999997335, 10.00000000000000000 ) ) ;
#54 = ORIENTED_EDGE ( 'NONE', *, *, #221, .F. ) ;
#55 = VECTOR ( 'NONE', #394, 1000.000000000000000 ) ;
#56 = CARTESIAN_POINT ( 'NONE',  ( -24.18016822417678213, 9.628202533780971351, 0.000000000000000000 ) ) ;
#57 = EDGE_LOOP ( 'NONE', ( #175, #497, #398, #263 ) ) ;
#58 = CARTESIAN_POINT ( 'NONE',  ( -8.500000000000000000, 14.69999999999999929, 10.00000000000000000 ) ) ;
#59 = VERTEX_POINT ( 'NONE', #81 ) ;
#60 = EDGE_CURVE ( 'NONE', #384, #66, #425, .T. ) ;
#61 = EDGE_CURVE ( 'NONE', #246, #91, #115, .T. ) ;
#62 = LINE ( 'NONE', #147, #293 ) ;
#63 = ORIENTED_EDGE ( 'NONE', *, *, #68, .T. ) ;
#64 = VECTOR ( 'NONE', #10, 1000.000000000000000 ) ;
#65 = DIRECTION ( 'NONE',  ( 0.000000000000000000, 0.000000000000000000, 1.000000000000000000 ) ) ;
#66 = VERTEX_POINT ( 'NONE', #462 ) ;
#67 = DIRECTION ( 'NONE',  ( 1.000000000000000000, 0.000000000000000000, 0.000000000000000000 ) ) ;
#68 = EDGE_CURVE ( 'NONE', #91, #337, #341, .T. ) ;
#69 = ORIENTED_EDGE ( 'NONE', *, *, #498, .F. ) ;
#70 = DIRECTION ( 'NONE',  ( -0.000000000000000000, -0.000000000000000000, 1.000000000000000000 ) ) ;
#71 = ORIENTED_EDGE ( 'NONE', *, *, #470, .T. ) ;
#72 = VECTOR ( 'NONE', #492, 1000.000000000000000 ) ;
#73 = PRODUCT_DEFINITION_FORMATION_WITH_SPECIFIED_SOURCE ( 'ANY', '', #92, .NOT_KNOWN. ) ;
#74 = CARTESIAN_POINT ( 'NONE',  ( -22.93884513280076831, 8.304031412946750734, 0.000000000000000000 ) ) ;
#75 = CARTESIAN_POINT ( 'NONE',  ( -20.97911195477583490, 7.808868705405301647, 0.000000000000000000 ) ) ;
#76 =( LENGTH_UNIT ( ) NAMED_UNIT ( * ) SI_UNIT ( .MILLI., .METRE. ) );
#77 = CARTESIAN_POINT ( 'NONE',  ( -21.02480143750138097, 7.512368332440492402, 0.000000000000000000 ) ) ;
#78 = DIRECTION ( 'NONE',  ( -0.9896557080369863257, 0.1434628159134319070, 0.000000000000000000 ) ) ;
#79 = DIRECTION ( 'NONE',  ( 0.000000000000000000, 0.000000000000000000, 1.000000000000000000 ) ) ;
#80 = AXIS2_PLACEMENT_3D ( 'NONE', #112, #469, #267 ) ;
#81 = CARTESIAN_POINT ( 'NONE',  ( -20.97911195477583490, 7.808868705405301647, 10.00000000000000000 ) ) ;
#82 = DIRECTION ( 'NONE',  ( 0.000000000000000000, 0.000000000000000000, 1.000000000000000000 ) ) ;
#83 = CARTESIAN_POINT ( 'NONE',  ( -20.72480143750138026, 7.512368332440492402, 0.000000000000000000 ) ) ;
#84 = ORIENTED_EDGE ( 'NONE', *, *, #286, .F. ) ;
#85 = VECTOR ( 'NONE', #388, 1000.000000000000000 ) ;
#86 = CARTESIAN_POINT ( 'NONE',  ( 0.000000000000000000, 4.499999999999997335, 0.000000000000000000 ) ) ;
#87 = ORIENTED_EDGE ( 'NONE', *, *, #89, .T. ) ;
#88 = FACE_OUTER_BOUND ( 'NONE', #57, .T. ) ;
#89 = EDGE_CURVE ( 'NONE', #128, #59, #233, .T. ) ;
#90 = CARTESIAN_POINT ( 'NONE',  ( -8.500000000000000000, 14.69999999999999929, 10.00000000000000000 ) ) ;
#91 = VERTEX_POINT ( 'NONE', #395 ) ;
#92 = PRODUCT ( 'Fin', 'Fin', '', ( #164 ) ) ;
#93 = LINE ( 'NONE', #53, #406 ) ;
#94 = CIRCLE ( 'NONE', #187, 10.70000000000000107 ) ;
#95 = EDGE_LOOP ( 'NONE', ( #49, #11, #69, #43 ) ) ;
#96 = AXIS2_PLACEMENT_3D ( 'NONE', #448, #97, #296 ) ;
#97 = DIRECTION ( 'NONE',  ( -0.000000000000000000, -0.000000000000000000, 1.000000000000000000 ) ) ;
#98 = ADVANCED_FACE ( 'NONE', ( #390 ), #125, .T. ) ;
#99 = ORIENTED_EDGE ( 'NONE', *, *, #297, .F. ) ;
#100 = EDGE_CURVE ( 'NONE', #213, #337, #200, .T. ) ;
#101 = CARTESIAN_POINT ( 'NONE',  ( -20.72480143750138026, 4.743627721345322179, 0.000000000000000000 ) ) ;
#102 = VERTEX_POINT ( 'NONE', #38 ) ;
#103 = FACE_BOUND ( 'NONE', #460, .T. ) ;
#104 = EDGE_LOOP ( 'NONE', ( #473, #25, #453, #366 ) ) ;
#105 = CARTESIAN_POINT ( 'NONE',  ( -8.500000000000000000, 14.69999999999999929, 10.00000000000000000 ) ) ;
#106 = EDGE_LOOP ( 'NONE', ( #186, #54, #84, #27 ) ) ;
#107 = UNCERTAINTY_MEASURE_WITH_UNIT (LENGTH_MEASURE( 1.000000000000000082E-05 ), #155, 'distance_accuracy_value', 'NONE');
#108 = ADVANCED_FACE ( 'NONE', ( #350 ), #430, .F. ) ;
#109 = CARTESIAN_POINT ( 'NONE',  ( -21.02480143750138097, 4.743627721345322179, 0.000000000000000000 ) ) ;
#110 = ORIENTED_EDGE ( 'NONE', *, *, #318, .F. ) ;
#111 =( NAMED_UNIT ( * ) PLANE_ANGLE_UNIT ( ) SI_UNIT ( $, .RADIAN. ) );
#112 = CARTESIAN_POINT ( 'NONE',  ( -8.500000000000000000, 14.69999999999999929, 0.000000000000000000 ) ) ;
#113 = VECTOR ( 'NONE', #336, 1000.000000000000000 ) ;
#114 = DIRECTION ( 'NONE',  ( 1.000000000000000000, 0.000000000000000000, 0.000000000000000000 ) ) ;
#115 = LINE ( 'NONE', #311, #129 ) ;
#116 = EDGE_CURVE ( 'NONE', #384, #51, #160, .T. ) ;
#117 = EDGE_CURVE ( 'NONE', #47, #321, #161, .T. ) ;
#118 = ORIENTED_EDGE ( 'NONE', *, *, #372, .F. ) ;
#119 = LINE ( 'NONE', #194, #55 ) ;
#120 = CARTESIAN_POINT ( 'NONE',  ( -20.02480143750138097, 7.402842250088774279, 0.000000000000000000 ) ) ;
#121 = AXIS2_PLACEMENT_3D ( 'NONE', #90, #50, #48 ) ;
#122 = CARTESIAN_POINT ( 'NONE',  ( -17.03873526934756555, 0.000000000000000000, 10.00000000000000000 ) ) ;
#123 = ADVANCED_FACE ( 'NONE', ( #272 ), #236, .F. ) ;
#124 = AXIS2_PLACEMENT_3D ( 'NONE', #496, #70, #303 ) ;
#125 = CYLINDRICAL_SURFACE ( 'NONE', #146, 17.00000000000000000 ) ;
#126 = CARTESIAN_POINT ( 'NONE',  ( -19.34952040423133823, 18.38404867448355873, 0.000000000000000000 ) ) ;
#127 = CARTESIAN_POINT ( 'NONE',  ( -20.72480143750138026, 7.772799828116431442, 0.000000000000000000 ) ) ;
#128 = VERTEX_POINT ( 'NONE', #1 ) ;
#129 = VECTOR ( 'NONE', #305, 1000.000000000000000 ) ;
#130 = PLANE ( 'NONE',  #210 ) ;
#131 = ADVANCED_FACE ( 'NONE', ( #307, #156 ), #214, .T. ) ;
#132 = EDGE_CURVE ( 'NONE', #257, #141, #93, .T. ) ;
#133 = CARTESIAN_POINT ( 'NONE',  ( 0.000000000000000000, 0.000000000000000000, 0.000000000000000000 ) ) ;
#134 = DIRECTION ( 'NONE',  ( -0.000000000000000000, -0.000000000000000000, -1.000000000000000000 ) ) ;
#135 = CYLINDRICAL_SURFACE ( 'NONE', #16, 0.3000000000000016542 ) ;
#136 = AXIS2_PLACEMENT_3D ( 'NONE', #105, #21, #67 ) ;
#137 = CARTESIAN_POINT ( 'NONE',  ( -17.03873526934756555, 0.000000000000000000, 0.000000000000000000 ) ) ;
#138 = ORIENTED_EDGE ( 'NONE', *, *, #201, .T. ) ;
#139 = APPLICATION_CONTEXT ( 'automotive_design' ) ;
#140 = DIRECTION ( 'NONE',  ( 0.000000000000000000, 0.000000000000000000, 1.000000000000000000 ) ) ;
#141 = VERTEX_POINT ( 'NONE', #475 ) ;
#142 = EDGE_CURVE ( 'NONE', #141, #22, #479, .T. ) ;
#143 = CARTESIAN_POINT ( 'NONE',  ( -21.02480143750138097, 4.743627721345322179, 0.000000000000000000 ) ) ;
#144 = ORIENTED_EDGE ( 'NONE', *, *, #443, .F. ) ;
#145 = CIRCLE ( 'NONE', #324, 17.00000000000000000 ) ;
#146 = AXIS2_PLACEMENT_3D ( 'NONE', #467, #422, #231 ) ;
#147 = CARTESIAN_POINT ( 'NONE',  ( -21.25964146445453551, 4.556945741120543403, 0.000000000000000000 ) ) ;
#148 = ORIENTED_EDGE ( 'NONE', *, *, #423, .F. ) ;
#149 = LINE ( 'NONE', #74, #474 ) ;
#150 = CARTESIAN_POINT ( 'NONE',  ( -24.18016822417678213, 9.628202533780971351, 10.00000000000000000 ) ) ;
#151 =( NAMED_UNIT ( * ) SI_UNIT ( $, .STERADIAN. ) SOLID_ANGLE_UNIT ( ) );
#152 = CARTESIAN_POINT ( 'NONE',  ( 0.000000000000000000, 4.499999999999997335, 10.00000000000000000 ) ) ;
#153 = AXIS2_PLACEMENT_3D ( 'NONE', #195, #37, #4 ) ;
#154 = CARTESIAN_POINT ( 'NONE',  ( -23.31209566316872994, 7.896190621046311087, 10.00000000000000000 ) ) ;
#155 =( LENGTH_UNIT ( ) NAMED_UNIT ( * ) SI_UNIT ( .MILLI., .METRE. ) );
#156 = FACE_OUTER_BOUND ( 'NONE', #261, .T. ) ;
#157 = UNCERTAINTY_MEASURE_WITH_UNIT (LENGTH_MEASURE( 1.000000000000000082E-05 ), #76, 'distance_accuracy_value', 'NONE');
#158 = EDGE_CURVE ( 'NONE', #59, #321, #94, .T. ) ;
#159 =( NAMED_UNIT ( * ) PLANE_ANGLE_UNIT ( ) SI_UNIT ( $, .RADIAN. ) );
#160 = LINE ( 'NONE', #270, #480 ) ;
#161 = CIRCLE ( 'NONE', #250, 0.3000000000000016542 ) ;
#162 = CIRCLE ( 'NONE', #333, 10.00000000000000355 ) ;
#163 = DIRECTION ( 'NONE',  ( 0.9896557080369863257, -0.1434628159134319070, 0.000000000000000000 ) ) ;
#164 = PRODUCT_CONTEXT ( 'NONE', #139, 'mechanical' ) ;
#165 = DIRECTION ( 'NONE',  ( 0.000000000000000000, 0.000000000000000000, 1.000000000000000000 ) ) ;
#166 = VERTEX_POINT ( 'NONE', #56 ) ;
#167 = CARTESIAN_POINT ( 'NONE',  ( -20.02480143750138097, 7.402842250088774279, 10.00000000000000000 ) ) ;
#168 = EDGE_CURVE ( 'NONE', #166, #445, #486, .T. ) ;
#169 = DIRECTION ( 'NONE',  ( 1.000000000000000000, 0.000000000000000000, 0.000000000000000000 ) ) ;
#170 = ORIENTED_EDGE ( 'NONE', *, *, #461, .F. ) ;
#171 = CARTESIAN_POINT ( 'NONE',  ( 0.000000000000000000, 4.499999999999997335, 10.00000000000000000 ) ) ;
#172 = ORIENTED_EDGE ( 'NONE', *, *, #2, .F. ) ;
#173 = EDGE_CURVE ( 'NONE', #128, #413, #385, .T. ) ;
#174 = FACE_OUTER_BOUND ( 'NONE', #339, .T. ) ;
#175 = ORIENTED_EDGE ( 'NONE', *, *, #191, .T. ) ;
#176 = CARTESIAN_POINT ( 'NONE',  ( -19.34952040423133823, 18.38404867448355873, 0.000000000000000000 ) ) ;
#177 = VECTOR ( 'NONE', #364, 1000.000000000000000 ) ;
#178 = VERTEX_POINT ( 'NONE', #397 ) ;
#179 = COLOUR_RGB ( '',0.7529411764705882248, 0.7529411764705882248, 0.000000000000000000 ) ;
#180 = DIRECTION ( 'NONE',  ( 1.000000000000000000, 0.000000000000000000, 0.000000000000000000 ) ) ;
#181 = ORIENTED_EDGE ( 'NONE', *, *, #454, .T. ) ;
#182 = PLANE ( 'NONE',  #5 ) ;
#183 = ADVANCED_FACE ( 'NONE', ( #88 ), #440, .F. ) ;
#184 = ORIENTED_EDGE ( 'NONE', *, *, #318, .T. ) ;
#185 = FACE_OUTER_BOUND ( 'NONE', #417, .T. ) ;
#186 = ORIENTED_EDGE ( 'NONE', *, *, #365, .T. ) ;
#187 = AXIS2_PLACEMENT_3D ( 'NONE', #245, #284, #169 ) ;
#188 = AXIS2_PLACEMENT_3D ( 'NONE', #428, #277, #432 ) ;
#189 = DIRECTION ( 'NONE',  ( 0.000000000000000000, 1.000000000000000000, 0.000000000000000000 ) ) ;
#190 = ORIENTED_EDGE ( 'NONE', *, *, #297, .T. ) ;
#191 = EDGE_CURVE ( 'NONE', #242, #141, #483, .T. ) ;
#192 = DIRECTION ( 'NONE',  ( 1.000000000000000000, -5.782411586589324901E-15, 0.000000000000000000 ) ) ;
#193 = CARTESIAN_POINT ( 'NONE',  ( -19.34952040423133823, 18.38404867448355873, 10.00000000000000000 ) ) ;
#194 = CARTESIAN_POINT ( 'NONE',  ( -20.02480143750138097, 7.402842250088774279, 10.00000000000000000 ) ) ;
#195 = CARTESIAN_POINT ( 'NONE',  ( -20.02480143750138097, 7.402842250088774279, 10.00000000000000000 ) ) ;
#196 = CIRCLE ( 'NONE', #316, 0.3000000000000016542 ) ;
#197 = CARTESIAN_POINT ( 'NONE',  ( -20.72480143750138026, 4.743627721345322179, 10.00000000000000000 ) ) ;
#198 = ADVANCED_FACE ( 'NONE', ( #252 ), #247, .F. ) ;
#199 = CARTESIAN_POINT ( 'NONE',  ( -22.93884513280076831, 8.304031412946750734, 0.000000000000000000 ) ) ;
#200 = LINE ( 'NONE', #355, #456 ) ;
#201 = EDGE_CURVE ( 'NONE', #102, #246, #446, .T. ) ;
#202 = ORIENTED_EDGE ( 'NONE', *, *, #401, .F. ) ;
#203 = LINE ( 'NONE', #320, #113 ) ;
#204 = APPLICATION_CONTEXT ( 'automotive_design' ) ;
#205 = EDGE_LOOP ( 'NONE', ( #500, #110, #381, #15 ) ) ;
#206 = DIRECTION ( 'NONE',  ( 0.000000000000000000, 0.000000000000000000, 1.000000000000000000 ) ) ;
#207 = ORIENTED_EDGE ( 'NONE', *, *, #454, .F. ) ;
#208 = DIRECTION ( 'NONE',  ( 0.000000000000000000, 0.000000000000000000, 1.000000000000000000 ) ) ;
#209 = EDGE_LOOP ( 'NONE', ( #396, #386, #181, #343 ) ) ;
#210 = AXIS2_PLACEMENT_3D ( 'NONE', #171, #444, #163 ) ;
#211 = AXIS2_PLACEMENT_3D ( 'NONE', #237, #3, #192 ) ;
#212 = DIRECTION ( 'NONE',  ( -0.000000000000000000, -0.000000000000000000, -1.000000000000000000 ) ) ;
#213 = VERTEX_POINT ( 'NONE', #441 ) ;
#214 = PLANE ( 'NONE',  #121 ) ;
#215 = ORIENTED_EDGE ( 'NONE', *, *, #117, .F. ) ;
#216 = DIRECTION ( 'NONE',  ( 1.000000000000000000, 0.000000000000000000, 0.000000000000000000 ) ) ;
#217 = ORIENTED_EDGE ( 'NONE', *, *, #365, .F. ) ;
#218 = LINE ( 'NONE', #382, #429 ) ;
#219 = AXIS2_PLACEMENT_3D ( 'NONE', #325, #436, #208 ) ;
#220 = ORIENTED_EDGE ( 'NONE', *, *, #372, .T. ) ;
#221 = EDGE_CURVE ( 'NONE', #411, #242, #362, .T. ) ;
#222 = DIRECTION ( 'NONE',  ( -0.000000000000000000, -0.000000000000000000, 1.000000000000000000 ) ) ;
#223 = ORIENTED_EDGE ( 'NONE', *, *, #173, .F. ) ;
#224 = CARTESIAN_POINT ( 'NONE',  ( -8.500000000000000000, 14.69999999999999929, 0.000000000000000000 ) ) ;
#225 = ORIENTED_EDGE ( 'NONE', *, *, #332, .T. ) ;
#226 = SURFACE_STYLE_USAGE ( .BOTH. , #36 ) ;
#227 = ORIENTED_EDGE ( 'NONE', *, *, #327, .F. ) ;
#228 = AXIS2_PLACEMENT_3D ( 'NONE', #292, #368, #288 ) ;
#229 = PRODUCT_DEFINITION ( 'UNKNOWN', '', #73, #30 ) ;
#230 = VECTOR ( 'NONE', #352, 1000.000000000000000 ) ;
#231 = DIRECTION ( 'NONE',  ( -1.000000000000000000, 0.000000000000000000, 0.000000000000000000 ) ) ;
#232 = CARTESIAN_POINT ( 'NONE',  ( 0.000000000000000000, 0.000000000000000000, 10.00000000000000000 ) ) ;
#233 = LINE ( 'NONE', #75, #85 ) ;
#234 = LINE ( 'NONE', #314, #359 ) ;
#235 = EDGE_CURVE ( 'NONE', #178, #445, #408, .T. ) ;
#236 = CYLINDRICAL_SURFACE ( 'NONE', #415, 10.00000000000000178 ) ;
#237 = CARTESIAN_POINT ( 'NONE',  ( -24.32508765877514634, 9.365527149559891740, 0.000000000000000000 ) ) ;
#238 = EDGE_CURVE ( 'NONE', #421, #178, #45, .T. ) ;
#239 = EDGE_LOOP ( 'NONE', ( #449, #35, #295, #144, #451, #433, #217 ) ) ;
#240 = DIRECTION ( 'NONE',  ( -0.000000000000000000, -0.000000000000000000, 1.000000000000000000 ) ) ;
#241 = DIRECTION ( 'NONE',  ( 0.000000000000000000, 0.000000000000000000, -1.000000000000000000 ) ) ;
#242 = VERTEX_POINT ( 'NONE', #133 ) ;
#243 = VECTOR ( 'NONE', #82, 1000.000000000000000 ) ;
#244 = AXIS2_PLACEMENT_3D ( 'NONE', #306, #504, #114 ) ;
#245 = CARTESIAN_POINT ( 'NONE',  ( -19.34952040423133823, 18.38404867448355873, 10.00000000000000000 ) ) ;
#246 = VERTEX_POINT ( 'NONE', #6 ) ;
#247 = PLANE ( 'NONE',  #399 ) ;
#248 = CARTESIAN_POINT ( 'NONE',  ( -19.34952040423133823, 18.38404867448355873, 0.000000000000000000 ) ) ;
#249 = ORIENTED_EDGE ( 'NONE', *, *, #117, .T. ) ;
#250 = AXIS2_PLACEMENT_3D ( 'NONE', #353, #347, #466 ) ;
#251 = VECTOR ( 'NONE', #189, 1000.000000000000000 ) ;
#252 = FACE_OUTER_BOUND ( 'NONE', #302, .T. ) ;
#253 = ORIENTED_EDGE ( 'NONE', *, *, #60, .T. ) ;
#254 = CYLINDRICAL_SURFACE ( 'NONE', #276, 0.3000000000000016542 ) ;
#255 = ORIENTED_EDGE ( 'NONE', *, *, #414, .T. ) ;
#256 = DIRECTION ( 'NONE',  ( -0.000000000000000000, -0.000000000000000000, 1.000000000000000000 ) ) ;
#257 = VERTEX_POINT ( 'NONE', #404 ) ;
#258 = EDGE_CURVE ( 'NONE', #66, #326, #367, .T. ) ;
#259 = CARTESIAN_POINT ( 'NONE',  ( -22.93884513280076831, 8.304031412946750734, 10.00000000000000000 ) ) ;
#260 = AXIS2_PLACEMENT_3D ( 'NONE', #248, #206, #279 ) ;
#261 = EDGE_LOOP ( 'NONE', ( #207, #138, #190, #482, #255, #478, #437 ) ) ;
#262 = DIRECTION ( 'NONE',  ( 1.000000000000000000, 0.000000000000000000, 0.000000000000000000 ) ) ;
#263 = ORIENTED_EDGE ( 'NONE', *, *, #221, .T. ) ;
#264 = FACE_OUTER_BOUND ( 'NONE', #323, .T. ) ;
#265 = ORIENTED_EDGE ( 'NONE', *, *, #470, .F. ) ;
#266 = DIRECTION ( 'NONE',  ( 1.000000000000000000, 0.000000000000000000, 0.000000000000000000 ) ) ;
#267 = DIRECTION ( 'NONE',  ( 1.000000000000000000, 0.000000000000000000, 0.000000000000000000 ) ) ;
#268 = AXIS2_PLACEMENT_3D ( 'NONE', #17, #165, #402 ) ;
#269 = PRESENTATION_STYLE_ASSIGNMENT (( #226 ) ) ;
#270 = CARTESIAN_POINT ( 'NONE',  ( -20.72480143750138026, 7.772799828116431442, 0.000000000000000000 ) ) ;
#271 = ADVANCED_BREP_SHAPE_REPRESENTATION ( 'Fin', ( #439, #7 ), #33 ) ;
#272 = FACE_OUTER_BOUND ( 'NONE', #209, .T. ) ;
#273 = ADVANCED_FACE ( 'NONE', ( #281 ), #130, .F. ) ;
#274 = DIRECTION ( 'NONE',  ( 0.000000000000000000, 0.000000000000000000, -1.000000000000000000 ) ) ;
#275 = DIRECTION ( 'NONE',  ( -0.000000000000000000, -0.000000000000000000, -1.000000000000000000 ) ) ;
#276 = AXIS2_PLACEMENT_3D ( 'NONE', #452, #334, #262 ) ;
#277 = DIRECTION ( 'NONE',  ( -0.000000000000000000, -0.000000000000000000, -1.000000000000000000 ) ) ;
#278 = LINE ( 'NONE', #150, #243 ) ;
#279 = DIRECTION ( 'NONE',  ( 1.000000000000000000, 0.000000000000000000, 0.000000000000000000 ) ) ;
#280 = EDGE_CURVE ( 'NONE', #289, #51, #434, .T. ) ;
#281 = FACE_OUTER_BOUND ( 'NONE', #405, .T. ) ;
#282 = ORIENTED_EDGE ( 'NONE', *, *, #61, .F. ) ;
#283 = AXIS2_PLACEMENT_3D ( 'NONE', #143, #256, #301 ) ;
#284 = DIRECTION ( 'NONE',  ( -0.000000000000000000, -0.000000000000000000, -1.000000000000000000 ) ) ;
#285 = ORIENTED_EDGE ( 'NONE', *, *, #380, .T. ) ;
#286 = EDGE_CURVE ( 'NONE', #213, #411, #203, .T. ) ;
#287 = PRODUCT_DEFINITION_SHAPE ( 'NONE', 'NONE',  #229 ) ;
#288 = DIRECTION ( 'NONE',  ( 1.000000000000000000, 0.000000000000000000, 0.000000000000000000 ) ) ;
#289 = VERTEX_POINT ( 'NONE', #294 ) ;
#290 = ADVANCED_FACE ( 'NONE', ( #264 ), #254, .T. ) ;
#291 = APPLICATION_PROTOCOL_DEFINITION ( 'draft international standard', 'automotive_design', 1998, #204 ) ;
#292 = CARTESIAN_POINT ( 'NONE',  ( -21.02480143750138097, 4.743627721345322179, 10.00000000000000000 ) ) ;
#293 = VECTOR ( 'NONE', #420, 1000.000000000000000 ) ;
#294 = CARTESIAN_POINT ( 'NONE',  ( -20.72480143750138026, 7.512368332440492402, 10.00000000000000000 ) ) ;
#295 = ORIENTED_EDGE ( 'NONE', *, *, #168, .T. ) ;
#296 = DIRECTION ( 'NONE',  ( 1.000000000000000000, 0.000000000000000000, 0.000000000000000000 ) ) ;
#297 = EDGE_CURVE ( 'NONE', #246, #213, #145, .T. ) ;
#298 = ORIENTED_EDGE ( 'NONE', *, *, #158, .F. ) ;
#299 = FACE_OUTER_BOUND ( 'NONE', #239, .T. ) ;
#300 = ORIENTED_EDGE ( 'NONE', *, *, #280, .T. ) ;
#301 = DIRECTION ( 'NONE',  ( 1.000000000000000000, 0.000000000000000000, 0.000000000000000000 ) ) ;
#302 = EDGE_LOOP ( 'NONE', ( #335, #253, #419, #300 ) ) ;
#303 = DIRECTION ( 'NONE',  ( 1.000000000000000000, 0.000000000000000000, 0.000000000000000000 ) ) ;
#304 = ORIENTED_EDGE ( 'NONE', *, *, #498, .T. ) ;
#305 = DIRECTION ( 'NONE',  ( -0.000000000000000000, -0.000000000000000000, -1.000000000000000000 ) ) ;
#306 = CARTESIAN_POINT ( 'NONE',  ( -8.500000000000000000, 14.69999999999999929, 0.000000000000000000 ) ) ;
#307 = FACE_BOUND ( 'NONE', #458, .T. ) ;
#308 = CLOSED_SHELL ( 'NONE', ( #98, #477, #183, #273, #108, #123, #131, #312, #373, #356, #198, #290, #331, #349, #383 ) ) ;
#309 = AXIS2_PLACEMENT_3D ( 'NONE', #109, #370, #19 ) ;
#310 = FILL_AREA_STYLE ('',( #344 ) ) ;
#311 = CARTESIAN_POINT ( 'NONE',  ( -24.60937067060942951, 9.269698295959171830, 10.00000000000000000 ) ) ;
#312 = ADVANCED_FACE ( 'NONE', ( #103, #299 ), #182, .F. ) ;
#313 = ORIENTED_EDGE ( 'NONE', *, *, #201, .F. ) ;
#314 = CARTESIAN_POINT ( 'NONE',  ( -20.02480143750138097, 7.402842250088774279, 0.000000000000000000 ) ) ;
#315 = DIRECTION ( 'NONE',  ( -0.000000000000000000, 1.000000000000000000, -0.000000000000000000 ) ) ;
#316 = AXIS2_PLACEMENT_3D ( 'NONE', #77, #427, #503 ) ;
#317 = DIRECTION ( 'NONE',  ( 1.000000000000000000, 0.000000000000000000, 0.000000000000000000 ) ) ;
#318 = EDGE_CURVE ( 'NONE', #326, #357, #62, .T. ) ;
#319 = DIRECTION ( 'NONE',  ( 1.000000000000000000, 0.000000000000000000, 0.000000000000000000 ) ) ;
#320 = CARTESIAN_POINT ( 'NONE',  ( -17.03873526934756555, 0.000000000000000000, 10.00000000000000000 ) ) ;
#321 = VERTEX_POINT ( 'NONE', #259 ) ;
#322 = DIRECTION ( 'NONE',  ( -0.9896557080369863257, 0.1434628159134319070, 0.000000000000000000 ) ) ;
#323 = EDGE_LOOP ( 'NONE', ( #313, #172, #148, #282 ) ) ;
#324 = AXIS2_PLACEMENT_3D ( 'NONE', #58, #140, #488 ) ;
#325 = CARTESIAN_POINT ( 'NONE',  ( 0.000000000000000000, 0.000000000000000000, 10.00000000000000000 ) ) ;
#326 = VERTEX_POINT ( 'NONE', #457 ) ;
#327 = EDGE_CURVE ( 'NONE', #442, #47, #218, .T. ) ;
#328 = CARTESIAN_POINT ( 'NONE',  ( 0.000000000000000000, 0.000000000000000000, 10.00000000000000000 ) ) ;
#329 = FACE_OUTER_BOUND ( 'NONE', #95, .T. ) ;
#330 = VECTOR ( 'NONE', #241, 1000.000000000000000 ) ;
#331 = ADVANCED_FACE ( 'NONE', ( #410 ), #450, .F. ) ;
#332 = EDGE_CURVE ( 'NONE', #413, #442, #393, .T. ) ;
#333 = AXIS2_PLACEMENT_3D ( 'NONE', #39, #79, #266 ) ;
#334 = DIRECTION ( 'NONE',  ( 0.000000000000000000, 0.000000000000000000, 1.000000000000000000 ) ) ;
#335 = ORIENTED_EDGE ( 'NONE', *, *, #116, .F. ) ;
#336 = DIRECTION ( 'NONE',  ( 1.000000000000000000, 0.000000000000000000, 0.000000000000000000 ) ) ;
#337 = VERTEX_POINT ( 'NONE', #137 ) ;
#338 = DIRECTION ( 'NONE',  ( 1.000000000000000000, 0.000000000000000000, -0.000000000000000000 ) ) ;
#339 = EDGE_LOOP ( 'NONE', ( #220, #184, #202, #371 ) ) ;
#340 = DIRECTION ( 'NONE',  ( 1.000000000000000000, 0.000000000000000000, 0.000000000000000000 ) ) ;
#341 = CIRCLE ( 'NONE', #80, 17.00000000000000000 ) ;
#342 =( GEOMETRIC_REPRESENTATION_CONTEXT ( 3 ) GLOBAL_UNCERTAINTY_ASSIGNED_CONTEXT ( ( #107 ) ) GLOBAL_UNIT_ASSIGNED_CONTEXT ( ( #155, #159, #502 ) ) REPRESENTATION_CONTEXT ( 'NONE', 'WORKASPACE' ) );
#343 = ORIENTED_EDGE ( 'NONE', *, *, #235, .T. ) ;
#344 = FILL_AREA_STYLE_COLOUR ( '', #179 ) ;
#345 = ORIENTED_EDGE ( 'NONE', *, *, #116, .T. ) ;
#346 = DIRECTION ( 'NONE',  ( 0.000000000000000000, -0.000000000000000000, 1.000000000000000000 ) ) ;
#347 = DIRECTION ( 'NONE',  ( -0.000000000000000000, -0.000000000000000000, -1.000000000000000000 ) ) ;
#348 = DIRECTION ( 'NONE',  ( 0.000000000000000000, 1.000000000000000000, 0.000000000000000000 ) ) ;
#349 = ADVANCED_FACE ( 'NONE', ( #185 ), #135, .F. ) ;
#350 = FACE_OUTER_BOUND ( 'NONE', #104, .T. ) ;
#351 = AXIS2_PLACEMENT_3D ( 'NONE', #412, #65, #340 ) ;
#352 = DIRECTION ( 'NONE',  ( -0.000000000000000000, 1.000000000000000000, -0.000000000000000000 ) ) ;
#353 = CARTESIAN_POINT ( 'NONE',  ( -23.03948040556439736, 8.021414106548528267, 10.00000000000000000 ) ) ;
#354 = CARTESIAN_POINT ( 'NONE',  ( 0.000000000000000000, 0.000000000000000000, 10.00000000000000000 ) ) ;
#355 = CARTESIAN_POINT ( 'NONE',  ( -17.03873526934756555, 0.000000000000000000, 10.00000000000000000 ) ) ;
#356 = ADVANCED_FACE ( 'NONE', ( #26 ), #379, .T. ) ;
#357 = VERTEX_POINT ( 'NONE', #459 ) ;
#358 = CIRCLE ( 'NONE', #136, 16.30000000000000071 ) ;
#359 = VECTOR ( 'NONE', #424, 1000.000000000000000 ) ;
#360 = CARTESIAN_POINT ( 'NONE',  ( 0.000000000000000000, 0.000000000000000000, 0.000000000000000000 ) ) ;
#361 = DIRECTION ( 'NONE',  ( -0.000000000000000000, -0.000000000000000000, -1.000000000000000000 ) ) ;
#362 = LINE ( 'NONE', #328, #44 ) ;
#363 = ORIENTED_EDGE ( 'NONE', *, *, #158, .T. ) ;
#364 = DIRECTION ( 'NONE',  ( 0.000000000000000000, 1.000000000000000000, 0.000000000000000000 ) ) ;
#365 = EDGE_CURVE ( 'NONE', #337, #242, #418, .T. ) ;
#366 = ORIENTED_EDGE ( 'NONE', *, *, #461, .T. ) ;
#367 = CIRCLE ( 'NONE', #228, 0.3000000000000016542 ) ;
#368 = DIRECTION ( 'NONE',  ( -0.000000000000000000, -0.000000000000000000, -1.000000000000000000 ) ) ;
#369 = ORIENTED_EDGE ( 'NONE', *, *, #332, .F. ) ;
#370 = DIRECTION ( 'NONE',  ( 0.000000000000000000, 0.000000000000000000, 1.000000000000000000 ) ) ;
#371 = ORIENTED_EDGE ( 'NONE', *, *, #327, .T. ) ;
#372 = EDGE_CURVE ( 'NONE', #47, #326, #358, .T. ) ;
#373 = ADVANCED_FACE ( 'NONE', ( #174 ), #28, .F. ) ;
#374 = CARTESIAN_POINT ( 'NONE',  ( -17.03873526934756555, 0.000000000000000000, 0.000000000000000000 ) ) ;
#375 = EDGE_LOOP ( 'NONE', ( #99, #378, #63, #489 ) ) ;
#376 = CIRCLE ( 'NONE', #244, 16.30000000000000071 ) ;
#377 = DIRECTION ( 'NONE',  ( -0.000000000000000000, -0.000000000000000000, 1.000000000000000000 ) ) ;
#378 = ORIENTED_EDGE ( 'NONE', *, *, #61, .T. ) ;
#379 = CYLINDRICAL_SURFACE ( 'NONE', #494, 10.70000000000000107 ) ;
#380 = EDGE_CURVE ( 'NONE', #357, #384, #495, .T. ) ;
#381 = ORIENTED_EDGE ( 'NONE', *, *, #258, .F. ) ;
#382 = CARTESIAN_POINT ( 'NONE',  ( -23.31209566316872994, 7.896190621046311087, 0.000000000000000000 ) ) ;
#383 = ADVANCED_FACE ( 'NONE', ( #329 ), #484, .F. ) ;
#384 = VERTEX_POINT ( 'NONE', #101 ) ;
#385 = CIRCLE ( 'NONE', #32, 10.70000000000000107 ) ;
#386 = ORIENTED_EDGE ( 'NONE', *, *, #2, .T. ) ;
#387 = FACE_OUTER_BOUND ( 'NONE', #106, .T. ) ;
#388 = DIRECTION ( 'NONE',  ( -0.000000000000000000, -0.000000000000000000, 1.000000000000000000 ) ) ;
#389 = PLANE ( 'NONE',  #46 ) ;
#390 = FACE_OUTER_BOUND ( 'NONE', #375, .T. ) ;
#391 = CARTESIAN_POINT ( 'NONE',  ( -20.02480143750138097, 7.402842250088774279, 10.00000000000000000 ) ) ;
#392 = CARTESIAN_POINT ( 'NONE',  ( -20.72480143750138026, 7.512368332440492402, 0.000000000000000000 ) ) ;
#393 = CIRCLE ( 'NONE', #351, 0.3000000000000016542 ) ;
#394 = DIRECTION ( 'NONE',  ( -0.000000000000000000, -0.000000000000000000, -1.000000000000000000 ) ) ;
#395 = CARTESIAN_POINT ( 'NONE',  ( -24.60937067060942951, 9.269698295959171830, 0.000000000000000000 ) ) ;
#396 = ORIENTED_EDGE ( 'NONE', *, *, #168, .F. ) ;
#397 = CARTESIAN_POINT ( 'NONE',  ( -20.02480143750138453, 8.406874950121244083, 10.00000000000000000 ) ) ;
#398 = ORIENTED_EDGE ( 'NONE', *, *, #414, .F. ) ;
#399 = AXIS2_PLACEMENT_3D ( 'NONE', #127, #319, #481 ) ;
#400 = CARTESIAN_POINT ( 'NONE',  ( 0.000000000000000000, 0.000000000000000000, 0.000000000000000000 ) ) ;
#401 = EDGE_CURVE ( 'NONE', #442, #357, #376, .T. ) ;
#402 = DIRECTION ( 'NONE',  ( 1.000000000000000000, 0.000000000000000000, 0.000000000000000000 ) ) ;
#403 = ORIENTED_EDGE ( 'NONE', *, *, #132, .T. ) ;
#404 = CARTESIAN_POINT ( 'NONE',  ( 0.000000000000000000, 4.499999999999997335, 10.00000000000000000 ) ) ;
#405 = EDGE_LOOP ( 'NONE', ( #20, #170, #29, #403 ) ) ;
#406 = VECTOR ( 'NONE', #361, 1000.000000000000000 ) ;
#407 = CIRCLE ( 'NONE', #188, 0.3000000000000016542 ) ;
#408 = LINE ( 'NONE', #14, #464 ) ;
#409 = ORIENTED_EDGE ( 'NONE', *, *, #258, .T. ) ;
#410 = FACE_OUTER_BOUND ( 'NONE', #205, .T. ) ;
#411 = VERTEX_POINT ( 'NONE', #354 ) ;
#412 = CARTESIAN_POINT ( 'NONE',  ( -23.03948040556439736, 8.021414106548528267, 0.000000000000000000 ) ) ;
#413 = VERTEX_POINT ( 'NONE', #199 ) ;
#414 = EDGE_CURVE ( 'NONE', #411, #257, #426, .T. ) ;
#415 = AXIS2_PLACEMENT_3D ( 'NONE', #193, #501, #41 ) ;
#416 = DIRECTION ( 'NONE',  ( -0.000000000000000000, -0.000000000000000000, 1.000000000000000000 ) ) ;
#417 = EDGE_LOOP ( 'NONE', ( #369, #265, #215, #227 ) ) ;
#418 = LINE ( 'NONE', #374, #72 ) ;
#419 = ORIENTED_EDGE ( 'NONE', *, *, #455, .T. ) ;
#420 = DIRECTION ( 'NONE',  ( 0.000000000000000000, 0.000000000000000000, -1.000000000000000000 ) ) ;
#421 = VERTEX_POINT ( 'NONE', #391 ) ;
#422 = DIRECTION ( 'NONE',  ( -0.000000000000000000, -0.000000000000000000, -1.000000000000000000 ) ) ;
#423 = EDGE_CURVE ( 'NONE', #91, #166, #487, .T. ) ;
#424 = DIRECTION ( 'NONE',  ( 0.000000000000000000, 1.000000000000000000, 0.000000000000000000 ) ) ;
#425 = LINE ( 'NONE', #197, #472 ) ;
#426 = LINE ( 'NONE', #232, #251 ) ;
#427 = DIRECTION ( 'NONE',  ( 0.000000000000000000, 0.000000000000000000, 1.000000000000000000 ) ) ;
#428 = CARTESIAN_POINT ( 'NONE',  ( -21.02480143750138097, 7.512368332440492402, 10.00000000000000000 ) ) ;
#429 = VECTOR ( 'NONE', #416, 1000.000000000000000 ) ;
#430 = PLANE ( 'NONE',  #153 ) ;
#431 = VECTOR ( 'NONE', #78, 1000.000000000000227 ) ;
#432 = DIRECTION ( 'NONE',  ( 1.000000000000000000, -2.891205793294662451E-15, 0.000000000000000000 ) ) ;
#433 = ORIENTED_EDGE ( 'NONE', *, *, #191, .F. ) ;
#434 = LINE ( 'NONE', #83, #330 ) ;
#435 = ORIENTED_EDGE ( 'NONE', *, *, #401, .T. ) ;
#436 = DIRECTION ( 'NONE',  ( -1.000000000000000000, 0.000000000000000000, 0.000000000000000000 ) ) ;
#437 = ORIENTED_EDGE ( 'NONE', *, *, #238, .T. ) ;
#438 = VECTOR ( 'NONE', #322, 1000.000000000000227 ) ;
#439 = MANIFOLD_SOLID_BREP ( '\X2\ff8cff68ff9aff6fff84\X0\2', #308 ) ;
#440 = PLANE ( 'NONE',  #219 ) ;
#441 = CARTESIAN_POINT ( 'NONE',  ( -17.03873526934756555, 0.000000000000000000, 10.00000000000000000 ) ) ;
#442 = VERTEX_POINT ( 'NONE', #463 ) ;
#443 = EDGE_CURVE ( 'NONE', #22, #445, #234, .T. ) ;
#444 = DIRECTION ( 'NONE',  ( -0.1434628159134319347, -0.9896557080369864368, 0.000000000000000000 ) ) ;
#445 = VERTEX_POINT ( 'NONE', #471 ) ;
#446 = CIRCLE ( 'NONE', #268, 0.3000000000000016542 ) ;
#447 = PRESENTATION_LAYER_ASSIGNMENT (  '', '', ( #23 ) ) ;
#448 = CARTESIAN_POINT ( 'NONE',  ( -21.02480143750138097, 7.512368332440492402, 0.000000000000000000 ) ) ;
#449 = ORIENTED_EDGE ( 'NONE', *, *, #68, .F. ) ;
#450 = CYLINDRICAL_SURFACE ( 'NONE', #283, 0.3000000000000016542 ) ;
#451 = ORIENTED_EDGE ( 'NONE', *, *, #142, .F. ) ;
#452 = CARTESIAN_POINT ( 'NONE',  ( -24.32508765877514634, 9.365527149559891740, 10.00000000000000000 ) ) ;
#453 = ORIENTED_EDGE ( 'NONE', *, *, #238, .F. ) ;
#454 = EDGE_CURVE ( 'NONE', #102, #178, #162, .T. ) ;
#455 = EDGE_CURVE ( 'NONE', #66, #289, #499, .T. ) ;
#456 = VECTOR ( 'NONE', #275, 1000.000000000000000 ) ;
#457 = CARTESIAN_POINT ( 'NONE',  ( -21.25964146445453196, 4.556945741120545179, 10.00000000000000000 ) ) ;
#458 = EDGE_LOOP ( 'NONE', ( #118, #249, #298, #304, #18, #409 ) ) ;
#459 = CARTESIAN_POINT ( 'NONE',  ( -21.25964146445453196, 4.556945741120545179, 0.000000000000000000 ) ) ;
#460 = EDGE_LOOP ( 'NONE', ( #345, #493, #485, #225, #435, #285 ) ) ;
#461 = EDGE_CURVE ( 'NONE', #421, #22, #119, .T. ) ;
#462 = CARTESIAN_POINT ( 'NONE',  ( -20.72480143750138026, 4.743627721345322179, 10.00000000000000000 ) ) ;
#463 = CARTESIAN_POINT ( 'NONE',  ( -23.31209566316872994, 7.896190621046311087, 0.000000000000000000 ) ) ;
#464 = VECTOR ( 'NONE', #134, 1000.000000000000000 ) ;
#465 = MECHANICAL_DESIGN_GEOMETRIC_PRESENTATION_REPRESENTATION (  '', ( #23 ), #342 ) ;
#466 = DIRECTION ( 'NONE',  ( 1.000000000000000000, -5.782411586589324901E-15, 0.000000000000000000 ) ) ;
#467 = CARTESIAN_POINT ( 'NONE',  ( -8.500000000000000000, 14.69999999999999929, 10.00000000000000000 ) ) ;
#468 = CARTESIAN_POINT ( 'NONE',  ( -20.72480143750138026, 7.772799828116431442, 10.00000000000000000 ) ) ;
#469 = DIRECTION ( 'NONE',  ( 0.000000000000000000, 0.000000000000000000, 1.000000000000000000 ) ) ;
#470 = EDGE_CURVE ( 'NONE', #321, #413, #149, .T. ) ;
#471 = CARTESIAN_POINT ( 'NONE',  ( -20.02480143750138453, 8.406874950121244083, 0.000000000000000000 ) ) ;
#472 = VECTOR ( 'NONE', #240, 1000.000000000000000 ) ;
#473 = ORIENTED_EDGE ( 'NONE', *, *, #443, .T. ) ;
#474 = VECTOR ( 'NONE', #274, 1000.000000000000000 ) ;
#475 = CARTESIAN_POINT ( 'NONE',  ( 0.000000000000000000, 4.499999999999997335, 0.000000000000000000 ) ) ;
#476 = DIRECTION ( 'NONE',  ( 1.000000000000000000, 0.000000000000000000, 0.000000000000000000 ) ) ;
#477 = ADVANCED_FACE ( 'NONE', ( #387 ), #389, .F. ) ;
#478 = ORIENTED_EDGE ( 'NONE', *, *, #40, .T. ) ;
#479 = LINE ( 'NONE', #86, #438 ) ;
#480 = VECTOR ( 'NONE', #315, 1000.000000000000000 ) ;
#481 = DIRECTION ( 'NONE',  ( 0.000000000000000000, 0.000000000000000000, -1.000000000000000000 ) ) ;
#482 = ORIENTED_EDGE ( 'NONE', *, *, #286, .T. ) ;
#483 = LINE ( 'NONE', #400, #64 ) ;
#484 = CYLINDRICAL_SURFACE ( 'NONE', #96, 0.3000000000000016542 ) ;
#485 = ORIENTED_EDGE ( 'NONE', *, *, #173, .T. ) ;
#486 = CIRCLE ( 'NONE', #260, 10.00000000000000355 ) ;
#487 = CIRCLE ( 'NONE', #211, 0.3000000000000016542 ) ;
#488 = DIRECTION ( 'NONE',  ( 1.000000000000000000, 0.000000000000000000, 0.000000000000000000 ) ) ;
#489 = ORIENTED_EDGE ( 'NONE', *, *, #100, .F. ) ;
#490 = DIRECTION ( 'NONE',  ( 0.000000000000000000, 0.000000000000000000, 1.000000000000000000 ) ) ;
#491 = EDGE_LOOP ( 'NONE', ( #363, #71, #223, #87 ) ) ;
#492 = DIRECTION ( 'NONE',  ( 1.000000000000000000, 0.000000000000000000, 0.000000000000000000 ) ) ;
#493 = ORIENTED_EDGE ( 'NONE', *, *, #9, .T. ) ;
#494 = AXIS2_PLACEMENT_3D ( 'NONE', #176, #377, #180 ) ;
#495 = CIRCLE ( 'NONE', #309, 0.3000000000000016542 ) ;
#496 = CARTESIAN_POINT ( 'NONE',  ( -8.500000000000000000, 14.69999999999999929, 0.000000000000000000 ) ) ;
#497 = ORIENTED_EDGE ( 'NONE', *, *, #132, .F. ) ;
#498 = EDGE_CURVE ( 'NONE', #59, #289, #407, .T. ) ;
#499 = LINE ( 'NONE', #468, #230 ) ;
#500 = ORIENTED_EDGE ( 'NONE', *, *, #380, .F. ) ;
#501 = DIRECTION ( 'NONE',  ( -0.000000000000000000, -0.000000000000000000, -1.000000000000000000 ) ) ;
#502 =( NAMED_UNIT ( * ) SI_UNIT ( $, .STERADIAN. ) SOLID_ANGLE_UNIT ( ) );
#503 = DIRECTION ( 'NONE',  ( 1.000000000000000000, 0.000000000000000000, 0.000000000000000000 ) ) ;
#504 = DIRECTION ( 'NONE',  ( 0.000000000000000000, 0.000000000000000000, 1.000000000000000000 ) ) ;
ENDSEC;
END-ISO-10303-21;
